<svg width="16" height="16" viewBox="0 0 16 16" fill="none" xmlns="http://www.w3.org/2000/svg">
<g clip-path="url(#clip0_331_5363)">
<path d="M7.99967 13.3334C9.41416 13.3334 10.7707 12.7715 11.7709 11.7713C12.7711 10.7711 13.333 9.41453 13.333 8.00004C13.333 6.58555 12.7711 5.229 11.7709 4.2288C10.7707 3.22861 9.41416 2.66671 7.99967 2.66671M7.99967 13.3334C6.58519 13.3334 5.22863 12.7715 4.22844 11.7713C3.22824 10.7711 2.66634 9.41453 2.66634 8.00004M7.99967 13.3334V14.6667M7.99967 2.66671C6.58519 2.66671 5.22863 3.22861 4.22844 4.2288C3.22824 5.229 2.66634 6.58555 2.66634 8.00004M7.99967 2.66671V1.33337M2.66634 8.00004H1.33301M9.33301 8.00004C9.33301 8.35366 9.19253 8.6928 8.94248 8.94285C8.69243 9.1929 8.3533 9.33337 7.99967 9.33337C7.64605 9.33337 7.30691 9.1929 7.05687 8.94285C6.80682 8.6928 6.66634 8.35366 6.66634 8.00004C6.66634 7.64642 6.80682 7.30728 7.05687 7.05723C7.30691 6.80718 7.64605 6.66671 7.99967 6.66671C8.3533 6.66671 8.69243 6.80718 8.94248 7.05723C9.19253 7.30728 9.33301 7.64642 9.33301 8.00004ZM9.33301 8.00004H14.6663M11.333 13.7734L10.6663 12.6201M7.33301 6.84668L4.66634 2.22668M13.773 11.3334L12.6196 10.6667M2.2264 4.66671L3.37973 5.33337M13.773 4.66671L12.6196 5.33337M2.2264 11.3334L3.37973 10.6667M11.333 2.22668L10.6663 3.38002M7.33301 9.15336L4.66634 13.7734" stroke="#505F79" stroke-width="1.2" stroke-linecap="round" stroke-linejoin="round"/>
</g>
<defs>
<clipPath id="clip0_331_5363">
<rect width="16" height="16" fill="white"/>
</clipPath>
</defs>
</svg>
