<svg width="84" height="84" viewBox="0 0 84 84" fill="none" xmlns="http://www.w3.org/2000/svg">
<path d="M82.7051 37.4543C84.4316 40.4448 84.4316 44.1293 82.7051 47.1199L66.5379 75.1223C64.8113 78.1128 61.6204 79.9551 58.1672 79.9551H25.8328C22.3796 79.9551 19.1887 78.1128 17.4621 75.1223L1.29495 47.1199C-0.431649 44.1293 -0.43165 40.4448 1.29495 37.4543L17.4621 9.45186C19.1887 6.46131 22.3796 4.61906 25.8328 4.61906L58.1672 4.61906C61.6204 4.61906 64.8113 6.46131 66.5379 9.45187L82.7051 37.4543Z" fill="url(#paint0_linear_27_72)"/>
<path d="M79.8818 58.1672C79.8818 61.6204 78.0395 64.8113 75.049 66.5379L47.0466 82.705C44.056 84.4316 40.3715 84.4316 37.3809 82.705L9.37854 66.5378C6.38799 64.8113 4.54574 61.6204 4.54574 58.1672V25.8328C4.54574 22.3796 6.38799 19.1887 9.37854 17.4621L37.3809 1.29495C40.3715 -0.43165 44.056 -0.431648 47.0466 1.29495L75.049 17.4621C78.0395 19.1887 79.8818 22.3796 79.8818 25.8328V58.1672Z" fill="url(#paint1_linear_27_72)"/>
<path d="M23.9149 37.216C22.9909 37.216 22.1929 37.054 21.5209 36.73C20.8609 36.406 20.3389 35.962 19.9549 35.398C19.5829 34.822 19.3669 34.174 19.3069 33.454H21.5569C21.6649 33.97 21.9289 34.402 22.3489 34.75C22.7689 35.086 23.2909 35.254 23.9149 35.254C24.5869 35.254 25.1329 35.008 25.5529 34.516C25.9849 34.024 26.2009 33.412 26.2009 32.68C26.2009 31.924 25.9849 31.324 25.5529 30.88C25.1329 30.436 24.5989 30.214 23.9509 30.214C23.4109 30.214 22.9429 30.346 22.5469 30.61C22.1509 30.874 21.8689 31.204 21.7009 31.6H19.4869L20.5669 24.4H27.5509V26.416H22.2949L21.7189 29.332C21.9829 29.044 22.3429 28.81 22.7989 28.63C23.2549 28.438 23.7649 28.342 24.3289 28.342C25.2289 28.342 25.9789 28.546 26.5789 28.954C27.1789 29.35 27.6349 29.878 27.9469 30.538C28.2589 31.186 28.4149 31.894 28.4149 32.662C28.4149 33.538 28.2229 34.318 27.8389 35.002C27.4669 35.686 26.9389 36.226 26.2549 36.622C25.5829 37.018 24.8029 37.216 23.9149 37.216ZM35.725 37.216C34.561 37.216 33.565 36.946 32.737 36.406C31.909 35.854 31.267 35.092 30.811 34.12C30.367 33.136 30.145 31.996 30.145 30.7C30.145 29.416 30.367 28.282 30.811 27.298C31.267 26.314 31.909 25.552 32.737 25.012C33.565 24.46 34.561 24.184 35.725 24.184C36.889 24.184 37.885 24.46 38.713 25.012C39.541 25.552 40.177 26.314 40.621 27.298C41.077 28.282 41.305 29.416 41.305 30.7C41.305 31.996 41.077 33.136 40.621 34.12C40.177 35.092 39.541 35.854 38.713 36.406C37.885 36.946 36.889 37.216 35.725 37.216ZM35.725 35.146C36.673 35.146 37.447 34.75 38.047 33.958C38.647 33.166 38.947 32.08 38.947 30.7C38.947 29.32 38.647 28.234 38.047 27.442C37.447 26.65 36.673 26.254 35.725 26.254C34.765 26.254 33.985 26.65 33.385 27.442C32.797 28.234 32.503 29.32 32.503 30.7C32.503 32.08 32.797 33.166 33.385 33.958C33.985 34.75 34.765 35.146 35.725 35.146ZM48.5043 37.216C47.3403 37.216 46.3443 36.946 45.5163 36.406C44.6883 35.854 44.0463 35.092 43.5903 34.12C43.1463 33.136 42.9243 31.996 42.9243 30.7C42.9243 29.416 43.1463 28.282 43.5903 27.298C44.0463 26.314 44.6883 25.552 45.5163 25.012C46.3443 24.46 47.3403 24.184 48.5043 24.184C49.6683 24.184 50.6643 24.46 51.4923 25.012C52.3203 25.552 52.9563 26.314 53.4003 27.298C53.8563 28.282 54.0843 29.416 54.0843 30.7C54.0843 31.996 53.8563 33.136 53.4003 34.12C52.9563 35.092 52.3203 35.854 51.4923 36.406C50.6643 36.946 49.6683 37.216 48.5043 37.216ZM48.5043 35.146C49.4523 35.146 50.2263 34.75 50.8263 33.958C51.4263 33.166 51.7263 32.08 51.7263 30.7C51.7263 29.32 51.4263 28.234 50.8263 27.442C50.2263 26.65 49.4523 26.254 48.5043 26.254C47.5443 26.254 46.7643 26.65 46.1643 27.442C45.5763 28.234 45.2823 29.32 45.2823 30.7C45.2823 32.08 45.5763 33.166 46.1643 33.958C46.7643 34.75 47.5443 35.146 48.5043 35.146ZM56.1176 37V24.4H60.7796C61.7876 24.4 62.6216 24.568 63.2816 24.904C63.9416 25.24 64.4336 25.702 64.7576 26.29C65.0816 26.878 65.2436 27.538 65.2436 28.27C65.2436 28.966 65.0876 29.608 64.7756 30.196C64.4636 30.772 63.9776 31.24 63.3176 31.6C62.6576 31.948 61.8116 32.122 60.7796 32.122H58.4216V37H56.1176ZM58.4216 30.25H60.6356C61.4396 30.25 62.0156 30.076 62.3636 29.728C62.7236 29.368 62.9036 28.882 62.9036 28.27C62.9036 27.646 62.7236 27.16 62.3636 26.812C62.0156 26.452 61.4396 26.272 60.6356 26.272H58.4216V30.25Z" fill="white"/>
<path opacity="0.9" d="M28.2752 56V46.2H34.6732V47.642H30.0672V50.33H34.2532V51.73H30.0672V54.558H34.6732V56H28.2752ZM36.327 59.08V49.056H37.923L38.119 50.05C38.343 49.742 38.637 49.4713 39.001 49.238C39.3743 49.0047 39.855 48.888 40.443 48.888C41.0963 48.888 41.6797 49.0467 42.193 49.364C42.7063 49.6813 43.1123 50.1153 43.411 50.666C43.7097 51.2167 43.859 51.842 43.859 52.542C43.859 53.242 43.7097 53.8673 43.411 54.418C43.1123 54.9593 42.7063 55.3887 42.193 55.706C41.6797 56.014 41.0963 56.168 40.443 56.168C39.9203 56.168 39.463 56.07 39.071 55.874C38.679 55.678 38.3617 55.4027 38.119 55.048V59.08H36.327ZM40.065 54.6C40.6343 54.6 41.1057 54.4087 41.479 54.026C41.8523 53.6433 42.039 53.1487 42.039 52.542C42.039 51.9353 41.8523 51.436 41.479 51.044C41.1057 50.652 40.6343 50.456 40.065 50.456C39.4863 50.456 39.0103 50.652 38.637 51.044C38.273 51.4267 38.091 51.9213 38.091 52.528C38.091 53.1347 38.273 53.634 38.637 54.026C39.0103 54.4087 39.4863 54.6 40.065 54.6ZM46.4258 47.978C46.0991 47.978 45.8285 47.88 45.6138 47.684C45.4085 47.488 45.3058 47.2407 45.3058 46.942C45.3058 46.6433 45.4085 46.4007 45.6138 46.214C45.8285 46.018 46.0991 45.92 46.4258 45.92C46.7525 45.92 47.0185 46.018 47.2238 46.214C47.4385 46.4007 47.5458 46.6433 47.5458 46.942C47.5458 47.2407 47.4385 47.488 47.2238 47.684C47.0185 47.88 46.7525 47.978 46.4258 47.978ZM45.5298 56V49.056H47.3218V56H45.5298ZM52.5942 56.168C51.8849 56.168 51.2596 56.014 50.7182 55.706C50.1769 55.398 49.7476 54.9687 49.4302 54.418C49.1222 53.8673 48.9682 53.2373 48.9682 52.528C48.9682 51.8187 49.1222 51.1887 49.4302 50.638C49.7476 50.0873 50.1769 49.658 50.7182 49.35C51.2596 49.042 51.8849 48.888 52.5942 48.888C53.4809 48.888 54.2276 49.1213 54.8342 49.588C55.4409 50.0453 55.8282 50.68 55.9962 51.492H54.1062C54.0129 51.156 53.8262 50.8947 53.5462 50.708C53.2756 50.512 52.9536 50.414 52.5802 50.414C52.0856 50.414 51.6656 50.6007 51.3202 50.974C50.9749 51.3473 50.8022 51.8653 50.8022 52.528C50.8022 53.1907 50.9749 53.7087 51.3202 54.082C51.6656 54.4553 52.0856 54.642 52.5802 54.642C52.9536 54.642 53.2756 54.5487 53.5462 54.362C53.8262 54.1753 54.0129 53.9093 54.1062 53.564H55.9962C55.8282 54.348 55.4409 54.978 54.8342 55.454C54.2276 55.93 53.4809 56.168 52.5942 56.168Z" fill="white"/>
<defs>
<linearGradient id="paint0_linear_27_72" x1="42" y1="0" x2="42" y2="84" gradientUnits="userSpaceOnUse">
<stop stop-color="#FEC219"/>
<stop offset="1" stop-color="#8A712A"/>
</linearGradient>
<linearGradient id="paint1_linear_27_72" x1="42" y1="0" x2="42" y2="84" gradientUnits="userSpaceOnUse">
<stop stop-color="#FEC219"/>
<stop offset="1" stop-color="#8A712A"/>
</linearGradient>
</defs>
</svg>
