<svg width="33" height="32" viewBox="0 0 33 32" fill="none" xmlns="http://www.w3.org/2000/svg">
<path d="M24.4998 16.6667V13.3333C24.4998 12.6261 24.2189 11.9478 23.7188 11.4477C23.2187 10.9476 22.5404 10.6667 21.8332 10.6667C21.1259 10.6667 20.4477 10.9476 19.9476 11.4477C19.4475 11.9478 19.1665 12.6261 19.1665 13.3333V15.2M19.1665 14.6667V12C19.1665 11.2928 18.8856 10.6145 18.3855 10.1144C17.8854 9.61428 17.2071 9.33333 16.4998 9.33333C15.7926 9.33333 15.1143 9.61428 14.6142 10.1144C14.1141 10.6145 13.8332 11.2928 13.8332 12V14.6667M13.8332 14V6.66667C13.8332 5.95942 13.5522 5.28115 13.0521 4.78105C12.552 4.28095 11.8737 4 11.1665 4C10.4593 4 9.78098 4.28095 9.28089 4.78105C8.78079 5.28115 8.49984 5.95942 8.49984 6.66667V18.6667M9.83331 20L7.48664 17.6533C6.98019 17.1928 6.31603 16.9446 5.63167 16.9603C4.94731 16.9759 4.29517 17.2541 3.81027 17.7373C3.32537 18.2205 3.04486 18.8716 3.02681 19.5559C3.00876 20.2402 3.25456 20.9053 3.71331 21.4133L8.51331 26.2133C10.5 28.1867 12.7666 29.3333 16.5 29.3333H19.1666C21.9956 29.3333 24.7087 28.2095 26.7091 26.2091C28.7095 24.2088 29.8333 21.4956 29.8333 18.6667V9.33333C29.8333 8.62609 29.5524 7.94781 29.0523 7.44772C28.5522 6.94762 27.8739 6.66667 27.1666 6.66667C26.4594 6.66667 25.7811 6.94762 25.281 7.44772C24.7809 7.94781 24.5 8.62609 24.5 9.33333V16" stroke="#7A8699" stroke-width="2" stroke-linecap="round" stroke-linejoin="round"/>
</svg>
