<svg width="18" height="18" viewBox="0 0 18 18" fill="none" xmlns="http://www.w3.org/2000/svg">
<path d="M1.5 9C1.5 10.4834 1.93987 11.9334 2.76398 13.1668C3.58809 14.4001 4.75943 15.3614 6.12987 15.9291C7.50032 16.4968 9.00832 16.6453 10.4632 16.3559C11.918 16.0665 13.2544 15.3522 14.3033 14.3033C15.3522 13.2544 16.0665 11.918 16.3559 10.4632C16.6453 9.00832 16.4968 7.50032 15.9291 6.12987C15.3614 4.75943 14.4001 3.58809 13.1668 2.76398C11.9334 1.93987 10.4834 1.5 9 1.5C6.90329 1.50789 4.89081 2.32602 3.38333 3.78333L1.5 5.66667M1.5 5.66667V1.5M1.5 5.66667H5.66667M9 4.83333V9L12.3333 10.6667" stroke="#B3005E" stroke-width="1.6" stroke-linecap="round" stroke-linejoin="round"/>
</svg>
