<svg width="20" height="20" viewBox="0 0 20 20" fill="none" xmlns="http://www.w3.org/2000/svg">
<path d="M4.02317 17.5L4.0065 17.5167L3.989 17.5H2.49317C2.27385 17.4998 2.06358 17.4125 1.90858 17.2573C1.75357 17.1022 1.6665 16.8918 1.6665 16.6725V3.3275C1.66803 3.10865 1.75559 2.89918 1.91026 2.74435C2.06494 2.58951 2.27432 2.50175 2.49317 2.5H17.5065C17.9632 2.5 18.3332 2.87083 18.3332 3.3275V16.6725C18.3316 16.8914 18.2441 17.1008 18.0894 17.2557C17.9347 17.4105 17.7254 17.4983 17.5065 17.5H4.02317ZM16.6665 12.5V4.16667H3.33317V15.8333L11.6665 7.5L16.6665 12.5ZM16.6665 14.8567L11.6665 9.85667L5.68984 15.8333H16.6665V14.8567ZM6.6665 9.16667C6.22448 9.16667 5.80055 8.99107 5.48799 8.67851C5.17543 8.36595 4.99984 7.94203 4.99984 7.5C4.99984 7.05797 5.17543 6.63405 5.48799 6.32149C5.80055 6.00893 6.22448 5.83333 6.6665 5.83333C7.10853 5.83333 7.53245 6.00893 7.84502 6.32149C8.15758 6.63405 8.33317 7.05797 8.33317 7.5C8.33317 7.94203 8.15758 8.36595 7.84502 8.67851C7.53245 8.99107 7.10853 9.16667 6.6665 9.16667Z" fill="#505F79"/>
</svg>
