<svg width="84" height="84" viewBox="0 0 84 84" fill="none" xmlns="http://www.w3.org/2000/svg">
<path d="M82.7051 37.4543C84.4316 40.4448 84.4316 44.1293 82.7051 47.1199L66.5379 75.1223C64.8113 78.1128 61.6204 79.9551 58.1672 79.9551H25.8328C22.3796 79.9551 19.1887 78.1128 17.4621 75.1223L1.29495 47.1199C-0.431649 44.1293 -0.43165 40.4448 1.29495 37.4543L17.4621 9.45186C19.1887 6.46131 22.3796 4.61906 25.8328 4.61906L58.1672 4.61906C61.6204 4.61906 64.8113 6.46131 66.5379 9.45187L82.7051 37.4543Z" fill="url(#paint0_linear_27_65)"/>
<path d="M79.8818 58.1672C79.8818 61.6204 78.0395 64.8113 75.049 66.5379L47.0466 82.705C44.056 84.4316 40.3715 84.4316 37.3809 82.705L9.37854 66.5378C6.38799 64.8113 4.54574 61.6204 4.54574 58.1672V25.8328C4.54574 22.3796 6.38799 19.1887 9.37854 17.4621L37.3809 1.29495C40.3715 -0.43165 44.056 -0.431648 47.0466 1.29495L75.049 17.4621C78.0395 19.1887 79.8818 22.3796 79.8818 25.8328V58.1672Z" fill="url(#paint1_linear_27_65)"/>
<path d="M23.2434 37V27.028L21.1734 27.514V25.75L24.2154 24.4H25.6374V37H23.2434ZM33.2464 37.216C32.0824 37.216 31.0864 36.946 30.2584 36.406C29.4304 35.854 28.7884 35.092 28.3324 34.12C27.8884 33.136 27.6664 31.996 27.6664 30.7C27.6664 29.416 27.8884 28.282 28.3324 27.298C28.7884 26.314 29.4304 25.552 30.2584 25.012C31.0864 24.46 32.0824 24.184 33.2464 24.184C34.4104 24.184 35.4064 24.46 36.2344 25.012C37.0624 25.552 37.6984 26.314 38.1424 27.298C38.5984 28.282 38.8264 29.416 38.8264 30.7C38.8264 31.996 38.5984 33.136 38.1424 34.12C37.6984 35.092 37.0624 35.854 36.2344 36.406C35.4064 36.946 34.4104 37.216 33.2464 37.216ZM33.2464 35.146C34.1944 35.146 34.9684 34.75 35.5684 33.958C36.1684 33.166 36.4684 32.08 36.4684 30.7C36.4684 29.32 36.1684 28.234 35.5684 27.442C34.9684 26.65 34.1944 26.254 33.2464 26.254C32.2864 26.254 31.5064 26.65 30.9064 27.442C30.3184 28.234 30.0244 29.32 30.0244 30.7C30.0244 32.08 30.3184 33.166 30.9064 33.958C31.5064 34.75 32.2864 35.146 33.2464 35.146ZM46.0257 37.216C44.8617 37.216 43.8657 36.946 43.0377 36.406C42.2097 35.854 41.5677 35.092 41.1117 34.12C40.6677 33.136 40.4457 31.996 40.4457 30.7C40.4457 29.416 40.6677 28.282 41.1117 27.298C41.5677 26.314 42.2097 25.552 43.0377 25.012C43.8657 24.46 44.8617 24.184 46.0257 24.184C47.1897 24.184 48.1857 24.46 49.0137 25.012C49.8417 25.552 50.4777 26.314 50.9217 27.298C51.3777 28.282 51.6057 29.416 51.6057 30.7C51.6057 31.996 51.3777 33.136 50.9217 34.12C50.4777 35.092 49.8417 35.854 49.0137 36.406C48.1857 36.946 47.1897 37.216 46.0257 37.216ZM46.0257 35.146C46.9737 35.146 47.7477 34.75 48.3477 33.958C48.9477 33.166 49.2477 32.08 49.2477 30.7C49.2477 29.32 48.9477 28.234 48.3477 27.442C47.7477 26.65 46.9737 26.254 46.0257 26.254C45.0657 26.254 44.2857 26.65 43.6857 27.442C43.0977 28.234 42.8037 29.32 42.8037 30.7C42.8037 32.08 43.0977 33.166 43.6857 33.958C44.2857 34.75 45.0657 35.146 46.0257 35.146ZM53.639 37V24.4H58.301C59.309 24.4 60.143 24.568 60.803 24.904C61.463 25.24 61.955 25.702 62.279 26.29C62.603 26.878 62.765 27.538 62.765 28.27C62.765 28.966 62.609 29.608 62.297 30.196C61.985 30.772 61.499 31.24 60.839 31.6C60.179 31.948 59.333 32.122 58.301 32.122H55.943V37H53.639ZM55.943 30.25H58.157C58.961 30.25 59.537 30.076 59.885 29.728C60.245 29.368 60.425 28.882 60.425 28.27C60.425 27.646 60.245 27.16 59.885 26.812C59.537 26.452 58.961 26.272 58.157 26.272H55.943V30.25Z" fill="white"/>
<path opacity="0.9" d="M21.7879 56V46.2H23.5799V50.162L27.2059 46.2H29.4179L25.8059 50.092L29.5159 56H27.3179L24.5179 51.464L23.5799 52.486V56H21.7879ZM33.182 56.168C32.314 56.168 31.642 55.8973 31.166 55.356C30.6993 54.8147 30.466 54.0213 30.466 52.976V49.056H32.244V52.808C32.244 53.4053 32.3653 53.8627 32.608 54.18C32.8506 54.4973 33.2333 54.656 33.756 54.656C34.2506 54.656 34.6566 54.4787 34.974 54.124C35.3006 53.7693 35.464 53.2747 35.464 52.64V49.056H37.256V56H35.674L35.534 54.824C35.3193 55.2347 35.0066 55.5613 34.596 55.804C34.1946 56.0467 33.7233 56.168 33.182 56.168ZM42.2875 56.168C41.6342 56.168 41.0509 56.0093 40.5375 55.692C40.0242 55.3747 39.6182 54.9407 39.3195 54.39C39.0209 53.8393 38.8715 53.214 38.8715 52.514C38.8715 51.814 39.0209 51.1933 39.3195 50.652C39.6182 50.1013 40.0242 49.672 40.5375 49.364C41.0509 49.0467 41.6342 48.888 42.2875 48.888C42.8102 48.888 43.2675 48.986 43.6595 49.182C44.0515 49.378 44.3689 49.6533 44.6115 50.008V45.92H46.4035V56H44.8075L44.6115 55.006C44.3875 55.314 44.0889 55.5847 43.7155 55.818C43.3515 56.0513 42.8755 56.168 42.2875 56.168ZM42.6655 54.6C43.2442 54.6 43.7155 54.4087 44.0795 54.026C44.4529 53.634 44.6395 53.1347 44.6395 52.528C44.6395 51.9213 44.4529 51.4267 44.0795 51.044C43.7155 50.652 43.2442 50.456 42.6655 50.456C42.0962 50.456 41.6249 50.6473 41.2515 51.03C40.8782 51.4127 40.6915 51.9073 40.6915 52.514C40.6915 53.1207 40.8782 53.62 41.2515 54.012C41.6249 54.404 42.0962 54.6 42.6655 54.6ZM51.5604 56.168C50.8884 56.168 50.2817 56.014 49.7404 55.706C49.2084 55.398 48.7837 54.9733 48.4664 54.432C48.1584 53.8813 48.0044 53.2467 48.0044 52.528C48.0044 51.8093 48.163 51.1793 48.4804 50.638C48.7977 50.0873 49.2224 49.658 49.7544 49.35C50.2957 49.042 50.9024 48.888 51.5744 48.888C52.237 48.888 52.8344 49.042 53.3664 49.35C53.9077 49.658 54.3324 50.0873 54.6404 50.638C54.9577 51.1793 55.1164 51.8093 55.1164 52.528C55.1164 53.2467 54.9577 53.8813 54.6404 54.432C54.3324 54.9733 53.9077 55.398 53.3664 55.706C52.825 56.014 52.223 56.168 51.5604 56.168ZM51.5604 54.614C52.027 54.614 52.433 54.4413 52.7784 54.096C53.1237 53.7413 53.2964 53.2187 53.2964 52.528C53.2964 51.8373 53.1237 51.3193 52.7784 50.974C52.433 50.6193 52.0317 50.442 51.5744 50.442C51.0984 50.442 50.6877 50.6193 50.3424 50.974C50.0064 51.3193 49.8384 51.8373 49.8384 52.528C49.8384 53.2187 50.0064 53.7413 50.3424 54.096C50.6877 54.4413 51.0937 54.614 51.5604 54.614ZM59.5886 56.168C58.9726 56.168 58.4313 56.07 57.9646 55.874C57.4979 55.6687 57.1246 55.3887 56.8446 55.034C56.5646 54.6793 56.3966 54.2687 56.3406 53.802H58.1466C58.2026 54.0727 58.3519 54.306 58.5946 54.502C58.8466 54.6887 59.1686 54.782 59.5606 54.782C59.9526 54.782 60.2373 54.7027 60.4146 54.544C60.6013 54.3853 60.6946 54.2033 60.6946 53.998C60.6946 53.6993 60.5639 53.4987 60.3026 53.396C60.0413 53.284 59.6773 53.1767 59.2106 53.074C58.9119 53.0087 58.6086 52.9293 58.3006 52.836C57.9926 52.7427 57.7079 52.626 57.4466 52.486C57.1946 52.3367 56.9893 52.15 56.8306 51.926C56.6719 51.6927 56.5926 51.408 56.5926 51.072C56.5926 50.456 56.8353 49.938 57.3206 49.518C57.8153 49.098 58.5059 48.888 59.3926 48.888C60.2139 48.888 60.8673 49.0793 61.3526 49.462C61.8473 49.8447 62.1413 50.372 62.2346 51.044H60.5406C60.4379 50.5307 60.0506 50.274 59.3786 50.274C59.0426 50.274 58.7813 50.3393 58.5946 50.47C58.4173 50.6007 58.3286 50.764 58.3286 50.96C58.3286 51.1653 58.4639 51.3287 58.7346 51.45C59.0053 51.5713 59.3646 51.6833 59.8126 51.786C60.2979 51.898 60.7413 52.024 61.1426 52.164C61.5533 52.2947 61.8799 52.4953 62.1226 52.766C62.3653 53.0273 62.4866 53.4053 62.4866 53.9C62.4959 54.3293 62.3839 54.7167 62.1506 55.062C61.9173 55.4073 61.5813 55.678 61.1426 55.874C60.7039 56.07 60.1859 56.168 59.5886 56.168Z" fill="white"/>
<defs>
<linearGradient id="paint0_linear_27_65" x1="42" y1="0" x2="42" y2="84" gradientUnits="userSpaceOnUse">
<stop stop-color="#3FAE36"/>
<stop offset="1" stop-color="#2C7A26"/>
</linearGradient>
<linearGradient id="paint1_linear_27_65" x1="42" y1="0" x2="42" y2="84" gradientUnits="userSpaceOnUse">
<stop stop-color="#3FAE36"/>
<stop offset="1" stop-color="#2C7A26"/>
</linearGradient>
</defs>
</svg>
