<svg width="84" height="84" viewBox="0 0 84 84" fill="none" xmlns="http://www.w3.org/2000/svg">
<path d="M82.7051 37.4543C84.4316 40.4448 84.4316 44.1293 82.7051 47.1199L66.5379 75.1223C64.8113 78.1128 61.6204 79.9551 58.1672 79.9551H25.8328C22.3796 79.9551 19.1887 78.1128 17.4621 75.1223L1.29495 47.1199C-0.431649 44.1293 -0.43165 40.4448 1.29495 37.4543L17.4621 9.45186C19.1887 6.46131 22.3796 4.61906 25.8328 4.61906L58.1672 4.61906C61.6204 4.61906 64.8113 6.46131 66.5379 9.45187L82.7051 37.4543Z" fill="url(#paint0_linear_27_77)"/>
<path d="M79.8818 58.1672C79.8818 61.6204 78.0395 64.8113 75.049 66.5379L47.0466 82.705C44.056 84.4316 40.3715 84.4316 37.3809 82.705L9.37854 66.5378C6.38799 64.8113 4.54574 61.6204 4.54574 58.1672V25.8328C4.54574 22.3796 6.38799 19.1887 9.37854 17.4621L37.3809 1.29495C40.3715 -0.43165 44.056 -0.431648 47.0466 1.29495L75.049 17.4621C78.0395 19.1887 79.8818 22.3796 79.8818 25.8328V58.1672Z" fill="url(#paint1_linear_27_77)"/>
<path d="M16.8537 37V27.028L14.7837 27.514V25.75L17.8257 24.4H19.2477V37H16.8537ZM26.8568 37.216C25.6928 37.216 24.6968 36.946 23.8688 36.406C23.0408 35.854 22.3988 35.092 21.9428 34.12C21.4988 33.136 21.2768 31.996 21.2768 30.7C21.2768 29.416 21.4988 28.282 21.9428 27.298C22.3988 26.314 23.0408 25.552 23.8688 25.012C24.6968 24.46 25.6928 24.184 26.8568 24.184C28.0208 24.184 29.0168 24.46 29.8448 25.012C30.6728 25.552 31.3088 26.314 31.7528 27.298C32.2088 28.282 32.4368 29.416 32.4368 30.7C32.4368 31.996 32.2088 33.136 31.7528 34.12C31.3088 35.092 30.6728 35.854 29.8448 36.406C29.0168 36.946 28.0208 37.216 26.8568 37.216ZM26.8568 35.146C27.8048 35.146 28.5788 34.75 29.1788 33.958C29.7788 33.166 30.0788 32.08 30.0788 30.7C30.0788 29.32 29.7788 28.234 29.1788 27.442C28.5788 26.65 27.8048 26.254 26.8568 26.254C25.8968 26.254 25.1168 26.65 24.5168 27.442C23.9288 28.234 23.6348 29.32 23.6348 30.7C23.6348 32.08 23.9288 33.166 24.5168 33.958C25.1168 34.75 25.8968 35.146 26.8568 35.146ZM39.6361 37.216C38.4721 37.216 37.4761 36.946 36.6481 36.406C35.8201 35.854 35.1781 35.092 34.7221 34.12C34.2781 33.136 34.0561 31.996 34.0561 30.7C34.0561 29.416 34.2781 28.282 34.7221 27.298C35.1781 26.314 35.8201 25.552 36.6481 25.012C37.4761 24.46 38.4721 24.184 39.6361 24.184C40.8001 24.184 41.7961 24.46 42.6241 25.012C43.4521 25.552 44.0881 26.314 44.5321 27.298C44.9881 28.282 45.2161 29.416 45.2161 30.7C45.2161 31.996 44.9881 33.136 44.5321 34.12C44.0881 35.092 43.4521 35.854 42.6241 36.406C41.7961 36.946 40.8001 37.216 39.6361 37.216ZM39.6361 35.146C40.5841 35.146 41.3581 34.75 41.9581 33.958C42.5581 33.166 42.8581 32.08 42.8581 30.7C42.8581 29.32 42.5581 28.234 41.9581 27.442C41.3581 26.65 40.5841 26.254 39.6361 26.254C38.6761 26.254 37.8961 26.65 37.2961 27.442C36.7081 28.234 36.4141 29.32 36.4141 30.7C36.4141 32.08 36.7081 33.166 37.2961 33.958C37.8961 34.75 38.6761 35.146 39.6361 35.146ZM52.4154 37.216C51.2514 37.216 50.2554 36.946 49.4274 36.406C48.5994 35.854 47.9574 35.092 47.5014 34.12C47.0574 33.136 46.8354 31.996 46.8354 30.7C46.8354 29.416 47.0574 28.282 47.5014 27.298C47.9574 26.314 48.5994 25.552 49.4274 25.012C50.2554 24.46 51.2514 24.184 52.4154 24.184C53.5794 24.184 54.5754 24.46 55.4034 25.012C56.2314 25.552 56.8674 26.314 57.3114 27.298C57.7674 28.282 57.9954 29.416 57.9954 30.7C57.9954 31.996 57.7674 33.136 57.3114 34.12C56.8674 35.092 56.2314 35.854 55.4034 36.406C54.5754 36.946 53.5794 37.216 52.4154 37.216ZM52.4154 35.146C53.3634 35.146 54.1374 34.75 54.7374 33.958C55.3374 33.166 55.6374 32.08 55.6374 30.7C55.6374 29.32 55.3374 28.234 54.7374 27.442C54.1374 26.65 53.3634 26.254 52.4154 26.254C51.4554 26.254 50.6754 26.65 50.0754 27.442C49.4874 28.234 49.1934 29.32 49.1934 30.7C49.1934 32.08 49.4874 33.166 50.0754 33.958C50.6754 34.75 51.4554 35.146 52.4154 35.146ZM60.0287 37V24.4H64.6907C65.6987 24.4 66.5327 24.568 67.1927 24.904C67.8527 25.24 68.3447 25.702 68.6687 26.29C68.9927 26.878 69.1547 27.538 69.1547 28.27C69.1547 28.966 68.9987 29.608 68.6867 30.196C68.3747 30.772 67.8887 31.24 67.2287 31.6C66.5687 31.948 65.7227 32.122 64.6907 32.122H62.3327V37H60.0287ZM62.3327 30.25H64.5467C65.3507 30.25 65.9267 30.076 66.2747 29.728C66.6347 29.368 66.8147 28.882 66.8147 28.27C66.8147 27.646 66.6347 27.16 66.2747 26.812C65.9267 26.452 65.3507 26.272 64.5467 26.272H62.3327V30.25Z" fill="white"/>
<path opacity="0.9" d="M18.2879 56V46.2H20.0799V54.6H24.4199V56H18.2879ZM29.0164 56.168C28.3164 56.168 27.6958 56.0187 27.1544 55.72C26.6131 55.4213 26.1884 55.0013 25.8804 54.46C25.5724 53.9187 25.4184 53.2933 25.4184 52.584C25.4184 51.8653 25.5678 51.226 25.8664 50.666C26.1744 50.106 26.5944 49.672 27.1264 49.364C27.6678 49.0467 28.3024 48.888 29.0304 48.888C29.7118 48.888 30.3138 49.0373 30.8364 49.336C31.3591 49.6347 31.7651 50.0453 32.0544 50.568C32.3531 51.0813 32.5024 51.6553 32.5024 52.29C32.5024 52.3927 32.4978 52.5 32.4884 52.612C32.4884 52.724 32.4838 52.8407 32.4744 52.962H27.1964C27.2338 53.5033 27.4204 53.928 27.7564 54.236C28.1018 54.544 28.5171 54.698 29.0024 54.698C29.3664 54.698 29.6698 54.6187 29.9124 54.46C30.1644 54.292 30.3511 54.0773 30.4724 53.816H32.2924C32.1618 54.2547 31.9424 54.656 31.6344 55.02C31.3358 55.3747 30.9624 55.6547 30.5144 55.86C30.0758 56.0653 29.5764 56.168 29.0164 56.168ZM29.0304 50.344C28.5918 50.344 28.2044 50.47 27.8684 50.722C27.5324 50.9647 27.3178 51.338 27.2244 51.842H30.6824C30.6544 51.3847 30.4864 51.0207 30.1784 50.75C29.8704 50.4793 29.4878 50.344 29.0304 50.344ZM36.7992 53.928C36.4632 53.928 36.1506 53.8907 35.8612 53.816L35.3432 54.334C35.5019 54.418 35.7166 54.488 35.9872 54.544C36.2579 54.6 36.6966 54.656 37.3032 54.712C38.2272 54.796 38.8992 55.0153 39.3192 55.37C39.7392 55.7247 39.9492 56.2147 39.9492 56.84C39.9492 57.2507 39.8372 57.638 39.6132 58.002C39.3892 58.3753 39.0439 58.674 38.5772 58.898C38.1106 59.1313 37.5132 59.248 36.7852 59.248C35.7959 59.248 34.9979 59.0613 34.3912 58.688C33.7846 58.324 33.4812 57.7733 33.4812 57.036C33.4812 56.4107 33.7846 55.8693 34.3912 55.412C34.2046 55.328 34.0412 55.2393 33.9012 55.146C33.7706 55.0527 33.6539 54.9547 33.5512 54.852V54.53L34.7692 53.242C34.2279 52.766 33.9572 52.1547 33.9572 51.408C33.9572 50.9413 34.0692 50.5167 34.2932 50.134C34.5266 49.7513 34.8532 49.448 35.2732 49.224C35.6932 49 36.2019 48.888 36.7992 48.888C37.1912 48.888 37.5552 48.944 37.8912 49.056H40.5232V50.148L39.3332 50.232C39.5199 50.5867 39.6132 50.9787 39.6132 51.408C39.6132 51.8747 39.5012 52.2993 39.2772 52.682C39.0532 53.0647 38.7266 53.368 38.2972 53.592C37.8772 53.816 37.3779 53.928 36.7992 53.928ZM36.7992 52.556C37.1632 52.556 37.4619 52.458 37.6952 52.262C37.9379 52.066 38.0592 51.786 38.0592 51.422C38.0592 51.058 37.9379 50.778 37.6952 50.582C37.4619 50.386 37.1632 50.288 36.7992 50.288C36.4166 50.288 36.1086 50.386 35.8752 50.582C35.6419 50.778 35.5252 51.058 35.5252 51.422C35.5252 51.786 35.6419 52.066 35.8752 52.262C36.1086 52.458 36.4166 52.556 36.7992 52.556ZM35.1192 56.854C35.1192 57.1993 35.2779 57.456 35.5952 57.624C35.9219 57.8013 36.3186 57.89 36.7852 57.89C37.2332 57.89 37.5972 57.7967 37.8772 57.61C38.1572 57.4327 38.2972 57.19 38.2972 56.882C38.2972 56.63 38.2039 56.42 38.0172 56.252C37.8399 56.084 37.4806 55.9813 36.9392 55.944C36.5566 55.916 36.2019 55.874 35.8752 55.818C35.6046 55.9673 35.4086 56.1307 35.2872 56.308C35.1752 56.4853 35.1192 56.6673 35.1192 56.854ZM44.9305 56.168C44.2305 56.168 43.6098 56.0187 43.0685 55.72C42.5272 55.4213 42.1025 55.0013 41.7945 54.46C41.4865 53.9187 41.3325 53.2933 41.3325 52.584C41.3325 51.8653 41.4818 51.226 41.7805 50.666C42.0885 50.106 42.5085 49.672 43.0405 49.364C43.5818 49.0467 44.2165 48.888 44.9445 48.888C45.6258 48.888 46.2278 49.0373 46.7505 49.336C47.2732 49.6347 47.6792 50.0453 47.9685 50.568C48.2672 51.0813 48.4165 51.6553 48.4165 52.29C48.4165 52.3927 48.4118 52.5 48.4025 52.612C48.4025 52.724 48.3978 52.8407 48.3885 52.962H43.1105C43.1478 53.5033 43.3345 53.928 43.6705 54.236C44.0158 54.544 44.4312 54.698 44.9165 54.698C45.2805 54.698 45.5838 54.6187 45.8265 54.46C46.0785 54.292 46.2652 54.0773 46.3865 53.816H48.2065C48.0758 54.2547 47.8565 54.656 47.5485 55.02C47.2498 55.3747 46.8765 55.6547 46.4285 55.86C45.9898 56.0653 45.4905 56.168 44.9305 56.168ZM44.9445 50.344C44.5058 50.344 44.1185 50.47 43.7825 50.722C43.4465 50.9647 43.2318 51.338 43.1385 51.842H46.5965C46.5685 51.3847 46.4005 51.0207 46.0925 50.75C45.7845 50.4793 45.4018 50.344 44.9445 50.344ZM49.9237 56V49.056H51.5057L51.6457 50.232C51.8603 49.8213 52.1683 49.4947 52.5697 49.252C52.9803 49.0093 53.461 48.888 54.0117 48.888C54.8703 48.888 55.5377 49.1587 56.0137 49.7C56.4897 50.2413 56.7277 51.0347 56.7277 52.08V56H54.9357V52.248C54.9357 51.6507 54.8143 51.1933 54.5717 50.876C54.329 50.5587 53.951 50.4 53.4377 50.4C52.9337 50.4 52.5183 50.5773 52.1917 50.932C51.8743 51.2867 51.7157 51.7813 51.7157 52.416V56H49.9237ZM61.6333 56.168C60.9799 56.168 60.3966 56.0093 59.8833 55.692C59.3699 55.3747 58.9639 54.9407 58.6653 54.39C58.3666 53.8393 58.2173 53.214 58.2173 52.514C58.2173 51.814 58.3666 51.1933 58.6653 50.652C58.9639 50.1013 59.3699 49.672 59.8833 49.364C60.3966 49.0467 60.9799 48.888 61.6333 48.888C62.1559 48.888 62.6133 48.986 63.0053 49.182C63.3973 49.378 63.7146 49.6533 63.9573 50.008V45.92H65.7493V56H64.1533L63.9573 55.006C63.7333 55.314 63.4346 55.5847 63.0613 55.818C62.6973 56.0513 62.2213 56.168 61.6333 56.168ZM62.0113 54.6C62.5899 54.6 63.0613 54.4087 63.4253 54.026C63.7986 53.634 63.9853 53.1347 63.9853 52.528C63.9853 51.9213 63.7986 51.4267 63.4253 51.044C63.0613 50.652 62.5899 50.456 62.0113 50.456C61.4419 50.456 60.9706 50.6473 60.5973 51.03C60.2239 51.4127 60.0373 51.9073 60.0373 52.514C60.0373 53.1207 60.2239 53.62 60.5973 54.012C60.9706 54.404 61.4419 54.6 62.0113 54.6Z" fill="white"/>
<defs>
<linearGradient id="paint0_linear_27_77" x1="42" y1="0" x2="42" y2="84" gradientUnits="userSpaceOnUse">
<stop stop-color="#7A8699"/>
<stop offset="1" stop-color="#15294B"/>
</linearGradient>
<linearGradient id="paint1_linear_27_77" x1="42" y1="0" x2="42" y2="84" gradientUnits="userSpaceOnUse">
<stop stop-color="#7A8699"/>
<stop offset="1" stop-color="#15294B"/>
</linearGradient>
</defs>
</svg>
