<svg width="16" height="16" viewBox="0 0 16 16" fill="none" xmlns="http://www.w3.org/2000/svg">
<path d="M4.66667 6.66671V4.66671C4.66667 3.78265 5.01786 2.93481 5.64298 2.30968C6.2681 1.68456 7.11595 1.33337 8 1.33337C8.88406 1.33337 9.7319 1.68456 10.357 2.30968C10.9821 2.93481 11.3333 3.78265 11.3333 4.66671V6.66671M8.66667 10.6667C8.66667 11.0349 8.36819 11.3334 8 11.3334C7.63181 11.3334 7.33333 11.0349 7.33333 10.6667C7.33333 10.2985 7.63181 10 8 10C8.36819 10 8.66667 10.2985 8.66667 10.6667ZM3.33333 6.66671H12.6667C13.403 6.66671 14 7.26366 14 8.00004V13.3334C14 14.0698 13.403 14.6667 12.6667 14.6667H3.33333C2.59695 14.6667 2 14.0698 2 13.3334V8.00004C2 7.26366 2.59695 6.66671 3.33333 6.66671Z" stroke="#B3005E" stroke-width="1.2" stroke-linecap="round" stroke-linejoin="round"/>
</svg>
