<svg width="20" height="20" viewBox="0 0 20 20" fill="none" xmlns="http://www.w3.org/2000/svg">
<path d="M10.0001 2.49992C9.33702 2.49992 8.70114 2.76331 8.2323 3.23215C7.76346 3.70099 7.50006 4.33688 7.50006 4.99992V8.33325C7.50006 8.99629 7.76346 9.63218 8.2323 10.101C8.70114 10.5699 9.33702 10.8333 10.0001 10.8333C10.6631 10.8333 11.299 10.5699 11.7678 10.101C12.2367 9.63218 12.5001 8.99629 12.5001 8.33325V4.99992C12.5001 4.33688 12.2367 3.70099 11.7678 3.23215C11.299 2.76331 10.6631 2.49992 10.0001 2.49992ZM10.0001 0.833252C10.5472 0.833252 11.0891 0.941026 11.5946 1.15042C12.1001 1.35982 12.5594 1.66673 12.9463 2.05364C13.3333 2.44055 13.6402 2.89988 13.8496 3.4054C14.059 3.91093 14.1667 4.45274 14.1667 4.99992V8.33325C14.1667 9.43832 13.7277 10.4981 12.9463 11.2795C12.1649 12.0609 11.1051 12.4999 10.0001 12.4999C8.895 12.4999 7.83519 12.0609 7.05379 11.2795C6.27238 10.4981 5.8334 9.43832 5.8334 8.33325V4.99992C5.8334 3.89485 6.27238 2.83504 7.05379 2.05364C7.83519 1.27224 8.895 0.833252 10.0001 0.833252ZM2.5459 9.16658H4.22507C4.42698 10.5539 5.12162 11.8221 6.18193 12.7393C7.24223 13.6565 8.5973 14.1612 9.99923 14.1612C11.4012 14.1612 12.7562 13.6565 13.8165 12.7393C14.8768 11.8221 15.5715 10.5539 15.7734 9.16658H17.4534C17.2639 10.8572 16.5056 12.4332 15.3027 13.6362C14.0999 14.8392 12.524 15.5977 10.8334 15.7874V19.1666H9.16673V15.7874C7.47601 15.5979 5.89988 14.8394 4.69688 13.6364C3.49387 12.4334 2.73541 10.8573 2.5459 9.16658Z" fill="#505F79"/>
</svg>
