<svg width="88" height="88" viewBox="0 0 88 88" fill="none" xmlns="http://www.w3.org/2000/svg">
<path d="M66.0002 32.9999H73.3335C75.2784 32.9999 77.1437 33.7725 78.5189 35.1478C79.8942 36.5231 80.6668 38.3883 80.6668 40.3333V80.6666L66.0002 65.9999H44.0002C42.0552 65.9999 40.19 65.2273 38.8147 63.852C37.4394 62.4768 36.6668 60.6115 36.6668 58.6666V54.9999M51.3335 32.9999C51.3335 34.9448 50.5609 36.8101 49.1856 38.1854C47.8103 39.5606 45.9451 40.3333 44.0002 40.3333H22.0002L7.3335 54.9999V14.6666C7.3335 10.6333 10.6335 7.33325 14.6668 7.33325H44.0002C45.9451 7.33325 47.8103 8.10587 49.1856 9.48114C50.5609 10.8564 51.3335 12.7217 51.3335 14.6666V32.9999Z" stroke="#7A8699" stroke-width="4" stroke-linecap="round" stroke-linejoin="round"/>
</svg>
