<svg width="16" height="16" viewBox="0 0 16 16" fill="none" xmlns="http://www.w3.org/2000/svg">
<path d="M3.86683 7.53341L1.3335 14.6667L8.46683 12.1401M2.66683 2.00004H2.6735M14.6668 5.33337H14.6735M10.0002 1.33337H10.0068M14.6668 13.3334H14.6735M14.6668 1.33337L13.1735 1.83337C12.7484 1.97497 12.3857 2.2598 12.1474 2.63919C11.909 3.01858 11.8099 3.46897 11.8668 3.91337C11.9335 4.48671 11.4868 5.00004 10.9002 5.00004H10.6468C10.0735 5.00004 9.58016 5.40004 9.4735 5.96004L9.3335 6.66671M14.6668 8.66666L14.1202 8.44666C13.5468 8.22 12.9068 8.57999 12.8002 9.18666C12.7268 9.65333 12.3202 10 11.8468 10H11.3335M7.3335 1.33337L7.5535 1.88004C7.78016 2.45337 7.42016 3.09337 6.8135 3.20004C6.34683 3.26671 6.00016 3.68004 6.00016 4.15337V4.66671M7.33351 8.66672C8.62017 9.95339 9.22017 11.4467 8.66684 12.0001C8.11351 12.5534 6.62017 11.9534 5.33351 10.6667C4.04684 9.38005 3.44684 7.88672 4.00017 7.33339C4.55351 6.78005 6.04684 7.38005 7.33351 8.66672Z" stroke="#7A8699" stroke-width="1.2" stroke-linecap="round" stroke-linejoin="round"/>
</svg>
