<svg width="33" height="32" viewBox="0 0 33 32" fill="none" xmlns="http://www.w3.org/2000/svg">
<path d="M8.23317 15.0668L3.1665 29.3335L17.4332 24.2801M5.83317 4.00008H5.8465M29.8332 10.6667H29.8465M20.4998 2.66675H20.5132M29.8332 26.6667H29.8465M29.8332 2.66675L26.8465 3.66675C25.9963 3.94993 25.2709 4.5196 24.7943 5.27838C24.3176 6.03716 24.1193 6.93794 24.2332 7.82675C24.3665 8.97341 23.4732 10.0001 22.2998 10.0001H21.7932C20.6465 10.0001 19.6598 10.8001 19.4465 11.9201L19.1665 13.3334M29.8332 17.3333L28.7398 16.8933C27.5932 16.44 26.3132 17.16 26.0998 18.3733C25.9532 19.3067 25.1398 20 24.1932 20H23.1665M15.1665 2.66675L15.6065 3.76008C16.0598 4.90675 15.3398 6.18675 14.1265 6.40008C13.1932 6.53342 12.4998 7.36008 12.4998 8.30675V9.33341M15.1665 17.3334C17.7399 19.9068 18.9399 22.8934 17.8332 24.0001C16.7265 25.1068 13.7399 23.9068 11.1665 21.3334C8.59319 18.7601 7.39319 15.7734 8.49986 14.6668C9.60653 13.5601 12.5932 14.7601 15.1665 17.3334Z" stroke="#7A8699" stroke-width="2" stroke-linecap="round" stroke-linejoin="round"/>
</svg>
