<svg width="24" height="24" viewBox="0 0 24 24" fill="none" xmlns="http://www.w3.org/2000/svg">
<path d="M3 3V21H21" stroke="#7A8699" stroke-width="2" stroke-linecap="round" stroke-linejoin="round"/>
<path d="M18 5H8C7.44772 5 7 5.44772 7 6V8C7 8.55228 7.44772 9 8 9H18C18.5523 9 19 8.55228 19 8V6C19 5.44772 18.5523 5 18 5Z" stroke="#7A8699" stroke-width="2" stroke-linecap="round" stroke-linejoin="round"/>
<path d="M13 13H8C7.44772 13 7 13.4477 7 14V16C7 16.5523 7.44772 17 8 17H13C13.5523 17 14 16.5523 14 16V14C14 13.4477 13.5523 13 13 13Z" stroke="#7A8699" stroke-width="2" stroke-linecap="round" stroke-linejoin="round"/>
</svg>
