<svg width="398" height="128" viewBox="0 0 398 128" fill="none" xmlns="http://www.w3.org/2000/svg">
<rect x="-14.7158" y="-1.66748" width="426.716" height="236.311" rx="7.63929" fill="url(#paint0_linear_339_6230)"/>
<mask id="mask0_339_6230" style="mask-type:alpha" maskUnits="userSpaceOnUse" x="-15" y="-2" width="427" height="237">
<rect x="-14.7158" y="-1.66748" width="426.716" height="236.311" rx="7.63929" fill="url(#paint1_linear_339_6230)"/>
</mask>
<g mask="url(#mask0_339_6230)">
<ellipse cx="356.178" cy="80.4999" rx="135.574" ry="178.835" fill="black" fill-opacity="0.02"/>
<path d="M404.837 5.02153C400.673 -1.18468 393.688 -4.90361 386.213 -4.88961H252.365C244.894 -4.90361 237.907 -1.18668 233.747 5.02153L191.995 67.2615C186.823 75.0153 187.025 85.1684 192.503 92.7082L308.468 251.696C310.994 255.147 315.013 257.187 319.289 257.187C323.567 257.187 327.586 255.147 330.11 251.696L446.077 92.7082C451.553 85.1684 451.755 75.0153 446.583 67.2615L404.837 5.02153ZM439.022 87.5717L323.051 246.56C322.139 247.707 320.755 248.375 319.289 248.375C317.825 248.375 316.439 247.707 315.527 246.56L199.558 87.5637C196.242 82.987 196.12 76.8348 199.248 72.1281L241.004 9.88212C243.546 6.09921 247.808 3.83587 252.365 3.84587H386.213C390.77 3.83787 395.03 6.10521 397.572 9.88612L439.324 72.1281C442.454 76.8328 442.334 82.985 439.022 87.5637V87.5717Z" fill="black" fill-opacity="0.03"/>
<path d="M392.064 16.4398C391.662 15.846 391.12 15.3601 390.486 15.0242L386.83 13.0908C386.2 12.7569 385.498 12.5829 384.785 12.5829H253.725C253.011 12.5829 252.307 12.7589 251.677 13.0948L248.007 15.0422C247.371 15.3801 246.829 15.87 246.429 16.4658L207.151 74.9329C205.109 77.988 205.197 81.9909 207.369 84.954L312.155 227.397C313.819 229.648 316.455 230.976 319.255 230.974C322.052 230.97 324.682 229.638 326.342 227.387L431.162 84.5602C433.34 81.587 433.416 77.5682 431.354 74.515L392.064 16.4398ZM359.395 157.279L321.364 136.267C320.053 135.541 318.459 135.541 317.145 136.267L279.138 157.279L286.434 112.432C286.658 111.062 286.218 109.669 285.25 108.675L254.053 76.7064L296.967 70.1543C298.407 69.9344 299.642 69.0106 300.26 67.691L319.255 27.2327L338.251 67.691C338.869 69.0106 340.105 69.9344 341.545 70.1543L384.457 76.7064L353.261 108.675C352.292 109.669 351.854 111.062 352.078 112.432L359.395 157.279ZM214.408 79.8075L210.781 77.3702L214.408 79.8035V79.8075ZM253.079 22.2441L254.817 21.3184H312.379L293.341 61.8687L244.328 69.3645C242.71 69.6105 241.364 70.7421 240.844 72.2957C240.324 73.8472 240.716 75.5607 241.86 76.7324L277.456 113.208L270.465 156.014L214.408 79.7915L253.079 22.2441ZM319.195 222.238L278.862 167.4L319.255 145.077L359.513 167.326L319.195 222.238ZM368 155.764L361.055 113.2L396.651 76.7244C397.789 75.5527 398.177 73.8432 397.659 72.2937C397.139 70.7441 395.798 69.6145 394.182 69.3645L345.17 61.8687L326.132 21.3184H383.703L385.448 22.2361L424.103 79.3756L368 155.764Z" fill="black" fill-opacity="0.03"/>
<path d="M361.407 84.4265C360.887 82.8689 359.535 81.7353 357.911 81.4913L333.294 77.7364L323.207 56.2206C322.487 54.6891 320.947 53.7094 319.253 53.7094C317.561 53.7094 316.019 54.6891 315.299 56.2206L305.196 77.7364L280.579 81.4913C278.959 81.7393 277.617 82.8729 277.097 84.4245C276.577 85.976 276.971 87.6895 278.115 88.8612L296.099 107.314L292.064 132.059C291.794 133.708 292.492 135.37 293.859 136.331C295.227 137.295 297.025 137.393 298.489 136.583L319.253 125.117L340.001 136.583C340.645 136.943 341.373 137.131 342.111 137.129C343.393 137.131 344.611 136.569 345.443 135.592C346.273 134.616 346.632 133.324 346.426 132.059L342.407 107.314L360.411 88.8612C361.545 87.6855 361.931 85.974 361.407 84.4265ZM334.596 102.771C333.628 103.763 333.186 105.156 333.408 106.524L336.353 124.571L321.363 116.273C320.051 115.549 318.457 115.549 317.143 116.273L302.155 124.571L305.098 106.524C305.32 105.156 304.88 103.763 303.91 102.771L290.308 88.8472L308.822 86.022C310.262 85.8001 311.498 84.8764 312.116 83.5587L319.253 68.3531L326.392 83.5587C327.01 84.8764 328.246 85.8001 329.686 86.022L348.2 88.8472L334.596 102.771Z" fill="black" fill-opacity="0.03"/>
<path d="M-76.1189 -0.982397C-76.1189 2.11478 -78.631 4.62554 -81.7298 4.62554C-84.8287 4.62554 -87.3408 2.11478 -87.3408 -0.982397C-87.3408 -4.07957 -84.8287 -6.59033 -81.7298 -6.59033C-78.631 -6.59033 -76.1189 -4.07957 -76.1189 -0.982397Z" fill="black" fill-opacity="0.02"/>
<path d="M-46.5378 -0.982397C-46.5378 2.11478 -49.05 4.62554 -52.1488 4.62554C-55.2477 4.62554 -57.7598 2.11478 -57.7598 -0.982397C-57.7598 -4.07957 -55.2477 -6.59033 -52.1488 -6.59033C-49.05 -6.59033 -46.5378 -4.07957 -46.5378 -0.982397Z" fill="black" fill-opacity="0.02"/>
<path d="M-16.9568 -0.982397C-16.9568 2.11478 -19.4689 4.62554 -22.5678 4.62554C-25.6667 4.62554 -28.1788 2.11478 -28.1788 -0.982397C-28.1788 -4.07957 -25.6667 -6.59033 -22.5678 -6.59033C-19.4689 -6.59033 -16.9568 -4.07957 -16.9568 -0.982397Z" fill="black" fill-opacity="0.02"/>
<path d="M12.6242 -0.982397C12.6242 2.11478 10.1121 4.62554 7.01321 4.62554C3.91435 4.62554 1.40224 2.11478 1.40224 -0.982397C1.40224 -4.07957 3.91435 -6.59033 7.01321 -6.59033C10.1121 -6.59033 12.6242 -4.07957 12.6242 -0.982397Z" fill="black" fill-opacity="0.02"/>
<path d="M42.2052 -0.982397C42.2052 2.11478 39.6931 4.62554 36.5942 4.62554C33.4954 4.62554 30.9833 2.11478 30.9833 -0.982397C30.9833 -4.07957 33.4954 -6.59033 36.5942 -6.59033C39.6931 -6.59033 42.2052 -4.07957 42.2052 -0.982397Z" fill="black" fill-opacity="0.02"/>
<path d="M71.7862 -0.982397C71.7862 2.11478 69.2741 4.62554 66.1752 4.62554C63.0764 4.62554 60.5643 2.11478 60.5643 -0.982397C60.5643 -4.07957 63.0764 -6.59033 66.1752 -6.59033C69.2741 -6.59033 71.7862 -4.07957 71.7862 -0.982397Z" fill="black" fill-opacity="0.02"/>
<path d="M101.367 -0.982397C101.367 2.11478 98.8551 4.62554 95.7563 4.62554C92.6574 4.62554 90.1453 2.11478 90.1453 -0.982397C90.1453 -4.07957 92.6574 -6.59033 95.7563 -6.59033C98.8551 -6.59033 101.367 -4.07957 101.367 -0.982397Z" fill="black" fill-opacity="0.02"/>
<path d="M130.948 -0.982397C130.948 2.11478 128.436 4.62554 125.337 4.62554C122.238 4.62554 119.726 2.11478 119.726 -0.982397C119.726 -4.07957 122.238 -6.59033 125.337 -6.59033C128.436 -6.59033 130.948 -4.07957 130.948 -0.982397Z" fill="black" fill-opacity="0.02"/>
<path d="M160.529 -0.982397C160.529 2.11478 158.017 4.62554 154.918 4.62554C151.819 4.62554 149.307 2.11478 149.307 -0.982397C149.307 -4.07957 151.819 -6.59033 154.918 -6.59033C158.017 -6.59033 160.529 -4.07957 160.529 -0.982397Z" fill="black" fill-opacity="0.02"/>
<path d="M190.11 -0.982397C190.11 2.11478 187.598 4.62554 184.499 4.62554C181.4 4.62554 178.888 2.11478 178.888 -0.982397C178.888 -4.07957 181.4 -6.59033 184.499 -6.59033C187.598 -6.59033 190.11 -4.07957 190.11 -0.982397Z" fill="black" fill-opacity="0.02"/>
<path d="M-76.1189 87.7123C-76.1189 90.8094 -78.631 93.3202 -81.7298 93.3202C-84.8287 93.3202 -87.3408 90.8094 -87.3408 87.7123C-87.3408 84.6151 -84.8287 82.1043 -81.7298 82.1043C-78.631 82.1043 -76.1189 84.6151 -76.1189 87.7123Z" fill="black" fill-opacity="0.02"/>
<path d="M-46.5378 87.7123C-46.5378 90.8094 -49.05 93.3202 -52.1488 93.3202C-55.2477 93.3202 -57.7598 90.8094 -57.7598 87.7123C-57.7598 84.6151 -55.2477 82.1043 -52.1488 82.1043C-49.05 82.1043 -46.5378 84.6151 -46.5378 87.7123Z" fill="black" fill-opacity="0.02"/>
<path d="M-16.9568 87.7123C-16.9568 90.8094 -19.4689 93.3202 -22.5678 93.3202C-25.6667 93.3202 -28.1788 90.8094 -28.1788 87.7123C-28.1788 84.6151 -25.6667 82.1043 -22.5678 82.1043C-19.4689 82.1043 -16.9568 84.6151 -16.9568 87.7123Z" fill="black" fill-opacity="0.02"/>
<path d="M12.6242 87.7123C12.6242 90.8094 10.1121 93.3202 7.01321 93.3202C3.91435 93.3202 1.40224 90.8094 1.40224 87.7123C1.40224 84.6151 3.91435 82.1043 7.01321 82.1043C10.1121 82.1043 12.6242 84.6151 12.6242 87.7123Z" fill="black" fill-opacity="0.02"/>
<path d="M42.2052 87.7123C42.2052 90.8094 39.6931 93.3202 36.5942 93.3202C33.4954 93.3202 30.9833 90.8094 30.9833 87.7123C30.9833 84.6151 33.4954 82.1043 36.5942 82.1043C39.6931 82.1043 42.2052 84.6151 42.2052 87.7123Z" fill="black" fill-opacity="0.02"/>
<path d="M71.7862 87.7123C71.7862 90.8094 69.2741 93.3202 66.1752 93.3202C63.0764 93.3202 60.5643 90.8094 60.5643 87.7123C60.5643 84.6151 63.0764 82.1043 66.1752 82.1043C69.2741 82.1043 71.7862 84.6151 71.7862 87.7123Z" fill="black" fill-opacity="0.02"/>
<path d="M101.367 87.7123C101.367 90.8094 98.8551 93.3202 95.7563 93.3202C92.6574 93.3202 90.1453 90.8094 90.1453 87.7123C90.1453 84.6151 92.6574 82.1043 95.7563 82.1043C98.8551 82.1043 101.367 84.6151 101.367 87.7123Z" fill="black" fill-opacity="0.02"/>
<path d="M130.948 87.7123C130.948 90.8094 128.436 93.3202 125.337 93.3202C122.238 93.3202 119.726 90.8094 119.726 87.7123C119.726 84.6151 122.238 82.1043 125.337 82.1043C128.436 82.1043 130.948 84.6151 130.948 87.7123Z" fill="black" fill-opacity="0.02"/>
<path d="M160.529 87.7123C160.529 90.8094 158.017 93.3202 154.918 93.3202C151.819 93.3202 149.307 90.8094 149.307 87.7123C149.307 84.6151 151.819 82.1043 154.918 82.1043C158.017 82.1043 160.529 84.6151 160.529 87.7123Z" fill="black" fill-opacity="0.02"/>
<path d="M190.11 87.7123C190.11 90.8094 187.598 93.3202 184.499 93.3202C181.4 93.3202 178.888 90.8094 178.888 87.7123C178.888 84.6151 181.4 82.1043 184.499 82.1043C187.598 82.1043 190.11 84.6151 190.11 87.7123Z" fill="black" fill-opacity="0.02"/>
<path d="M-76.1189 28.5825C-76.1189 31.6797 -78.631 34.1904 -81.7298 34.1904C-84.8287 34.1904 -87.3408 31.6797 -87.3408 28.5825C-87.3408 25.4853 -84.8287 22.9746 -81.7298 22.9746C-78.631 22.9746 -76.1189 25.4853 -76.1189 28.5825Z" fill="black" fill-opacity="0.02"/>
<path d="M-46.5378 28.5825C-46.5378 31.6797 -49.05 34.1904 -52.1488 34.1904C-55.2477 34.1904 -57.7598 31.6797 -57.7598 28.5825C-57.7598 25.4853 -55.2477 22.9746 -52.1488 22.9746C-49.05 22.9746 -46.5378 25.4853 -46.5378 28.5825Z" fill="black" fill-opacity="0.02"/>
<path d="M-16.9568 28.5825C-16.9568 31.6797 -19.4689 34.1904 -22.5678 34.1904C-25.6667 34.1904 -28.1788 31.6797 -28.1788 28.5825C-28.1788 25.4853 -25.6667 22.9746 -22.5678 22.9746C-19.4689 22.9746 -16.9568 25.4853 -16.9568 28.5825Z" fill="black" fill-opacity="0.02"/>
<path d="M12.6242 28.5825C12.6242 31.6797 10.1121 34.1904 7.01321 34.1904C3.91435 34.1904 1.40224 31.6797 1.40224 28.5825C1.40224 25.4853 3.91435 22.9746 7.01321 22.9746C10.1121 22.9746 12.6242 25.4853 12.6242 28.5825Z" fill="black" fill-opacity="0.02"/>
<path d="M42.2052 28.5825C42.2052 31.6797 39.6931 34.1904 36.5942 34.1904C33.4954 34.1904 30.9833 31.6797 30.9833 28.5825C30.9833 25.4853 33.4954 22.9746 36.5942 22.9746C39.6931 22.9746 42.2052 25.4853 42.2052 28.5825Z" fill="black" fill-opacity="0.02"/>
<path d="M71.7862 28.5825C71.7862 31.6797 69.2741 34.1904 66.1752 34.1904C63.0764 34.1904 60.5643 31.6797 60.5643 28.5825C60.5643 25.4853 63.0764 22.9746 66.1752 22.9746C69.2741 22.9746 71.7862 25.4853 71.7862 28.5825Z" fill="black" fill-opacity="0.02"/>
<path d="M101.367 28.5825C101.367 31.6797 98.8551 34.1904 95.7563 34.1904C92.6574 34.1904 90.1453 31.6797 90.1453 28.5825C90.1453 25.4853 92.6574 22.9746 95.7563 22.9746C98.8551 22.9746 101.367 25.4853 101.367 28.5825Z" fill="black" fill-opacity="0.02"/>
<path d="M130.948 28.5825C130.948 31.6797 128.436 34.1904 125.337 34.1904C122.238 34.1904 119.726 31.6797 119.726 28.5825C119.726 25.4853 122.238 22.9746 125.337 22.9746C128.436 22.9746 130.948 25.4853 130.948 28.5825Z" fill="black" fill-opacity="0.02"/>
<path d="M160.529 28.5825C160.529 31.6797 158.017 34.1904 154.918 34.1904C151.819 34.1904 149.307 31.6797 149.307 28.5825C149.307 25.4853 151.819 22.9746 154.918 22.9746C158.017 22.9746 160.529 25.4853 160.529 28.5825Z" fill="black" fill-opacity="0.02"/>
<path d="M190.11 28.5825C190.11 31.6797 187.598 34.1904 184.499 34.1904C181.4 34.1904 178.888 31.6797 178.888 28.5825C178.888 25.4853 181.4 22.9746 184.499 22.9746C187.598 22.9746 190.11 25.4853 190.11 28.5825Z" fill="black" fill-opacity="0.02"/>
<path d="M-76.1189 117.277C-76.1189 120.374 -78.631 122.885 -81.7298 122.885C-84.8287 122.885 -87.3408 120.374 -87.3408 117.277C-87.3408 114.18 -84.8287 111.669 -81.7298 111.669C-78.631 111.669 -76.1189 114.18 -76.1189 117.277Z" fill="black" fill-opacity="0.02"/>
<path d="M-46.5378 117.277C-46.5378 120.374 -49.05 122.885 -52.1488 122.885C-55.2477 122.885 -57.7598 120.374 -57.7598 117.277C-57.7598 114.18 -55.2477 111.669 -52.1488 111.669C-49.05 111.669 -46.5378 114.18 -46.5378 117.277Z" fill="black" fill-opacity="0.02"/>
<path d="M-16.9568 117.277C-16.9568 120.374 -19.4689 122.885 -22.5678 122.885C-25.6667 122.885 -28.1788 120.374 -28.1788 117.277C-28.1788 114.18 -25.6667 111.669 -22.5678 111.669C-19.4689 111.669 -16.9568 114.18 -16.9568 117.277Z" fill="black" fill-opacity="0.02"/>
<path d="M12.6242 117.277C12.6242 120.374 10.1121 122.885 7.01321 122.885C3.91435 122.885 1.40224 120.374 1.40224 117.277C1.40224 114.18 3.91435 111.669 7.01321 111.669C10.1121 111.669 12.6242 114.18 12.6242 117.277Z" fill="black" fill-opacity="0.02"/>
<path d="M42.2052 117.277C42.2052 120.374 39.6931 122.885 36.5942 122.885C33.4954 122.885 30.9833 120.374 30.9833 117.277C30.9833 114.18 33.4954 111.669 36.5942 111.669C39.6931 111.669 42.2052 114.18 42.2052 117.277Z" fill="black" fill-opacity="0.02"/>
<path d="M71.7862 117.277C71.7862 120.374 69.2741 122.885 66.1752 122.885C63.0764 122.885 60.5643 120.374 60.5643 117.277C60.5643 114.18 63.0764 111.669 66.1752 111.669C69.2741 111.669 71.7862 114.18 71.7862 117.277Z" fill="black" fill-opacity="0.02"/>
<path d="M101.367 117.277C101.367 120.374 98.8551 122.885 95.7563 122.885C92.6574 122.885 90.1453 120.374 90.1453 117.277C90.1453 114.18 92.6574 111.669 95.7563 111.669C98.8551 111.669 101.367 114.18 101.367 117.277Z" fill="black" fill-opacity="0.02"/>
<path d="M130.948 117.277C130.948 120.374 128.436 122.885 125.337 122.885C122.238 122.885 119.726 120.374 119.726 117.277C119.726 114.18 122.238 111.669 125.337 111.669C128.436 111.669 130.948 114.18 130.948 117.277Z" fill="black" fill-opacity="0.02"/>
<path d="M160.529 117.277C160.529 120.374 158.017 122.885 154.918 122.885C151.819 122.885 149.307 120.374 149.307 117.277C149.307 114.18 151.819 111.669 154.918 111.669C158.017 111.669 160.529 114.18 160.529 117.277Z" fill="black" fill-opacity="0.02"/>
<path d="M190.11 117.277C190.11 120.374 187.598 122.885 184.499 122.885C181.4 122.885 178.888 120.374 178.888 117.277C178.888 114.18 181.4 111.669 184.499 111.669C187.598 111.669 190.11 114.18 190.11 117.277Z" fill="black" fill-opacity="0.02"/>
<path d="M-76.1189 58.1474C-76.1189 61.2446 -78.631 63.7553 -81.7298 63.7553C-84.8287 63.7553 -87.3408 61.2446 -87.3408 58.1474C-87.3408 55.0502 -84.8287 52.5394 -81.7298 52.5394C-78.631 52.5394 -76.1189 55.0502 -76.1189 58.1474Z" fill="black" fill-opacity="0.02"/>
<path d="M-46.5378 58.1474C-46.5378 61.2446 -49.05 63.7553 -52.1488 63.7553C-55.2477 63.7553 -57.7598 61.2446 -57.7598 58.1474C-57.7598 55.0502 -55.2477 52.5394 -52.1488 52.5394C-49.05 52.5394 -46.5378 55.0502 -46.5378 58.1474Z" fill="black" fill-opacity="0.02"/>
<path d="M-16.9568 58.1474C-16.9568 61.2446 -19.4689 63.7553 -22.5678 63.7553C-25.6667 63.7553 -28.1788 61.2446 -28.1788 58.1474C-28.1788 55.0502 -25.6667 52.5394 -22.5678 52.5394C-19.4689 52.5394 -16.9568 55.0502 -16.9568 58.1474Z" fill="black" fill-opacity="0.02"/>
<path d="M12.6242 58.1474C12.6242 61.2446 10.1121 63.7553 7.01321 63.7553C3.91435 63.7553 1.40224 61.2446 1.40224 58.1474C1.40224 55.0502 3.91435 52.5394 7.01321 52.5394C10.1121 52.5394 12.6242 55.0502 12.6242 58.1474Z" fill="black" fill-opacity="0.02"/>
<path d="M42.2052 58.1474C42.2052 61.2446 39.6931 63.7553 36.5942 63.7553C33.4954 63.7553 30.9833 61.2446 30.9833 58.1474C30.9833 55.0502 33.4954 52.5394 36.5942 52.5394C39.6931 52.5394 42.2052 55.0502 42.2052 58.1474Z" fill="black" fill-opacity="0.02"/>
<path d="M71.7862 58.1474C71.7862 61.2446 69.2741 63.7553 66.1752 63.7553C63.0764 63.7553 60.5643 61.2446 60.5643 58.1474C60.5643 55.0502 63.0764 52.5394 66.1752 52.5394C69.2741 52.5394 71.7862 55.0502 71.7862 58.1474Z" fill="black" fill-opacity="0.02"/>
<path d="M101.367 58.1474C101.367 61.2446 98.8551 63.7553 95.7563 63.7553C92.6574 63.7553 90.1453 61.2446 90.1453 58.1474C90.1453 55.0502 92.6574 52.5394 95.7563 52.5394C98.8551 52.5394 101.367 55.0502 101.367 58.1474Z" fill="black" fill-opacity="0.02"/>
<path d="M130.948 58.1474C130.948 61.2446 128.436 63.7553 125.337 63.7553C122.238 63.7553 119.726 61.2446 119.726 58.1474C119.726 55.0502 122.238 52.5394 125.337 52.5394C128.436 52.5394 130.948 55.0502 130.948 58.1474Z" fill="black" fill-opacity="0.02"/>
<path d="M160.529 58.1474C160.529 61.2446 158.017 63.7553 154.918 63.7553C151.819 63.7553 149.307 61.2446 149.307 58.1474C149.307 55.0502 151.819 52.5394 154.918 52.5394C158.017 52.5394 160.529 55.0502 160.529 58.1474Z" fill="black" fill-opacity="0.02"/>
<path d="M190.11 58.1474C190.11 61.2446 187.598 63.7553 184.499 63.7553C181.4 63.7553 178.888 61.2446 178.888 58.1474C178.888 55.0502 181.4 52.5394 184.499 52.5394C187.598 52.5394 190.11 55.0502 190.11 58.1474Z" fill="black" fill-opacity="0.02"/>
<path d="M-76.1189 146.842C-76.1189 149.939 -78.631 152.45 -81.7298 152.45C-84.8287 152.45 -87.3408 149.939 -87.3408 146.842C-87.3408 143.745 -84.8287 141.234 -81.7298 141.234C-78.631 141.234 -76.1189 143.745 -76.1189 146.842Z" fill="black" fill-opacity="0.02"/>
<path d="M-46.5378 146.842C-46.5378 149.939 -49.05 152.45 -52.1488 152.45C-55.2477 152.45 -57.7598 149.939 -57.7598 146.842C-57.7598 143.745 -55.2477 141.234 -52.1488 141.234C-49.05 141.234 -46.5378 143.745 -46.5378 146.842Z" fill="black" fill-opacity="0.02"/>
<path d="M-16.9568 146.842C-16.9568 149.939 -19.4689 152.45 -22.5678 152.45C-25.6667 152.45 -28.1788 149.939 -28.1788 146.842C-28.1788 143.745 -25.6667 141.234 -22.5678 141.234C-19.4689 141.234 -16.9568 143.745 -16.9568 146.842Z" fill="black" fill-opacity="0.02"/>
<path d="M12.6242 146.842C12.6242 149.939 10.1121 152.45 7.01321 152.45C3.91435 152.45 1.40224 149.939 1.40224 146.842C1.40224 143.745 3.91435 141.234 7.01321 141.234C10.1121 141.234 12.6242 143.745 12.6242 146.842Z" fill="black" fill-opacity="0.02"/>
<path d="M42.2052 146.842C42.2052 149.939 39.6931 152.45 36.5942 152.45C33.4954 152.45 30.9833 149.939 30.9833 146.842C30.9833 143.745 33.4954 141.234 36.5942 141.234C39.6931 141.234 42.2052 143.745 42.2052 146.842Z" fill="black" fill-opacity="0.02"/>
<path d="M71.7862 146.842C71.7862 149.939 69.2741 152.45 66.1752 152.45C63.0764 152.45 60.5643 149.939 60.5643 146.842C60.5643 143.745 63.0764 141.234 66.1752 141.234C69.2741 141.234 71.7862 143.745 71.7862 146.842Z" fill="black" fill-opacity="0.02"/>
<path d="M101.367 146.842C101.367 149.939 98.8551 152.45 95.7563 152.45C92.6574 152.45 90.1453 149.939 90.1453 146.842C90.1453 143.745 92.6574 141.234 95.7563 141.234C98.8551 141.234 101.367 143.745 101.367 146.842Z" fill="black" fill-opacity="0.02"/>
<path d="M130.948 146.842C130.948 149.939 128.436 152.45 125.337 152.45C122.238 152.45 119.726 149.939 119.726 146.842C119.726 143.745 122.238 141.234 125.337 141.234C128.436 141.234 130.948 143.745 130.948 146.842Z" fill="black" fill-opacity="0.02"/>
<path d="M160.529 146.842C160.529 149.939 158.017 152.45 154.918 152.45C151.819 152.45 149.307 149.939 149.307 146.842C149.307 143.745 151.819 141.234 154.918 141.234C158.017 141.234 160.529 143.745 160.529 146.842Z" fill="black" fill-opacity="0.02"/>
<path d="M190.11 146.842C190.11 149.939 187.598 152.45 184.499 152.45C181.4 152.45 178.888 149.939 178.888 146.842C178.888 143.745 181.4 141.234 184.499 141.234C187.598 141.234 190.11 143.745 190.11 146.842Z" fill="black" fill-opacity="0.02"/>
<path d="M-76.1189 176.392C-76.1189 179.489 -78.631 182 -81.7298 182C-84.8287 182 -87.3408 179.489 -87.3408 176.392C-87.3408 173.295 -84.8287 170.784 -81.7298 170.784C-78.631 170.784 -76.1189 173.295 -76.1189 176.392Z" fill="black" fill-opacity="0.02"/>
<path d="M-46.5378 176.392C-46.5378 179.489 -49.05 182 -52.1488 182C-55.2477 182 -57.7598 179.489 -57.7598 176.392C-57.7598 173.295 -55.2477 170.784 -52.1488 170.784C-49.05 170.784 -46.5378 173.295 -46.5378 176.392Z" fill="black" fill-opacity="0.02"/>
<path d="M-16.9568 176.392C-16.9568 179.489 -19.4689 182 -22.5678 182C-25.6667 182 -28.1788 179.489 -28.1788 176.392C-28.1788 173.295 -25.6667 170.784 -22.5678 170.784C-19.4689 170.784 -16.9568 173.295 -16.9568 176.392Z" fill="black" fill-opacity="0.02"/>
<path d="M12.6242 176.392C12.6242 179.489 10.1121 182 7.01321 182C3.91435 182 1.40224 179.489 1.40224 176.392C1.40224 173.295 3.91435 170.784 7.01321 170.784C10.1121 170.784 12.6242 173.295 12.6242 176.392Z" fill="black" fill-opacity="0.02"/>
<path d="M42.2052 176.392C42.2052 179.489 39.6931 182 36.5942 182C33.4954 182 30.9833 179.489 30.9833 176.392C30.9833 173.295 33.4954 170.784 36.5942 170.784C39.6931 170.784 42.2052 173.295 42.2052 176.392Z" fill="black" fill-opacity="0.02"/>
<path d="M71.7862 176.392C71.7862 179.489 69.2741 182 66.1752 182C63.0764 182 60.5643 179.489 60.5643 176.392C60.5643 173.295 63.0764 170.784 66.1752 170.784C69.2741 170.784 71.7862 173.295 71.7862 176.392Z" fill="black" fill-opacity="0.02"/>
<path d="M101.367 176.392C101.367 179.489 98.8551 182 95.7563 182C92.6574 182 90.1453 179.489 90.1453 176.392C90.1453 173.295 92.6574 170.784 95.7563 170.784C98.8551 170.784 101.367 173.295 101.367 176.392Z" fill="black" fill-opacity="0.02"/>
<path d="M130.948 176.392C130.948 179.489 128.436 182 125.337 182C122.238 182 119.726 179.489 119.726 176.392C119.726 173.295 122.238 170.784 125.337 170.784C128.436 170.784 130.948 173.295 130.948 176.392Z" fill="black" fill-opacity="0.02"/>
<path d="M160.529 176.392C160.529 179.489 158.017 182 154.918 182C151.819 182 149.307 179.489 149.307 176.392C149.307 173.295 151.819 170.784 154.918 170.784C158.017 170.784 160.529 173.295 160.529 176.392Z" fill="black" fill-opacity="0.02"/>
<path d="M190.11 176.392C190.11 179.489 187.598 182 184.499 182C181.4 182 178.888 179.489 178.888 176.392C178.888 173.295 181.4 170.784 184.499 170.784C187.598 170.784 190.11 173.295 190.11 176.392Z" fill="black" fill-opacity="0.02"/>
<path d="M-76.1189 265.087C-76.1189 268.184 -78.631 270.695 -81.7298 270.695C-84.8287 270.695 -87.3408 268.184 -87.3408 265.087C-87.3408 261.989 -84.8287 259.479 -81.7298 259.479C-78.631 259.479 -76.1189 261.989 -76.1189 265.087Z" fill="black" fill-opacity="0.02"/>
<path d="M-46.5378 265.087C-46.5378 268.184 -49.05 270.695 -52.1488 270.695C-55.2477 270.695 -57.7598 268.184 -57.7598 265.087C-57.7598 261.989 -55.2477 259.479 -52.1488 259.479C-49.05 259.479 -46.5378 261.989 -46.5378 265.087Z" fill="black" fill-opacity="0.02"/>
<path d="M-16.9568 265.087C-16.9568 268.184 -19.4689 270.695 -22.5678 270.695C-25.6667 270.695 -28.1788 268.184 -28.1788 265.087C-28.1788 261.989 -25.6667 259.479 -22.5678 259.479C-19.4689 259.479 -16.9568 261.989 -16.9568 265.087Z" fill="black" fill-opacity="0.02"/>
<path d="M12.6242 265.087C12.6242 268.184 10.1121 270.695 7.01321 270.695C3.91435 270.695 1.40224 268.184 1.40224 265.087C1.40224 261.989 3.91435 259.479 7.01321 259.479C10.1121 259.479 12.6242 261.989 12.6242 265.087Z" fill="black" fill-opacity="0.02"/>
<path d="M42.2052 265.087C42.2052 268.184 39.6931 270.695 36.5942 270.695C33.4954 270.695 30.9833 268.184 30.9833 265.087C30.9833 261.989 33.4954 259.479 36.5942 259.479C39.6931 259.479 42.2052 261.989 42.2052 265.087Z" fill="black" fill-opacity="0.02"/>
<path d="M71.7862 265.087C71.7862 268.184 69.2741 270.695 66.1752 270.695C63.0764 270.695 60.5643 268.184 60.5643 265.087C60.5643 261.989 63.0764 259.479 66.1752 259.479C69.2741 259.479 71.7862 261.989 71.7862 265.087Z" fill="black" fill-opacity="0.02"/>
<path d="M101.367 265.087C101.367 268.184 98.8551 270.695 95.7563 270.695C92.6574 270.695 90.1453 268.184 90.1453 265.087C90.1453 261.989 92.6574 259.479 95.7563 259.479C98.8551 259.479 101.367 261.989 101.367 265.087Z" fill="black" fill-opacity="0.02"/>
<path d="M130.948 265.087C130.948 268.184 128.436 270.695 125.337 270.695C122.238 270.695 119.726 268.184 119.726 265.087C119.726 261.989 122.238 259.479 125.337 259.479C128.436 259.479 130.948 261.989 130.948 265.087Z" fill="black" fill-opacity="0.02"/>
<path d="M160.529 265.087C160.529 268.184 158.017 270.695 154.918 270.695C151.819 270.695 149.307 268.184 149.307 265.087C149.307 261.989 151.819 259.479 154.918 259.479C158.017 259.479 160.529 261.989 160.529 265.087Z" fill="black" fill-opacity="0.02"/>
<path d="M190.11 265.087C190.11 268.184 187.598 270.695 184.499 270.695C181.4 270.695 178.888 268.184 178.888 265.087C178.888 261.989 181.4 259.479 184.499 259.479C187.598 259.479 190.11 261.989 190.11 265.087Z" fill="black" fill-opacity="0.02"/>
<path d="M-76.1189 205.957C-76.1189 209.054 -78.631 211.565 -81.7298 211.565C-84.8287 211.565 -87.3408 209.054 -87.3408 205.957C-87.3408 202.86 -84.8287 200.349 -81.7298 200.349C-78.631 200.349 -76.1189 202.86 -76.1189 205.957Z" fill="black" fill-opacity="0.02"/>
<path d="M-46.5378 205.957C-46.5378 209.054 -49.05 211.565 -52.1488 211.565C-55.2477 211.565 -57.7598 209.054 -57.7598 205.957C-57.7598 202.86 -55.2477 200.349 -52.1488 200.349C-49.05 200.349 -46.5378 202.86 -46.5378 205.957Z" fill="black" fill-opacity="0.02"/>
<path d="M-16.9568 205.957C-16.9568 209.054 -19.4689 211.565 -22.5678 211.565C-25.6667 211.565 -28.1788 209.054 -28.1788 205.957C-28.1788 202.86 -25.6667 200.349 -22.5678 200.349C-19.4689 200.349 -16.9568 202.86 -16.9568 205.957Z" fill="black" fill-opacity="0.02"/>
<path d="M12.6242 205.957C12.6242 209.054 10.1121 211.565 7.01321 211.565C3.91435 211.565 1.40224 209.054 1.40224 205.957C1.40224 202.86 3.91435 200.349 7.01321 200.349C10.1121 200.349 12.6242 202.86 12.6242 205.957Z" fill="black" fill-opacity="0.02"/>
<path d="M42.2052 205.957C42.2052 209.054 39.6931 211.565 36.5942 211.565C33.4954 211.565 30.9833 209.054 30.9833 205.957C30.9833 202.86 33.4954 200.349 36.5942 200.349C39.6931 200.349 42.2052 202.86 42.2052 205.957Z" fill="black" fill-opacity="0.02"/>
<path d="M71.7862 205.957C71.7862 209.054 69.2741 211.565 66.1752 211.565C63.0764 211.565 60.5643 209.054 60.5643 205.957C60.5643 202.86 63.0764 200.349 66.1752 200.349C69.2741 200.349 71.7862 202.86 71.7862 205.957Z" fill="black" fill-opacity="0.02"/>
<path d="M101.367 205.957C101.367 209.054 98.8551 211.565 95.7563 211.565C92.6574 211.565 90.1453 209.054 90.1453 205.957C90.1453 202.86 92.6574 200.349 95.7563 200.349C98.8551 200.349 101.367 202.86 101.367 205.957Z" fill="black" fill-opacity="0.02"/>
<path d="M130.948 205.957C130.948 209.054 128.436 211.565 125.337 211.565C122.238 211.565 119.726 209.054 119.726 205.957C119.726 202.86 122.238 200.349 125.337 200.349C128.436 200.349 130.948 202.86 130.948 205.957Z" fill="black" fill-opacity="0.02"/>
<path d="M160.529 205.957C160.529 209.054 158.017 211.565 154.918 211.565C151.819 211.565 149.307 209.054 149.307 205.957C149.307 202.86 151.819 200.349 154.918 200.349C158.017 200.349 160.529 202.86 160.529 205.957Z" fill="black" fill-opacity="0.02"/>
<path d="M190.11 205.957C190.11 209.054 187.598 211.565 184.499 211.565C181.4 211.565 178.888 209.054 178.888 205.957C178.888 202.86 181.4 200.349 184.499 200.349C187.598 200.349 190.11 202.86 190.11 205.957Z" fill="black" fill-opacity="0.02"/>
<path d="M-76.1189 294.652C-76.1189 297.749 -78.631 300.259 -81.7298 300.259C-84.8287 300.259 -87.3408 297.749 -87.3408 294.652C-87.3408 291.554 -84.8287 289.044 -81.7298 289.044C-78.631 289.044 -76.1189 291.554 -76.1189 294.652Z" fill="black" fill-opacity="0.02"/>
<path d="M-46.5378 294.652C-46.5378 297.749 -49.05 300.259 -52.1488 300.259C-55.2477 300.259 -57.7598 297.749 -57.7598 294.652C-57.7598 291.554 -55.2477 289.044 -52.1488 289.044C-49.05 289.044 -46.5378 291.554 -46.5378 294.652Z" fill="black" fill-opacity="0.02"/>
<path d="M-16.9568 294.652C-16.9568 297.749 -19.4689 300.259 -22.5678 300.259C-25.6667 300.259 -28.1788 297.749 -28.1788 294.652C-28.1788 291.554 -25.6667 289.044 -22.5678 289.044C-19.4689 289.044 -16.9568 291.554 -16.9568 294.652Z" fill="black" fill-opacity="0.02"/>
<path d="M12.6242 294.652C12.6242 297.749 10.1121 300.259 7.01321 300.259C3.91435 300.259 1.40224 297.749 1.40224 294.652C1.40224 291.554 3.91435 289.044 7.01321 289.044C10.1121 289.044 12.6242 291.554 12.6242 294.652Z" fill="black" fill-opacity="0.02"/>
<path d="M42.2052 294.652C42.2052 297.749 39.6931 300.259 36.5942 300.259C33.4954 300.259 30.9833 297.749 30.9833 294.652C30.9833 291.554 33.4954 289.044 36.5942 289.044C39.6931 289.044 42.2052 291.554 42.2052 294.652Z" fill="black" fill-opacity="0.02"/>
<path d="M71.7862 294.652C71.7862 297.749 69.2741 300.259 66.1752 300.259C63.0764 300.259 60.5643 297.749 60.5643 294.652C60.5643 291.554 63.0764 289.044 66.1752 289.044C69.2741 289.044 71.7862 291.554 71.7862 294.652Z" fill="black" fill-opacity="0.02"/>
<path d="M101.367 294.652C101.367 297.749 98.8551 300.259 95.7563 300.259C92.6574 300.259 90.1453 297.749 90.1453 294.652C90.1453 291.554 92.6574 289.044 95.7563 289.044C98.8551 289.044 101.367 291.554 101.367 294.652Z" fill="black" fill-opacity="0.02"/>
<path d="M130.948 294.652C130.948 297.749 128.436 300.259 125.337 300.259C122.238 300.259 119.726 297.749 119.726 294.652C119.726 291.554 122.238 289.044 125.337 289.044C128.436 289.044 130.948 291.554 130.948 294.652Z" fill="black" fill-opacity="0.02"/>
<path d="M160.529 294.652C160.529 297.749 158.017 300.259 154.918 300.259C151.819 300.259 149.307 297.749 149.307 294.652C149.307 291.554 151.819 289.044 154.918 289.044C158.017 289.044 160.529 291.554 160.529 294.652Z" fill="black" fill-opacity="0.02"/>
<path d="M190.11 294.652C190.11 297.749 187.598 300.259 184.499 300.259C181.4 300.259 178.888 297.749 178.888 294.652C178.888 291.554 181.4 289.044 184.499 289.044C187.598 289.044 190.11 291.554 190.11 294.652Z" fill="black" fill-opacity="0.02"/>
<path d="M-76.1189 235.522C-76.1189 238.619 -78.631 241.13 -81.7298 241.13C-84.8287 241.13 -87.3408 238.619 -87.3408 235.522C-87.3408 232.425 -84.8287 229.914 -81.7298 229.914C-78.631 229.914 -76.1189 232.425 -76.1189 235.522Z" fill="black" fill-opacity="0.02"/>
<path d="M-46.5378 235.522C-46.5378 238.619 -49.05 241.13 -52.1488 241.13C-55.2477 241.13 -57.7598 238.619 -57.7598 235.522C-57.7598 232.425 -55.2477 229.914 -52.1488 229.914C-49.05 229.914 -46.5378 232.425 -46.5378 235.522Z" fill="black" fill-opacity="0.02"/>
<path d="M-16.9568 235.522C-16.9568 238.619 -19.4689 241.13 -22.5678 241.13C-25.6667 241.13 -28.1788 238.619 -28.1788 235.522C-28.1788 232.425 -25.6667 229.914 -22.5678 229.914C-19.4689 229.914 -16.9568 232.425 -16.9568 235.522Z" fill="black" fill-opacity="0.02"/>
<path d="M12.6242 235.522C12.6242 238.619 10.1121 241.13 7.01321 241.13C3.91435 241.13 1.40224 238.619 1.40224 235.522C1.40224 232.425 3.91435 229.914 7.01321 229.914C10.1121 229.914 12.6242 232.425 12.6242 235.522Z" fill="black" fill-opacity="0.02"/>
<path d="M42.2052 235.522C42.2052 238.619 39.6931 241.13 36.5942 241.13C33.4954 241.13 30.9833 238.619 30.9833 235.522C30.9833 232.425 33.4954 229.914 36.5942 229.914C39.6931 229.914 42.2052 232.425 42.2052 235.522Z" fill="black" fill-opacity="0.02"/>
<path d="M71.7862 235.522C71.7862 238.619 69.2741 241.13 66.1752 241.13C63.0764 241.13 60.5643 238.619 60.5643 235.522C60.5643 232.425 63.0764 229.914 66.1752 229.914C69.2741 229.914 71.7862 232.425 71.7862 235.522Z" fill="black" fill-opacity="0.02"/>
<path d="M101.367 235.522C101.367 238.619 98.8551 241.13 95.7563 241.13C92.6574 241.13 90.1453 238.619 90.1453 235.522C90.1453 232.425 92.6574 229.914 95.7563 229.914C98.8551 229.914 101.367 232.425 101.367 235.522Z" fill="black" fill-opacity="0.02"/>
<path d="M130.948 235.522C130.948 238.619 128.436 241.13 125.337 241.13C122.238 241.13 119.726 238.619 119.726 235.522C119.726 232.425 122.238 229.914 125.337 229.914C128.436 229.914 130.948 232.425 130.948 235.522Z" fill="black" fill-opacity="0.02"/>
<path d="M160.529 235.522C160.529 238.619 158.017 241.13 154.918 241.13C151.819 241.13 149.307 238.619 149.307 235.522C149.307 232.425 151.819 229.914 154.918 229.914C158.017 229.914 160.529 232.425 160.529 235.522Z" fill="black" fill-opacity="0.02"/>
<path d="M190.11 235.522C190.11 238.619 187.598 241.13 184.499 241.13C181.4 241.13 178.888 238.619 178.888 235.522C178.888 232.425 181.4 229.914 184.499 229.914C187.598 229.914 190.11 232.425 190.11 235.522Z" fill="black" fill-opacity="0.02"/>
<path d="M-76.1189 324.216C-76.1189 327.314 -78.631 329.824 -81.7298 329.824C-84.8287 329.824 -87.3408 327.314 -87.3408 324.216C-87.3408 321.119 -84.8287 318.608 -81.7298 318.608C-78.631 318.608 -76.1189 321.119 -76.1189 324.216Z" fill="black" fill-opacity="0.02"/>
<path d="M-46.5378 324.216C-46.5378 327.314 -49.05 329.824 -52.1488 329.824C-55.2477 329.824 -57.7598 327.314 -57.7598 324.216C-57.7598 321.119 -55.2477 318.608 -52.1488 318.608C-49.05 318.608 -46.5378 321.119 -46.5378 324.216Z" fill="black" fill-opacity="0.02"/>
<path d="M-16.9568 324.216C-16.9568 327.314 -19.4689 329.824 -22.5678 329.824C-25.6667 329.824 -28.1788 327.314 -28.1788 324.216C-28.1788 321.119 -25.6667 318.608 -22.5678 318.608C-19.4689 318.608 -16.9568 321.119 -16.9568 324.216Z" fill="black" fill-opacity="0.02"/>
<path d="M12.6242 324.216C12.6242 327.314 10.1121 329.824 7.01321 329.824C3.91435 329.824 1.40224 327.314 1.40224 324.216C1.40224 321.119 3.91435 318.608 7.01321 318.608C10.1121 318.608 12.6242 321.119 12.6242 324.216Z" fill="black" fill-opacity="0.02"/>
<path d="M42.2052 324.216C42.2052 327.314 39.6931 329.824 36.5942 329.824C33.4954 329.824 30.9833 327.314 30.9833 324.216C30.9833 321.119 33.4954 318.608 36.5942 318.608C39.6931 318.608 42.2052 321.119 42.2052 324.216Z" fill="black" fill-opacity="0.02"/>
<path d="M71.7862 324.216C71.7862 327.314 69.2741 329.824 66.1752 329.824C63.0764 329.824 60.5643 327.314 60.5643 324.216C60.5643 321.119 63.0764 318.608 66.1752 318.608C69.2741 318.608 71.7862 321.119 71.7862 324.216Z" fill="black" fill-opacity="0.02"/>
<path d="M101.367 324.216C101.367 327.314 98.8551 329.824 95.7563 329.824C92.6574 329.824 90.1453 327.314 90.1453 324.216C90.1453 321.119 92.6574 318.608 95.7563 318.608C98.8551 318.608 101.367 321.119 101.367 324.216Z" fill="black" fill-opacity="0.02"/>
<path d="M130.948 324.216C130.948 327.314 128.436 329.824 125.337 329.824C122.238 329.824 119.726 327.314 119.726 324.216C119.726 321.119 122.238 318.608 125.337 318.608C128.436 318.608 130.948 321.119 130.948 324.216Z" fill="black" fill-opacity="0.02"/>
<path d="M160.529 324.216C160.529 327.314 158.017 329.824 154.918 329.824C151.819 329.824 149.307 327.314 149.307 324.216C149.307 321.119 151.819 318.608 154.918 318.608C158.017 318.608 160.529 321.119 160.529 324.216Z" fill="black" fill-opacity="0.02"/>
<path d="M190.11 324.216C190.11 327.314 187.598 329.824 184.499 329.824C181.4 329.824 178.888 327.314 178.888 324.216C178.888 321.119 181.4 318.608 184.499 318.608C187.598 318.608 190.11 321.119 190.11 324.216Z" fill="black" fill-opacity="0.02"/>
<path d="M219.155 -0.982397C219.155 2.11478 216.643 4.62554 213.545 4.62554C210.446 4.62554 207.934 2.11478 207.934 -0.982397C207.934 -4.07957 210.446 -6.59033 213.545 -6.59033C216.643 -6.59033 219.155 -4.07957 219.155 -0.982397Z" fill="black" fill-opacity="0.02"/>
<path d="M248.737 -0.982397C248.737 2.11478 246.224 4.62554 243.126 4.62554C240.027 4.62554 237.515 2.11478 237.515 -0.982397C237.515 -4.07957 240.027 -6.59033 243.126 -6.59033C246.224 -6.59033 248.737 -4.07957 248.737 -0.982397Z" fill="black" fill-opacity="0.02"/>
<path d="M278.318 -0.982397C278.318 2.11478 275.805 4.62554 272.707 4.62554C269.608 4.62554 267.096 2.11478 267.096 -0.982397C267.096 -4.07957 269.608 -6.59033 272.707 -6.59033C275.805 -6.59033 278.318 -4.07957 278.318 -0.982397Z" fill="black" fill-opacity="0.02"/>
<path d="M307.899 -0.982397C307.899 2.11478 305.386 4.62554 302.288 4.62554C299.189 4.62554 296.677 2.11478 296.677 -0.982397C296.677 -4.07957 299.189 -6.59033 302.288 -6.59033C305.386 -6.59033 307.899 -4.07957 307.899 -0.982397Z" fill="black" fill-opacity="0.02"/>
<path d="M337.48 -0.982397C337.48 2.11478 334.967 4.62554 331.869 4.62554C328.77 4.62554 326.258 2.11478 326.258 -0.982397C326.258 -4.07957 328.77 -6.59033 331.869 -6.59033C334.967 -6.59033 337.48 -4.07957 337.48 -0.982397Z" fill="black" fill-opacity="0.02"/>
<path d="M367.061 -0.982397C367.061 2.11478 364.548 4.62554 361.45 4.62554C358.351 4.62554 355.839 2.11478 355.839 -0.982397C355.839 -4.07957 358.351 -6.59033 361.45 -6.59033C364.548 -6.59033 367.061 -4.07957 367.061 -0.982397Z" fill="black" fill-opacity="0.02"/>
<path d="M396.642 -0.982397C396.642 2.11478 394.13 4.62554 391.031 4.62554C387.932 4.62554 385.42 2.11478 385.42 -0.982397C385.42 -4.07957 387.932 -6.59033 391.031 -6.59033C394.13 -6.59033 396.642 -4.07957 396.642 -0.982397Z" fill="black" fill-opacity="0.02"/>
<path d="M426.223 -0.982397C426.223 2.11478 423.711 4.62554 420.612 4.62554C417.513 4.62554 415.001 2.11478 415.001 -0.982397C415.001 -4.07957 417.513 -6.59033 420.612 -6.59033C423.711 -6.59033 426.223 -4.07957 426.223 -0.982397Z" fill="black" fill-opacity="0.02"/>
<path d="M455.804 -0.982397C455.804 2.11478 453.292 4.62554 450.193 4.62554C447.094 4.62554 444.582 2.11478 444.582 -0.982397C444.582 -4.07957 447.094 -6.59033 450.193 -6.59033C453.292 -6.59033 455.804 -4.07957 455.804 -0.982397Z" fill="black" fill-opacity="0.02"/>
<path d="M485.385 -0.982397C485.385 2.11478 482.873 4.62554 479.774 4.62554C476.675 4.62554 474.163 2.11478 474.163 -0.982397C474.163 -4.07957 476.675 -6.59033 479.774 -6.59033C482.873 -6.59033 485.385 -4.07957 485.385 -0.982397Z" fill="black" fill-opacity="0.02"/>
<path d="M219.155 87.7123C219.155 90.8094 216.643 93.3202 213.545 93.3202C210.446 93.3202 207.934 90.8094 207.934 87.7123C207.934 84.6151 210.446 82.1043 213.545 82.1043C216.643 82.1043 219.155 84.6151 219.155 87.7123Z" fill="black" fill-opacity="0.02"/>
<path d="M248.737 87.7123C248.737 90.8094 246.224 93.3202 243.126 93.3202C240.027 93.3202 237.515 90.8094 237.515 87.7123C237.515 84.6151 240.027 82.1043 243.126 82.1043C246.224 82.1043 248.737 84.6151 248.737 87.7123Z" fill="black" fill-opacity="0.02"/>
<path d="M278.318 87.7123C278.318 90.8094 275.805 93.3202 272.707 93.3202C269.608 93.3202 267.096 90.8094 267.096 87.7123C267.096 84.6151 269.608 82.1043 272.707 82.1043C275.805 82.1043 278.318 84.6151 278.318 87.7123Z" fill="black" fill-opacity="0.02"/>
<path d="M307.899 87.7123C307.899 90.8094 305.386 93.3202 302.288 93.3202C299.189 93.3202 296.677 90.8094 296.677 87.7123C296.677 84.6151 299.189 82.1043 302.288 82.1043C305.386 82.1043 307.899 84.6151 307.899 87.7123Z" fill="black" fill-opacity="0.02"/>
<path d="M337.48 87.7123C337.48 90.8094 334.967 93.3202 331.869 93.3202C328.77 93.3202 326.258 90.8094 326.258 87.7123C326.258 84.6151 328.77 82.1043 331.869 82.1043C334.967 82.1043 337.48 84.6151 337.48 87.7123Z" fill="black" fill-opacity="0.02"/>
<path d="M367.061 87.7123C367.061 90.8094 364.548 93.3202 361.45 93.3202C358.351 93.3202 355.839 90.8094 355.839 87.7123C355.839 84.6151 358.351 82.1043 361.45 82.1043C364.548 82.1043 367.061 84.6151 367.061 87.7123Z" fill="black" fill-opacity="0.02"/>
<path d="M396.642 87.7123C396.642 90.8094 394.13 93.3202 391.031 93.3202C387.932 93.3202 385.42 90.8094 385.42 87.7123C385.42 84.6151 387.932 82.1043 391.031 82.1043C394.13 82.1043 396.642 84.6151 396.642 87.7123Z" fill="black" fill-opacity="0.02"/>
<path d="M426.223 87.7123C426.223 90.8094 423.711 93.3202 420.612 93.3202C417.513 93.3202 415.001 90.8094 415.001 87.7123C415.001 84.6151 417.513 82.1043 420.612 82.1043C423.711 82.1043 426.223 84.6151 426.223 87.7123Z" fill="black" fill-opacity="0.02"/>
<path d="M455.804 87.7123C455.804 90.8094 453.292 93.3202 450.193 93.3202C447.094 93.3202 444.582 90.8094 444.582 87.7123C444.582 84.6151 447.094 82.1043 450.193 82.1043C453.292 82.1043 455.804 84.6151 455.804 87.7123Z" fill="black" fill-opacity="0.02"/>
<path d="M485.385 87.7123C485.385 90.8094 482.873 93.3202 479.774 93.3202C476.675 93.3202 474.163 90.8094 474.163 87.7123C474.163 84.6151 476.675 82.1043 479.774 82.1043C482.873 82.1043 485.385 84.6151 485.385 87.7123Z" fill="black" fill-opacity="0.02"/>
<path d="M219.155 28.5825C219.155 31.6797 216.643 34.1904 213.545 34.1904C210.446 34.1904 207.934 31.6797 207.934 28.5825C207.934 25.4853 210.446 22.9746 213.545 22.9746C216.643 22.9746 219.155 25.4853 219.155 28.5825Z" fill="black" fill-opacity="0.02"/>
<path d="M248.737 28.5825C248.737 31.6797 246.224 34.1904 243.126 34.1904C240.027 34.1904 237.515 31.6797 237.515 28.5825C237.515 25.4853 240.027 22.9746 243.126 22.9746C246.224 22.9746 248.737 25.4853 248.737 28.5825Z" fill="black" fill-opacity="0.02"/>
<path d="M278.318 28.5825C278.318 31.6797 275.805 34.1904 272.707 34.1904C269.608 34.1904 267.096 31.6797 267.096 28.5825C267.096 25.4853 269.608 22.9746 272.707 22.9746C275.805 22.9746 278.318 25.4853 278.318 28.5825Z" fill="black" fill-opacity="0.02"/>
<path d="M307.899 28.5825C307.899 31.6797 305.386 34.1904 302.288 34.1904C299.189 34.1904 296.677 31.6797 296.677 28.5825C296.677 25.4853 299.189 22.9746 302.288 22.9746C305.386 22.9746 307.899 25.4853 307.899 28.5825Z" fill="black" fill-opacity="0.02"/>
<path d="M337.48 28.5825C337.48 31.6797 334.967 34.1904 331.869 34.1904C328.77 34.1904 326.258 31.6797 326.258 28.5825C326.258 25.4853 328.77 22.9746 331.869 22.9746C334.967 22.9746 337.48 25.4853 337.48 28.5825Z" fill="black" fill-opacity="0.02"/>
<path d="M367.061 28.5825C367.061 31.6797 364.548 34.1904 361.45 34.1904C358.351 34.1904 355.839 31.6797 355.839 28.5825C355.839 25.4853 358.351 22.9746 361.45 22.9746C364.548 22.9746 367.061 25.4853 367.061 28.5825Z" fill="black" fill-opacity="0.02"/>
<path d="M396.642 28.5825C396.642 31.6797 394.13 34.1904 391.031 34.1904C387.932 34.1904 385.42 31.6797 385.42 28.5825C385.42 25.4853 387.932 22.9746 391.031 22.9746C394.13 22.9746 396.642 25.4853 396.642 28.5825Z" fill="black" fill-opacity="0.02"/>
<path d="M426.223 28.5825C426.223 31.6797 423.711 34.1904 420.612 34.1904C417.513 34.1904 415.001 31.6797 415.001 28.5825C415.001 25.4853 417.513 22.9746 420.612 22.9746C423.711 22.9746 426.223 25.4853 426.223 28.5825Z" fill="black" fill-opacity="0.02"/>
<path d="M455.804 28.5825C455.804 31.6797 453.292 34.1904 450.193 34.1904C447.094 34.1904 444.582 31.6797 444.582 28.5825C444.582 25.4853 447.094 22.9746 450.193 22.9746C453.292 22.9746 455.804 25.4853 455.804 28.5825Z" fill="black" fill-opacity="0.02"/>
<path d="M485.385 28.5825C485.385 31.6797 482.873 34.1904 479.774 34.1904C476.675 34.1904 474.163 31.6797 474.163 28.5825C474.163 25.4853 476.675 22.9746 479.774 22.9746C482.873 22.9746 485.385 25.4853 485.385 28.5825Z" fill="black" fill-opacity="0.02"/>
<path d="M219.155 117.277C219.155 120.374 216.643 122.885 213.545 122.885C210.446 122.885 207.934 120.374 207.934 117.277C207.934 114.18 210.446 111.669 213.545 111.669C216.643 111.669 219.155 114.18 219.155 117.277Z" fill="black" fill-opacity="0.02"/>
<path d="M248.737 117.277C248.737 120.374 246.224 122.885 243.126 122.885C240.027 122.885 237.515 120.374 237.515 117.277C237.515 114.18 240.027 111.669 243.126 111.669C246.224 111.669 248.737 114.18 248.737 117.277Z" fill="black" fill-opacity="0.02"/>
<path d="M278.318 117.277C278.318 120.374 275.805 122.885 272.707 122.885C269.608 122.885 267.096 120.374 267.096 117.277C267.096 114.18 269.608 111.669 272.707 111.669C275.805 111.669 278.318 114.18 278.318 117.277Z" fill="black" fill-opacity="0.02"/>
<path d="M307.899 117.277C307.899 120.374 305.386 122.885 302.288 122.885C299.189 122.885 296.677 120.374 296.677 117.277C296.677 114.18 299.189 111.669 302.288 111.669C305.386 111.669 307.899 114.18 307.899 117.277Z" fill="black" fill-opacity="0.02"/>
<path d="M337.48 117.277C337.48 120.374 334.967 122.885 331.869 122.885C328.77 122.885 326.258 120.374 326.258 117.277C326.258 114.18 328.77 111.669 331.869 111.669C334.967 111.669 337.48 114.18 337.48 117.277Z" fill="black" fill-opacity="0.02"/>
<path d="M367.061 117.277C367.061 120.374 364.548 122.885 361.45 122.885C358.351 122.885 355.839 120.374 355.839 117.277C355.839 114.18 358.351 111.669 361.45 111.669C364.548 111.669 367.061 114.18 367.061 117.277Z" fill="black" fill-opacity="0.02"/>
<path d="M396.642 117.277C396.642 120.374 394.13 122.885 391.031 122.885C387.932 122.885 385.42 120.374 385.42 117.277C385.42 114.18 387.932 111.669 391.031 111.669C394.13 111.669 396.642 114.18 396.642 117.277Z" fill="black" fill-opacity="0.02"/>
<path d="M426.223 117.277C426.223 120.374 423.711 122.885 420.612 122.885C417.513 122.885 415.001 120.374 415.001 117.277C415.001 114.18 417.513 111.669 420.612 111.669C423.711 111.669 426.223 114.18 426.223 117.277Z" fill="black" fill-opacity="0.02"/>
<path d="M455.804 117.277C455.804 120.374 453.292 122.885 450.193 122.885C447.094 122.885 444.582 120.374 444.582 117.277C444.582 114.18 447.094 111.669 450.193 111.669C453.292 111.669 455.804 114.18 455.804 117.277Z" fill="black" fill-opacity="0.02"/>
<path d="M485.385 117.277C485.385 120.374 482.873 122.885 479.774 122.885C476.675 122.885 474.163 120.374 474.163 117.277C474.163 114.18 476.675 111.669 479.774 111.669C482.873 111.669 485.385 114.18 485.385 117.277Z" fill="black" fill-opacity="0.02"/>
<path d="M219.155 58.1474C219.155 61.2446 216.643 63.7553 213.545 63.7553C210.446 63.7553 207.934 61.2446 207.934 58.1474C207.934 55.0502 210.446 52.5394 213.545 52.5394C216.643 52.5394 219.155 55.0502 219.155 58.1474Z" fill="black" fill-opacity="0.02"/>
<path d="M248.737 58.1474C248.737 61.2446 246.224 63.7553 243.126 63.7553C240.027 63.7553 237.515 61.2446 237.515 58.1474C237.515 55.0502 240.027 52.5394 243.126 52.5394C246.224 52.5394 248.737 55.0502 248.737 58.1474Z" fill="black" fill-opacity="0.02"/>
<path d="M278.318 58.1474C278.318 61.2446 275.805 63.7553 272.707 63.7553C269.608 63.7553 267.096 61.2446 267.096 58.1474C267.096 55.0502 269.608 52.5394 272.707 52.5394C275.805 52.5394 278.318 55.0502 278.318 58.1474Z" fill="black" fill-opacity="0.02"/>
<path d="M307.899 58.1474C307.899 61.2446 305.386 63.7553 302.288 63.7553C299.189 63.7553 296.677 61.2446 296.677 58.1474C296.677 55.0502 299.189 52.5394 302.288 52.5394C305.386 52.5394 307.899 55.0502 307.899 58.1474Z" fill="black" fill-opacity="0.02"/>
<path d="M337.48 58.1474C337.48 61.2446 334.967 63.7553 331.869 63.7553C328.77 63.7553 326.258 61.2446 326.258 58.1474C326.258 55.0502 328.77 52.5394 331.869 52.5394C334.967 52.5394 337.48 55.0502 337.48 58.1474Z" fill="black" fill-opacity="0.02"/>
<path d="M367.061 58.1474C367.061 61.2446 364.548 63.7553 361.45 63.7553C358.351 63.7553 355.839 61.2446 355.839 58.1474C355.839 55.0502 358.351 52.5394 361.45 52.5394C364.548 52.5394 367.061 55.0502 367.061 58.1474Z" fill="black" fill-opacity="0.02"/>
<path d="M396.642 58.1474C396.642 61.2446 394.13 63.7553 391.031 63.7553C387.932 63.7553 385.42 61.2446 385.42 58.1474C385.42 55.0502 387.932 52.5394 391.031 52.5394C394.13 52.5394 396.642 55.0502 396.642 58.1474Z" fill="black" fill-opacity="0.02"/>
<path d="M426.223 58.1474C426.223 61.2446 423.711 63.7553 420.612 63.7553C417.513 63.7553 415.001 61.2446 415.001 58.1474C415.001 55.0502 417.513 52.5394 420.612 52.5394C423.711 52.5394 426.223 55.0502 426.223 58.1474Z" fill="black" fill-opacity="0.02"/>
<path d="M455.804 58.1474C455.804 61.2446 453.292 63.7553 450.193 63.7553C447.094 63.7553 444.582 61.2446 444.582 58.1474C444.582 55.0502 447.094 52.5394 450.193 52.5394C453.292 52.5394 455.804 55.0502 455.804 58.1474Z" fill="black" fill-opacity="0.02"/>
<path d="M485.385 58.1474C485.385 61.2446 482.873 63.7553 479.774 63.7553C476.675 63.7553 474.163 61.2446 474.163 58.1474C474.163 55.0502 476.675 52.5394 479.774 52.5394C482.873 52.5394 485.385 55.0502 485.385 58.1474Z" fill="black" fill-opacity="0.02"/>
<path d="M219.155 146.842C219.155 149.939 216.643 152.45 213.545 152.45C210.446 152.45 207.934 149.939 207.934 146.842C207.934 143.745 210.446 141.234 213.545 141.234C216.643 141.234 219.155 143.745 219.155 146.842Z" fill="black" fill-opacity="0.02"/>
<path d="M248.737 146.842C248.737 149.939 246.224 152.45 243.126 152.45C240.027 152.45 237.515 149.939 237.515 146.842C237.515 143.745 240.027 141.234 243.126 141.234C246.224 141.234 248.737 143.745 248.737 146.842Z" fill="black" fill-opacity="0.02"/>
<path d="M278.318 146.842C278.318 149.939 275.805 152.45 272.707 152.45C269.608 152.45 267.096 149.939 267.096 146.842C267.096 143.745 269.608 141.234 272.707 141.234C275.805 141.234 278.318 143.745 278.318 146.842Z" fill="black" fill-opacity="0.02"/>
<path d="M307.899 146.842C307.899 149.939 305.386 152.45 302.288 152.45C299.189 152.45 296.677 149.939 296.677 146.842C296.677 143.745 299.189 141.234 302.288 141.234C305.386 141.234 307.899 143.745 307.899 146.842Z" fill="black" fill-opacity="0.02"/>
<path d="M337.48 146.842C337.48 149.939 334.967 152.45 331.869 152.45C328.77 152.45 326.258 149.939 326.258 146.842C326.258 143.745 328.77 141.234 331.869 141.234C334.967 141.234 337.48 143.745 337.48 146.842Z" fill="black" fill-opacity="0.02"/>
<path d="M367.061 146.842C367.061 149.939 364.548 152.45 361.45 152.45C358.351 152.45 355.839 149.939 355.839 146.842C355.839 143.745 358.351 141.234 361.45 141.234C364.548 141.234 367.061 143.745 367.061 146.842Z" fill="black" fill-opacity="0.02"/>
<path d="M396.642 146.842C396.642 149.939 394.13 152.45 391.031 152.45C387.932 152.45 385.42 149.939 385.42 146.842C385.42 143.745 387.932 141.234 391.031 141.234C394.13 141.234 396.642 143.745 396.642 146.842Z" fill="black" fill-opacity="0.02"/>
<path d="M426.223 146.842C426.223 149.939 423.711 152.45 420.612 152.45C417.513 152.45 415.001 149.939 415.001 146.842C415.001 143.745 417.513 141.234 420.612 141.234C423.711 141.234 426.223 143.745 426.223 146.842Z" fill="black" fill-opacity="0.02"/>
<path d="M455.804 146.842C455.804 149.939 453.292 152.45 450.193 152.45C447.094 152.45 444.582 149.939 444.582 146.842C444.582 143.745 447.094 141.234 450.193 141.234C453.292 141.234 455.804 143.745 455.804 146.842Z" fill="black" fill-opacity="0.02"/>
<path d="M485.385 146.842C485.385 149.939 482.873 152.45 479.774 152.45C476.675 152.45 474.163 149.939 474.163 146.842C474.163 143.745 476.675 141.234 479.774 141.234C482.873 141.234 485.385 143.745 485.385 146.842Z" fill="black" fill-opacity="0.02"/>
<path d="M219.155 176.392C219.155 179.489 216.643 182 213.545 182C210.446 182 207.934 179.489 207.934 176.392C207.934 173.295 210.446 170.784 213.545 170.784C216.643 170.784 219.155 173.295 219.155 176.392Z" fill="black" fill-opacity="0.02"/>
<path d="M248.737 176.392C248.737 179.489 246.224 182 243.126 182C240.027 182 237.515 179.489 237.515 176.392C237.515 173.295 240.027 170.784 243.126 170.784C246.224 170.784 248.737 173.295 248.737 176.392Z" fill="black" fill-opacity="0.02"/>
<path d="M278.318 176.392C278.318 179.489 275.805 182 272.707 182C269.608 182 267.096 179.489 267.096 176.392C267.096 173.295 269.608 170.784 272.707 170.784C275.805 170.784 278.318 173.295 278.318 176.392Z" fill="black" fill-opacity="0.02"/>
<path d="M307.899 176.392C307.899 179.489 305.386 182 302.288 182C299.189 182 296.677 179.489 296.677 176.392C296.677 173.295 299.189 170.784 302.288 170.784C305.386 170.784 307.899 173.295 307.899 176.392Z" fill="black" fill-opacity="0.02"/>
<path d="M337.48 176.392C337.48 179.489 334.967 182 331.869 182C328.77 182 326.258 179.489 326.258 176.392C326.258 173.295 328.77 170.784 331.869 170.784C334.967 170.784 337.48 173.295 337.48 176.392Z" fill="black" fill-opacity="0.02"/>
<path d="M367.061 176.392C367.061 179.489 364.548 182 361.45 182C358.351 182 355.839 179.489 355.839 176.392C355.839 173.295 358.351 170.784 361.45 170.784C364.548 170.784 367.061 173.295 367.061 176.392Z" fill="black" fill-opacity="0.02"/>
<path d="M396.642 176.392C396.642 179.489 394.13 182 391.031 182C387.932 182 385.42 179.489 385.42 176.392C385.42 173.295 387.932 170.784 391.031 170.784C394.13 170.784 396.642 173.295 396.642 176.392Z" fill="black" fill-opacity="0.02"/>
<path d="M426.223 176.392C426.223 179.489 423.711 182 420.612 182C417.513 182 415.001 179.489 415.001 176.392C415.001 173.295 417.513 170.784 420.612 170.784C423.711 170.784 426.223 173.295 426.223 176.392Z" fill="black" fill-opacity="0.02"/>
<path d="M455.804 176.392C455.804 179.489 453.292 182 450.193 182C447.094 182 444.582 179.489 444.582 176.392C444.582 173.295 447.094 170.784 450.193 170.784C453.292 170.784 455.804 173.295 455.804 176.392Z" fill="black" fill-opacity="0.02"/>
<path d="M485.385 176.392C485.385 179.489 482.873 182 479.774 182C476.675 182 474.163 179.489 474.163 176.392C474.163 173.295 476.675 170.784 479.774 170.784C482.873 170.784 485.385 173.295 485.385 176.392Z" fill="black" fill-opacity="0.02"/>
<path d="M219.155 265.087C219.155 268.184 216.643 270.695 213.545 270.695C210.446 270.695 207.934 268.184 207.934 265.087C207.934 261.989 210.446 259.479 213.545 259.479C216.643 259.479 219.155 261.989 219.155 265.087Z" fill="black" fill-opacity="0.02"/>
<path d="M248.737 265.087C248.737 268.184 246.224 270.695 243.126 270.695C240.027 270.695 237.515 268.184 237.515 265.087C237.515 261.989 240.027 259.479 243.126 259.479C246.224 259.479 248.737 261.989 248.737 265.087Z" fill="black" fill-opacity="0.02"/>
<path d="M278.318 265.087C278.318 268.184 275.805 270.695 272.707 270.695C269.608 270.695 267.096 268.184 267.096 265.087C267.096 261.989 269.608 259.479 272.707 259.479C275.805 259.479 278.318 261.989 278.318 265.087Z" fill="black" fill-opacity="0.02"/>
<path d="M307.899 265.087C307.899 268.184 305.386 270.695 302.288 270.695C299.189 270.695 296.677 268.184 296.677 265.087C296.677 261.989 299.189 259.479 302.288 259.479C305.386 259.479 307.899 261.989 307.899 265.087Z" fill="black" fill-opacity="0.02"/>
<path d="M337.48 265.087C337.48 268.184 334.967 270.695 331.869 270.695C328.77 270.695 326.258 268.184 326.258 265.087C326.258 261.989 328.77 259.479 331.869 259.479C334.967 259.479 337.48 261.989 337.48 265.087Z" fill="black" fill-opacity="0.02"/>
<path d="M367.061 265.087C367.061 268.184 364.548 270.695 361.45 270.695C358.351 270.695 355.839 268.184 355.839 265.087C355.839 261.989 358.351 259.479 361.45 259.479C364.548 259.479 367.061 261.989 367.061 265.087Z" fill="black" fill-opacity="0.02"/>
<path d="M396.642 265.087C396.642 268.184 394.13 270.695 391.031 270.695C387.932 270.695 385.42 268.184 385.42 265.087C385.42 261.989 387.932 259.479 391.031 259.479C394.13 259.479 396.642 261.989 396.642 265.087Z" fill="black" fill-opacity="0.02"/>
<path d="M426.223 265.087C426.223 268.184 423.711 270.695 420.612 270.695C417.513 270.695 415.001 268.184 415.001 265.087C415.001 261.989 417.513 259.479 420.612 259.479C423.711 259.479 426.223 261.989 426.223 265.087Z" fill="black" fill-opacity="0.02"/>
<path d="M455.804 265.087C455.804 268.184 453.292 270.695 450.193 270.695C447.094 270.695 444.582 268.184 444.582 265.087C444.582 261.989 447.094 259.479 450.193 259.479C453.292 259.479 455.804 261.989 455.804 265.087Z" fill="black" fill-opacity="0.02"/>
<path d="M485.385 265.087C485.385 268.184 482.873 270.695 479.774 270.695C476.675 270.695 474.163 268.184 474.163 265.087C474.163 261.989 476.675 259.479 479.774 259.479C482.873 259.479 485.385 261.989 485.385 265.087Z" fill="black" fill-opacity="0.02"/>
<path d="M219.155 205.957C219.155 209.054 216.643 211.565 213.545 211.565C210.446 211.565 207.934 209.054 207.934 205.957C207.934 202.86 210.446 200.349 213.545 200.349C216.643 200.349 219.155 202.86 219.155 205.957Z" fill="black" fill-opacity="0.02"/>
<path d="M248.737 205.957C248.737 209.054 246.224 211.565 243.126 211.565C240.027 211.565 237.515 209.054 237.515 205.957C237.515 202.86 240.027 200.349 243.126 200.349C246.224 200.349 248.737 202.86 248.737 205.957Z" fill="black" fill-opacity="0.02"/>
<path d="M278.318 205.957C278.318 209.054 275.805 211.565 272.707 211.565C269.608 211.565 267.096 209.054 267.096 205.957C267.096 202.86 269.608 200.349 272.707 200.349C275.805 200.349 278.318 202.86 278.318 205.957Z" fill="black" fill-opacity="0.02"/>
<path d="M307.899 205.957C307.899 209.054 305.386 211.565 302.288 211.565C299.189 211.565 296.677 209.054 296.677 205.957C296.677 202.86 299.189 200.349 302.288 200.349C305.386 200.349 307.899 202.86 307.899 205.957Z" fill="black" fill-opacity="0.02"/>
<path d="M337.48 205.957C337.48 209.054 334.967 211.565 331.869 211.565C328.77 211.565 326.258 209.054 326.258 205.957C326.258 202.86 328.77 200.349 331.869 200.349C334.967 200.349 337.48 202.86 337.48 205.957Z" fill="black" fill-opacity="0.02"/>
<path d="M367.061 205.957C367.061 209.054 364.548 211.565 361.45 211.565C358.351 211.565 355.839 209.054 355.839 205.957C355.839 202.86 358.351 200.349 361.45 200.349C364.548 200.349 367.061 202.86 367.061 205.957Z" fill="black" fill-opacity="0.02"/>
<path d="M396.642 205.957C396.642 209.054 394.13 211.565 391.031 211.565C387.932 211.565 385.42 209.054 385.42 205.957C385.42 202.86 387.932 200.349 391.031 200.349C394.13 200.349 396.642 202.86 396.642 205.957Z" fill="black" fill-opacity="0.02"/>
<path d="M426.223 205.957C426.223 209.054 423.711 211.565 420.612 211.565C417.513 211.565 415.001 209.054 415.001 205.957C415.001 202.86 417.513 200.349 420.612 200.349C423.711 200.349 426.223 202.86 426.223 205.957Z" fill="black" fill-opacity="0.02"/>
<path d="M455.804 205.957C455.804 209.054 453.292 211.565 450.193 211.565C447.094 211.565 444.582 209.054 444.582 205.957C444.582 202.86 447.094 200.349 450.193 200.349C453.292 200.349 455.804 202.86 455.804 205.957Z" fill="black" fill-opacity="0.02"/>
<path d="M485.385 205.957C485.385 209.054 482.873 211.565 479.774 211.565C476.675 211.565 474.163 209.054 474.163 205.957C474.163 202.86 476.675 200.349 479.774 200.349C482.873 200.349 485.385 202.86 485.385 205.957Z" fill="black" fill-opacity="0.02"/>
<path d="M219.155 294.652C219.155 297.749 216.643 300.259 213.545 300.259C210.446 300.259 207.934 297.749 207.934 294.652C207.934 291.554 210.446 289.044 213.545 289.044C216.643 289.044 219.155 291.554 219.155 294.652Z" fill="black" fill-opacity="0.02"/>
<path d="M248.737 294.652C248.737 297.749 246.224 300.259 243.126 300.259C240.027 300.259 237.515 297.749 237.515 294.652C237.515 291.554 240.027 289.044 243.126 289.044C246.224 289.044 248.737 291.554 248.737 294.652Z" fill="black" fill-opacity="0.02"/>
<path d="M278.318 294.652C278.318 297.749 275.805 300.259 272.707 300.259C269.608 300.259 267.096 297.749 267.096 294.652C267.096 291.554 269.608 289.044 272.707 289.044C275.805 289.044 278.318 291.554 278.318 294.652Z" fill="black" fill-opacity="0.02"/>
<path d="M307.899 294.652C307.899 297.749 305.386 300.259 302.288 300.259C299.189 300.259 296.677 297.749 296.677 294.652C296.677 291.554 299.189 289.044 302.288 289.044C305.386 289.044 307.899 291.554 307.899 294.652Z" fill="black" fill-opacity="0.02"/>
<path d="M337.48 294.652C337.48 297.749 334.967 300.259 331.869 300.259C328.77 300.259 326.258 297.749 326.258 294.652C326.258 291.554 328.77 289.044 331.869 289.044C334.967 289.044 337.48 291.554 337.48 294.652Z" fill="black" fill-opacity="0.02"/>
<path d="M367.061 294.652C367.061 297.749 364.548 300.259 361.45 300.259C358.351 300.259 355.839 297.749 355.839 294.652C355.839 291.554 358.351 289.044 361.45 289.044C364.548 289.044 367.061 291.554 367.061 294.652Z" fill="black" fill-opacity="0.02"/>
<path d="M396.642 294.652C396.642 297.749 394.13 300.259 391.031 300.259C387.932 300.259 385.42 297.749 385.42 294.652C385.42 291.554 387.932 289.044 391.031 289.044C394.13 289.044 396.642 291.554 396.642 294.652Z" fill="black" fill-opacity="0.02"/>
<path d="M426.223 294.652C426.223 297.749 423.711 300.259 420.612 300.259C417.513 300.259 415.001 297.749 415.001 294.652C415.001 291.554 417.513 289.044 420.612 289.044C423.711 289.044 426.223 291.554 426.223 294.652Z" fill="black" fill-opacity="0.02"/>
<path d="M455.804 294.652C455.804 297.749 453.292 300.259 450.193 300.259C447.094 300.259 444.582 297.749 444.582 294.652C444.582 291.554 447.094 289.044 450.193 289.044C453.292 289.044 455.804 291.554 455.804 294.652Z" fill="black" fill-opacity="0.02"/>
<path d="M485.385 294.652C485.385 297.749 482.873 300.259 479.774 300.259C476.675 300.259 474.163 297.749 474.163 294.652C474.163 291.554 476.675 289.044 479.774 289.044C482.873 289.044 485.385 291.554 485.385 294.652Z" fill="black" fill-opacity="0.02"/>
<path d="M219.155 235.522C219.155 238.619 216.643 241.13 213.545 241.13C210.446 241.13 207.934 238.619 207.934 235.522C207.934 232.425 210.446 229.914 213.545 229.914C216.643 229.914 219.155 232.425 219.155 235.522Z" fill="black" fill-opacity="0.02"/>
<path d="M248.737 235.522C248.737 238.619 246.224 241.13 243.126 241.13C240.027 241.13 237.515 238.619 237.515 235.522C237.515 232.425 240.027 229.914 243.126 229.914C246.224 229.914 248.737 232.425 248.737 235.522Z" fill="black" fill-opacity="0.02"/>
<path d="M278.318 235.522C278.318 238.619 275.805 241.13 272.707 241.13C269.608 241.13 267.096 238.619 267.096 235.522C267.096 232.425 269.608 229.914 272.707 229.914C275.805 229.914 278.318 232.425 278.318 235.522Z" fill="black" fill-opacity="0.02"/>
<path d="M307.899 235.522C307.899 238.619 305.386 241.13 302.288 241.13C299.189 241.13 296.677 238.619 296.677 235.522C296.677 232.425 299.189 229.914 302.288 229.914C305.386 229.914 307.899 232.425 307.899 235.522Z" fill="black" fill-opacity="0.02"/>
<path d="M337.48 235.522C337.48 238.619 334.967 241.13 331.869 241.13C328.77 241.13 326.258 238.619 326.258 235.522C326.258 232.425 328.77 229.914 331.869 229.914C334.967 229.914 337.48 232.425 337.48 235.522Z" fill="black" fill-opacity="0.02"/>
<path d="M367.061 235.522C367.061 238.619 364.548 241.13 361.45 241.13C358.351 241.13 355.839 238.619 355.839 235.522C355.839 232.425 358.351 229.914 361.45 229.914C364.548 229.914 367.061 232.425 367.061 235.522Z" fill="black" fill-opacity="0.02"/>
<path d="M396.642 235.522C396.642 238.619 394.13 241.13 391.031 241.13C387.932 241.13 385.42 238.619 385.42 235.522C385.42 232.425 387.932 229.914 391.031 229.914C394.13 229.914 396.642 232.425 396.642 235.522Z" fill="black" fill-opacity="0.02"/>
<path d="M426.223 235.522C426.223 238.619 423.711 241.13 420.612 241.13C417.513 241.13 415.001 238.619 415.001 235.522C415.001 232.425 417.513 229.914 420.612 229.914C423.711 229.914 426.223 232.425 426.223 235.522Z" fill="black" fill-opacity="0.02"/>
<path d="M455.804 235.522C455.804 238.619 453.292 241.13 450.193 241.13C447.094 241.13 444.582 238.619 444.582 235.522C444.582 232.425 447.094 229.914 450.193 229.914C453.292 229.914 455.804 232.425 455.804 235.522Z" fill="black" fill-opacity="0.02"/>
<path d="M485.385 235.522C485.385 238.619 482.873 241.13 479.774 241.13C476.675 241.13 474.163 238.619 474.163 235.522C474.163 232.425 476.675 229.914 479.774 229.914C482.873 229.914 485.385 232.425 485.385 235.522Z" fill="black" fill-opacity="0.02"/>
<path d="M219.155 324.216C219.155 327.314 216.643 329.824 213.545 329.824C210.446 329.824 207.934 327.314 207.934 324.216C207.934 321.119 210.446 318.608 213.545 318.608C216.643 318.608 219.155 321.119 219.155 324.216Z" fill="black" fill-opacity="0.02"/>
<path d="M248.737 324.216C248.737 327.314 246.224 329.824 243.126 329.824C240.027 329.824 237.515 327.314 237.515 324.216C237.515 321.119 240.027 318.608 243.126 318.608C246.224 318.608 248.737 321.119 248.737 324.216Z" fill="black" fill-opacity="0.02"/>
<path d="M278.318 324.216C278.318 327.314 275.805 329.824 272.707 329.824C269.608 329.824 267.096 327.314 267.096 324.216C267.096 321.119 269.608 318.608 272.707 318.608C275.805 318.608 278.318 321.119 278.318 324.216Z" fill="black" fill-opacity="0.02"/>
<path d="M307.899 324.216C307.899 327.314 305.386 329.824 302.288 329.824C299.189 329.824 296.677 327.314 296.677 324.216C296.677 321.119 299.189 318.608 302.288 318.608C305.386 318.608 307.899 321.119 307.899 324.216Z" fill="black" fill-opacity="0.02"/>
<path d="M337.48 324.216C337.48 327.314 334.967 329.824 331.869 329.824C328.77 329.824 326.258 327.314 326.258 324.216C326.258 321.119 328.77 318.608 331.869 318.608C334.967 318.608 337.48 321.119 337.48 324.216Z" fill="black" fill-opacity="0.02"/>
<path d="M367.061 324.216C367.061 327.314 364.548 329.824 361.45 329.824C358.351 329.824 355.839 327.314 355.839 324.216C355.839 321.119 358.351 318.608 361.45 318.608C364.548 318.608 367.061 321.119 367.061 324.216Z" fill="black" fill-opacity="0.02"/>
<path d="M396.642 324.216C396.642 327.314 394.13 329.824 391.031 329.824C387.932 329.824 385.42 327.314 385.42 324.216C385.42 321.119 387.932 318.608 391.031 318.608C394.13 318.608 396.642 321.119 396.642 324.216Z" fill="black" fill-opacity="0.02"/>
<path d="M426.223 324.216C426.223 327.314 423.711 329.824 420.612 329.824C417.513 329.824 415.001 327.314 415.001 324.216C415.001 321.119 417.513 318.608 420.612 318.608C423.711 318.608 426.223 321.119 426.223 324.216Z" fill="black" fill-opacity="0.02"/>
<path d="M455.804 324.216C455.804 327.314 453.292 329.824 450.193 329.824C447.094 329.824 444.582 327.314 444.582 324.216C444.582 321.119 447.094 318.608 450.193 318.608C453.292 318.608 455.804 321.119 455.804 324.216Z" fill="black" fill-opacity="0.02"/>
<path d="M485.385 324.216C485.385 327.314 482.873 329.824 479.774 329.824C476.675 329.824 474.163 327.314 474.163 324.216C474.163 321.119 476.675 318.608 479.774 318.608C482.873 318.608 485.385 321.119 485.385 324.216Z" fill="black" fill-opacity="0.02"/>
</g>
<defs>
<linearGradient id="paint0_linear_339_6230" x1="411.955" y1="-1.66752" x2="-24.1039" y2="74.6674" gradientUnits="userSpaceOnUse">
<stop stop-color="#F9D452"/>
<stop offset="1" stop-color="#D8B332"/>
</linearGradient>
<linearGradient id="paint1_linear_339_6230" x1="415.11" y1="2.68182" x2="-34.4667" y2="175.199" gradientUnits="userSpaceOnUse">
<stop stop-color="#9A9A9A"/>
<stop offset="1" stop-color="#D3D3D3"/>
</linearGradient>
</defs>
</svg>
