<svg width="398" height="128" viewBox="0 0 398 128" fill="none" xmlns="http://www.w3.org/2000/svg">
<rect x="-18.7158" y="-27.5964" width="426.716" height="236.311" rx="7.63929" fill="url(#paint0_linear_339_6053)"/>
<mask id="mask0_339_6053" style="mask-type:alpha" maskUnits="userSpaceOnUse" x="-19" y="-28" width="427" height="237">
<rect x="-18.7158" y="-27.5964" width="426.716" height="236.311" rx="7.63929" fill="url(#paint1_linear_339_6053)"/>
</mask>
<g mask="url(#mask0_339_6053)">
<circle cx="401.787" cy="54.5709" r="178.835" fill="black" fill-opacity="0.02"/>
<path d="M399.798 -20.9074C395.634 -27.1136 388.649 -30.8326 381.173 -30.8186H247.326C239.854 -30.8326 232.867 -27.1156 228.707 -20.9074L186.955 41.3326C181.784 49.0863 181.986 59.2394 187.463 66.7792L303.428 225.767C305.954 229.218 309.974 231.258 314.249 231.258C318.527 231.258 322.547 229.218 325.07 225.767L441.038 66.7792C446.513 59.2394 446.715 49.0863 441.544 41.3326L399.798 -20.9074ZM433.982 61.6427L318.011 220.631C317.099 221.778 315.715 222.446 314.249 222.446C312.786 222.446 311.4 221.778 310.488 220.631L194.519 61.6347C191.203 57.058 191.081 50.9058 194.209 46.1992L235.965 -16.0468C238.506 -19.8297 242.768 -22.0931 247.326 -22.0831H381.173C385.731 -22.0911 389.99 -19.8237 392.532 -16.0428L434.284 46.1992C437.414 50.9038 437.294 57.056 433.982 61.6347V61.6427Z" fill="black" fill-opacity="0.03"/>
<path d="M387.024 -9.48914C386.622 -10.083 386.08 -10.5688 385.446 -10.9047L381.791 -12.8382C381.161 -13.1721 380.459 -13.346 379.745 -13.346H248.685C247.971 -13.346 247.267 -13.1701 246.637 -12.8342L242.968 -10.8867C242.332 -10.5488 241.79 -10.059 241.39 -9.46315L202.111 49.004C200.07 52.0591 200.158 56.0619 202.329 59.0251L307.116 201.468C308.78 203.719 311.415 205.047 314.215 205.045C317.013 205.041 319.643 203.709 321.302 201.458L426.123 58.6312C428.3 55.6581 428.376 51.6392 426.315 48.5861L387.024 -9.48914ZM354.355 131.35L316.325 110.338C315.013 109.612 313.419 109.612 312.105 110.338L274.099 131.35L281.394 86.5031C281.618 85.1335 281.178 83.7399 280.21 82.7462L249.013 50.7775L291.927 44.2253C293.367 44.0054 294.603 43.0817 295.221 41.7621L314.215 1.30375L333.211 41.7621C333.829 43.0817 335.065 44.0054 336.505 44.2253L379.417 50.7775L348.222 82.7462C347.252 83.7399 346.814 85.1335 347.038 86.5031L354.355 131.35ZM209.369 53.8786L205.741 51.4413L209.369 53.8746V53.8786ZM248.039 -3.68481L249.777 -4.61055H307.34L288.301 35.9397L239.288 43.4356C237.67 43.6815 236.324 44.8132 235.804 46.3667C235.284 47.9183 235.676 49.6318 236.82 50.8035L272.417 87.2789L265.426 130.085L209.369 53.8626L248.039 -3.68481ZM314.155 196.309L273.823 141.471L314.215 119.148L354.473 141.397L314.155 196.309ZM362.961 129.835L356.015 87.2709L391.612 50.7955C392.75 49.6238 393.138 47.9143 392.62 46.3647C392.1 44.8152 390.758 43.6855 389.142 43.4356L340.131 35.9397L321.092 -4.61055H378.663L380.409 -3.69281L419.063 53.4467L362.961 129.835Z" fill="black" fill-opacity="0.03"/>
<path d="M356.368 58.4975C355.848 56.94 354.496 55.8063 352.872 55.5624L328.254 51.8075L318.167 30.2917C317.447 28.7601 315.907 27.7804 314.213 27.7804C312.522 27.7804 310.98 28.7601 310.26 30.2917L300.157 51.8075L275.539 55.5624C273.919 55.8103 272.577 56.944 272.057 58.4955C271.537 60.0471 271.931 61.7606 273.075 62.9322L291.06 81.3849L287.024 106.13C286.754 107.779 287.452 109.441 288.82 110.403C290.188 111.366 291.986 111.464 293.449 110.654L314.213 99.1878L334.962 110.654C335.605 111.014 336.333 111.202 337.071 111.2C338.353 111.202 339.571 110.64 340.403 109.663C341.233 108.687 341.593 107.395 341.387 106.13L337.367 81.3849L355.372 62.9322C356.506 61.7566 356.891 60.0451 356.368 58.4975ZM329.556 76.8422C328.588 77.8339 328.146 79.2275 328.368 80.5951L331.314 98.6419L316.323 90.3443C315.011 89.6205 313.418 89.6205 312.104 90.3443L297.115 98.6419L300.059 80.5951C300.281 79.2275 299.841 77.8339 298.871 76.8422L285.268 62.9183L303.782 60.0931C305.222 59.8711 306.458 58.9474 307.076 57.6298L314.213 42.4242L321.353 57.6298C321.971 58.9474 323.207 59.8711 324.646 60.0931L343.161 62.9183L329.556 76.8422Z" fill="black" fill-opacity="0.03"/>
<path d="M-81.1584 -26.9118C-81.1584 -23.8147 -83.6705 -21.3039 -86.7694 -21.3039C-89.8683 -21.3039 -92.3804 -23.8147 -92.3804 -26.9118C-92.3804 -30.009 -89.8683 -32.5198 -86.7694 -32.5198C-83.6705 -32.5198 -81.1584 -30.009 -81.1584 -26.9118Z" fill="black" fill-opacity="0.02"/>
<path d="M-51.5774 -26.9118C-51.5774 -23.8147 -54.0895 -21.3039 -57.1884 -21.3039C-60.2872 -21.3039 -62.7994 -23.8147 -62.7994 -26.9118C-62.7994 -30.009 -60.2872 -32.5198 -57.1884 -32.5198C-54.0895 -32.5198 -51.5774 -30.009 -51.5774 -26.9118Z" fill="black" fill-opacity="0.02"/>
<path d="M-21.9964 -26.9118C-21.9964 -23.8147 -24.5085 -21.3039 -27.6074 -21.3039C-30.7062 -21.3039 -33.2183 -23.8147 -33.2183 -26.9118C-33.2183 -30.009 -30.7062 -32.5198 -27.6074 -32.5198C-24.5085 -32.5198 -21.9964 -30.009 -21.9964 -26.9118Z" fill="black" fill-opacity="0.02"/>
<path d="M7.58464 -26.9118C7.58464 -23.8147 5.07252 -21.3039 1.97366 -21.3039C-1.1252 -21.3039 -3.63731 -23.8147 -3.63731 -26.9118C-3.63731 -30.009 -1.1252 -32.5198 1.97366 -32.5198C5.07252 -32.5198 7.58464 -30.009 7.58464 -26.9118Z" fill="black" fill-opacity="0.02"/>
<path d="M37.1656 -26.9118C37.1656 -23.8147 34.6535 -21.3039 31.5547 -21.3039C28.4558 -21.3039 25.9437 -23.8147 25.9437 -26.9118C25.9437 -30.009 28.4558 -32.5198 31.5547 -32.5198C34.6535 -32.5198 37.1656 -30.009 37.1656 -26.9118Z" fill="black" fill-opacity="0.02"/>
<path d="M66.7467 -26.9118C66.7467 -23.8147 64.2345 -21.3039 61.1357 -21.3039C58.0368 -21.3039 55.5247 -23.8147 55.5247 -26.9118C55.5247 -30.009 58.0368 -32.5198 61.1357 -32.5198C64.2345 -32.5198 66.7467 -30.009 66.7467 -26.9118Z" fill="black" fill-opacity="0.02"/>
<path d="M96.3277 -26.9118C96.3277 -23.8147 93.8156 -21.3039 90.7167 -21.3039C87.6179 -21.3039 85.1057 -23.8147 85.1057 -26.9118C85.1057 -30.009 87.6179 -32.5198 90.7167 -32.5198C93.8156 -32.5198 96.3277 -30.009 96.3277 -26.9118Z" fill="black" fill-opacity="0.02"/>
<path d="M125.909 -26.9118C125.909 -23.8147 123.397 -21.3039 120.298 -21.3039C117.199 -21.3039 114.687 -23.8147 114.687 -26.9118C114.687 -30.009 117.199 -32.5198 120.298 -32.5198C123.397 -32.5198 125.909 -30.009 125.909 -26.9118Z" fill="black" fill-opacity="0.02"/>
<path d="M155.49 -26.9118C155.49 -23.8147 152.978 -21.3039 149.879 -21.3039C146.78 -21.3039 144.268 -23.8147 144.268 -26.9118C144.268 -30.009 146.78 -32.5198 149.879 -32.5198C152.978 -32.5198 155.49 -30.009 155.49 -26.9118Z" fill="black" fill-opacity="0.02"/>
<path d="M185.071 -26.9118C185.071 -23.8147 182.559 -21.3039 179.46 -21.3039C176.361 -21.3039 173.849 -23.8147 173.849 -26.9118C173.849 -30.009 176.361 -32.5198 179.46 -32.5198C182.559 -32.5198 185.071 -30.009 185.071 -26.9118Z" fill="black" fill-opacity="0.02"/>
<path d="M-81.1584 61.7828C-81.1584 64.88 -83.6705 67.3908 -86.7694 67.3908C-89.8683 67.3908 -92.3804 64.88 -92.3804 61.7828C-92.3804 58.6856 -89.8683 56.1749 -86.7694 56.1749C-83.6705 56.1749 -81.1584 58.6856 -81.1584 61.7828Z" fill="black" fill-opacity="0.02"/>
<path d="M-51.5774 61.7828C-51.5774 64.88 -54.0895 67.3908 -57.1884 67.3908C-60.2872 67.3908 -62.7994 64.88 -62.7994 61.7828C-62.7994 58.6856 -60.2872 56.1749 -57.1884 56.1749C-54.0895 56.1749 -51.5774 58.6856 -51.5774 61.7828Z" fill="black" fill-opacity="0.02"/>
<path d="M-21.9964 61.7828C-21.9964 64.88 -24.5085 67.3908 -27.6074 67.3908C-30.7062 67.3908 -33.2183 64.88 -33.2183 61.7828C-33.2183 58.6856 -30.7062 56.1749 -27.6074 56.1749C-24.5085 56.1749 -21.9964 58.6856 -21.9964 61.7828Z" fill="black" fill-opacity="0.02"/>
<path d="M7.58464 61.7828C7.58464 64.88 5.07252 67.3908 1.97366 67.3908C-1.1252 67.3908 -3.63731 64.88 -3.63731 61.7828C-3.63731 58.6856 -1.1252 56.1749 1.97366 56.1749C5.07252 56.1749 7.58464 58.6856 7.58464 61.7828Z" fill="black" fill-opacity="0.02"/>
<path d="M37.1656 61.7828C37.1656 64.88 34.6535 67.3908 31.5547 67.3908C28.4558 67.3908 25.9437 64.88 25.9437 61.7828C25.9437 58.6856 28.4558 56.1749 31.5547 56.1749C34.6535 56.1749 37.1656 58.6856 37.1656 61.7828Z" fill="black" fill-opacity="0.02"/>
<path d="M66.7467 61.7828C66.7467 64.88 64.2345 67.3908 61.1357 67.3908C58.0368 67.3908 55.5247 64.88 55.5247 61.7828C55.5247 58.6856 58.0368 56.1749 61.1357 56.1749C64.2345 56.1749 66.7467 58.6856 66.7467 61.7828Z" fill="black" fill-opacity="0.02"/>
<path d="M96.3277 61.7828C96.3277 64.88 93.8156 67.3908 90.7167 67.3908C87.6179 67.3908 85.1057 64.88 85.1057 61.7828C85.1057 58.6856 87.6179 56.1749 90.7167 56.1749C93.8156 56.1749 96.3277 58.6856 96.3277 61.7828Z" fill="black" fill-opacity="0.02"/>
<path d="M125.909 61.7828C125.909 64.88 123.397 67.3908 120.298 67.3908C117.199 67.3908 114.687 64.88 114.687 61.7828C114.687 58.6856 117.199 56.1749 120.298 56.1749C123.397 56.1749 125.909 58.6856 125.909 61.7828Z" fill="black" fill-opacity="0.02"/>
<path d="M155.49 61.7828C155.49 64.88 152.978 67.3908 149.879 67.3908C146.78 67.3908 144.268 64.88 144.268 61.7828C144.268 58.6856 146.78 56.1749 149.879 56.1749C152.978 56.1749 155.49 58.6856 155.49 61.7828Z" fill="black" fill-opacity="0.02"/>
<path d="M185.071 61.7828C185.071 64.88 182.559 67.3908 179.46 67.3908C176.361 67.3908 173.849 64.88 173.849 61.7828C173.849 58.6856 176.361 56.1749 179.46 56.1749C182.559 56.1749 185.071 58.6856 185.071 61.7828Z" fill="black" fill-opacity="0.02"/>
<path d="M-81.1584 2.65305C-81.1584 5.75023 -83.6705 8.26098 -86.7694 8.26098C-89.8683 8.26098 -92.3804 5.75023 -92.3804 2.65305C-92.3804 -0.44413 -89.8683 -2.95489 -86.7694 -2.95489C-83.6705 -2.95489 -81.1584 -0.44413 -81.1584 2.65305Z" fill="black" fill-opacity="0.02"/>
<path d="M-51.5774 2.65305C-51.5774 5.75023 -54.0895 8.26098 -57.1884 8.26098C-60.2872 8.26098 -62.7994 5.75023 -62.7994 2.65305C-62.7994 -0.44413 -60.2872 -2.95489 -57.1884 -2.95489C-54.0895 -2.95489 -51.5774 -0.44413 -51.5774 2.65305Z" fill="black" fill-opacity="0.02"/>
<path d="M-21.9964 2.65305C-21.9964 5.75023 -24.5085 8.26098 -27.6074 8.26098C-30.7062 8.26098 -33.2183 5.75023 -33.2183 2.65305C-33.2183 -0.44413 -30.7062 -2.95489 -27.6074 -2.95489C-24.5085 -2.95489 -21.9964 -0.44413 -21.9964 2.65305Z" fill="black" fill-opacity="0.02"/>
<path d="M7.58464 2.65305C7.58464 5.75023 5.07252 8.26098 1.97366 8.26098C-1.1252 8.26098 -3.63731 5.75023 -3.63731 2.65305C-3.63731 -0.44413 -1.1252 -2.95489 1.97366 -2.95489C5.07252 -2.95489 7.58464 -0.44413 7.58464 2.65305Z" fill="black" fill-opacity="0.02"/>
<path d="M37.1656 2.65305C37.1656 5.75023 34.6535 8.26098 31.5547 8.26098C28.4558 8.26098 25.9437 5.75023 25.9437 2.65305C25.9437 -0.44413 28.4558 -2.95489 31.5547 -2.95489C34.6535 -2.95489 37.1656 -0.44413 37.1656 2.65305Z" fill="black" fill-opacity="0.02"/>
<path d="M66.7467 2.65305C66.7467 5.75023 64.2345 8.26098 61.1357 8.26098C58.0368 8.26098 55.5247 5.75023 55.5247 2.65305C55.5247 -0.44413 58.0368 -2.95489 61.1357 -2.95489C64.2345 -2.95489 66.7467 -0.44413 66.7467 2.65305Z" fill="black" fill-opacity="0.02"/>
<path d="M96.3277 2.65305C96.3277 5.75023 93.8156 8.26098 90.7167 8.26098C87.6179 8.26098 85.1057 5.75023 85.1057 2.65305C85.1057 -0.44413 87.6179 -2.95489 90.7167 -2.95489C93.8156 -2.95489 96.3277 -0.44413 96.3277 2.65305Z" fill="black" fill-opacity="0.02"/>
<path d="M125.909 2.65305C125.909 5.75023 123.397 8.26098 120.298 8.26098C117.199 8.26098 114.687 5.75023 114.687 2.65305C114.687 -0.44413 117.199 -2.95489 120.298 -2.95489C123.397 -2.95489 125.909 -0.44413 125.909 2.65305Z" fill="black" fill-opacity="0.02"/>
<path d="M155.49 2.65305C155.49 5.75023 152.978 8.26098 149.879 8.26098C146.78 8.26098 144.268 5.75023 144.268 2.65305C144.268 -0.44413 146.78 -2.95489 149.879 -2.95489C152.978 -2.95489 155.49 -0.44413 155.49 2.65305Z" fill="black" fill-opacity="0.02"/>
<path d="M185.071 2.65305C185.071 5.75023 182.559 8.26098 179.46 8.26098C176.361 8.26098 173.849 5.75023 173.849 2.65305C173.849 -0.44413 176.361 -2.95489 179.46 -2.95489C182.559 -2.95489 185.071 -0.44413 185.071 2.65305Z" fill="black" fill-opacity="0.02"/>
<path d="M-81.1584 91.3477C-81.1584 94.4449 -83.6705 96.9556 -86.7694 96.9556C-89.8683 96.9556 -92.3804 94.4449 -92.3804 91.3477C-92.3804 88.2505 -89.8683 85.7398 -86.7694 85.7398C-83.6705 85.7398 -81.1584 88.2505 -81.1584 91.3477Z" fill="black" fill-opacity="0.02"/>
<path d="M-51.5774 91.3477C-51.5774 94.4449 -54.0895 96.9556 -57.1884 96.9556C-60.2872 96.9556 -62.7994 94.4449 -62.7994 91.3477C-62.7994 88.2505 -60.2872 85.7398 -57.1884 85.7398C-54.0895 85.7398 -51.5774 88.2505 -51.5774 91.3477Z" fill="black" fill-opacity="0.02"/>
<path d="M-21.9964 91.3477C-21.9964 94.4449 -24.5085 96.9556 -27.6074 96.9556C-30.7062 96.9556 -33.2183 94.4449 -33.2183 91.3477C-33.2183 88.2505 -30.7062 85.7398 -27.6074 85.7398C-24.5085 85.7398 -21.9964 88.2505 -21.9964 91.3477Z" fill="black" fill-opacity="0.02"/>
<path d="M7.58464 91.3477C7.58464 94.4449 5.07252 96.9556 1.97366 96.9556C-1.1252 96.9556 -3.63731 94.4449 -3.63731 91.3477C-3.63731 88.2505 -1.1252 85.7398 1.97366 85.7398C5.07252 85.7398 7.58464 88.2505 7.58464 91.3477Z" fill="black" fill-opacity="0.02"/>
<path d="M37.1656 91.3477C37.1656 94.4449 34.6535 96.9556 31.5547 96.9556C28.4558 96.9556 25.9437 94.4449 25.9437 91.3477C25.9437 88.2505 28.4558 85.7398 31.5547 85.7398C34.6535 85.7398 37.1656 88.2505 37.1656 91.3477Z" fill="black" fill-opacity="0.02"/>
<path d="M66.7467 91.3477C66.7467 94.4449 64.2345 96.9556 61.1357 96.9556C58.0368 96.9556 55.5247 94.4449 55.5247 91.3477C55.5247 88.2505 58.0368 85.7398 61.1357 85.7398C64.2345 85.7398 66.7467 88.2505 66.7467 91.3477Z" fill="black" fill-opacity="0.02"/>
<path d="M96.3277 91.3477C96.3277 94.4449 93.8156 96.9556 90.7167 96.9556C87.6179 96.9556 85.1057 94.4449 85.1057 91.3477C85.1057 88.2505 87.6179 85.7398 90.7167 85.7398C93.8156 85.7398 96.3277 88.2505 96.3277 91.3477Z" fill="black" fill-opacity="0.02"/>
<path d="M125.909 91.3477C125.909 94.4449 123.397 96.9556 120.298 96.9556C117.199 96.9556 114.687 94.4449 114.687 91.3477C114.687 88.2505 117.199 85.7398 120.298 85.7398C123.397 85.7398 125.909 88.2505 125.909 91.3477Z" fill="black" fill-opacity="0.02"/>
<path d="M155.49 91.3477C155.49 94.4449 152.978 96.9556 149.879 96.9556C146.78 96.9556 144.268 94.4449 144.268 91.3477C144.268 88.2505 146.78 85.7398 149.879 85.7398C152.978 85.7398 155.49 88.2505 155.49 91.3477Z" fill="black" fill-opacity="0.02"/>
<path d="M185.071 91.3477C185.071 94.4449 182.559 96.9556 179.46 96.9556C176.361 96.9556 173.849 94.4449 173.849 91.3477C173.849 88.2505 176.361 85.7398 179.46 85.7398C182.559 85.7398 185.071 88.2505 185.071 91.3477Z" fill="black" fill-opacity="0.02"/>
<path d="M-81.1584 32.2179C-81.1584 35.3151 -83.6705 37.8259 -86.7694 37.8259C-89.8683 37.8259 -92.3804 35.3151 -92.3804 32.2179C-92.3804 29.1208 -89.8683 26.61 -86.7694 26.61C-83.6705 26.61 -81.1584 29.1208 -81.1584 32.2179Z" fill="black" fill-opacity="0.02"/>
<path d="M-51.5774 32.2179C-51.5774 35.3151 -54.0895 37.8259 -57.1884 37.8259C-60.2872 37.8259 -62.7994 35.3151 -62.7994 32.2179C-62.7994 29.1208 -60.2872 26.61 -57.1884 26.61C-54.0895 26.61 -51.5774 29.1208 -51.5774 32.2179Z" fill="black" fill-opacity="0.02"/>
<path d="M-21.9964 32.2179C-21.9964 35.3151 -24.5085 37.8259 -27.6074 37.8259C-30.7062 37.8259 -33.2183 35.3151 -33.2183 32.2179C-33.2183 29.1208 -30.7062 26.61 -27.6074 26.61C-24.5085 26.61 -21.9964 29.1208 -21.9964 32.2179Z" fill="black" fill-opacity="0.02"/>
<path d="M7.58464 32.2179C7.58464 35.3151 5.07252 37.8259 1.97366 37.8259C-1.1252 37.8259 -3.63731 35.3151 -3.63731 32.2179C-3.63731 29.1208 -1.1252 26.61 1.97366 26.61C5.07252 26.61 7.58464 29.1208 7.58464 32.2179Z" fill="black" fill-opacity="0.02"/>
<path d="M37.1656 32.2179C37.1656 35.3151 34.6535 37.8259 31.5547 37.8259C28.4558 37.8259 25.9437 35.3151 25.9437 32.2179C25.9437 29.1208 28.4558 26.61 31.5547 26.61C34.6535 26.61 37.1656 29.1208 37.1656 32.2179Z" fill="black" fill-opacity="0.02"/>
<path d="M66.7467 32.2179C66.7467 35.3151 64.2345 37.8259 61.1357 37.8259C58.0368 37.8259 55.5247 35.3151 55.5247 32.2179C55.5247 29.1208 58.0368 26.61 61.1357 26.61C64.2345 26.61 66.7467 29.1208 66.7467 32.2179Z" fill="black" fill-opacity="0.02"/>
<path d="M96.3277 32.2179C96.3277 35.3151 93.8156 37.8259 90.7167 37.8259C87.6179 37.8259 85.1057 35.3151 85.1057 32.2179C85.1057 29.1208 87.6179 26.61 90.7167 26.61C93.8156 26.61 96.3277 29.1208 96.3277 32.2179Z" fill="black" fill-opacity="0.02"/>
<path d="M125.909 32.2179C125.909 35.3151 123.397 37.8259 120.298 37.8259C117.199 37.8259 114.687 35.3151 114.687 32.2179C114.687 29.1208 117.199 26.61 120.298 26.61C123.397 26.61 125.909 29.1208 125.909 32.2179Z" fill="black" fill-opacity="0.02"/>
<path d="M155.49 32.2179C155.49 35.3151 152.978 37.8259 149.879 37.8259C146.78 37.8259 144.268 35.3151 144.268 32.2179C144.268 29.1208 146.78 26.61 149.879 26.61C152.978 26.61 155.49 29.1208 155.49 32.2179Z" fill="black" fill-opacity="0.02"/>
<path d="M185.071 32.2179C185.071 35.3151 182.559 37.8259 179.46 37.8259C176.361 37.8259 173.849 35.3151 173.849 32.2179C173.849 29.1208 176.361 26.61 179.46 26.61C182.559 26.61 185.071 29.1208 185.071 32.2179Z" fill="black" fill-opacity="0.02"/>
<path d="M-81.1584 120.913C-81.1584 124.01 -83.6705 126.521 -86.7694 126.521C-89.8683 126.521 -92.3804 124.01 -92.3804 120.913C-92.3804 117.815 -89.8683 115.305 -86.7694 115.305C-83.6705 115.305 -81.1584 117.815 -81.1584 120.913Z" fill="black" fill-opacity="0.02"/>
<path d="M-51.5774 120.913C-51.5774 124.01 -54.0895 126.521 -57.1884 126.521C-60.2872 126.521 -62.7994 124.01 -62.7994 120.913C-62.7994 117.815 -60.2872 115.305 -57.1884 115.305C-54.0895 115.305 -51.5774 117.815 -51.5774 120.913Z" fill="black" fill-opacity="0.02"/>
<path d="M-21.9964 120.913C-21.9964 124.01 -24.5085 126.521 -27.6074 126.521C-30.7062 126.521 -33.2183 124.01 -33.2183 120.913C-33.2183 117.815 -30.7062 115.305 -27.6074 115.305C-24.5085 115.305 -21.9964 117.815 -21.9964 120.913Z" fill="black" fill-opacity="0.02"/>
<path d="M7.58464 120.913C7.58464 124.01 5.07252 126.521 1.97366 126.521C-1.1252 126.521 -3.63731 124.01 -3.63731 120.913C-3.63731 117.815 -1.1252 115.305 1.97366 115.305C5.07252 115.305 7.58464 117.815 7.58464 120.913Z" fill="black" fill-opacity="0.02"/>
<path d="M37.1656 120.913C37.1656 124.01 34.6535 126.521 31.5547 126.521C28.4558 126.521 25.9437 124.01 25.9437 120.913C25.9437 117.815 28.4558 115.305 31.5547 115.305C34.6535 115.305 37.1656 117.815 37.1656 120.913Z" fill="black" fill-opacity="0.02"/>
<path d="M66.7467 120.913C66.7467 124.01 64.2345 126.521 61.1357 126.521C58.0368 126.521 55.5247 124.01 55.5247 120.913C55.5247 117.815 58.0368 115.305 61.1357 115.305C64.2345 115.305 66.7467 117.815 66.7467 120.913Z" fill="black" fill-opacity="0.02"/>
<path d="M96.3277 120.913C96.3277 124.01 93.8156 126.521 90.7167 126.521C87.6179 126.521 85.1057 124.01 85.1057 120.913C85.1057 117.815 87.6179 115.305 90.7167 115.305C93.8156 115.305 96.3277 117.815 96.3277 120.913Z" fill="black" fill-opacity="0.02"/>
<path d="M125.909 120.913C125.909 124.01 123.397 126.521 120.298 126.521C117.199 126.521 114.687 124.01 114.687 120.913C114.687 117.815 117.199 115.305 120.298 115.305C123.397 115.305 125.909 117.815 125.909 120.913Z" fill="black" fill-opacity="0.02"/>
<path d="M155.49 120.913C155.49 124.01 152.978 126.521 149.879 126.521C146.78 126.521 144.268 124.01 144.268 120.913C144.268 117.815 146.78 115.305 149.879 115.305C152.978 115.305 155.49 117.815 155.49 120.913Z" fill="black" fill-opacity="0.02"/>
<path d="M185.071 120.913C185.071 124.01 182.559 126.521 179.46 126.521C176.361 126.521 173.849 124.01 173.849 120.913C173.849 117.815 176.361 115.305 179.46 115.305C182.559 115.305 185.071 117.815 185.071 120.913Z" fill="black" fill-opacity="0.02"/>
<path d="M-81.1584 150.463C-81.1584 153.56 -83.6705 156.07 -86.7694 156.07C-89.8683 156.07 -92.3804 153.56 -92.3804 150.463C-92.3804 147.365 -89.8683 144.855 -86.7694 144.855C-83.6705 144.855 -81.1584 147.365 -81.1584 150.463Z" fill="black" fill-opacity="0.02"/>
<path d="M-51.5774 150.463C-51.5774 153.56 -54.0895 156.07 -57.1884 156.07C-60.2872 156.07 -62.7994 153.56 -62.7994 150.463C-62.7994 147.365 -60.2872 144.855 -57.1884 144.855C-54.0895 144.855 -51.5774 147.365 -51.5774 150.463Z" fill="black" fill-opacity="0.02"/>
<path d="M-21.9964 150.463C-21.9964 153.56 -24.5085 156.07 -27.6074 156.07C-30.7062 156.07 -33.2183 153.56 -33.2183 150.463C-33.2183 147.365 -30.7062 144.855 -27.6074 144.855C-24.5085 144.855 -21.9964 147.365 -21.9964 150.463Z" fill="black" fill-opacity="0.02"/>
<path d="M7.58464 150.463C7.58464 153.56 5.07252 156.07 1.97366 156.07C-1.1252 156.07 -3.63731 153.56 -3.63731 150.463C-3.63731 147.365 -1.1252 144.855 1.97366 144.855C5.07252 144.855 7.58464 147.365 7.58464 150.463Z" fill="black" fill-opacity="0.02"/>
<path d="M37.1656 150.463C37.1656 153.56 34.6535 156.07 31.5547 156.07C28.4558 156.07 25.9437 153.56 25.9437 150.463C25.9437 147.365 28.4558 144.855 31.5547 144.855C34.6535 144.855 37.1656 147.365 37.1656 150.463Z" fill="black" fill-opacity="0.02"/>
<path d="M66.7467 150.463C66.7467 153.56 64.2345 156.07 61.1357 156.07C58.0368 156.07 55.5247 153.56 55.5247 150.463C55.5247 147.365 58.0368 144.855 61.1357 144.855C64.2345 144.855 66.7467 147.365 66.7467 150.463Z" fill="black" fill-opacity="0.02"/>
<path d="M96.3277 150.463C96.3277 153.56 93.8156 156.07 90.7167 156.07C87.6179 156.07 85.1057 153.56 85.1057 150.463C85.1057 147.365 87.6179 144.855 90.7167 144.855C93.8156 144.855 96.3277 147.365 96.3277 150.463Z" fill="black" fill-opacity="0.02"/>
<path d="M125.909 150.463C125.909 153.56 123.397 156.07 120.298 156.07C117.199 156.07 114.687 153.56 114.687 150.463C114.687 147.365 117.199 144.855 120.298 144.855C123.397 144.855 125.909 147.365 125.909 150.463Z" fill="black" fill-opacity="0.02"/>
<path d="M155.49 150.463C155.49 153.56 152.978 156.07 149.879 156.07C146.78 156.07 144.268 153.56 144.268 150.463C144.268 147.365 146.78 144.855 149.879 144.855C152.978 144.855 155.49 147.365 155.49 150.463Z" fill="black" fill-opacity="0.02"/>
<path d="M185.071 150.463C185.071 153.56 182.559 156.07 179.46 156.07C176.361 156.07 173.849 153.56 173.849 150.463C173.849 147.365 176.361 144.855 179.46 144.855C182.559 144.855 185.071 147.365 185.071 150.463Z" fill="black" fill-opacity="0.02"/>
<path d="M-81.1584 239.157C-81.1584 242.254 -83.6705 244.765 -86.7694 244.765C-89.8683 244.765 -92.3804 242.254 -92.3804 239.157C-92.3804 236.06 -89.8683 233.549 -86.7694 233.549C-83.6705 233.549 -81.1584 236.06 -81.1584 239.157Z" fill="black" fill-opacity="0.02"/>
<path d="M-51.5774 239.157C-51.5774 242.254 -54.0895 244.765 -57.1884 244.765C-60.2872 244.765 -62.7994 242.254 -62.7994 239.157C-62.7994 236.06 -60.2872 233.549 -57.1884 233.549C-54.0895 233.549 -51.5774 236.06 -51.5774 239.157Z" fill="black" fill-opacity="0.02"/>
<path d="M-21.9964 239.157C-21.9964 242.254 -24.5085 244.765 -27.6074 244.765C-30.7062 244.765 -33.2183 242.254 -33.2183 239.157C-33.2183 236.06 -30.7062 233.549 -27.6074 233.549C-24.5085 233.549 -21.9964 236.06 -21.9964 239.157Z" fill="black" fill-opacity="0.02"/>
<path d="M7.58464 239.157C7.58464 242.254 5.07252 244.765 1.97366 244.765C-1.1252 244.765 -3.63731 242.254 -3.63731 239.157C-3.63731 236.06 -1.1252 233.549 1.97366 233.549C5.07252 233.549 7.58464 236.06 7.58464 239.157Z" fill="black" fill-opacity="0.02"/>
<path d="M37.1656 239.157C37.1656 242.254 34.6535 244.765 31.5547 244.765C28.4558 244.765 25.9437 242.254 25.9437 239.157C25.9437 236.06 28.4558 233.549 31.5547 233.549C34.6535 233.549 37.1656 236.06 37.1656 239.157Z" fill="black" fill-opacity="0.02"/>
<path d="M66.7467 239.157C66.7467 242.254 64.2345 244.765 61.1357 244.765C58.0368 244.765 55.5247 242.254 55.5247 239.157C55.5247 236.06 58.0368 233.549 61.1357 233.549C64.2345 233.549 66.7467 236.06 66.7467 239.157Z" fill="black" fill-opacity="0.02"/>
<path d="M96.3277 239.157C96.3277 242.254 93.8156 244.765 90.7167 244.765C87.6179 244.765 85.1057 242.254 85.1057 239.157C85.1057 236.06 87.6179 233.549 90.7167 233.549C93.8156 233.549 96.3277 236.06 96.3277 239.157Z" fill="black" fill-opacity="0.02"/>
<path d="M125.909 239.157C125.909 242.254 123.397 244.765 120.298 244.765C117.199 244.765 114.687 242.254 114.687 239.157C114.687 236.06 117.199 233.549 120.298 233.549C123.397 233.549 125.909 236.06 125.909 239.157Z" fill="black" fill-opacity="0.02"/>
<path d="M155.49 239.157C155.49 242.254 152.978 244.765 149.879 244.765C146.78 244.765 144.268 242.254 144.268 239.157C144.268 236.06 146.78 233.549 149.879 233.549C152.978 233.549 155.49 236.06 155.49 239.157Z" fill="black" fill-opacity="0.02"/>
<path d="M185.071 239.157C185.071 242.254 182.559 244.765 179.46 244.765C176.361 244.765 173.849 242.254 173.849 239.157C173.849 236.06 176.361 233.549 179.46 233.549C182.559 233.549 185.071 236.06 185.071 239.157Z" fill="black" fill-opacity="0.02"/>
<path d="M-81.1584 180.027C-81.1584 183.125 -83.6705 185.635 -86.7694 185.635C-89.8683 185.635 -92.3804 183.125 -92.3804 180.027C-92.3804 176.93 -89.8683 174.419 -86.7694 174.419C-83.6705 174.419 -81.1584 176.93 -81.1584 180.027Z" fill="black" fill-opacity="0.02"/>
<path d="M-51.5774 180.027C-51.5774 183.125 -54.0895 185.635 -57.1884 185.635C-60.2872 185.635 -62.7994 183.125 -62.7994 180.027C-62.7994 176.93 -60.2872 174.419 -57.1884 174.419C-54.0895 174.419 -51.5774 176.93 -51.5774 180.027Z" fill="black" fill-opacity="0.02"/>
<path d="M-21.9964 180.027C-21.9964 183.125 -24.5085 185.635 -27.6074 185.635C-30.7062 185.635 -33.2183 183.125 -33.2183 180.027C-33.2183 176.93 -30.7062 174.419 -27.6074 174.419C-24.5085 174.419 -21.9964 176.93 -21.9964 180.027Z" fill="black" fill-opacity="0.02"/>
<path d="M7.58464 180.027C7.58464 183.125 5.07252 185.635 1.97366 185.635C-1.1252 185.635 -3.63731 183.125 -3.63731 180.027C-3.63731 176.93 -1.1252 174.419 1.97366 174.419C5.07252 174.419 7.58464 176.93 7.58464 180.027Z" fill="black" fill-opacity="0.02"/>
<path d="M37.1656 180.027C37.1656 183.125 34.6535 185.635 31.5547 185.635C28.4558 185.635 25.9437 183.125 25.9437 180.027C25.9437 176.93 28.4558 174.419 31.5547 174.419C34.6535 174.419 37.1656 176.93 37.1656 180.027Z" fill="black" fill-opacity="0.02"/>
<path d="M66.7467 180.027C66.7467 183.125 64.2345 185.635 61.1357 185.635C58.0368 185.635 55.5247 183.125 55.5247 180.027C55.5247 176.93 58.0368 174.419 61.1357 174.419C64.2345 174.419 66.7467 176.93 66.7467 180.027Z" fill="black" fill-opacity="0.02"/>
<path d="M96.3277 180.027C96.3277 183.125 93.8156 185.635 90.7167 185.635C87.6179 185.635 85.1057 183.125 85.1057 180.027C85.1057 176.93 87.6179 174.419 90.7167 174.419C93.8156 174.419 96.3277 176.93 96.3277 180.027Z" fill="black" fill-opacity="0.02"/>
<path d="M125.909 180.027C125.909 183.125 123.397 185.635 120.298 185.635C117.199 185.635 114.687 183.125 114.687 180.027C114.687 176.93 117.199 174.419 120.298 174.419C123.397 174.419 125.909 176.93 125.909 180.027Z" fill="black" fill-opacity="0.02"/>
<path d="M155.49 180.027C155.49 183.125 152.978 185.635 149.879 185.635C146.78 185.635 144.268 183.125 144.268 180.027C144.268 176.93 146.78 174.419 149.879 174.419C152.978 174.419 155.49 176.93 155.49 180.027Z" fill="black" fill-opacity="0.02"/>
<path d="M185.071 180.027C185.071 183.125 182.559 185.635 179.46 185.635C176.361 185.635 173.849 183.125 173.849 180.027C173.849 176.93 176.361 174.419 179.46 174.419C182.559 174.419 185.071 176.93 185.071 180.027Z" fill="black" fill-opacity="0.02"/>
<path d="M-81.1584 268.722C-81.1584 271.819 -83.6705 274.33 -86.7694 274.33C-89.8683 274.33 -92.3804 271.819 -92.3804 268.722C-92.3804 265.625 -89.8683 263.114 -86.7694 263.114C-83.6705 263.114 -81.1584 265.625 -81.1584 268.722Z" fill="black" fill-opacity="0.02"/>
<path d="M-51.5774 268.722C-51.5774 271.819 -54.0895 274.33 -57.1884 274.33C-60.2872 274.33 -62.7994 271.819 -62.7994 268.722C-62.7994 265.625 -60.2872 263.114 -57.1884 263.114C-54.0895 263.114 -51.5774 265.625 -51.5774 268.722Z" fill="black" fill-opacity="0.02"/>
<path d="M-21.9964 268.722C-21.9964 271.819 -24.5085 274.33 -27.6074 274.33C-30.7062 274.33 -33.2183 271.819 -33.2183 268.722C-33.2183 265.625 -30.7062 263.114 -27.6074 263.114C-24.5085 263.114 -21.9964 265.625 -21.9964 268.722Z" fill="black" fill-opacity="0.02"/>
<path d="M7.58464 268.722C7.58464 271.819 5.07252 274.33 1.97366 274.33C-1.1252 274.33 -3.63731 271.819 -3.63731 268.722C-3.63731 265.625 -1.1252 263.114 1.97366 263.114C5.07252 263.114 7.58464 265.625 7.58464 268.722Z" fill="black" fill-opacity="0.02"/>
<path d="M37.1656 268.722C37.1656 271.819 34.6535 274.33 31.5547 274.33C28.4558 274.33 25.9437 271.819 25.9437 268.722C25.9437 265.625 28.4558 263.114 31.5547 263.114C34.6535 263.114 37.1656 265.625 37.1656 268.722Z" fill="black" fill-opacity="0.02"/>
<path d="M66.7467 268.722C66.7467 271.819 64.2345 274.33 61.1357 274.33C58.0368 274.33 55.5247 271.819 55.5247 268.722C55.5247 265.625 58.0368 263.114 61.1357 263.114C64.2345 263.114 66.7467 265.625 66.7467 268.722Z" fill="black" fill-opacity="0.02"/>
<path d="M96.3277 268.722C96.3277 271.819 93.8156 274.33 90.7167 274.33C87.6179 274.33 85.1057 271.819 85.1057 268.722C85.1057 265.625 87.6179 263.114 90.7167 263.114C93.8156 263.114 96.3277 265.625 96.3277 268.722Z" fill="black" fill-opacity="0.02"/>
<path d="M125.909 268.722C125.909 271.819 123.397 274.33 120.298 274.33C117.199 274.33 114.687 271.819 114.687 268.722C114.687 265.625 117.199 263.114 120.298 263.114C123.397 263.114 125.909 265.625 125.909 268.722Z" fill="black" fill-opacity="0.02"/>
<path d="M155.49 268.722C155.49 271.819 152.978 274.33 149.879 274.33C146.78 274.33 144.268 271.819 144.268 268.722C144.268 265.625 146.78 263.114 149.879 263.114C152.978 263.114 155.49 265.625 155.49 268.722Z" fill="black" fill-opacity="0.02"/>
<path d="M185.071 268.722C185.071 271.819 182.559 274.33 179.46 274.33C176.361 274.33 173.849 271.819 173.849 268.722C173.849 265.625 176.361 263.114 179.46 263.114C182.559 263.114 185.071 265.625 185.071 268.722Z" fill="black" fill-opacity="0.02"/>
<path d="M-81.1584 209.592C-81.1584 212.689 -83.6705 215.2 -86.7694 215.2C-89.8683 215.2 -92.3804 212.689 -92.3804 209.592C-92.3804 206.495 -89.8683 203.984 -86.7694 203.984C-83.6705 203.984 -81.1584 206.495 -81.1584 209.592Z" fill="black" fill-opacity="0.02"/>
<path d="M-51.5774 209.592C-51.5774 212.689 -54.0895 215.2 -57.1884 215.2C-60.2872 215.2 -62.7994 212.689 -62.7994 209.592C-62.7994 206.495 -60.2872 203.984 -57.1884 203.984C-54.0895 203.984 -51.5774 206.495 -51.5774 209.592Z" fill="black" fill-opacity="0.02"/>
<path d="M-21.9964 209.592C-21.9964 212.689 -24.5085 215.2 -27.6074 215.2C-30.7062 215.2 -33.2183 212.689 -33.2183 209.592C-33.2183 206.495 -30.7062 203.984 -27.6074 203.984C-24.5085 203.984 -21.9964 206.495 -21.9964 209.592Z" fill="black" fill-opacity="0.02"/>
<path d="M7.58464 209.592C7.58464 212.689 5.07252 215.2 1.97366 215.2C-1.1252 215.2 -3.63731 212.689 -3.63731 209.592C-3.63731 206.495 -1.1252 203.984 1.97366 203.984C5.07252 203.984 7.58464 206.495 7.58464 209.592Z" fill="black" fill-opacity="0.02"/>
<path d="M37.1656 209.592C37.1656 212.689 34.6535 215.2 31.5547 215.2C28.4558 215.2 25.9437 212.689 25.9437 209.592C25.9437 206.495 28.4558 203.984 31.5547 203.984C34.6535 203.984 37.1656 206.495 37.1656 209.592Z" fill="black" fill-opacity="0.02"/>
<path d="M66.7467 209.592C66.7467 212.689 64.2345 215.2 61.1357 215.2C58.0368 215.2 55.5247 212.689 55.5247 209.592C55.5247 206.495 58.0368 203.984 61.1357 203.984C64.2345 203.984 66.7467 206.495 66.7467 209.592Z" fill="black" fill-opacity="0.02"/>
<path d="M96.3277 209.592C96.3277 212.689 93.8156 215.2 90.7167 215.2C87.6179 215.2 85.1057 212.689 85.1057 209.592C85.1057 206.495 87.6179 203.984 90.7167 203.984C93.8156 203.984 96.3277 206.495 96.3277 209.592Z" fill="black" fill-opacity="0.02"/>
<path d="M125.909 209.592C125.909 212.689 123.397 215.2 120.298 215.2C117.199 215.2 114.687 212.689 114.687 209.592C114.687 206.495 117.199 203.984 120.298 203.984C123.397 203.984 125.909 206.495 125.909 209.592Z" fill="black" fill-opacity="0.02"/>
<path d="M155.49 209.592C155.49 212.689 152.978 215.2 149.879 215.2C146.78 215.2 144.268 212.689 144.268 209.592C144.268 206.495 146.78 203.984 149.879 203.984C152.978 203.984 155.49 206.495 155.49 209.592Z" fill="black" fill-opacity="0.02"/>
<path d="M185.071 209.592C185.071 212.689 182.559 215.2 179.46 215.2C176.361 215.2 173.849 212.689 173.849 209.592C173.849 206.495 176.361 203.984 179.46 203.984C182.559 203.984 185.071 206.495 185.071 209.592Z" fill="black" fill-opacity="0.02"/>
<path d="M-81.1584 298.287C-81.1584 301.384 -83.6705 303.895 -86.7694 303.895C-89.8683 303.895 -92.3804 301.384 -92.3804 298.287C-92.3804 295.19 -89.8683 292.679 -86.7694 292.679C-83.6705 292.679 -81.1584 295.19 -81.1584 298.287Z" fill="black" fill-opacity="0.02"/>
<path d="M-51.5774 298.287C-51.5774 301.384 -54.0895 303.895 -57.1884 303.895C-60.2872 303.895 -62.7994 301.384 -62.7994 298.287C-62.7994 295.19 -60.2872 292.679 -57.1884 292.679C-54.0895 292.679 -51.5774 295.19 -51.5774 298.287Z" fill="black" fill-opacity="0.02"/>
<path d="M-21.9964 298.287C-21.9964 301.384 -24.5085 303.895 -27.6074 303.895C-30.7062 303.895 -33.2183 301.384 -33.2183 298.287C-33.2183 295.19 -30.7062 292.679 -27.6074 292.679C-24.5085 292.679 -21.9964 295.19 -21.9964 298.287Z" fill="black" fill-opacity="0.02"/>
<path d="M7.58464 298.287C7.58464 301.384 5.07252 303.895 1.97366 303.895C-1.1252 303.895 -3.63731 301.384 -3.63731 298.287C-3.63731 295.19 -1.1252 292.679 1.97366 292.679C5.07252 292.679 7.58464 295.19 7.58464 298.287Z" fill="black" fill-opacity="0.02"/>
<path d="M37.1656 298.287C37.1656 301.384 34.6535 303.895 31.5547 303.895C28.4558 303.895 25.9437 301.384 25.9437 298.287C25.9437 295.19 28.4558 292.679 31.5547 292.679C34.6535 292.679 37.1656 295.19 37.1656 298.287Z" fill="black" fill-opacity="0.02"/>
<path d="M66.7467 298.287C66.7467 301.384 64.2345 303.895 61.1357 303.895C58.0368 303.895 55.5247 301.384 55.5247 298.287C55.5247 295.19 58.0368 292.679 61.1357 292.679C64.2345 292.679 66.7467 295.19 66.7467 298.287Z" fill="black" fill-opacity="0.02"/>
<path d="M96.3277 298.287C96.3277 301.384 93.8156 303.895 90.7167 303.895C87.6179 303.895 85.1057 301.384 85.1057 298.287C85.1057 295.19 87.6179 292.679 90.7167 292.679C93.8156 292.679 96.3277 295.19 96.3277 298.287Z" fill="black" fill-opacity="0.02"/>
<path d="M125.909 298.287C125.909 301.384 123.397 303.895 120.298 303.895C117.199 303.895 114.687 301.384 114.687 298.287C114.687 295.19 117.199 292.679 120.298 292.679C123.397 292.679 125.909 295.19 125.909 298.287Z" fill="black" fill-opacity="0.02"/>
<path d="M155.49 298.287C155.49 301.384 152.978 303.895 149.879 303.895C146.78 303.895 144.268 301.384 144.268 298.287C144.268 295.19 146.78 292.679 149.879 292.679C152.978 292.679 155.49 295.19 155.49 298.287Z" fill="black" fill-opacity="0.02"/>
<path d="M185.071 298.287C185.071 301.384 182.559 303.895 179.46 303.895C176.361 303.895 173.849 301.384 173.849 298.287C173.849 295.19 176.361 292.679 179.46 292.679C182.559 292.679 185.071 295.19 185.071 298.287Z" fill="black" fill-opacity="0.02"/>
<path d="M214.116 -26.9118C214.116 -23.8147 211.604 -21.3039 208.505 -21.3039C205.406 -21.3039 202.894 -23.8147 202.894 -26.9118C202.894 -30.009 205.406 -32.5198 208.505 -32.5198C211.604 -32.5198 214.116 -30.009 214.116 -26.9118Z" fill="black" fill-opacity="0.02"/>
<path d="M243.697 -26.9118C243.697 -23.8147 241.185 -21.3039 238.086 -21.3039C234.987 -21.3039 232.475 -23.8147 232.475 -26.9118C232.475 -30.009 234.987 -32.5198 238.086 -32.5198C241.185 -32.5198 243.697 -30.009 243.697 -26.9118Z" fill="black" fill-opacity="0.02"/>
<path d="M273.278 -26.9118C273.278 -23.8147 270.766 -21.3039 267.667 -21.3039C264.568 -21.3039 262.056 -23.8147 262.056 -26.9118C262.056 -30.009 264.568 -32.5198 267.667 -32.5198C270.766 -32.5198 273.278 -30.009 273.278 -26.9118Z" fill="black" fill-opacity="0.02"/>
<path d="M302.859 -26.9118C302.859 -23.8147 300.347 -21.3039 297.248 -21.3039C294.149 -21.3039 291.637 -23.8147 291.637 -26.9118C291.637 -30.009 294.149 -32.5198 297.248 -32.5198C300.347 -32.5198 302.859 -30.009 302.859 -26.9118Z" fill="black" fill-opacity="0.02"/>
<path d="M332.44 -26.9118C332.44 -23.8147 329.928 -21.3039 326.829 -21.3039C323.73 -21.3039 321.218 -23.8147 321.218 -26.9118C321.218 -30.009 323.73 -32.5198 326.829 -32.5198C329.928 -32.5198 332.44 -30.009 332.44 -26.9118Z" fill="black" fill-opacity="0.02"/>
<path d="M362.021 -26.9118C362.021 -23.8147 359.509 -21.3039 356.41 -21.3039C353.311 -21.3039 350.799 -23.8147 350.799 -26.9118C350.799 -30.009 353.311 -32.5198 356.41 -32.5198C359.509 -32.5198 362.021 -30.009 362.021 -26.9118Z" fill="black" fill-opacity="0.02"/>
<path d="M391.602 -26.9118C391.602 -23.8147 389.09 -21.3039 385.991 -21.3039C382.892 -21.3039 380.38 -23.8147 380.38 -26.9118C380.38 -30.009 382.892 -32.5198 385.991 -32.5198C389.09 -32.5198 391.602 -30.009 391.602 -26.9118Z" fill="black" fill-opacity="0.02"/>
<path d="M421.183 -26.9118C421.183 -23.8147 418.671 -21.3039 415.572 -21.3039C412.473 -21.3039 409.961 -23.8147 409.961 -26.9118C409.961 -30.009 412.473 -32.5198 415.572 -32.5198C418.671 -32.5198 421.183 -30.009 421.183 -26.9118Z" fill="black" fill-opacity="0.02"/>
<path d="M450.764 -26.9118C450.764 -23.8147 448.252 -21.3039 445.153 -21.3039C442.054 -21.3039 439.542 -23.8147 439.542 -26.9118C439.542 -30.009 442.054 -32.5198 445.153 -32.5198C448.252 -32.5198 450.764 -30.009 450.764 -26.9118Z" fill="black" fill-opacity="0.02"/>
<path d="M480.345 -26.9118C480.345 -23.8147 477.833 -21.3039 474.734 -21.3039C471.635 -21.3039 469.123 -23.8147 469.123 -26.9118C469.123 -30.009 471.635 -32.5198 474.734 -32.5198C477.833 -32.5198 480.345 -30.009 480.345 -26.9118Z" fill="black" fill-opacity="0.02"/>
<path d="M214.116 61.7828C214.116 64.88 211.604 67.3908 208.505 67.3908C205.406 67.3908 202.894 64.88 202.894 61.7828C202.894 58.6856 205.406 56.1749 208.505 56.1749C211.604 56.1749 214.116 58.6856 214.116 61.7828Z" fill="black" fill-opacity="0.02"/>
<path d="M243.697 61.7828C243.697 64.88 241.185 67.3908 238.086 67.3908C234.987 67.3908 232.475 64.88 232.475 61.7828C232.475 58.6856 234.987 56.1749 238.086 56.1749C241.185 56.1749 243.697 58.6856 243.697 61.7828Z" fill="black" fill-opacity="0.02"/>
<path d="M273.278 61.7828C273.278 64.88 270.766 67.3908 267.667 67.3908C264.568 67.3908 262.056 64.88 262.056 61.7828C262.056 58.6856 264.568 56.1749 267.667 56.1749C270.766 56.1749 273.278 58.6856 273.278 61.7828Z" fill="black" fill-opacity="0.02"/>
<path d="M302.859 61.7828C302.859 64.88 300.347 67.3908 297.248 67.3908C294.149 67.3908 291.637 64.88 291.637 61.7828C291.637 58.6856 294.149 56.1749 297.248 56.1749C300.347 56.1749 302.859 58.6856 302.859 61.7828Z" fill="black" fill-opacity="0.02"/>
<path d="M332.44 61.7828C332.44 64.88 329.928 67.3908 326.829 67.3908C323.73 67.3908 321.218 64.88 321.218 61.7828C321.218 58.6856 323.73 56.1749 326.829 56.1749C329.928 56.1749 332.44 58.6856 332.44 61.7828Z" fill="black" fill-opacity="0.02"/>
<path d="M362.021 61.7828C362.021 64.88 359.509 67.3908 356.41 67.3908C353.311 67.3908 350.799 64.88 350.799 61.7828C350.799 58.6856 353.311 56.1749 356.41 56.1749C359.509 56.1749 362.021 58.6856 362.021 61.7828Z" fill="black" fill-opacity="0.02"/>
<path d="M391.602 61.7828C391.602 64.88 389.09 67.3908 385.991 67.3908C382.892 67.3908 380.38 64.88 380.38 61.7828C380.38 58.6856 382.892 56.1749 385.991 56.1749C389.09 56.1749 391.602 58.6856 391.602 61.7828Z" fill="black" fill-opacity="0.02"/>
<path d="M421.183 61.7828C421.183 64.88 418.671 67.3908 415.572 67.3908C412.473 67.3908 409.961 64.88 409.961 61.7828C409.961 58.6856 412.473 56.1749 415.572 56.1749C418.671 56.1749 421.183 58.6856 421.183 61.7828Z" fill="black" fill-opacity="0.02"/>
<path d="M450.764 61.7828C450.764 64.88 448.252 67.3908 445.153 67.3908C442.054 67.3908 439.542 64.88 439.542 61.7828C439.542 58.6856 442.054 56.1749 445.153 56.1749C448.252 56.1749 450.764 58.6856 450.764 61.7828Z" fill="black" fill-opacity="0.02"/>
<path d="M480.345 61.7828C480.345 64.88 477.833 67.3908 474.734 67.3908C471.635 67.3908 469.123 64.88 469.123 61.7828C469.123 58.6856 471.635 56.1749 474.734 56.1749C477.833 56.1749 480.345 58.6856 480.345 61.7828Z" fill="black" fill-opacity="0.02"/>
<path d="M214.116 2.65305C214.116 5.75023 211.604 8.26098 208.505 8.26098C205.406 8.26098 202.894 5.75023 202.894 2.65305C202.894 -0.44413 205.406 -2.95489 208.505 -2.95489C211.604 -2.95489 214.116 -0.44413 214.116 2.65305Z" fill="black" fill-opacity="0.02"/>
<path d="M243.697 2.65305C243.697 5.75023 241.185 8.26098 238.086 8.26098C234.987 8.26098 232.475 5.75023 232.475 2.65305C232.475 -0.44413 234.987 -2.95489 238.086 -2.95489C241.185 -2.95489 243.697 -0.44413 243.697 2.65305Z" fill="black" fill-opacity="0.02"/>
<path d="M273.278 2.65305C273.278 5.75023 270.766 8.26098 267.667 8.26098C264.568 8.26098 262.056 5.75023 262.056 2.65305C262.056 -0.44413 264.568 -2.95489 267.667 -2.95489C270.766 -2.95489 273.278 -0.44413 273.278 2.65305Z" fill="black" fill-opacity="0.02"/>
<path d="M302.859 2.65305C302.859 5.75023 300.347 8.26098 297.248 8.26098C294.149 8.26098 291.637 5.75023 291.637 2.65305C291.637 -0.44413 294.149 -2.95489 297.248 -2.95489C300.347 -2.95489 302.859 -0.44413 302.859 2.65305Z" fill="black" fill-opacity="0.02"/>
<path d="M332.44 2.65305C332.44 5.75023 329.928 8.26098 326.829 8.26098C323.73 8.26098 321.218 5.75023 321.218 2.65305C321.218 -0.44413 323.73 -2.95489 326.829 -2.95489C329.928 -2.95489 332.44 -0.44413 332.44 2.65305Z" fill="black" fill-opacity="0.02"/>
<path d="M362.021 2.65305C362.021 5.75023 359.509 8.26098 356.41 8.26098C353.311 8.26098 350.799 5.75023 350.799 2.65305C350.799 -0.44413 353.311 -2.95489 356.41 -2.95489C359.509 -2.95489 362.021 -0.44413 362.021 2.65305Z" fill="black" fill-opacity="0.02"/>
<path d="M391.602 2.65305C391.602 5.75023 389.09 8.26098 385.991 8.26098C382.892 8.26098 380.38 5.75023 380.38 2.65305C380.38 -0.44413 382.892 -2.95489 385.991 -2.95489C389.09 -2.95489 391.602 -0.44413 391.602 2.65305Z" fill="black" fill-opacity="0.02"/>
<path d="M421.183 2.65305C421.183 5.75023 418.671 8.26098 415.572 8.26098C412.473 8.26098 409.961 5.75023 409.961 2.65305C409.961 -0.44413 412.473 -2.95489 415.572 -2.95489C418.671 -2.95489 421.183 -0.44413 421.183 2.65305Z" fill="black" fill-opacity="0.02"/>
<path d="M450.764 2.65305C450.764 5.75023 448.252 8.26098 445.153 8.26098C442.054 8.26098 439.542 5.75023 439.542 2.65305C439.542 -0.44413 442.054 -2.95489 445.153 -2.95489C448.252 -2.95489 450.764 -0.44413 450.764 2.65305Z" fill="black" fill-opacity="0.02"/>
<path d="M480.345 2.65305C480.345 5.75023 477.833 8.26098 474.734 8.26098C471.635 8.26098 469.123 5.75023 469.123 2.65305C469.123 -0.44413 471.635 -2.95489 474.734 -2.95489C477.833 -2.95489 480.345 -0.44413 480.345 2.65305Z" fill="black" fill-opacity="0.02"/>
<path d="M214.116 91.3477C214.116 94.4449 211.604 96.9556 208.505 96.9556C205.406 96.9556 202.894 94.4449 202.894 91.3477C202.894 88.2505 205.406 85.7398 208.505 85.7398C211.604 85.7398 214.116 88.2505 214.116 91.3477Z" fill="black" fill-opacity="0.02"/>
<path d="M243.697 91.3477C243.697 94.4449 241.185 96.9556 238.086 96.9556C234.987 96.9556 232.475 94.4449 232.475 91.3477C232.475 88.2505 234.987 85.7398 238.086 85.7398C241.185 85.7398 243.697 88.2505 243.697 91.3477Z" fill="black" fill-opacity="0.02"/>
<path d="M273.278 91.3477C273.278 94.4449 270.766 96.9556 267.667 96.9556C264.568 96.9556 262.056 94.4449 262.056 91.3477C262.056 88.2505 264.568 85.7398 267.667 85.7398C270.766 85.7398 273.278 88.2505 273.278 91.3477Z" fill="black" fill-opacity="0.02"/>
<path d="M302.859 91.3477C302.859 94.4449 300.347 96.9556 297.248 96.9556C294.149 96.9556 291.637 94.4449 291.637 91.3477C291.637 88.2505 294.149 85.7398 297.248 85.7398C300.347 85.7398 302.859 88.2505 302.859 91.3477Z" fill="black" fill-opacity="0.02"/>
<path d="M332.44 91.3477C332.44 94.4449 329.928 96.9556 326.829 96.9556C323.73 96.9556 321.218 94.4449 321.218 91.3477C321.218 88.2505 323.73 85.7398 326.829 85.7398C329.928 85.7398 332.44 88.2505 332.44 91.3477Z" fill="black" fill-opacity="0.02"/>
<path d="M362.021 91.3477C362.021 94.4449 359.509 96.9556 356.41 96.9556C353.311 96.9556 350.799 94.4449 350.799 91.3477C350.799 88.2505 353.311 85.7398 356.41 85.7398C359.509 85.7398 362.021 88.2505 362.021 91.3477Z" fill="black" fill-opacity="0.02"/>
<path d="M391.602 91.3477C391.602 94.4449 389.09 96.9556 385.991 96.9556C382.892 96.9556 380.38 94.4449 380.38 91.3477C380.38 88.2505 382.892 85.7398 385.991 85.7398C389.09 85.7398 391.602 88.2505 391.602 91.3477Z" fill="black" fill-opacity="0.02"/>
<path d="M421.183 91.3477C421.183 94.4449 418.671 96.9556 415.572 96.9556C412.473 96.9556 409.961 94.4449 409.961 91.3477C409.961 88.2505 412.473 85.7398 415.572 85.7398C418.671 85.7398 421.183 88.2505 421.183 91.3477Z" fill="black" fill-opacity="0.02"/>
<path d="M450.764 91.3477C450.764 94.4449 448.252 96.9556 445.153 96.9556C442.054 96.9556 439.542 94.4449 439.542 91.3477C439.542 88.2505 442.054 85.7398 445.153 85.7398C448.252 85.7398 450.764 88.2505 450.764 91.3477Z" fill="black" fill-opacity="0.02"/>
<path d="M480.345 91.3477C480.345 94.4449 477.833 96.9556 474.734 96.9556C471.635 96.9556 469.123 94.4449 469.123 91.3477C469.123 88.2505 471.635 85.7398 474.734 85.7398C477.833 85.7398 480.345 88.2505 480.345 91.3477Z" fill="black" fill-opacity="0.02"/>
<path d="M214.116 32.2179C214.116 35.3151 211.604 37.8259 208.505 37.8259C205.406 37.8259 202.894 35.3151 202.894 32.2179C202.894 29.1208 205.406 26.61 208.505 26.61C211.604 26.61 214.116 29.1208 214.116 32.2179Z" fill="black" fill-opacity="0.02"/>
<path d="M243.697 32.2179C243.697 35.3151 241.185 37.8259 238.086 37.8259C234.987 37.8259 232.475 35.3151 232.475 32.2179C232.475 29.1208 234.987 26.61 238.086 26.61C241.185 26.61 243.697 29.1208 243.697 32.2179Z" fill="black" fill-opacity="0.02"/>
<path d="M273.278 32.2179C273.278 35.3151 270.766 37.8259 267.667 37.8259C264.568 37.8259 262.056 35.3151 262.056 32.2179C262.056 29.1208 264.568 26.61 267.667 26.61C270.766 26.61 273.278 29.1208 273.278 32.2179Z" fill="black" fill-opacity="0.02"/>
<path d="M302.859 32.2179C302.859 35.3151 300.347 37.8259 297.248 37.8259C294.149 37.8259 291.637 35.3151 291.637 32.2179C291.637 29.1208 294.149 26.61 297.248 26.61C300.347 26.61 302.859 29.1208 302.859 32.2179Z" fill="black" fill-opacity="0.02"/>
<path d="M332.44 32.2179C332.44 35.3151 329.928 37.8259 326.829 37.8259C323.73 37.8259 321.218 35.3151 321.218 32.2179C321.218 29.1208 323.73 26.61 326.829 26.61C329.928 26.61 332.44 29.1208 332.44 32.2179Z" fill="black" fill-opacity="0.02"/>
<path d="M362.021 32.2179C362.021 35.3151 359.509 37.8259 356.41 37.8259C353.311 37.8259 350.799 35.3151 350.799 32.2179C350.799 29.1208 353.311 26.61 356.41 26.61C359.509 26.61 362.021 29.1208 362.021 32.2179Z" fill="black" fill-opacity="0.02"/>
<path d="M391.602 32.2179C391.602 35.3151 389.09 37.8259 385.991 37.8259C382.892 37.8259 380.38 35.3151 380.38 32.2179C380.38 29.1208 382.892 26.61 385.991 26.61C389.09 26.61 391.602 29.1208 391.602 32.2179Z" fill="black" fill-opacity="0.02"/>
<path d="M421.183 32.2179C421.183 35.3151 418.671 37.8259 415.572 37.8259C412.473 37.8259 409.961 35.3151 409.961 32.2179C409.961 29.1208 412.473 26.61 415.572 26.61C418.671 26.61 421.183 29.1208 421.183 32.2179Z" fill="black" fill-opacity="0.02"/>
<path d="M450.764 32.2179C450.764 35.3151 448.252 37.8259 445.153 37.8259C442.054 37.8259 439.542 35.3151 439.542 32.2179C439.542 29.1208 442.054 26.61 445.153 26.61C448.252 26.61 450.764 29.1208 450.764 32.2179Z" fill="black" fill-opacity="0.02"/>
<path d="M480.345 32.2179C480.345 35.3151 477.833 37.8259 474.734 37.8259C471.635 37.8259 469.123 35.3151 469.123 32.2179C469.123 29.1208 471.635 26.61 474.734 26.61C477.833 26.61 480.345 29.1208 480.345 32.2179Z" fill="black" fill-opacity="0.02"/>
<path d="M214.116 120.913C214.116 124.01 211.604 126.521 208.505 126.521C205.406 126.521 202.894 124.01 202.894 120.913C202.894 117.815 205.406 115.305 208.505 115.305C211.604 115.305 214.116 117.815 214.116 120.913Z" fill="black" fill-opacity="0.02"/>
<path d="M243.697 120.913C243.697 124.01 241.185 126.521 238.086 126.521C234.987 126.521 232.475 124.01 232.475 120.913C232.475 117.815 234.987 115.305 238.086 115.305C241.185 115.305 243.697 117.815 243.697 120.913Z" fill="black" fill-opacity="0.02"/>
<path d="M273.278 120.913C273.278 124.01 270.766 126.521 267.667 126.521C264.568 126.521 262.056 124.01 262.056 120.913C262.056 117.815 264.568 115.305 267.667 115.305C270.766 115.305 273.278 117.815 273.278 120.913Z" fill="black" fill-opacity="0.02"/>
<path d="M302.859 120.913C302.859 124.01 300.347 126.521 297.248 126.521C294.149 126.521 291.637 124.01 291.637 120.913C291.637 117.815 294.149 115.305 297.248 115.305C300.347 115.305 302.859 117.815 302.859 120.913Z" fill="black" fill-opacity="0.02"/>
<path d="M332.44 120.913C332.44 124.01 329.928 126.521 326.829 126.521C323.73 126.521 321.218 124.01 321.218 120.913C321.218 117.815 323.73 115.305 326.829 115.305C329.928 115.305 332.44 117.815 332.44 120.913Z" fill="black" fill-opacity="0.02"/>
<path d="M362.021 120.913C362.021 124.01 359.509 126.521 356.41 126.521C353.311 126.521 350.799 124.01 350.799 120.913C350.799 117.815 353.311 115.305 356.41 115.305C359.509 115.305 362.021 117.815 362.021 120.913Z" fill="black" fill-opacity="0.02"/>
<path d="M391.602 120.913C391.602 124.01 389.09 126.521 385.991 126.521C382.892 126.521 380.38 124.01 380.38 120.913C380.38 117.815 382.892 115.305 385.991 115.305C389.09 115.305 391.602 117.815 391.602 120.913Z" fill="black" fill-opacity="0.02"/>
<path d="M421.183 120.913C421.183 124.01 418.671 126.521 415.572 126.521C412.473 126.521 409.961 124.01 409.961 120.913C409.961 117.815 412.473 115.305 415.572 115.305C418.671 115.305 421.183 117.815 421.183 120.913Z" fill="black" fill-opacity="0.02"/>
<path d="M450.764 120.913C450.764 124.01 448.252 126.521 445.153 126.521C442.054 126.521 439.542 124.01 439.542 120.913C439.542 117.815 442.054 115.305 445.153 115.305C448.252 115.305 450.764 117.815 450.764 120.913Z" fill="black" fill-opacity="0.02"/>
<path d="M480.345 120.913C480.345 124.01 477.833 126.521 474.734 126.521C471.635 126.521 469.123 124.01 469.123 120.913C469.123 117.815 471.635 115.305 474.734 115.305C477.833 115.305 480.345 117.815 480.345 120.913Z" fill="black" fill-opacity="0.02"/>
<path d="M214.116 150.463C214.116 153.56 211.604 156.07 208.505 156.07C205.406 156.07 202.894 153.56 202.894 150.463C202.894 147.365 205.406 144.855 208.505 144.855C211.604 144.855 214.116 147.365 214.116 150.463Z" fill="black" fill-opacity="0.02"/>
<path d="M243.697 150.463C243.697 153.56 241.185 156.07 238.086 156.07C234.987 156.07 232.475 153.56 232.475 150.463C232.475 147.365 234.987 144.855 238.086 144.855C241.185 144.855 243.697 147.365 243.697 150.463Z" fill="black" fill-opacity="0.02"/>
<path d="M273.278 150.463C273.278 153.56 270.766 156.07 267.667 156.07C264.568 156.07 262.056 153.56 262.056 150.463C262.056 147.365 264.568 144.855 267.667 144.855C270.766 144.855 273.278 147.365 273.278 150.463Z" fill="black" fill-opacity="0.02"/>
<path d="M302.859 150.463C302.859 153.56 300.347 156.07 297.248 156.07C294.149 156.07 291.637 153.56 291.637 150.463C291.637 147.365 294.149 144.855 297.248 144.855C300.347 144.855 302.859 147.365 302.859 150.463Z" fill="black" fill-opacity="0.02"/>
<path d="M332.44 150.463C332.44 153.56 329.928 156.07 326.829 156.07C323.73 156.07 321.218 153.56 321.218 150.463C321.218 147.365 323.73 144.855 326.829 144.855C329.928 144.855 332.44 147.365 332.44 150.463Z" fill="black" fill-opacity="0.02"/>
<path d="M362.021 150.463C362.021 153.56 359.509 156.07 356.41 156.07C353.311 156.07 350.799 153.56 350.799 150.463C350.799 147.365 353.311 144.855 356.41 144.855C359.509 144.855 362.021 147.365 362.021 150.463Z" fill="black" fill-opacity="0.02"/>
<path d="M391.602 150.463C391.602 153.56 389.09 156.07 385.991 156.07C382.892 156.07 380.38 153.56 380.38 150.463C380.38 147.365 382.892 144.855 385.991 144.855C389.09 144.855 391.602 147.365 391.602 150.463Z" fill="black" fill-opacity="0.02"/>
<path d="M421.183 150.463C421.183 153.56 418.671 156.07 415.572 156.07C412.473 156.07 409.961 153.56 409.961 150.463C409.961 147.365 412.473 144.855 415.572 144.855C418.671 144.855 421.183 147.365 421.183 150.463Z" fill="black" fill-opacity="0.02"/>
<path d="M450.764 150.463C450.764 153.56 448.252 156.07 445.153 156.07C442.054 156.07 439.542 153.56 439.542 150.463C439.542 147.365 442.054 144.855 445.153 144.855C448.252 144.855 450.764 147.365 450.764 150.463Z" fill="black" fill-opacity="0.02"/>
<path d="M480.345 150.463C480.345 153.56 477.833 156.07 474.734 156.07C471.635 156.07 469.123 153.56 469.123 150.463C469.123 147.365 471.635 144.855 474.734 144.855C477.833 144.855 480.345 147.365 480.345 150.463Z" fill="black" fill-opacity="0.02"/>
<path d="M214.116 239.157C214.116 242.254 211.604 244.765 208.505 244.765C205.406 244.765 202.894 242.254 202.894 239.157C202.894 236.06 205.406 233.549 208.505 233.549C211.604 233.549 214.116 236.06 214.116 239.157Z" fill="black" fill-opacity="0.02"/>
<path d="M243.697 239.157C243.697 242.254 241.185 244.765 238.086 244.765C234.987 244.765 232.475 242.254 232.475 239.157C232.475 236.06 234.987 233.549 238.086 233.549C241.185 233.549 243.697 236.06 243.697 239.157Z" fill="black" fill-opacity="0.02"/>
<path d="M273.278 239.157C273.278 242.254 270.766 244.765 267.667 244.765C264.568 244.765 262.056 242.254 262.056 239.157C262.056 236.06 264.568 233.549 267.667 233.549C270.766 233.549 273.278 236.06 273.278 239.157Z" fill="black" fill-opacity="0.02"/>
<path d="M302.859 239.157C302.859 242.254 300.347 244.765 297.248 244.765C294.149 244.765 291.637 242.254 291.637 239.157C291.637 236.06 294.149 233.549 297.248 233.549C300.347 233.549 302.859 236.06 302.859 239.157Z" fill="black" fill-opacity="0.02"/>
<path d="M332.44 239.157C332.44 242.254 329.928 244.765 326.829 244.765C323.73 244.765 321.218 242.254 321.218 239.157C321.218 236.06 323.73 233.549 326.829 233.549C329.928 233.549 332.44 236.06 332.44 239.157Z" fill="black" fill-opacity="0.02"/>
<path d="M362.021 239.157C362.021 242.254 359.509 244.765 356.41 244.765C353.311 244.765 350.799 242.254 350.799 239.157C350.799 236.06 353.311 233.549 356.41 233.549C359.509 233.549 362.021 236.06 362.021 239.157Z" fill="black" fill-opacity="0.02"/>
<path d="M391.602 239.157C391.602 242.254 389.09 244.765 385.991 244.765C382.892 244.765 380.38 242.254 380.38 239.157C380.38 236.06 382.892 233.549 385.991 233.549C389.09 233.549 391.602 236.06 391.602 239.157Z" fill="black" fill-opacity="0.02"/>
<path d="M421.183 239.157C421.183 242.254 418.671 244.765 415.572 244.765C412.473 244.765 409.961 242.254 409.961 239.157C409.961 236.06 412.473 233.549 415.572 233.549C418.671 233.549 421.183 236.06 421.183 239.157Z" fill="black" fill-opacity="0.02"/>
<path d="M450.764 239.157C450.764 242.254 448.252 244.765 445.153 244.765C442.054 244.765 439.542 242.254 439.542 239.157C439.542 236.06 442.054 233.549 445.153 233.549C448.252 233.549 450.764 236.06 450.764 239.157Z" fill="black" fill-opacity="0.02"/>
<path d="M480.345 239.157C480.345 242.254 477.833 244.765 474.734 244.765C471.635 244.765 469.123 242.254 469.123 239.157C469.123 236.06 471.635 233.549 474.734 233.549C477.833 233.549 480.345 236.06 480.345 239.157Z" fill="black" fill-opacity="0.02"/>
<path d="M214.116 180.027C214.116 183.125 211.604 185.635 208.505 185.635C205.406 185.635 202.894 183.125 202.894 180.027C202.894 176.93 205.406 174.419 208.505 174.419C211.604 174.419 214.116 176.93 214.116 180.027Z" fill="black" fill-opacity="0.02"/>
<path d="M243.697 180.027C243.697 183.125 241.185 185.635 238.086 185.635C234.987 185.635 232.475 183.125 232.475 180.027C232.475 176.93 234.987 174.419 238.086 174.419C241.185 174.419 243.697 176.93 243.697 180.027Z" fill="black" fill-opacity="0.02"/>
<path d="M273.278 180.027C273.278 183.125 270.766 185.635 267.667 185.635C264.568 185.635 262.056 183.125 262.056 180.027C262.056 176.93 264.568 174.419 267.667 174.419C270.766 174.419 273.278 176.93 273.278 180.027Z" fill="black" fill-opacity="0.02"/>
<path d="M302.859 180.027C302.859 183.125 300.347 185.635 297.248 185.635C294.149 185.635 291.637 183.125 291.637 180.027C291.637 176.93 294.149 174.419 297.248 174.419C300.347 174.419 302.859 176.93 302.859 180.027Z" fill="black" fill-opacity="0.02"/>
<path d="M332.44 180.027C332.44 183.125 329.928 185.635 326.829 185.635C323.73 185.635 321.218 183.125 321.218 180.027C321.218 176.93 323.73 174.419 326.829 174.419C329.928 174.419 332.44 176.93 332.44 180.027Z" fill="black" fill-opacity="0.02"/>
<path d="M362.021 180.027C362.021 183.125 359.509 185.635 356.41 185.635C353.311 185.635 350.799 183.125 350.799 180.027C350.799 176.93 353.311 174.419 356.41 174.419C359.509 174.419 362.021 176.93 362.021 180.027Z" fill="black" fill-opacity="0.02"/>
<path d="M391.602 180.027C391.602 183.125 389.09 185.635 385.991 185.635C382.892 185.635 380.38 183.125 380.38 180.027C380.38 176.93 382.892 174.419 385.991 174.419C389.09 174.419 391.602 176.93 391.602 180.027Z" fill="black" fill-opacity="0.02"/>
<path d="M421.183 180.027C421.183 183.125 418.671 185.635 415.572 185.635C412.473 185.635 409.961 183.125 409.961 180.027C409.961 176.93 412.473 174.419 415.572 174.419C418.671 174.419 421.183 176.93 421.183 180.027Z" fill="black" fill-opacity="0.02"/>
<path d="M450.764 180.027C450.764 183.125 448.252 185.635 445.153 185.635C442.054 185.635 439.542 183.125 439.542 180.027C439.542 176.93 442.054 174.419 445.153 174.419C448.252 174.419 450.764 176.93 450.764 180.027Z" fill="black" fill-opacity="0.02"/>
<path d="M480.345 180.027C480.345 183.125 477.833 185.635 474.734 185.635C471.635 185.635 469.123 183.125 469.123 180.027C469.123 176.93 471.635 174.419 474.734 174.419C477.833 174.419 480.345 176.93 480.345 180.027Z" fill="black" fill-opacity="0.02"/>
<path d="M214.116 268.722C214.116 271.819 211.604 274.33 208.505 274.33C205.406 274.33 202.894 271.819 202.894 268.722C202.894 265.625 205.406 263.114 208.505 263.114C211.604 263.114 214.116 265.625 214.116 268.722Z" fill="black" fill-opacity="0.02"/>
<path d="M243.697 268.722C243.697 271.819 241.185 274.33 238.086 274.33C234.987 274.33 232.475 271.819 232.475 268.722C232.475 265.625 234.987 263.114 238.086 263.114C241.185 263.114 243.697 265.625 243.697 268.722Z" fill="black" fill-opacity="0.02"/>
<path d="M273.278 268.722C273.278 271.819 270.766 274.33 267.667 274.33C264.568 274.33 262.056 271.819 262.056 268.722C262.056 265.625 264.568 263.114 267.667 263.114C270.766 263.114 273.278 265.625 273.278 268.722Z" fill="black" fill-opacity="0.02"/>
<path d="M302.859 268.722C302.859 271.819 300.347 274.33 297.248 274.33C294.149 274.33 291.637 271.819 291.637 268.722C291.637 265.625 294.149 263.114 297.248 263.114C300.347 263.114 302.859 265.625 302.859 268.722Z" fill="black" fill-opacity="0.02"/>
<path d="M332.44 268.722C332.44 271.819 329.928 274.33 326.829 274.33C323.73 274.33 321.218 271.819 321.218 268.722C321.218 265.625 323.73 263.114 326.829 263.114C329.928 263.114 332.44 265.625 332.44 268.722Z" fill="black" fill-opacity="0.02"/>
<path d="M362.021 268.722C362.021 271.819 359.509 274.33 356.41 274.33C353.311 274.33 350.799 271.819 350.799 268.722C350.799 265.625 353.311 263.114 356.41 263.114C359.509 263.114 362.021 265.625 362.021 268.722Z" fill="black" fill-opacity="0.02"/>
<path d="M391.602 268.722C391.602 271.819 389.09 274.33 385.991 274.33C382.892 274.33 380.38 271.819 380.38 268.722C380.38 265.625 382.892 263.114 385.991 263.114C389.09 263.114 391.602 265.625 391.602 268.722Z" fill="black" fill-opacity="0.02"/>
<path d="M421.183 268.722C421.183 271.819 418.671 274.33 415.572 274.33C412.473 274.33 409.961 271.819 409.961 268.722C409.961 265.625 412.473 263.114 415.572 263.114C418.671 263.114 421.183 265.625 421.183 268.722Z" fill="black" fill-opacity="0.02"/>
<path d="M450.764 268.722C450.764 271.819 448.252 274.33 445.153 274.33C442.054 274.33 439.542 271.819 439.542 268.722C439.542 265.625 442.054 263.114 445.153 263.114C448.252 263.114 450.764 265.625 450.764 268.722Z" fill="black" fill-opacity="0.02"/>
<path d="M480.345 268.722C480.345 271.819 477.833 274.33 474.734 274.33C471.635 274.33 469.123 271.819 469.123 268.722C469.123 265.625 471.635 263.114 474.734 263.114C477.833 263.114 480.345 265.625 480.345 268.722Z" fill="black" fill-opacity="0.02"/>
<path d="M214.116 209.592C214.116 212.689 211.604 215.2 208.505 215.2C205.406 215.2 202.894 212.689 202.894 209.592C202.894 206.495 205.406 203.984 208.505 203.984C211.604 203.984 214.116 206.495 214.116 209.592Z" fill="black" fill-opacity="0.02"/>
<path d="M243.697 209.592C243.697 212.689 241.185 215.2 238.086 215.2C234.987 215.2 232.475 212.689 232.475 209.592C232.475 206.495 234.987 203.984 238.086 203.984C241.185 203.984 243.697 206.495 243.697 209.592Z" fill="black" fill-opacity="0.02"/>
<path d="M273.278 209.592C273.278 212.689 270.766 215.2 267.667 215.2C264.568 215.2 262.056 212.689 262.056 209.592C262.056 206.495 264.568 203.984 267.667 203.984C270.766 203.984 273.278 206.495 273.278 209.592Z" fill="black" fill-opacity="0.02"/>
<path d="M302.859 209.592C302.859 212.689 300.347 215.2 297.248 215.2C294.149 215.2 291.637 212.689 291.637 209.592C291.637 206.495 294.149 203.984 297.248 203.984C300.347 203.984 302.859 206.495 302.859 209.592Z" fill="black" fill-opacity="0.02"/>
<path d="M332.44 209.592C332.44 212.689 329.928 215.2 326.829 215.2C323.73 215.2 321.218 212.689 321.218 209.592C321.218 206.495 323.73 203.984 326.829 203.984C329.928 203.984 332.44 206.495 332.44 209.592Z" fill="black" fill-opacity="0.02"/>
<path d="M362.021 209.592C362.021 212.689 359.509 215.2 356.41 215.2C353.311 215.2 350.799 212.689 350.799 209.592C350.799 206.495 353.311 203.984 356.41 203.984C359.509 203.984 362.021 206.495 362.021 209.592Z" fill="black" fill-opacity="0.02"/>
<path d="M391.602 209.592C391.602 212.689 389.09 215.2 385.991 215.2C382.892 215.2 380.38 212.689 380.38 209.592C380.38 206.495 382.892 203.984 385.991 203.984C389.09 203.984 391.602 206.495 391.602 209.592Z" fill="black" fill-opacity="0.02"/>
<path d="M421.183 209.592C421.183 212.689 418.671 215.2 415.572 215.2C412.473 215.2 409.961 212.689 409.961 209.592C409.961 206.495 412.473 203.984 415.572 203.984C418.671 203.984 421.183 206.495 421.183 209.592Z" fill="black" fill-opacity="0.02"/>
<path d="M450.764 209.592C450.764 212.689 448.252 215.2 445.153 215.2C442.054 215.2 439.542 212.689 439.542 209.592C439.542 206.495 442.054 203.984 445.153 203.984C448.252 203.984 450.764 206.495 450.764 209.592Z" fill="black" fill-opacity="0.02"/>
<path d="M480.345 209.592C480.345 212.689 477.833 215.2 474.734 215.2C471.635 215.2 469.123 212.689 469.123 209.592C469.123 206.495 471.635 203.984 474.734 203.984C477.833 203.984 480.345 206.495 480.345 209.592Z" fill="black" fill-opacity="0.02"/>
<path d="M214.116 298.287C214.116 301.384 211.604 303.895 208.505 303.895C205.406 303.895 202.894 301.384 202.894 298.287C202.894 295.19 205.406 292.679 208.505 292.679C211.604 292.679 214.116 295.19 214.116 298.287Z" fill="black" fill-opacity="0.02"/>
<path d="M243.697 298.287C243.697 301.384 241.185 303.895 238.086 303.895C234.987 303.895 232.475 301.384 232.475 298.287C232.475 295.19 234.987 292.679 238.086 292.679C241.185 292.679 243.697 295.19 243.697 298.287Z" fill="black" fill-opacity="0.02"/>
<path d="M273.278 298.287C273.278 301.384 270.766 303.895 267.667 303.895C264.568 303.895 262.056 301.384 262.056 298.287C262.056 295.19 264.568 292.679 267.667 292.679C270.766 292.679 273.278 295.19 273.278 298.287Z" fill="black" fill-opacity="0.02"/>
<path d="M302.859 298.287C302.859 301.384 300.347 303.895 297.248 303.895C294.149 303.895 291.637 301.384 291.637 298.287C291.637 295.19 294.149 292.679 297.248 292.679C300.347 292.679 302.859 295.19 302.859 298.287Z" fill="black" fill-opacity="0.02"/>
<path d="M332.44 298.287C332.44 301.384 329.928 303.895 326.829 303.895C323.73 303.895 321.218 301.384 321.218 298.287C321.218 295.19 323.73 292.679 326.829 292.679C329.928 292.679 332.44 295.19 332.44 298.287Z" fill="black" fill-opacity="0.02"/>
<path d="M362.021 298.287C362.021 301.384 359.509 303.895 356.41 303.895C353.311 303.895 350.799 301.384 350.799 298.287C350.799 295.19 353.311 292.679 356.41 292.679C359.509 292.679 362.021 295.19 362.021 298.287Z" fill="black" fill-opacity="0.02"/>
<path d="M391.602 298.287C391.602 301.384 389.09 303.895 385.991 303.895C382.892 303.895 380.38 301.384 380.38 298.287C380.38 295.19 382.892 292.679 385.991 292.679C389.09 292.679 391.602 295.19 391.602 298.287Z" fill="black" fill-opacity="0.02"/>
<path d="M421.183 298.287C421.183 301.384 418.671 303.895 415.572 303.895C412.473 303.895 409.961 301.384 409.961 298.287C409.961 295.19 412.473 292.679 415.572 292.679C418.671 292.679 421.183 295.19 421.183 298.287Z" fill="black" fill-opacity="0.02"/>
<path d="M450.764 298.287C450.764 301.384 448.252 303.895 445.153 303.895C442.054 303.895 439.542 301.384 439.542 298.287C439.542 295.19 442.054 292.679 445.153 292.679C448.252 292.679 450.764 295.19 450.764 298.287Z" fill="black" fill-opacity="0.02"/>
<path d="M480.345 298.287C480.345 301.384 477.833 303.895 474.734 303.895C471.635 303.895 469.123 301.384 469.123 298.287C469.123 295.19 471.635 292.679 474.734 292.679C477.833 292.679 480.345 295.19 480.345 298.287Z" fill="black" fill-opacity="0.02"/>
</g>
<defs>
<linearGradient id="paint0_linear_339_6053" x1="407.955" y1="-27.5965" x2="-28.1039" y2="48.7384" gradientUnits="userSpaceOnUse">
<stop stop-color="#EDC8AE"/>
<stop offset="1" stop-color="#D5AB8F"/>
</linearGradient>
<linearGradient id="paint1_linear_339_6053" x1="411.11" y1="-23.2471" x2="-38.4667" y2="149.27" gradientUnits="userSpaceOnUse">
<stop stop-color="#9A9A9A"/>
<stop offset="1" stop-color="#D3D3D3"/>
</linearGradient>
</defs>
</svg>
