<svg width="398" height="128" viewBox="0 0 398 128" fill="none" xmlns="http://www.w3.org/2000/svg">
<rect x="-14.7158" y="-14.6318" width="426.716" height="236.311" rx="7.63929" fill="url(#paint0_linear_339_6137)"/>
<mask id="mask0_339_6137" style="mask-type:alpha" maskUnits="userSpaceOnUse" x="-15" y="-15" width="427" height="237">
<rect x="-14.7158" y="-14.6318" width="426.716" height="236.311" rx="7.63929" fill="url(#paint1_linear_339_6137)"/>
</mask>
<g mask="url(#mask0_339_6137)">
<ellipse cx="356.178" cy="67.5355" rx="135.574" ry="178.835" fill="black" fill-opacity="0.02"/>
<path d="M404.837 -7.94283C400.673 -14.149 393.688 -17.868 386.213 -17.854H252.365C244.894 -17.868 237.907 -14.151 233.747 -7.94283L191.995 54.2972C186.823 62.0509 187.025 72.204 192.503 79.7438L308.468 238.732C310.994 242.183 315.013 244.222 319.289 244.222C323.567 244.222 327.586 242.183 330.11 238.732L446.077 79.7438C451.553 72.204 451.755 62.0509 446.583 54.2972L404.837 -7.94283ZM439.022 74.6073L323.051 233.595C322.139 234.743 320.755 235.411 319.289 235.411C317.825 235.411 316.439 234.743 315.527 233.595L199.558 74.5993C196.242 70.0226 196.12 63.8704 199.248 59.1638L241.004 -3.08224C243.546 -6.86514 247.808 -9.12849 252.365 -9.11849H386.213C390.77 -9.12649 395.03 -6.85914 397.572 -3.07824L439.324 59.1638C442.454 63.8684 442.334 70.0206 439.022 74.5993V74.6073Z" fill="black" fill-opacity="0.03"/>
<path d="M392.064 3.47546C391.662 2.88163 391.12 2.39577 390.486 2.05987L386.83 0.126429C386.2 -0.207476 385.498 -0.381426 384.785 -0.381426H253.725C253.011 -0.381426 252.307 -0.205477 251.677 0.130426L248.007 2.07786C247.371 2.41577 246.829 2.90562 246.429 3.50145L207.151 61.9686C205.109 65.0237 205.197 69.0265 207.369 71.9897L312.155 214.433C313.819 216.684 316.455 218.012 319.255 218.01C322.052 218.006 324.682 216.674 326.342 214.423L431.162 71.5958C433.34 68.6227 433.416 64.6038 431.354 61.5507L392.064 3.47546ZM359.395 144.315L321.364 123.303C320.053 122.577 318.459 122.577 317.145 123.303L279.138 144.315L286.434 99.4677C286.658 98.0981 286.218 96.7045 285.25 95.7108L254.053 63.7421L296.967 57.1899C298.407 56.97 299.642 56.0463 300.26 54.7267L319.255 14.2683L338.251 54.7267C338.869 56.0463 340.105 56.97 341.545 57.1899L384.457 63.7421L353.261 95.7108C352.292 96.7045 351.854 98.0981 352.078 99.4677L359.395 144.315ZM214.408 66.8432L210.781 64.4059L214.408 66.8392V66.8432ZM253.079 9.27979L254.817 8.35405H312.379L293.341 48.9043L244.328 56.4002C242.71 56.6461 241.364 57.7778 240.844 59.3313C240.324 60.8829 240.716 62.5964 241.86 63.7681L277.456 100.244L270.465 143.049L214.408 66.8272L253.079 9.27979ZM319.195 209.274L278.862 154.436L319.255 132.112L359.513 154.362L319.195 209.274ZM368 142.799L361.055 100.236L396.651 63.7601C397.789 62.5884 398.177 60.8789 397.659 59.3293C397.139 57.7798 395.798 56.6501 394.182 56.4002L345.17 48.9043L326.132 8.35405H383.703L385.448 9.27179L424.103 66.4113L368 142.799Z" fill="black" fill-opacity="0.03"/>
<path d="M361.407 71.4621C360.887 69.9046 359.535 68.7709 357.911 68.527L333.294 64.7721L323.207 43.2563C322.487 41.7247 320.947 40.745 319.253 40.745C317.561 40.745 316.019 41.7247 315.299 43.2563L305.196 64.7721L280.579 68.527C278.959 68.7749 277.617 69.9086 277.097 71.4601C276.577 73.0117 276.971 74.7252 278.115 75.8968L296.099 94.3495L292.064 119.094C291.794 120.744 292.492 122.405 293.859 123.367C295.227 124.331 297.025 124.429 298.489 123.619L319.253 112.152L340.001 123.619C340.645 123.979 341.373 124.167 342.111 124.165C343.393 124.167 344.611 123.605 345.443 122.627C346.273 121.652 346.632 120.36 346.426 119.094L342.407 94.3495L360.411 75.8968C361.545 74.7212 361.931 73.0097 361.407 71.4621ZM334.596 89.8068C333.628 90.7985 333.186 92.1921 333.408 93.5597L336.353 111.607L321.363 103.309C320.051 102.585 318.457 102.585 317.143 103.309L302.155 111.607L305.098 93.5597C305.32 92.1921 304.88 90.7985 303.91 89.8068L290.308 75.8829L308.822 73.0577C310.262 72.8357 311.498 71.912 312.116 70.5944L319.253 55.3888L326.392 70.5944C327.01 71.912 328.246 72.8357 329.686 73.0577L348.2 75.8829L334.596 89.8068Z" fill="black" fill-opacity="0.03"/>
<path d="M-76.1189 -13.9468C-76.1189 -10.8496 -78.631 -8.33882 -81.7298 -8.33882C-84.8287 -8.33882 -87.3408 -10.8496 -87.3408 -13.9468C-87.3408 -17.0439 -84.8287 -19.5547 -81.7298 -19.5547C-78.631 -19.5547 -76.1189 -17.0439 -76.1189 -13.9468Z" fill="black" fill-opacity="0.02"/>
<path d="M-46.5378 -13.9468C-46.5378 -10.8496 -49.05 -8.33882 -52.1488 -8.33882C-55.2477 -8.33882 -57.7598 -10.8496 -57.7598 -13.9468C-57.7598 -17.0439 -55.2477 -19.5547 -52.1488 -19.5547C-49.05 -19.5547 -46.5378 -17.0439 -46.5378 -13.9468Z" fill="black" fill-opacity="0.02"/>
<path d="M-16.9568 -13.9468C-16.9568 -10.8496 -19.4689 -8.33882 -22.5678 -8.33882C-25.6667 -8.33882 -28.1788 -10.8496 -28.1788 -13.9468C-28.1788 -17.0439 -25.6667 -19.5547 -22.5678 -19.5547C-19.4689 -19.5547 -16.9568 -17.0439 -16.9568 -13.9468Z" fill="black" fill-opacity="0.02"/>
<path d="M12.6242 -13.9468C12.6242 -10.8496 10.1121 -8.33882 7.01321 -8.33882C3.91435 -8.33882 1.40224 -10.8496 1.40224 -13.9468C1.40224 -17.0439 3.91435 -19.5547 7.01321 -19.5547C10.1121 -19.5547 12.6242 -17.0439 12.6242 -13.9468Z" fill="black" fill-opacity="0.02"/>
<path d="M42.2052 -13.9468C42.2052 -10.8496 39.6931 -8.33882 36.5942 -8.33882C33.4954 -8.33882 30.9833 -10.8496 30.9833 -13.9468C30.9833 -17.0439 33.4954 -19.5547 36.5942 -19.5547C39.6931 -19.5547 42.2052 -17.0439 42.2052 -13.9468Z" fill="black" fill-opacity="0.02"/>
<path d="M71.7862 -13.9468C71.7862 -10.8496 69.2741 -8.33882 66.1752 -8.33882C63.0764 -8.33882 60.5643 -10.8496 60.5643 -13.9468C60.5643 -17.0439 63.0764 -19.5547 66.1752 -19.5547C69.2741 -19.5547 71.7862 -17.0439 71.7862 -13.9468Z" fill="black" fill-opacity="0.02"/>
<path d="M101.367 -13.9468C101.367 -10.8496 98.8551 -8.33882 95.7563 -8.33882C92.6574 -8.33882 90.1453 -10.8496 90.1453 -13.9468C90.1453 -17.0439 92.6574 -19.5547 95.7563 -19.5547C98.8551 -19.5547 101.367 -17.0439 101.367 -13.9468Z" fill="black" fill-opacity="0.02"/>
<path d="M130.948 -13.9468C130.948 -10.8496 128.436 -8.33882 125.337 -8.33882C122.238 -8.33882 119.726 -10.8496 119.726 -13.9468C119.726 -17.0439 122.238 -19.5547 125.337 -19.5547C128.436 -19.5547 130.948 -17.0439 130.948 -13.9468Z" fill="black" fill-opacity="0.02"/>
<path d="M160.529 -13.9468C160.529 -10.8496 158.017 -8.33882 154.918 -8.33882C151.819 -8.33882 149.307 -10.8496 149.307 -13.9468C149.307 -17.0439 151.819 -19.5547 154.918 -19.5547C158.017 -19.5547 160.529 -17.0439 160.529 -13.9468Z" fill="black" fill-opacity="0.02"/>
<path d="M190.11 -13.9468C190.11 -10.8496 187.598 -8.33882 184.499 -8.33882C181.4 -8.33882 178.888 -10.8496 178.888 -13.9468C178.888 -17.0439 181.4 -19.5547 184.499 -19.5547C187.598 -19.5547 190.11 -17.0439 190.11 -13.9468Z" fill="black" fill-opacity="0.02"/>
<path d="M-76.1189 74.7479C-76.1189 77.8451 -78.631 80.3558 -81.7298 80.3558C-84.8287 80.3558 -87.3408 77.8451 -87.3408 74.7479C-87.3408 71.6507 -84.8287 69.14 -81.7298 69.14C-78.631 69.14 -76.1189 71.6507 -76.1189 74.7479Z" fill="black" fill-opacity="0.02"/>
<path d="M-46.5378 74.7479C-46.5378 77.8451 -49.05 80.3558 -52.1488 80.3558C-55.2477 80.3558 -57.7598 77.8451 -57.7598 74.7479C-57.7598 71.6507 -55.2477 69.14 -52.1488 69.14C-49.05 69.14 -46.5378 71.6507 -46.5378 74.7479Z" fill="black" fill-opacity="0.02"/>
<path d="M-16.9568 74.7479C-16.9568 77.8451 -19.4689 80.3558 -22.5678 80.3558C-25.6667 80.3558 -28.1788 77.8451 -28.1788 74.7479C-28.1788 71.6507 -25.6667 69.14 -22.5678 69.14C-19.4689 69.14 -16.9568 71.6507 -16.9568 74.7479Z" fill="black" fill-opacity="0.02"/>
<path d="M12.6242 74.7479C12.6242 77.8451 10.1121 80.3558 7.01321 80.3558C3.91435 80.3558 1.40224 77.8451 1.40224 74.7479C1.40224 71.6507 3.91435 69.14 7.01321 69.14C10.1121 69.14 12.6242 71.6507 12.6242 74.7479Z" fill="black" fill-opacity="0.02"/>
<path d="M42.2052 74.7479C42.2052 77.8451 39.6931 80.3558 36.5942 80.3558C33.4954 80.3558 30.9833 77.8451 30.9833 74.7479C30.9833 71.6507 33.4954 69.14 36.5942 69.14C39.6931 69.14 42.2052 71.6507 42.2052 74.7479Z" fill="black" fill-opacity="0.02"/>
<path d="M71.7862 74.7479C71.7862 77.8451 69.2741 80.3558 66.1752 80.3558C63.0764 80.3558 60.5643 77.8451 60.5643 74.7479C60.5643 71.6507 63.0764 69.14 66.1752 69.14C69.2741 69.14 71.7862 71.6507 71.7862 74.7479Z" fill="black" fill-opacity="0.02"/>
<path d="M101.367 74.7479C101.367 77.8451 98.8551 80.3558 95.7563 80.3558C92.6574 80.3558 90.1453 77.8451 90.1453 74.7479C90.1453 71.6507 92.6574 69.14 95.7563 69.14C98.8551 69.14 101.367 71.6507 101.367 74.7479Z" fill="black" fill-opacity="0.02"/>
<path d="M130.948 74.7479C130.948 77.8451 128.436 80.3558 125.337 80.3558C122.238 80.3558 119.726 77.8451 119.726 74.7479C119.726 71.6507 122.238 69.14 125.337 69.14C128.436 69.14 130.948 71.6507 130.948 74.7479Z" fill="black" fill-opacity="0.02"/>
<path d="M160.529 74.7479C160.529 77.8451 158.017 80.3558 154.918 80.3558C151.819 80.3558 149.307 77.8451 149.307 74.7479C149.307 71.6507 151.819 69.14 154.918 69.14C158.017 69.14 160.529 71.6507 160.529 74.7479Z" fill="black" fill-opacity="0.02"/>
<path d="M190.11 74.7479C190.11 77.8451 187.598 80.3558 184.499 80.3558C181.4 80.3558 178.888 77.8451 178.888 74.7479C178.888 71.6507 181.4 69.14 184.499 69.14C187.598 69.14 190.11 71.6507 190.11 74.7479Z" fill="black" fill-opacity="0.02"/>
<path d="M-76.1189 15.6181C-76.1189 18.7153 -78.631 21.2261 -81.7298 21.2261C-84.8287 21.2261 -87.3408 18.7153 -87.3408 15.6181C-87.3408 12.521 -84.8287 10.0102 -81.7298 10.0102C-78.631 10.0102 -76.1189 12.521 -76.1189 15.6181Z" fill="black" fill-opacity="0.02"/>
<path d="M-46.5378 15.6181C-46.5378 18.7153 -49.05 21.2261 -52.1488 21.2261C-55.2477 21.2261 -57.7598 18.7153 -57.7598 15.6181C-57.7598 12.521 -55.2477 10.0102 -52.1488 10.0102C-49.05 10.0102 -46.5378 12.521 -46.5378 15.6181Z" fill="black" fill-opacity="0.02"/>
<path d="M-16.9568 15.6181C-16.9568 18.7153 -19.4689 21.2261 -22.5678 21.2261C-25.6667 21.2261 -28.1788 18.7153 -28.1788 15.6181C-28.1788 12.521 -25.6667 10.0102 -22.5678 10.0102C-19.4689 10.0102 -16.9568 12.521 -16.9568 15.6181Z" fill="black" fill-opacity="0.02"/>
<path d="M12.6242 15.6181C12.6242 18.7153 10.1121 21.2261 7.01321 21.2261C3.91435 21.2261 1.40224 18.7153 1.40224 15.6181C1.40224 12.521 3.91435 10.0102 7.01321 10.0102C10.1121 10.0102 12.6242 12.521 12.6242 15.6181Z" fill="black" fill-opacity="0.02"/>
<path d="M42.2052 15.6181C42.2052 18.7153 39.6931 21.2261 36.5942 21.2261C33.4954 21.2261 30.9833 18.7153 30.9833 15.6181C30.9833 12.521 33.4954 10.0102 36.5942 10.0102C39.6931 10.0102 42.2052 12.521 42.2052 15.6181Z" fill="black" fill-opacity="0.02"/>
<path d="M71.7862 15.6181C71.7862 18.7153 69.2741 21.2261 66.1752 21.2261C63.0764 21.2261 60.5643 18.7153 60.5643 15.6181C60.5643 12.521 63.0764 10.0102 66.1752 10.0102C69.2741 10.0102 71.7862 12.521 71.7862 15.6181Z" fill="black" fill-opacity="0.02"/>
<path d="M101.367 15.6181C101.367 18.7153 98.8551 21.2261 95.7563 21.2261C92.6574 21.2261 90.1453 18.7153 90.1453 15.6181C90.1453 12.521 92.6574 10.0102 95.7563 10.0102C98.8551 10.0102 101.367 12.521 101.367 15.6181Z" fill="black" fill-opacity="0.02"/>
<path d="M130.948 15.6181C130.948 18.7153 128.436 21.2261 125.337 21.2261C122.238 21.2261 119.726 18.7153 119.726 15.6181C119.726 12.521 122.238 10.0102 125.337 10.0102C128.436 10.0102 130.948 12.521 130.948 15.6181Z" fill="black" fill-opacity="0.02"/>
<path d="M160.529 15.6181C160.529 18.7153 158.017 21.2261 154.918 21.2261C151.819 21.2261 149.307 18.7153 149.307 15.6181C149.307 12.521 151.819 10.0102 154.918 10.0102C158.017 10.0102 160.529 12.521 160.529 15.6181Z" fill="black" fill-opacity="0.02"/>
<path d="M190.11 15.6181C190.11 18.7153 187.598 21.2261 184.499 21.2261C181.4 21.2261 178.888 18.7153 178.888 15.6181C178.888 12.521 181.4 10.0102 184.499 10.0102C187.598 10.0102 190.11 12.521 190.11 15.6181Z" fill="black" fill-opacity="0.02"/>
<path d="M-76.1189 104.313C-76.1189 107.41 -78.631 109.921 -81.7298 109.921C-84.8287 109.921 -87.3408 107.41 -87.3408 104.313C-87.3408 101.216 -84.8287 98.7049 -81.7298 98.7049C-78.631 98.7049 -76.1189 101.216 -76.1189 104.313Z" fill="black" fill-opacity="0.02"/>
<path d="M-46.5378 104.313C-46.5378 107.41 -49.05 109.921 -52.1488 109.921C-55.2477 109.921 -57.7598 107.41 -57.7598 104.313C-57.7598 101.216 -55.2477 98.7049 -52.1488 98.7049C-49.05 98.7049 -46.5378 101.216 -46.5378 104.313Z" fill="black" fill-opacity="0.02"/>
<path d="M-16.9568 104.313C-16.9568 107.41 -19.4689 109.921 -22.5678 109.921C-25.6667 109.921 -28.1788 107.41 -28.1788 104.313C-28.1788 101.216 -25.6667 98.7049 -22.5678 98.7049C-19.4689 98.7049 -16.9568 101.216 -16.9568 104.313Z" fill="black" fill-opacity="0.02"/>
<path d="M12.6242 104.313C12.6242 107.41 10.1121 109.921 7.01321 109.921C3.91435 109.921 1.40224 107.41 1.40224 104.313C1.40224 101.216 3.91435 98.7049 7.01321 98.7049C10.1121 98.7049 12.6242 101.216 12.6242 104.313Z" fill="black" fill-opacity="0.02"/>
<path d="M42.2052 104.313C42.2052 107.41 39.6931 109.921 36.5942 109.921C33.4954 109.921 30.9833 107.41 30.9833 104.313C30.9833 101.216 33.4954 98.7049 36.5942 98.7049C39.6931 98.7049 42.2052 101.216 42.2052 104.313Z" fill="black" fill-opacity="0.02"/>
<path d="M71.7862 104.313C71.7862 107.41 69.2741 109.921 66.1752 109.921C63.0764 109.921 60.5643 107.41 60.5643 104.313C60.5643 101.216 63.0764 98.7049 66.1752 98.7049C69.2741 98.7049 71.7862 101.216 71.7862 104.313Z" fill="black" fill-opacity="0.02"/>
<path d="M101.367 104.313C101.367 107.41 98.8551 109.921 95.7563 109.921C92.6574 109.921 90.1453 107.41 90.1453 104.313C90.1453 101.216 92.6574 98.7049 95.7563 98.7049C98.8551 98.7049 101.367 101.216 101.367 104.313Z" fill="black" fill-opacity="0.02"/>
<path d="M130.948 104.313C130.948 107.41 128.436 109.921 125.337 109.921C122.238 109.921 119.726 107.41 119.726 104.313C119.726 101.216 122.238 98.7049 125.337 98.7049C128.436 98.7049 130.948 101.216 130.948 104.313Z" fill="black" fill-opacity="0.02"/>
<path d="M160.529 104.313C160.529 107.41 158.017 109.921 154.918 109.921C151.819 109.921 149.307 107.41 149.307 104.313C149.307 101.216 151.819 98.7049 154.918 98.7049C158.017 98.7049 160.529 101.216 160.529 104.313Z" fill="black" fill-opacity="0.02"/>
<path d="M190.11 104.313C190.11 107.41 187.598 109.921 184.499 109.921C181.4 109.921 178.888 107.41 178.888 104.313C178.888 101.216 181.4 98.7049 184.499 98.7049C187.598 98.7049 190.11 101.216 190.11 104.313Z" fill="black" fill-opacity="0.02"/>
<path d="M-76.1189 45.183C-76.1189 48.2802 -78.631 50.791 -81.7298 50.791C-84.8287 50.791 -87.3408 48.2802 -87.3408 45.183C-87.3408 42.0858 -84.8287 39.5751 -81.7298 39.5751C-78.631 39.5751 -76.1189 42.0858 -76.1189 45.183Z" fill="black" fill-opacity="0.02"/>
<path d="M-46.5378 45.183C-46.5378 48.2802 -49.05 50.791 -52.1488 50.791C-55.2477 50.791 -57.7598 48.2802 -57.7598 45.183C-57.7598 42.0858 -55.2477 39.5751 -52.1488 39.5751C-49.05 39.5751 -46.5378 42.0858 -46.5378 45.183Z" fill="black" fill-opacity="0.02"/>
<path d="M-16.9568 45.183C-16.9568 48.2802 -19.4689 50.791 -22.5678 50.791C-25.6667 50.791 -28.1788 48.2802 -28.1788 45.183C-28.1788 42.0858 -25.6667 39.5751 -22.5678 39.5751C-19.4689 39.5751 -16.9568 42.0858 -16.9568 45.183Z" fill="black" fill-opacity="0.02"/>
<path d="M12.6242 45.183C12.6242 48.2802 10.1121 50.791 7.01321 50.791C3.91435 50.791 1.40224 48.2802 1.40224 45.183C1.40224 42.0858 3.91435 39.5751 7.01321 39.5751C10.1121 39.5751 12.6242 42.0858 12.6242 45.183Z" fill="black" fill-opacity="0.02"/>
<path d="M42.2052 45.183C42.2052 48.2802 39.6931 50.791 36.5942 50.791C33.4954 50.791 30.9833 48.2802 30.9833 45.183C30.9833 42.0858 33.4954 39.5751 36.5942 39.5751C39.6931 39.5751 42.2052 42.0858 42.2052 45.183Z" fill="black" fill-opacity="0.02"/>
<path d="M71.7862 45.183C71.7862 48.2802 69.2741 50.791 66.1752 50.791C63.0764 50.791 60.5643 48.2802 60.5643 45.183C60.5643 42.0858 63.0764 39.5751 66.1752 39.5751C69.2741 39.5751 71.7862 42.0858 71.7862 45.183Z" fill="black" fill-opacity="0.02"/>
<path d="M101.367 45.183C101.367 48.2802 98.8551 50.791 95.7563 50.791C92.6574 50.791 90.1453 48.2802 90.1453 45.183C90.1453 42.0858 92.6574 39.5751 95.7563 39.5751C98.8551 39.5751 101.367 42.0858 101.367 45.183Z" fill="black" fill-opacity="0.02"/>
<path d="M130.948 45.183C130.948 48.2802 128.436 50.791 125.337 50.791C122.238 50.791 119.726 48.2802 119.726 45.183C119.726 42.0858 122.238 39.5751 125.337 39.5751C128.436 39.5751 130.948 42.0858 130.948 45.183Z" fill="black" fill-opacity="0.02"/>
<path d="M160.529 45.183C160.529 48.2802 158.017 50.791 154.918 50.791C151.819 50.791 149.307 48.2802 149.307 45.183C149.307 42.0858 151.819 39.5751 154.918 39.5751C158.017 39.5751 160.529 42.0858 160.529 45.183Z" fill="black" fill-opacity="0.02"/>
<path d="M190.11 45.183C190.11 48.2802 187.598 50.791 184.499 50.791C181.4 50.791 178.888 48.2802 178.888 45.183C178.888 42.0858 181.4 39.5751 184.499 39.5751C187.598 39.5751 190.11 42.0858 190.11 45.183Z" fill="black" fill-opacity="0.02"/>
<path d="M-76.1189 133.878C-76.1189 136.975 -78.631 139.486 -81.7298 139.486C-84.8287 139.486 -87.3408 136.975 -87.3408 133.878C-87.3408 130.781 -84.8287 128.27 -81.7298 128.27C-78.631 128.27 -76.1189 130.781 -76.1189 133.878Z" fill="black" fill-opacity="0.02"/>
<path d="M-46.5378 133.878C-46.5378 136.975 -49.05 139.486 -52.1488 139.486C-55.2477 139.486 -57.7598 136.975 -57.7598 133.878C-57.7598 130.781 -55.2477 128.27 -52.1488 128.27C-49.05 128.27 -46.5378 130.781 -46.5378 133.878Z" fill="black" fill-opacity="0.02"/>
<path d="M-16.9568 133.878C-16.9568 136.975 -19.4689 139.486 -22.5678 139.486C-25.6667 139.486 -28.1788 136.975 -28.1788 133.878C-28.1788 130.781 -25.6667 128.27 -22.5678 128.27C-19.4689 128.27 -16.9568 130.781 -16.9568 133.878Z" fill="black" fill-opacity="0.02"/>
<path d="M12.6242 133.878C12.6242 136.975 10.1121 139.486 7.01321 139.486C3.91435 139.486 1.40224 136.975 1.40224 133.878C1.40224 130.781 3.91435 128.27 7.01321 128.27C10.1121 128.27 12.6242 130.781 12.6242 133.878Z" fill="black" fill-opacity="0.02"/>
<path d="M42.2052 133.878C42.2052 136.975 39.6931 139.486 36.5942 139.486C33.4954 139.486 30.9833 136.975 30.9833 133.878C30.9833 130.781 33.4954 128.27 36.5942 128.27C39.6931 128.27 42.2052 130.781 42.2052 133.878Z" fill="black" fill-opacity="0.02"/>
<path d="M71.7862 133.878C71.7862 136.975 69.2741 139.486 66.1752 139.486C63.0764 139.486 60.5643 136.975 60.5643 133.878C60.5643 130.781 63.0764 128.27 66.1752 128.27C69.2741 128.27 71.7862 130.781 71.7862 133.878Z" fill="black" fill-opacity="0.02"/>
<path d="M101.367 133.878C101.367 136.975 98.8551 139.486 95.7563 139.486C92.6574 139.486 90.1453 136.975 90.1453 133.878C90.1453 130.781 92.6574 128.27 95.7563 128.27C98.8551 128.27 101.367 130.781 101.367 133.878Z" fill="black" fill-opacity="0.02"/>
<path d="M130.948 133.878C130.948 136.975 128.436 139.486 125.337 139.486C122.238 139.486 119.726 136.975 119.726 133.878C119.726 130.781 122.238 128.27 125.337 128.27C128.436 128.27 130.948 130.781 130.948 133.878Z" fill="black" fill-opacity="0.02"/>
<path d="M160.529 133.878C160.529 136.975 158.017 139.486 154.918 139.486C151.819 139.486 149.307 136.975 149.307 133.878C149.307 130.781 151.819 128.27 154.918 128.27C158.017 128.27 160.529 130.781 160.529 133.878Z" fill="black" fill-opacity="0.02"/>
<path d="M190.11 133.878C190.11 136.975 187.598 139.486 184.499 139.486C181.4 139.486 178.888 136.975 178.888 133.878C178.888 130.781 181.4 128.27 184.499 128.27C187.598 128.27 190.11 130.781 190.11 133.878Z" fill="black" fill-opacity="0.02"/>
<path d="M-76.1189 163.428C-76.1189 166.525 -78.631 169.036 -81.7298 169.036C-84.8287 169.036 -87.3408 166.525 -87.3408 163.428C-87.3408 160.33 -84.8287 157.82 -81.7298 157.82C-78.631 157.82 -76.1189 160.33 -76.1189 163.428Z" fill="black" fill-opacity="0.02"/>
<path d="M-46.5378 163.428C-46.5378 166.525 -49.05 169.036 -52.1488 169.036C-55.2477 169.036 -57.7598 166.525 -57.7598 163.428C-57.7598 160.33 -55.2477 157.82 -52.1488 157.82C-49.05 157.82 -46.5378 160.33 -46.5378 163.428Z" fill="black" fill-opacity="0.02"/>
<path d="M-16.9568 163.428C-16.9568 166.525 -19.4689 169.036 -22.5678 169.036C-25.6667 169.036 -28.1788 166.525 -28.1788 163.428C-28.1788 160.33 -25.6667 157.82 -22.5678 157.82C-19.4689 157.82 -16.9568 160.33 -16.9568 163.428Z" fill="black" fill-opacity="0.02"/>
<path d="M12.6242 163.428C12.6242 166.525 10.1121 169.036 7.01321 169.036C3.91435 169.036 1.40224 166.525 1.40224 163.428C1.40224 160.33 3.91435 157.82 7.01321 157.82C10.1121 157.82 12.6242 160.33 12.6242 163.428Z" fill="black" fill-opacity="0.02"/>
<path d="M42.2052 163.428C42.2052 166.525 39.6931 169.036 36.5942 169.036C33.4954 169.036 30.9833 166.525 30.9833 163.428C30.9833 160.33 33.4954 157.82 36.5942 157.82C39.6931 157.82 42.2052 160.33 42.2052 163.428Z" fill="black" fill-opacity="0.02"/>
<path d="M71.7862 163.428C71.7862 166.525 69.2741 169.036 66.1752 169.036C63.0764 169.036 60.5643 166.525 60.5643 163.428C60.5643 160.33 63.0764 157.82 66.1752 157.82C69.2741 157.82 71.7862 160.33 71.7862 163.428Z" fill="black" fill-opacity="0.02"/>
<path d="M101.367 163.428C101.367 166.525 98.8551 169.036 95.7563 169.036C92.6574 169.036 90.1453 166.525 90.1453 163.428C90.1453 160.33 92.6574 157.82 95.7563 157.82C98.8551 157.82 101.367 160.33 101.367 163.428Z" fill="black" fill-opacity="0.02"/>
<path d="M130.948 163.428C130.948 166.525 128.436 169.036 125.337 169.036C122.238 169.036 119.726 166.525 119.726 163.428C119.726 160.33 122.238 157.82 125.337 157.82C128.436 157.82 130.948 160.33 130.948 163.428Z" fill="black" fill-opacity="0.02"/>
<path d="M160.529 163.428C160.529 166.525 158.017 169.036 154.918 169.036C151.819 169.036 149.307 166.525 149.307 163.428C149.307 160.33 151.819 157.82 154.918 157.82C158.017 157.82 160.529 160.33 160.529 163.428Z" fill="black" fill-opacity="0.02"/>
<path d="M190.11 163.428C190.11 166.525 187.598 169.036 184.499 169.036C181.4 169.036 178.888 166.525 178.888 163.428C178.888 160.33 181.4 157.82 184.499 157.82C187.598 157.82 190.11 160.33 190.11 163.428Z" fill="black" fill-opacity="0.02"/>
<path d="M-76.1189 252.122C-76.1189 255.219 -78.631 257.73 -81.7298 257.73C-84.8287 257.73 -87.3408 255.219 -87.3408 252.122C-87.3408 249.025 -84.8287 246.514 -81.7298 246.514C-78.631 246.514 -76.1189 249.025 -76.1189 252.122Z" fill="black" fill-opacity="0.02"/>
<path d="M-46.5378 252.122C-46.5378 255.219 -49.05 257.73 -52.1488 257.73C-55.2477 257.73 -57.7598 255.219 -57.7598 252.122C-57.7598 249.025 -55.2477 246.514 -52.1488 246.514C-49.05 246.514 -46.5378 249.025 -46.5378 252.122Z" fill="black" fill-opacity="0.02"/>
<path d="M-16.9568 252.122C-16.9568 255.219 -19.4689 257.73 -22.5678 257.73C-25.6667 257.73 -28.1788 255.219 -28.1788 252.122C-28.1788 249.025 -25.6667 246.514 -22.5678 246.514C-19.4689 246.514 -16.9568 249.025 -16.9568 252.122Z" fill="black" fill-opacity="0.02"/>
<path d="M12.6242 252.122C12.6242 255.219 10.1121 257.73 7.01321 257.73C3.91435 257.73 1.40224 255.219 1.40224 252.122C1.40224 249.025 3.91435 246.514 7.01321 246.514C10.1121 246.514 12.6242 249.025 12.6242 252.122Z" fill="black" fill-opacity="0.02"/>
<path d="M42.2052 252.122C42.2052 255.219 39.6931 257.73 36.5942 257.73C33.4954 257.73 30.9833 255.219 30.9833 252.122C30.9833 249.025 33.4954 246.514 36.5942 246.514C39.6931 246.514 42.2052 249.025 42.2052 252.122Z" fill="black" fill-opacity="0.02"/>
<path d="M71.7862 252.122C71.7862 255.219 69.2741 257.73 66.1752 257.73C63.0764 257.73 60.5643 255.219 60.5643 252.122C60.5643 249.025 63.0764 246.514 66.1752 246.514C69.2741 246.514 71.7862 249.025 71.7862 252.122Z" fill="black" fill-opacity="0.02"/>
<path d="M101.367 252.122C101.367 255.219 98.8551 257.73 95.7563 257.73C92.6574 257.73 90.1453 255.219 90.1453 252.122C90.1453 249.025 92.6574 246.514 95.7563 246.514C98.8551 246.514 101.367 249.025 101.367 252.122Z" fill="black" fill-opacity="0.02"/>
<path d="M130.948 252.122C130.948 255.219 128.436 257.73 125.337 257.73C122.238 257.73 119.726 255.219 119.726 252.122C119.726 249.025 122.238 246.514 125.337 246.514C128.436 246.514 130.948 249.025 130.948 252.122Z" fill="black" fill-opacity="0.02"/>
<path d="M160.529 252.122C160.529 255.219 158.017 257.73 154.918 257.73C151.819 257.73 149.307 255.219 149.307 252.122C149.307 249.025 151.819 246.514 154.918 246.514C158.017 246.514 160.529 249.025 160.529 252.122Z" fill="black" fill-opacity="0.02"/>
<path d="M190.11 252.122C190.11 255.219 187.598 257.73 184.499 257.73C181.4 257.73 178.888 255.219 178.888 252.122C178.888 249.025 181.4 246.514 184.499 246.514C187.598 246.514 190.11 249.025 190.11 252.122Z" fill="black" fill-opacity="0.02"/>
<path d="M-76.1189 192.993C-76.1189 196.09 -78.631 198.6 -81.7298 198.6C-84.8287 198.6 -87.3408 196.09 -87.3408 192.993C-87.3408 189.895 -84.8287 187.385 -81.7298 187.385C-78.631 187.385 -76.1189 189.895 -76.1189 192.993Z" fill="black" fill-opacity="0.02"/>
<path d="M-46.5378 192.993C-46.5378 196.09 -49.05 198.6 -52.1488 198.6C-55.2477 198.6 -57.7598 196.09 -57.7598 192.993C-57.7598 189.895 -55.2477 187.385 -52.1488 187.385C-49.05 187.385 -46.5378 189.895 -46.5378 192.993Z" fill="black" fill-opacity="0.02"/>
<path d="M-16.9568 192.993C-16.9568 196.09 -19.4689 198.6 -22.5678 198.6C-25.6667 198.6 -28.1788 196.09 -28.1788 192.993C-28.1788 189.895 -25.6667 187.385 -22.5678 187.385C-19.4689 187.385 -16.9568 189.895 -16.9568 192.993Z" fill="black" fill-opacity="0.02"/>
<path d="M12.6242 192.993C12.6242 196.09 10.1121 198.6 7.01321 198.6C3.91435 198.6 1.40224 196.09 1.40224 192.993C1.40224 189.895 3.91435 187.385 7.01321 187.385C10.1121 187.385 12.6242 189.895 12.6242 192.993Z" fill="black" fill-opacity="0.02"/>
<path d="M42.2052 192.993C42.2052 196.09 39.6931 198.6 36.5942 198.6C33.4954 198.6 30.9833 196.09 30.9833 192.993C30.9833 189.895 33.4954 187.385 36.5942 187.385C39.6931 187.385 42.2052 189.895 42.2052 192.993Z" fill="black" fill-opacity="0.02"/>
<path d="M71.7862 192.993C71.7862 196.09 69.2741 198.6 66.1752 198.6C63.0764 198.6 60.5643 196.09 60.5643 192.993C60.5643 189.895 63.0764 187.385 66.1752 187.385C69.2741 187.385 71.7862 189.895 71.7862 192.993Z" fill="black" fill-opacity="0.02"/>
<path d="M101.367 192.993C101.367 196.09 98.8551 198.6 95.7563 198.6C92.6574 198.6 90.1453 196.09 90.1453 192.993C90.1453 189.895 92.6574 187.385 95.7563 187.385C98.8551 187.385 101.367 189.895 101.367 192.993Z" fill="black" fill-opacity="0.02"/>
<path d="M130.948 192.993C130.948 196.09 128.436 198.6 125.337 198.6C122.238 198.6 119.726 196.09 119.726 192.993C119.726 189.895 122.238 187.385 125.337 187.385C128.436 187.385 130.948 189.895 130.948 192.993Z" fill="black" fill-opacity="0.02"/>
<path d="M160.529 192.993C160.529 196.09 158.017 198.6 154.918 198.6C151.819 198.6 149.307 196.09 149.307 192.993C149.307 189.895 151.819 187.385 154.918 187.385C158.017 187.385 160.529 189.895 160.529 192.993Z" fill="black" fill-opacity="0.02"/>
<path d="M190.11 192.993C190.11 196.09 187.598 198.6 184.499 198.6C181.4 198.6 178.888 196.09 178.888 192.993C178.888 189.895 181.4 187.385 184.499 187.385C187.598 187.385 190.11 189.895 190.11 192.993Z" fill="black" fill-opacity="0.02"/>
<path d="M-76.1189 281.687C-76.1189 284.784 -78.631 287.295 -81.7298 287.295C-84.8287 287.295 -87.3408 284.784 -87.3408 281.687C-87.3408 278.59 -84.8287 276.079 -81.7298 276.079C-78.631 276.079 -76.1189 278.59 -76.1189 281.687Z" fill="black" fill-opacity="0.02"/>
<path d="M-46.5378 281.687C-46.5378 284.784 -49.05 287.295 -52.1488 287.295C-55.2477 287.295 -57.7598 284.784 -57.7598 281.687C-57.7598 278.59 -55.2477 276.079 -52.1488 276.079C-49.05 276.079 -46.5378 278.59 -46.5378 281.687Z" fill="black" fill-opacity="0.02"/>
<path d="M-16.9568 281.687C-16.9568 284.784 -19.4689 287.295 -22.5678 287.295C-25.6667 287.295 -28.1788 284.784 -28.1788 281.687C-28.1788 278.59 -25.6667 276.079 -22.5678 276.079C-19.4689 276.079 -16.9568 278.59 -16.9568 281.687Z" fill="black" fill-opacity="0.02"/>
<path d="M12.6242 281.687C12.6242 284.784 10.1121 287.295 7.01321 287.295C3.91435 287.295 1.40224 284.784 1.40224 281.687C1.40224 278.59 3.91435 276.079 7.01321 276.079C10.1121 276.079 12.6242 278.59 12.6242 281.687Z" fill="black" fill-opacity="0.02"/>
<path d="M42.2052 281.687C42.2052 284.784 39.6931 287.295 36.5942 287.295C33.4954 287.295 30.9833 284.784 30.9833 281.687C30.9833 278.59 33.4954 276.079 36.5942 276.079C39.6931 276.079 42.2052 278.59 42.2052 281.687Z" fill="black" fill-opacity="0.02"/>
<path d="M71.7862 281.687C71.7862 284.784 69.2741 287.295 66.1752 287.295C63.0764 287.295 60.5643 284.784 60.5643 281.687C60.5643 278.59 63.0764 276.079 66.1752 276.079C69.2741 276.079 71.7862 278.59 71.7862 281.687Z" fill="black" fill-opacity="0.02"/>
<path d="M101.367 281.687C101.367 284.784 98.8551 287.295 95.7563 287.295C92.6574 287.295 90.1453 284.784 90.1453 281.687C90.1453 278.59 92.6574 276.079 95.7563 276.079C98.8551 276.079 101.367 278.59 101.367 281.687Z" fill="black" fill-opacity="0.02"/>
<path d="M130.948 281.687C130.948 284.784 128.436 287.295 125.337 287.295C122.238 287.295 119.726 284.784 119.726 281.687C119.726 278.59 122.238 276.079 125.337 276.079C128.436 276.079 130.948 278.59 130.948 281.687Z" fill="black" fill-opacity="0.02"/>
<path d="M160.529 281.687C160.529 284.784 158.017 287.295 154.918 287.295C151.819 287.295 149.307 284.784 149.307 281.687C149.307 278.59 151.819 276.079 154.918 276.079C158.017 276.079 160.529 278.59 160.529 281.687Z" fill="black" fill-opacity="0.02"/>
<path d="M190.11 281.687C190.11 284.784 187.598 287.295 184.499 287.295C181.4 287.295 178.888 284.784 178.888 281.687C178.888 278.59 181.4 276.079 184.499 276.079C187.598 276.079 190.11 278.59 190.11 281.687Z" fill="black" fill-opacity="0.02"/>
<path d="M-76.1189 222.557C-76.1189 225.655 -78.631 228.165 -81.7298 228.165C-84.8287 228.165 -87.3408 225.655 -87.3408 222.557C-87.3408 219.46 -84.8287 216.949 -81.7298 216.949C-78.631 216.949 -76.1189 219.46 -76.1189 222.557Z" fill="black" fill-opacity="0.02"/>
<path d="M-46.5378 222.557C-46.5378 225.655 -49.05 228.165 -52.1488 228.165C-55.2477 228.165 -57.7598 225.655 -57.7598 222.557C-57.7598 219.46 -55.2477 216.949 -52.1488 216.949C-49.05 216.949 -46.5378 219.46 -46.5378 222.557Z" fill="black" fill-opacity="0.02"/>
<path d="M-16.9568 222.557C-16.9568 225.655 -19.4689 228.165 -22.5678 228.165C-25.6667 228.165 -28.1788 225.655 -28.1788 222.557C-28.1788 219.46 -25.6667 216.949 -22.5678 216.949C-19.4689 216.949 -16.9568 219.46 -16.9568 222.557Z" fill="black" fill-opacity="0.02"/>
<path d="M12.6242 222.557C12.6242 225.655 10.1121 228.165 7.01321 228.165C3.91435 228.165 1.40224 225.655 1.40224 222.557C1.40224 219.46 3.91435 216.949 7.01321 216.949C10.1121 216.949 12.6242 219.46 12.6242 222.557Z" fill="black" fill-opacity="0.02"/>
<path d="M42.2052 222.557C42.2052 225.655 39.6931 228.165 36.5942 228.165C33.4954 228.165 30.9833 225.655 30.9833 222.557C30.9833 219.46 33.4954 216.949 36.5942 216.949C39.6931 216.949 42.2052 219.46 42.2052 222.557Z" fill="black" fill-opacity="0.02"/>
<path d="M71.7862 222.557C71.7862 225.655 69.2741 228.165 66.1752 228.165C63.0764 228.165 60.5643 225.655 60.5643 222.557C60.5643 219.46 63.0764 216.949 66.1752 216.949C69.2741 216.949 71.7862 219.46 71.7862 222.557Z" fill="black" fill-opacity="0.02"/>
<path d="M101.367 222.557C101.367 225.655 98.8551 228.165 95.7563 228.165C92.6574 228.165 90.1453 225.655 90.1453 222.557C90.1453 219.46 92.6574 216.949 95.7563 216.949C98.8551 216.949 101.367 219.46 101.367 222.557Z" fill="black" fill-opacity="0.02"/>
<path d="M130.948 222.557C130.948 225.655 128.436 228.165 125.337 228.165C122.238 228.165 119.726 225.655 119.726 222.557C119.726 219.46 122.238 216.949 125.337 216.949C128.436 216.949 130.948 219.46 130.948 222.557Z" fill="black" fill-opacity="0.02"/>
<path d="M160.529 222.557C160.529 225.655 158.017 228.165 154.918 228.165C151.819 228.165 149.307 225.655 149.307 222.557C149.307 219.46 151.819 216.949 154.918 216.949C158.017 216.949 160.529 219.46 160.529 222.557Z" fill="black" fill-opacity="0.02"/>
<path d="M190.11 222.557C190.11 225.655 187.598 228.165 184.499 228.165C181.4 228.165 178.888 225.655 178.888 222.557C178.888 219.46 181.4 216.949 184.499 216.949C187.598 216.949 190.11 219.46 190.11 222.557Z" fill="black" fill-opacity="0.02"/>
<path d="M-76.1189 311.252C-76.1189 314.349 -78.631 316.86 -81.7298 316.86C-84.8287 316.86 -87.3408 314.349 -87.3408 311.252C-87.3408 308.155 -84.8287 305.644 -81.7298 305.644C-78.631 305.644 -76.1189 308.155 -76.1189 311.252Z" fill="black" fill-opacity="0.02"/>
<path d="M-46.5378 311.252C-46.5378 314.349 -49.05 316.86 -52.1488 316.86C-55.2477 316.86 -57.7598 314.349 -57.7598 311.252C-57.7598 308.155 -55.2477 305.644 -52.1488 305.644C-49.05 305.644 -46.5378 308.155 -46.5378 311.252Z" fill="black" fill-opacity="0.02"/>
<path d="M-16.9568 311.252C-16.9568 314.349 -19.4689 316.86 -22.5678 316.86C-25.6667 316.86 -28.1788 314.349 -28.1788 311.252C-28.1788 308.155 -25.6667 305.644 -22.5678 305.644C-19.4689 305.644 -16.9568 308.155 -16.9568 311.252Z" fill="black" fill-opacity="0.02"/>
<path d="M12.6242 311.252C12.6242 314.349 10.1121 316.86 7.01321 316.86C3.91435 316.86 1.40224 314.349 1.40224 311.252C1.40224 308.155 3.91435 305.644 7.01321 305.644C10.1121 305.644 12.6242 308.155 12.6242 311.252Z" fill="black" fill-opacity="0.02"/>
<path d="M42.2052 311.252C42.2052 314.349 39.6931 316.86 36.5942 316.86C33.4954 316.86 30.9833 314.349 30.9833 311.252C30.9833 308.155 33.4954 305.644 36.5942 305.644C39.6931 305.644 42.2052 308.155 42.2052 311.252Z" fill="black" fill-opacity="0.02"/>
<path d="M71.7862 311.252C71.7862 314.349 69.2741 316.86 66.1752 316.86C63.0764 316.86 60.5643 314.349 60.5643 311.252C60.5643 308.155 63.0764 305.644 66.1752 305.644C69.2741 305.644 71.7862 308.155 71.7862 311.252Z" fill="black" fill-opacity="0.02"/>
<path d="M101.367 311.252C101.367 314.349 98.8551 316.86 95.7563 316.86C92.6574 316.86 90.1453 314.349 90.1453 311.252C90.1453 308.155 92.6574 305.644 95.7563 305.644C98.8551 305.644 101.367 308.155 101.367 311.252Z" fill="black" fill-opacity="0.02"/>
<path d="M130.948 311.252C130.948 314.349 128.436 316.86 125.337 316.86C122.238 316.86 119.726 314.349 119.726 311.252C119.726 308.155 122.238 305.644 125.337 305.644C128.436 305.644 130.948 308.155 130.948 311.252Z" fill="black" fill-opacity="0.02"/>
<path d="M160.529 311.252C160.529 314.349 158.017 316.86 154.918 316.86C151.819 316.86 149.307 314.349 149.307 311.252C149.307 308.155 151.819 305.644 154.918 305.644C158.017 305.644 160.529 308.155 160.529 311.252Z" fill="black" fill-opacity="0.02"/>
<path d="M190.11 311.252C190.11 314.349 187.598 316.86 184.499 316.86C181.4 316.86 178.888 314.349 178.888 311.252C178.888 308.155 181.4 305.644 184.499 305.644C187.598 305.644 190.11 308.155 190.11 311.252Z" fill="black" fill-opacity="0.02"/>
<path d="M219.155 -13.9468C219.155 -10.8496 216.643 -8.33882 213.545 -8.33882C210.446 -8.33882 207.934 -10.8496 207.934 -13.9468C207.934 -17.0439 210.446 -19.5547 213.545 -19.5547C216.643 -19.5547 219.155 -17.0439 219.155 -13.9468Z" fill="black" fill-opacity="0.02"/>
<path d="M248.737 -13.9468C248.737 -10.8496 246.224 -8.33882 243.126 -8.33882C240.027 -8.33882 237.515 -10.8496 237.515 -13.9468C237.515 -17.0439 240.027 -19.5547 243.126 -19.5547C246.224 -19.5547 248.737 -17.0439 248.737 -13.9468Z" fill="black" fill-opacity="0.02"/>
<path d="M278.318 -13.9468C278.318 -10.8496 275.805 -8.33882 272.707 -8.33882C269.608 -8.33882 267.096 -10.8496 267.096 -13.9468C267.096 -17.0439 269.608 -19.5547 272.707 -19.5547C275.805 -19.5547 278.318 -17.0439 278.318 -13.9468Z" fill="black" fill-opacity="0.02"/>
<path d="M307.899 -13.9468C307.899 -10.8496 305.386 -8.33882 302.288 -8.33882C299.189 -8.33882 296.677 -10.8496 296.677 -13.9468C296.677 -17.0439 299.189 -19.5547 302.288 -19.5547C305.386 -19.5547 307.899 -17.0439 307.899 -13.9468Z" fill="black" fill-opacity="0.02"/>
<path d="M337.48 -13.9468C337.48 -10.8496 334.967 -8.33882 331.869 -8.33882C328.77 -8.33882 326.258 -10.8496 326.258 -13.9468C326.258 -17.0439 328.77 -19.5547 331.869 -19.5547C334.967 -19.5547 337.48 -17.0439 337.48 -13.9468Z" fill="black" fill-opacity="0.02"/>
<path d="M367.061 -13.9468C367.061 -10.8496 364.548 -8.33882 361.45 -8.33882C358.351 -8.33882 355.839 -10.8496 355.839 -13.9468C355.839 -17.0439 358.351 -19.5547 361.45 -19.5547C364.548 -19.5547 367.061 -17.0439 367.061 -13.9468Z" fill="black" fill-opacity="0.02"/>
<path d="M396.642 -13.9468C396.642 -10.8496 394.13 -8.33882 391.031 -8.33882C387.932 -8.33882 385.42 -10.8496 385.42 -13.9468C385.42 -17.0439 387.932 -19.5547 391.031 -19.5547C394.13 -19.5547 396.642 -17.0439 396.642 -13.9468Z" fill="black" fill-opacity="0.02"/>
<path d="M426.223 -13.9468C426.223 -10.8496 423.711 -8.33882 420.612 -8.33882C417.513 -8.33882 415.001 -10.8496 415.001 -13.9468C415.001 -17.0439 417.513 -19.5547 420.612 -19.5547C423.711 -19.5547 426.223 -17.0439 426.223 -13.9468Z" fill="black" fill-opacity="0.02"/>
<path d="M455.804 -13.9468C455.804 -10.8496 453.292 -8.33882 450.193 -8.33882C447.094 -8.33882 444.582 -10.8496 444.582 -13.9468C444.582 -17.0439 447.094 -19.5547 450.193 -19.5547C453.292 -19.5547 455.804 -17.0439 455.804 -13.9468Z" fill="black" fill-opacity="0.02"/>
<path d="M485.385 -13.9468C485.385 -10.8496 482.873 -8.33882 479.774 -8.33882C476.675 -8.33882 474.163 -10.8496 474.163 -13.9468C474.163 -17.0439 476.675 -19.5547 479.774 -19.5547C482.873 -19.5547 485.385 -17.0439 485.385 -13.9468Z" fill="black" fill-opacity="0.02"/>
<path d="M219.155 74.7479C219.155 77.8451 216.643 80.3558 213.545 80.3558C210.446 80.3558 207.934 77.8451 207.934 74.7479C207.934 71.6507 210.446 69.14 213.545 69.14C216.643 69.14 219.155 71.6507 219.155 74.7479Z" fill="black" fill-opacity="0.02"/>
<path d="M248.737 74.7479C248.737 77.8451 246.224 80.3558 243.126 80.3558C240.027 80.3558 237.515 77.8451 237.515 74.7479C237.515 71.6507 240.027 69.14 243.126 69.14C246.224 69.14 248.737 71.6507 248.737 74.7479Z" fill="black" fill-opacity="0.02"/>
<path d="M278.318 74.7479C278.318 77.8451 275.805 80.3558 272.707 80.3558C269.608 80.3558 267.096 77.8451 267.096 74.7479C267.096 71.6507 269.608 69.14 272.707 69.14C275.805 69.14 278.318 71.6507 278.318 74.7479Z" fill="black" fill-opacity="0.02"/>
<path d="M307.899 74.7479C307.899 77.8451 305.386 80.3558 302.288 80.3558C299.189 80.3558 296.677 77.8451 296.677 74.7479C296.677 71.6507 299.189 69.14 302.288 69.14C305.386 69.14 307.899 71.6507 307.899 74.7479Z" fill="black" fill-opacity="0.02"/>
<path d="M337.48 74.7479C337.48 77.8451 334.967 80.3558 331.869 80.3558C328.77 80.3558 326.258 77.8451 326.258 74.7479C326.258 71.6507 328.77 69.14 331.869 69.14C334.967 69.14 337.48 71.6507 337.48 74.7479Z" fill="black" fill-opacity="0.02"/>
<path d="M367.061 74.7479C367.061 77.8451 364.548 80.3558 361.45 80.3558C358.351 80.3558 355.839 77.8451 355.839 74.7479C355.839 71.6507 358.351 69.14 361.45 69.14C364.548 69.14 367.061 71.6507 367.061 74.7479Z" fill="black" fill-opacity="0.02"/>
<path d="M396.642 74.7479C396.642 77.8451 394.13 80.3558 391.031 80.3558C387.932 80.3558 385.42 77.8451 385.42 74.7479C385.42 71.6507 387.932 69.14 391.031 69.14C394.13 69.14 396.642 71.6507 396.642 74.7479Z" fill="black" fill-opacity="0.02"/>
<path d="M426.223 74.7479C426.223 77.8451 423.711 80.3558 420.612 80.3558C417.513 80.3558 415.001 77.8451 415.001 74.7479C415.001 71.6507 417.513 69.14 420.612 69.14C423.711 69.14 426.223 71.6507 426.223 74.7479Z" fill="black" fill-opacity="0.02"/>
<path d="M455.804 74.7479C455.804 77.8451 453.292 80.3558 450.193 80.3558C447.094 80.3558 444.582 77.8451 444.582 74.7479C444.582 71.6507 447.094 69.14 450.193 69.14C453.292 69.14 455.804 71.6507 455.804 74.7479Z" fill="black" fill-opacity="0.02"/>
<path d="M485.385 74.7479C485.385 77.8451 482.873 80.3558 479.774 80.3558C476.675 80.3558 474.163 77.8451 474.163 74.7479C474.163 71.6507 476.675 69.14 479.774 69.14C482.873 69.14 485.385 71.6507 485.385 74.7479Z" fill="black" fill-opacity="0.02"/>
<path d="M219.155 15.6181C219.155 18.7153 216.643 21.2261 213.545 21.2261C210.446 21.2261 207.934 18.7153 207.934 15.6181C207.934 12.521 210.446 10.0102 213.545 10.0102C216.643 10.0102 219.155 12.521 219.155 15.6181Z" fill="black" fill-opacity="0.02"/>
<path d="M248.737 15.6181C248.737 18.7153 246.224 21.2261 243.126 21.2261C240.027 21.2261 237.515 18.7153 237.515 15.6181C237.515 12.521 240.027 10.0102 243.126 10.0102C246.224 10.0102 248.737 12.521 248.737 15.6181Z" fill="black" fill-opacity="0.02"/>
<path d="M278.318 15.6181C278.318 18.7153 275.805 21.2261 272.707 21.2261C269.608 21.2261 267.096 18.7153 267.096 15.6181C267.096 12.521 269.608 10.0102 272.707 10.0102C275.805 10.0102 278.318 12.521 278.318 15.6181Z" fill="black" fill-opacity="0.02"/>
<path d="M307.899 15.6181C307.899 18.7153 305.386 21.2261 302.288 21.2261C299.189 21.2261 296.677 18.7153 296.677 15.6181C296.677 12.521 299.189 10.0102 302.288 10.0102C305.386 10.0102 307.899 12.521 307.899 15.6181Z" fill="black" fill-opacity="0.02"/>
<path d="M337.48 15.6181C337.48 18.7153 334.967 21.2261 331.869 21.2261C328.77 21.2261 326.258 18.7153 326.258 15.6181C326.258 12.521 328.77 10.0102 331.869 10.0102C334.967 10.0102 337.48 12.521 337.48 15.6181Z" fill="black" fill-opacity="0.02"/>
<path d="M367.061 15.6181C367.061 18.7153 364.548 21.2261 361.45 21.2261C358.351 21.2261 355.839 18.7153 355.839 15.6181C355.839 12.521 358.351 10.0102 361.45 10.0102C364.548 10.0102 367.061 12.521 367.061 15.6181Z" fill="black" fill-opacity="0.02"/>
<path d="M396.642 15.6181C396.642 18.7153 394.13 21.2261 391.031 21.2261C387.932 21.2261 385.42 18.7153 385.42 15.6181C385.42 12.521 387.932 10.0102 391.031 10.0102C394.13 10.0102 396.642 12.521 396.642 15.6181Z" fill="black" fill-opacity="0.02"/>
<path d="M426.223 15.6181C426.223 18.7153 423.711 21.2261 420.612 21.2261C417.513 21.2261 415.001 18.7153 415.001 15.6181C415.001 12.521 417.513 10.0102 420.612 10.0102C423.711 10.0102 426.223 12.521 426.223 15.6181Z" fill="black" fill-opacity="0.02"/>
<path d="M455.804 15.6181C455.804 18.7153 453.292 21.2261 450.193 21.2261C447.094 21.2261 444.582 18.7153 444.582 15.6181C444.582 12.521 447.094 10.0102 450.193 10.0102C453.292 10.0102 455.804 12.521 455.804 15.6181Z" fill="black" fill-opacity="0.02"/>
<path d="M485.385 15.6181C485.385 18.7153 482.873 21.2261 479.774 21.2261C476.675 21.2261 474.163 18.7153 474.163 15.6181C474.163 12.521 476.675 10.0102 479.774 10.0102C482.873 10.0102 485.385 12.521 485.385 15.6181Z" fill="black" fill-opacity="0.02"/>
<path d="M219.155 104.313C219.155 107.41 216.643 109.921 213.545 109.921C210.446 109.921 207.934 107.41 207.934 104.313C207.934 101.216 210.446 98.7049 213.545 98.7049C216.643 98.7049 219.155 101.216 219.155 104.313Z" fill="black" fill-opacity="0.02"/>
<path d="M248.737 104.313C248.737 107.41 246.224 109.921 243.126 109.921C240.027 109.921 237.515 107.41 237.515 104.313C237.515 101.216 240.027 98.7049 243.126 98.7049C246.224 98.7049 248.737 101.216 248.737 104.313Z" fill="black" fill-opacity="0.02"/>
<path d="M278.318 104.313C278.318 107.41 275.805 109.921 272.707 109.921C269.608 109.921 267.096 107.41 267.096 104.313C267.096 101.216 269.608 98.7049 272.707 98.7049C275.805 98.7049 278.318 101.216 278.318 104.313Z" fill="black" fill-opacity="0.02"/>
<path d="M307.899 104.313C307.899 107.41 305.386 109.921 302.288 109.921C299.189 109.921 296.677 107.41 296.677 104.313C296.677 101.216 299.189 98.7049 302.288 98.7049C305.386 98.7049 307.899 101.216 307.899 104.313Z" fill="black" fill-opacity="0.02"/>
<path d="M337.48 104.313C337.48 107.41 334.967 109.921 331.869 109.921C328.77 109.921 326.258 107.41 326.258 104.313C326.258 101.216 328.77 98.7049 331.869 98.7049C334.967 98.7049 337.48 101.216 337.48 104.313Z" fill="black" fill-opacity="0.02"/>
<path d="M367.061 104.313C367.061 107.41 364.548 109.921 361.45 109.921C358.351 109.921 355.839 107.41 355.839 104.313C355.839 101.216 358.351 98.7049 361.45 98.7049C364.548 98.7049 367.061 101.216 367.061 104.313Z" fill="black" fill-opacity="0.02"/>
<path d="M396.642 104.313C396.642 107.41 394.13 109.921 391.031 109.921C387.932 109.921 385.42 107.41 385.42 104.313C385.42 101.216 387.932 98.7049 391.031 98.7049C394.13 98.7049 396.642 101.216 396.642 104.313Z" fill="black" fill-opacity="0.02"/>
<path d="M426.223 104.313C426.223 107.41 423.711 109.921 420.612 109.921C417.513 109.921 415.001 107.41 415.001 104.313C415.001 101.216 417.513 98.7049 420.612 98.7049C423.711 98.7049 426.223 101.216 426.223 104.313Z" fill="black" fill-opacity="0.02"/>
<path d="M455.804 104.313C455.804 107.41 453.292 109.921 450.193 109.921C447.094 109.921 444.582 107.41 444.582 104.313C444.582 101.216 447.094 98.7049 450.193 98.7049C453.292 98.7049 455.804 101.216 455.804 104.313Z" fill="black" fill-opacity="0.02"/>
<path d="M485.385 104.313C485.385 107.41 482.873 109.921 479.774 109.921C476.675 109.921 474.163 107.41 474.163 104.313C474.163 101.216 476.675 98.7049 479.774 98.7049C482.873 98.7049 485.385 101.216 485.385 104.313Z" fill="black" fill-opacity="0.02"/>
<path d="M219.155 45.183C219.155 48.2802 216.643 50.791 213.545 50.791C210.446 50.791 207.934 48.2802 207.934 45.183C207.934 42.0858 210.446 39.5751 213.545 39.5751C216.643 39.5751 219.155 42.0858 219.155 45.183Z" fill="black" fill-opacity="0.02"/>
<path d="M248.737 45.183C248.737 48.2802 246.224 50.791 243.126 50.791C240.027 50.791 237.515 48.2802 237.515 45.183C237.515 42.0858 240.027 39.5751 243.126 39.5751C246.224 39.5751 248.737 42.0858 248.737 45.183Z" fill="black" fill-opacity="0.02"/>
<path d="M278.318 45.183C278.318 48.2802 275.805 50.791 272.707 50.791C269.608 50.791 267.096 48.2802 267.096 45.183C267.096 42.0858 269.608 39.5751 272.707 39.5751C275.805 39.5751 278.318 42.0858 278.318 45.183Z" fill="black" fill-opacity="0.02"/>
<path d="M307.899 45.183C307.899 48.2802 305.386 50.791 302.288 50.791C299.189 50.791 296.677 48.2802 296.677 45.183C296.677 42.0858 299.189 39.5751 302.288 39.5751C305.386 39.5751 307.899 42.0858 307.899 45.183Z" fill="black" fill-opacity="0.02"/>
<path d="M337.48 45.183C337.48 48.2802 334.967 50.791 331.869 50.791C328.77 50.791 326.258 48.2802 326.258 45.183C326.258 42.0858 328.77 39.5751 331.869 39.5751C334.967 39.5751 337.48 42.0858 337.48 45.183Z" fill="black" fill-opacity="0.02"/>
<path d="M367.061 45.183C367.061 48.2802 364.548 50.791 361.45 50.791C358.351 50.791 355.839 48.2802 355.839 45.183C355.839 42.0858 358.351 39.5751 361.45 39.5751C364.548 39.5751 367.061 42.0858 367.061 45.183Z" fill="black" fill-opacity="0.02"/>
<path d="M396.642 45.183C396.642 48.2802 394.13 50.791 391.031 50.791C387.932 50.791 385.42 48.2802 385.42 45.183C385.42 42.0858 387.932 39.5751 391.031 39.5751C394.13 39.5751 396.642 42.0858 396.642 45.183Z" fill="black" fill-opacity="0.02"/>
<path d="M426.223 45.183C426.223 48.2802 423.711 50.791 420.612 50.791C417.513 50.791 415.001 48.2802 415.001 45.183C415.001 42.0858 417.513 39.5751 420.612 39.5751C423.711 39.5751 426.223 42.0858 426.223 45.183Z" fill="black" fill-opacity="0.02"/>
<path d="M455.804 45.183C455.804 48.2802 453.292 50.791 450.193 50.791C447.094 50.791 444.582 48.2802 444.582 45.183C444.582 42.0858 447.094 39.5751 450.193 39.5751C453.292 39.5751 455.804 42.0858 455.804 45.183Z" fill="black" fill-opacity="0.02"/>
<path d="M485.385 45.183C485.385 48.2802 482.873 50.791 479.774 50.791C476.675 50.791 474.163 48.2802 474.163 45.183C474.163 42.0858 476.675 39.5751 479.774 39.5751C482.873 39.5751 485.385 42.0858 485.385 45.183Z" fill="black" fill-opacity="0.02"/>
<path d="M219.155 133.878C219.155 136.975 216.643 139.486 213.545 139.486C210.446 139.486 207.934 136.975 207.934 133.878C207.934 130.781 210.446 128.27 213.545 128.27C216.643 128.27 219.155 130.781 219.155 133.878Z" fill="black" fill-opacity="0.02"/>
<path d="M248.737 133.878C248.737 136.975 246.224 139.486 243.126 139.486C240.027 139.486 237.515 136.975 237.515 133.878C237.515 130.781 240.027 128.27 243.126 128.27C246.224 128.27 248.737 130.781 248.737 133.878Z" fill="black" fill-opacity="0.02"/>
<path d="M278.318 133.878C278.318 136.975 275.805 139.486 272.707 139.486C269.608 139.486 267.096 136.975 267.096 133.878C267.096 130.781 269.608 128.27 272.707 128.27C275.805 128.27 278.318 130.781 278.318 133.878Z" fill="black" fill-opacity="0.02"/>
<path d="M307.899 133.878C307.899 136.975 305.386 139.486 302.288 139.486C299.189 139.486 296.677 136.975 296.677 133.878C296.677 130.781 299.189 128.27 302.288 128.27C305.386 128.27 307.899 130.781 307.899 133.878Z" fill="black" fill-opacity="0.02"/>
<path d="M337.48 133.878C337.48 136.975 334.967 139.486 331.869 139.486C328.77 139.486 326.258 136.975 326.258 133.878C326.258 130.781 328.77 128.27 331.869 128.27C334.967 128.27 337.48 130.781 337.48 133.878Z" fill="black" fill-opacity="0.02"/>
<path d="M367.061 133.878C367.061 136.975 364.548 139.486 361.45 139.486C358.351 139.486 355.839 136.975 355.839 133.878C355.839 130.781 358.351 128.27 361.45 128.27C364.548 128.27 367.061 130.781 367.061 133.878Z" fill="black" fill-opacity="0.02"/>
<path d="M396.642 133.878C396.642 136.975 394.13 139.486 391.031 139.486C387.932 139.486 385.42 136.975 385.42 133.878C385.42 130.781 387.932 128.27 391.031 128.27C394.13 128.27 396.642 130.781 396.642 133.878Z" fill="black" fill-opacity="0.02"/>
<path d="M426.223 133.878C426.223 136.975 423.711 139.486 420.612 139.486C417.513 139.486 415.001 136.975 415.001 133.878C415.001 130.781 417.513 128.27 420.612 128.27C423.711 128.27 426.223 130.781 426.223 133.878Z" fill="black" fill-opacity="0.02"/>
<path d="M455.804 133.878C455.804 136.975 453.292 139.486 450.193 139.486C447.094 139.486 444.582 136.975 444.582 133.878C444.582 130.781 447.094 128.27 450.193 128.27C453.292 128.27 455.804 130.781 455.804 133.878Z" fill="black" fill-opacity="0.02"/>
<path d="M485.385 133.878C485.385 136.975 482.873 139.486 479.774 139.486C476.675 139.486 474.163 136.975 474.163 133.878C474.163 130.781 476.675 128.27 479.774 128.27C482.873 128.27 485.385 130.781 485.385 133.878Z" fill="black" fill-opacity="0.02"/>
<path d="M219.155 163.428C219.155 166.525 216.643 169.036 213.545 169.036C210.446 169.036 207.934 166.525 207.934 163.428C207.934 160.33 210.446 157.82 213.545 157.82C216.643 157.82 219.155 160.33 219.155 163.428Z" fill="black" fill-opacity="0.02"/>
<path d="M248.737 163.428C248.737 166.525 246.224 169.036 243.126 169.036C240.027 169.036 237.515 166.525 237.515 163.428C237.515 160.33 240.027 157.82 243.126 157.82C246.224 157.82 248.737 160.33 248.737 163.428Z" fill="black" fill-opacity="0.02"/>
<path d="M278.318 163.428C278.318 166.525 275.805 169.036 272.707 169.036C269.608 169.036 267.096 166.525 267.096 163.428C267.096 160.33 269.608 157.82 272.707 157.82C275.805 157.82 278.318 160.33 278.318 163.428Z" fill="black" fill-opacity="0.02"/>
<path d="M307.899 163.428C307.899 166.525 305.386 169.036 302.288 169.036C299.189 169.036 296.677 166.525 296.677 163.428C296.677 160.33 299.189 157.82 302.288 157.82C305.386 157.82 307.899 160.33 307.899 163.428Z" fill="black" fill-opacity="0.02"/>
<path d="M337.48 163.428C337.48 166.525 334.967 169.036 331.869 169.036C328.77 169.036 326.258 166.525 326.258 163.428C326.258 160.33 328.77 157.82 331.869 157.82C334.967 157.82 337.48 160.33 337.48 163.428Z" fill="black" fill-opacity="0.02"/>
<path d="M367.061 163.428C367.061 166.525 364.548 169.036 361.45 169.036C358.351 169.036 355.839 166.525 355.839 163.428C355.839 160.33 358.351 157.82 361.45 157.82C364.548 157.82 367.061 160.33 367.061 163.428Z" fill="black" fill-opacity="0.02"/>
<path d="M396.642 163.428C396.642 166.525 394.13 169.036 391.031 169.036C387.932 169.036 385.42 166.525 385.42 163.428C385.42 160.33 387.932 157.82 391.031 157.82C394.13 157.82 396.642 160.33 396.642 163.428Z" fill="black" fill-opacity="0.02"/>
<path d="M426.223 163.428C426.223 166.525 423.711 169.036 420.612 169.036C417.513 169.036 415.001 166.525 415.001 163.428C415.001 160.33 417.513 157.82 420.612 157.82C423.711 157.82 426.223 160.33 426.223 163.428Z" fill="black" fill-opacity="0.02"/>
<path d="M455.804 163.428C455.804 166.525 453.292 169.036 450.193 169.036C447.094 169.036 444.582 166.525 444.582 163.428C444.582 160.33 447.094 157.82 450.193 157.82C453.292 157.82 455.804 160.33 455.804 163.428Z" fill="black" fill-opacity="0.02"/>
<path d="M485.385 163.428C485.385 166.525 482.873 169.036 479.774 169.036C476.675 169.036 474.163 166.525 474.163 163.428C474.163 160.33 476.675 157.82 479.774 157.82C482.873 157.82 485.385 160.33 485.385 163.428Z" fill="black" fill-opacity="0.02"/>
<path d="M219.155 252.122C219.155 255.219 216.643 257.73 213.545 257.73C210.446 257.73 207.934 255.219 207.934 252.122C207.934 249.025 210.446 246.514 213.545 246.514C216.643 246.514 219.155 249.025 219.155 252.122Z" fill="black" fill-opacity="0.02"/>
<path d="M248.737 252.122C248.737 255.219 246.224 257.73 243.126 257.73C240.027 257.73 237.515 255.219 237.515 252.122C237.515 249.025 240.027 246.514 243.126 246.514C246.224 246.514 248.737 249.025 248.737 252.122Z" fill="black" fill-opacity="0.02"/>
<path d="M278.318 252.122C278.318 255.219 275.805 257.73 272.707 257.73C269.608 257.73 267.096 255.219 267.096 252.122C267.096 249.025 269.608 246.514 272.707 246.514C275.805 246.514 278.318 249.025 278.318 252.122Z" fill="black" fill-opacity="0.02"/>
<path d="M307.899 252.122C307.899 255.219 305.386 257.73 302.288 257.73C299.189 257.73 296.677 255.219 296.677 252.122C296.677 249.025 299.189 246.514 302.288 246.514C305.386 246.514 307.899 249.025 307.899 252.122Z" fill="black" fill-opacity="0.02"/>
<path d="M337.48 252.122C337.48 255.219 334.967 257.73 331.869 257.73C328.77 257.73 326.258 255.219 326.258 252.122C326.258 249.025 328.77 246.514 331.869 246.514C334.967 246.514 337.48 249.025 337.48 252.122Z" fill="black" fill-opacity="0.02"/>
<path d="M367.061 252.122C367.061 255.219 364.548 257.73 361.45 257.73C358.351 257.73 355.839 255.219 355.839 252.122C355.839 249.025 358.351 246.514 361.45 246.514C364.548 246.514 367.061 249.025 367.061 252.122Z" fill="black" fill-opacity="0.02"/>
<path d="M396.642 252.122C396.642 255.219 394.13 257.73 391.031 257.73C387.932 257.73 385.42 255.219 385.42 252.122C385.42 249.025 387.932 246.514 391.031 246.514C394.13 246.514 396.642 249.025 396.642 252.122Z" fill="black" fill-opacity="0.02"/>
<path d="M426.223 252.122C426.223 255.219 423.711 257.73 420.612 257.73C417.513 257.73 415.001 255.219 415.001 252.122C415.001 249.025 417.513 246.514 420.612 246.514C423.711 246.514 426.223 249.025 426.223 252.122Z" fill="black" fill-opacity="0.02"/>
<path d="M455.804 252.122C455.804 255.219 453.292 257.73 450.193 257.73C447.094 257.73 444.582 255.219 444.582 252.122C444.582 249.025 447.094 246.514 450.193 246.514C453.292 246.514 455.804 249.025 455.804 252.122Z" fill="black" fill-opacity="0.02"/>
<path d="M485.385 252.122C485.385 255.219 482.873 257.73 479.774 257.73C476.675 257.73 474.163 255.219 474.163 252.122C474.163 249.025 476.675 246.514 479.774 246.514C482.873 246.514 485.385 249.025 485.385 252.122Z" fill="black" fill-opacity="0.02"/>
<path d="M219.155 192.993C219.155 196.09 216.643 198.6 213.545 198.6C210.446 198.6 207.934 196.09 207.934 192.993C207.934 189.895 210.446 187.385 213.545 187.385C216.643 187.385 219.155 189.895 219.155 192.993Z" fill="black" fill-opacity="0.02"/>
<path d="M248.737 192.993C248.737 196.09 246.224 198.6 243.126 198.6C240.027 198.6 237.515 196.09 237.515 192.993C237.515 189.895 240.027 187.385 243.126 187.385C246.224 187.385 248.737 189.895 248.737 192.993Z" fill="black" fill-opacity="0.02"/>
<path d="M278.318 192.993C278.318 196.09 275.805 198.6 272.707 198.6C269.608 198.6 267.096 196.09 267.096 192.993C267.096 189.895 269.608 187.385 272.707 187.385C275.805 187.385 278.318 189.895 278.318 192.993Z" fill="black" fill-opacity="0.02"/>
<path d="M307.899 192.993C307.899 196.09 305.386 198.6 302.288 198.6C299.189 198.6 296.677 196.09 296.677 192.993C296.677 189.895 299.189 187.385 302.288 187.385C305.386 187.385 307.899 189.895 307.899 192.993Z" fill="black" fill-opacity="0.02"/>
<path d="M337.48 192.993C337.48 196.09 334.967 198.6 331.869 198.6C328.77 198.6 326.258 196.09 326.258 192.993C326.258 189.895 328.77 187.385 331.869 187.385C334.967 187.385 337.48 189.895 337.48 192.993Z" fill="black" fill-opacity="0.02"/>
<path d="M367.061 192.993C367.061 196.09 364.548 198.6 361.45 198.6C358.351 198.6 355.839 196.09 355.839 192.993C355.839 189.895 358.351 187.385 361.45 187.385C364.548 187.385 367.061 189.895 367.061 192.993Z" fill="black" fill-opacity="0.02"/>
<path d="M396.642 192.993C396.642 196.09 394.13 198.6 391.031 198.6C387.932 198.6 385.42 196.09 385.42 192.993C385.42 189.895 387.932 187.385 391.031 187.385C394.13 187.385 396.642 189.895 396.642 192.993Z" fill="black" fill-opacity="0.02"/>
<path d="M426.223 192.993C426.223 196.09 423.711 198.6 420.612 198.6C417.513 198.6 415.001 196.09 415.001 192.993C415.001 189.895 417.513 187.385 420.612 187.385C423.711 187.385 426.223 189.895 426.223 192.993Z" fill="black" fill-opacity="0.02"/>
<path d="M455.804 192.993C455.804 196.09 453.292 198.6 450.193 198.6C447.094 198.6 444.582 196.09 444.582 192.993C444.582 189.895 447.094 187.385 450.193 187.385C453.292 187.385 455.804 189.895 455.804 192.993Z" fill="black" fill-opacity="0.02"/>
<path d="M485.385 192.993C485.385 196.09 482.873 198.6 479.774 198.6C476.675 198.6 474.163 196.09 474.163 192.993C474.163 189.895 476.675 187.385 479.774 187.385C482.873 187.385 485.385 189.895 485.385 192.993Z" fill="black" fill-opacity="0.02"/>
<path d="M219.155 281.687C219.155 284.784 216.643 287.295 213.545 287.295C210.446 287.295 207.934 284.784 207.934 281.687C207.934 278.59 210.446 276.079 213.545 276.079C216.643 276.079 219.155 278.59 219.155 281.687Z" fill="black" fill-opacity="0.02"/>
<path d="M248.737 281.687C248.737 284.784 246.224 287.295 243.126 287.295C240.027 287.295 237.515 284.784 237.515 281.687C237.515 278.59 240.027 276.079 243.126 276.079C246.224 276.079 248.737 278.59 248.737 281.687Z" fill="black" fill-opacity="0.02"/>
<path d="M278.318 281.687C278.318 284.784 275.805 287.295 272.707 287.295C269.608 287.295 267.096 284.784 267.096 281.687C267.096 278.59 269.608 276.079 272.707 276.079C275.805 276.079 278.318 278.59 278.318 281.687Z" fill="black" fill-opacity="0.02"/>
<path d="M307.899 281.687C307.899 284.784 305.386 287.295 302.288 287.295C299.189 287.295 296.677 284.784 296.677 281.687C296.677 278.59 299.189 276.079 302.288 276.079C305.386 276.079 307.899 278.59 307.899 281.687Z" fill="black" fill-opacity="0.02"/>
<path d="M337.48 281.687C337.48 284.784 334.967 287.295 331.869 287.295C328.77 287.295 326.258 284.784 326.258 281.687C326.258 278.59 328.77 276.079 331.869 276.079C334.967 276.079 337.48 278.59 337.48 281.687Z" fill="black" fill-opacity="0.02"/>
<path d="M367.061 281.687C367.061 284.784 364.548 287.295 361.45 287.295C358.351 287.295 355.839 284.784 355.839 281.687C355.839 278.59 358.351 276.079 361.45 276.079C364.548 276.079 367.061 278.59 367.061 281.687Z" fill="black" fill-opacity="0.02"/>
<path d="M396.642 281.687C396.642 284.784 394.13 287.295 391.031 287.295C387.932 287.295 385.42 284.784 385.42 281.687C385.42 278.59 387.932 276.079 391.031 276.079C394.13 276.079 396.642 278.59 396.642 281.687Z" fill="black" fill-opacity="0.02"/>
<path d="M426.223 281.687C426.223 284.784 423.711 287.295 420.612 287.295C417.513 287.295 415.001 284.784 415.001 281.687C415.001 278.59 417.513 276.079 420.612 276.079C423.711 276.079 426.223 278.59 426.223 281.687Z" fill="black" fill-opacity="0.02"/>
<path d="M455.804 281.687C455.804 284.784 453.292 287.295 450.193 287.295C447.094 287.295 444.582 284.784 444.582 281.687C444.582 278.59 447.094 276.079 450.193 276.079C453.292 276.079 455.804 278.59 455.804 281.687Z" fill="black" fill-opacity="0.02"/>
<path d="M485.385 281.687C485.385 284.784 482.873 287.295 479.774 287.295C476.675 287.295 474.163 284.784 474.163 281.687C474.163 278.59 476.675 276.079 479.774 276.079C482.873 276.079 485.385 278.59 485.385 281.687Z" fill="black" fill-opacity="0.02"/>
<path d="M219.155 222.557C219.155 225.655 216.643 228.165 213.545 228.165C210.446 228.165 207.934 225.655 207.934 222.557C207.934 219.46 210.446 216.949 213.545 216.949C216.643 216.949 219.155 219.46 219.155 222.557Z" fill="black" fill-opacity="0.02"/>
<path d="M248.737 222.557C248.737 225.655 246.224 228.165 243.126 228.165C240.027 228.165 237.515 225.655 237.515 222.557C237.515 219.46 240.027 216.949 243.126 216.949C246.224 216.949 248.737 219.46 248.737 222.557Z" fill="black" fill-opacity="0.02"/>
<path d="M278.318 222.557C278.318 225.655 275.805 228.165 272.707 228.165C269.608 228.165 267.096 225.655 267.096 222.557C267.096 219.46 269.608 216.949 272.707 216.949C275.805 216.949 278.318 219.46 278.318 222.557Z" fill="black" fill-opacity="0.02"/>
<path d="M307.899 222.557C307.899 225.655 305.386 228.165 302.288 228.165C299.189 228.165 296.677 225.655 296.677 222.557C296.677 219.46 299.189 216.949 302.288 216.949C305.386 216.949 307.899 219.46 307.899 222.557Z" fill="black" fill-opacity="0.02"/>
<path d="M337.48 222.557C337.48 225.655 334.967 228.165 331.869 228.165C328.77 228.165 326.258 225.655 326.258 222.557C326.258 219.46 328.77 216.949 331.869 216.949C334.967 216.949 337.48 219.46 337.48 222.557Z" fill="black" fill-opacity="0.02"/>
<path d="M367.061 222.557C367.061 225.655 364.548 228.165 361.45 228.165C358.351 228.165 355.839 225.655 355.839 222.557C355.839 219.46 358.351 216.949 361.45 216.949C364.548 216.949 367.061 219.46 367.061 222.557Z" fill="black" fill-opacity="0.02"/>
<path d="M396.642 222.557C396.642 225.655 394.13 228.165 391.031 228.165C387.932 228.165 385.42 225.655 385.42 222.557C385.42 219.46 387.932 216.949 391.031 216.949C394.13 216.949 396.642 219.46 396.642 222.557Z" fill="black" fill-opacity="0.02"/>
<path d="M426.223 222.557C426.223 225.655 423.711 228.165 420.612 228.165C417.513 228.165 415.001 225.655 415.001 222.557C415.001 219.46 417.513 216.949 420.612 216.949C423.711 216.949 426.223 219.46 426.223 222.557Z" fill="black" fill-opacity="0.02"/>
<path d="M455.804 222.557C455.804 225.655 453.292 228.165 450.193 228.165C447.094 228.165 444.582 225.655 444.582 222.557C444.582 219.46 447.094 216.949 450.193 216.949C453.292 216.949 455.804 219.46 455.804 222.557Z" fill="black" fill-opacity="0.02"/>
<path d="M485.385 222.557C485.385 225.655 482.873 228.165 479.774 228.165C476.675 228.165 474.163 225.655 474.163 222.557C474.163 219.46 476.675 216.949 479.774 216.949C482.873 216.949 485.385 219.46 485.385 222.557Z" fill="black" fill-opacity="0.02"/>
<path d="M219.155 311.252C219.155 314.349 216.643 316.86 213.545 316.86C210.446 316.86 207.934 314.349 207.934 311.252C207.934 308.155 210.446 305.644 213.545 305.644C216.643 305.644 219.155 308.155 219.155 311.252Z" fill="black" fill-opacity="0.02"/>
<path d="M248.737 311.252C248.737 314.349 246.224 316.86 243.126 316.86C240.027 316.86 237.515 314.349 237.515 311.252C237.515 308.155 240.027 305.644 243.126 305.644C246.224 305.644 248.737 308.155 248.737 311.252Z" fill="black" fill-opacity="0.02"/>
<path d="M278.318 311.252C278.318 314.349 275.805 316.86 272.707 316.86C269.608 316.86 267.096 314.349 267.096 311.252C267.096 308.155 269.608 305.644 272.707 305.644C275.805 305.644 278.318 308.155 278.318 311.252Z" fill="black" fill-opacity="0.02"/>
<path d="M307.899 311.252C307.899 314.349 305.386 316.86 302.288 316.86C299.189 316.86 296.677 314.349 296.677 311.252C296.677 308.155 299.189 305.644 302.288 305.644C305.386 305.644 307.899 308.155 307.899 311.252Z" fill="black" fill-opacity="0.02"/>
<path d="M337.48 311.252C337.48 314.349 334.967 316.86 331.869 316.86C328.77 316.86 326.258 314.349 326.258 311.252C326.258 308.155 328.77 305.644 331.869 305.644C334.967 305.644 337.48 308.155 337.48 311.252Z" fill="black" fill-opacity="0.02"/>
<path d="M367.061 311.252C367.061 314.349 364.548 316.86 361.45 316.86C358.351 316.86 355.839 314.349 355.839 311.252C355.839 308.155 358.351 305.644 361.45 305.644C364.548 305.644 367.061 308.155 367.061 311.252Z" fill="black" fill-opacity="0.02"/>
<path d="M396.642 311.252C396.642 314.349 394.13 316.86 391.031 316.86C387.932 316.86 385.42 314.349 385.42 311.252C385.42 308.155 387.932 305.644 391.031 305.644C394.13 305.644 396.642 308.155 396.642 311.252Z" fill="black" fill-opacity="0.02"/>
<path d="M426.223 311.252C426.223 314.349 423.711 316.86 420.612 316.86C417.513 316.86 415.001 314.349 415.001 311.252C415.001 308.155 417.513 305.644 420.612 305.644C423.711 305.644 426.223 308.155 426.223 311.252Z" fill="black" fill-opacity="0.02"/>
<path d="M455.804 311.252C455.804 314.349 453.292 316.86 450.193 316.86C447.094 316.86 444.582 314.349 444.582 311.252C444.582 308.155 447.094 305.644 450.193 305.644C453.292 305.644 455.804 308.155 455.804 311.252Z" fill="black" fill-opacity="0.02"/>
<path d="M485.385 311.252C485.385 314.349 482.873 316.86 479.774 316.86C476.675 316.86 474.163 314.349 474.163 311.252C474.163 308.155 476.675 305.644 479.774 305.644C482.873 305.644 485.385 308.155 485.385 311.252Z" fill="black" fill-opacity="0.02"/>
</g>
<defs>
<linearGradient id="paint0_linear_339_6137" x1="411.955" y1="-14.6319" x2="-24.1039" y2="61.703" gradientUnits="userSpaceOnUse">
<stop stop-color="#DEDEDE"/>
<stop offset="1" stop-color="#D9D9D9"/>
</linearGradient>
<linearGradient id="paint1_linear_339_6137" x1="415.11" y1="-10.2825" x2="-34.4667" y2="162.235" gradientUnits="userSpaceOnUse">
<stop stop-color="#9A9A9A"/>
<stop offset="1" stop-color="#D3D3D3"/>
</linearGradient>
</defs>
</svg>
