<svg width="56" height="73" viewBox="0 0 56 73" fill="none" xmlns="http://www.w3.org/2000/svg">
<path d="M28 73C27.6719 73 27.3394 72.9248 27.0366 72.7744L1.1905 59.9424C0.462789 59.5789 0 58.8397 0 58.0293V2.14068C0 1.39927 0.386974 0.712047 1.02221 0.321526C1.65745 -0.0689955 2.44834 -0.102501 3.11718 0.227567L28 12.5814L52.8827 0.227567C53.5474 -0.104497 54.3425 -0.0731302 54.9777 0.321526C55.6129 0.712189 55.9999 1.39927 55.9999 2.14068V58.0293C55.9999 58.8397 55.5371 59.5789 54.8094 59.9424L28.9633 72.7744C28.6605 72.9248 28.3281 73 28 73Z" fill="#BFCAE1"/>
<path d="M28.9633 72.7744L54.8095 59.9424C55.5372 59.579 56 58.8397 56 58.0293V2.14073C56 1.39932 55.613 0.712095 54.9777 0.321574C54.3425 -0.0732243 53.5474 -0.104449 52.8828 0.227615L28 12.5814V73C28.3281 73 28.6605 72.9249 28.9633 72.7744Z" fill="#A4B2D0"/>
<path d="M47.3844 16.0417V27.2176L27.9998 41.1189L8.61523 27.2176V16.0417C8.61523 15.2718 9.00307 14.5873 9.64908 14.2025C10.2522 13.8174 11.0708 13.7746 11.7166 14.1168L27.9998 22.2011L44.283 14.1169C44.929 13.7746 45.7475 13.8175 46.3506 14.2026C46.9966 14.5873 47.3844 15.2718 47.3844 16.0417Z" fill="#4F6188"/>
<path d="M47.3846 27.2176V16.0417C47.3846 15.2718 46.9967 14.5873 46.3507 14.2025C45.7477 13.8174 44.9291 13.7746 44.2832 14.1168L28 22.201V41.1188L47.3846 27.2176Z" fill="#293753"/>
<path d="M47.3844 27.2178V39.3226L27.9998 53.3666L8.61523 39.2799V27.2178L27.9998 36.8418L47.3844 27.2178Z" fill="#6B7C9D"/>
<path d="M47.3846 39.3226V27.2178L28 36.8418V53.3666L47.3846 39.3226Z" fill="#4F6188"/>
<path d="M47.3844 39.324V52.7265C47.3844 53.5392 46.9106 54.3091 46.1781 54.6512L28.9474 63.2058C28.6461 63.3771 28.3444 63.4199 27.9998 63.4199C27.6552 63.4199 27.3535 63.3771 27.0523 63.2058L9.82153 54.6512C9.08908 54.3091 8.61523 53.5392 8.61523 52.7265V39.2812L27.9998 48.948L47.3844 39.324Z" fill="#92A0BB"/>
<path d="M28.9475 63.2051L46.1783 54.6504C46.9107 54.3083 47.3846 53.5384 47.3846 52.7257V39.3232L28 48.9473V63.4191C28.3448 63.4191 28.6463 63.3763 28.9475 63.2051Z" fill="#6B7C9D"/>
</svg>
