<svg width="398" height="149" viewBox="0 0 398 149" fill="none" xmlns="http://www.w3.org/2000/svg">
<rect x="-14.7158" y="-2.70264" width="426.716" height="236.311" rx="7.63929" fill="url(#paint0_linear_339_6298)"/>
<mask id="mask0_339_6298" style="mask-type:alpha" maskUnits="userSpaceOnUse" x="-15" y="-3" width="427" height="237">
<rect x="-14.7158" y="-2.70264" width="426.716" height="236.311" rx="7.63929" fill="url(#paint1_linear_339_6298)"/>
</mask>
<g mask="url(#mask0_339_6298)">
<ellipse cx="356.178" cy="79.4647" rx="135.574" ry="178.835" fill="black" fill-opacity="0.02"/>
<path d="M404.837 3.98637C400.673 -2.21984 393.688 -5.93876 386.213 -5.92477H252.365C244.894 -5.93876 237.907 -2.22184 233.747 3.98637L191.995 66.2264C186.823 73.9801 187.025 84.1332 192.503 91.673L308.468 250.661C310.994 254.112 315.013 256.151 319.289 256.151C323.567 256.151 327.586 254.112 330.11 250.661L446.077 91.673C451.553 84.1332 451.755 73.9801 446.583 66.2264L404.837 3.98637ZM439.022 86.5365L323.051 245.525C322.139 246.672 320.755 247.34 319.289 247.34C317.825 247.34 316.439 246.672 315.527 245.525L199.558 86.5285C196.242 81.9518 196.12 75.7996 199.248 71.093L241.004 8.84696C243.546 5.06406 247.808 2.80071 252.365 2.81071H386.213C390.77 2.80271 395.03 5.07006 397.572 8.85096L439.324 71.093C442.454 75.7976 442.334 81.9498 439.022 86.5285V86.5365Z" fill="black" fill-opacity="0.03"/>
<path d="M392.064 15.4047C391.662 14.8108 391.12 14.325 390.486 13.9891L386.83 12.0556C386.2 11.7217 385.498 11.5478 384.785 11.5478H253.725C253.011 11.5478 252.307 11.7237 251.677 12.0596L248.007 14.0071C247.371 14.345 246.829 14.8348 246.429 15.4307L207.151 73.8978C205.109 76.9529 205.197 80.9557 207.369 83.9189L312.155 226.362C313.819 228.613 316.455 229.941 319.255 229.939C322.052 229.935 324.682 228.603 326.342 226.352L431.162 83.525C433.34 80.5518 433.416 76.533 431.354 73.4799L392.064 15.4047ZM359.395 156.244L321.364 135.232C320.053 134.506 318.459 134.506 317.145 135.232L279.138 156.244L286.434 111.397C286.658 110.027 286.218 108.634 285.25 107.64L254.053 75.6713L296.967 69.1191C298.407 68.8992 299.642 67.9755 300.26 66.6559L319.255 26.1975L338.251 66.6559C338.869 67.9755 340.105 68.8992 341.545 69.1191L384.457 75.6713L353.261 107.64C352.292 108.634 351.854 110.027 352.078 111.397L359.395 156.244ZM214.408 78.7724L210.781 76.3351L214.408 78.7684V78.7724ZM253.079 21.209L254.817 20.2833H312.379L293.341 60.8335L244.328 68.3294C242.71 68.5753 241.364 69.707 240.844 71.2605C240.324 72.8121 240.716 74.5256 241.86 75.6973L277.456 112.173L270.465 154.978L214.408 78.7564L253.079 21.209ZM319.195 221.203L278.862 166.365L319.255 144.042L359.513 166.291L319.195 221.203ZM368 154.728L361.055 112.165L396.651 75.6893C397.789 74.5176 398.177 72.8081 397.659 71.2585C397.139 69.709 395.798 68.5793 394.182 68.3294L345.17 60.8335L326.132 20.2833H383.703L385.448 21.201L424.103 78.3405L368 154.728Z" fill="black" fill-opacity="0.03"/>
<path d="M361.407 83.3913C360.887 81.8338 359.535 80.7001 357.911 80.4562L333.294 76.7013L323.207 55.1855C322.487 53.6539 320.947 52.6742 319.253 52.6742C317.561 52.6742 316.019 53.6539 315.299 55.1855L305.196 76.7013L280.579 80.4562C278.959 80.7041 277.617 81.8378 277.097 83.3893C276.577 84.9409 276.971 86.6544 278.115 87.826L296.099 106.279L292.064 131.024C291.794 132.673 292.492 134.335 293.859 135.296C295.227 136.26 297.025 136.358 298.489 135.548L319.253 124.082L340.001 135.548C340.645 135.908 341.373 136.096 342.111 136.094C343.393 136.096 344.611 135.534 345.443 134.557C346.273 133.581 346.632 132.289 346.426 131.024L342.407 106.279L360.411 87.826C361.545 86.6504 361.931 84.9389 361.407 83.3913ZM334.596 101.736C333.628 102.728 333.186 104.121 333.408 105.489L336.353 123.536L321.363 115.238C320.051 114.514 318.457 114.514 317.143 115.238L302.155 123.536L305.098 105.489C305.32 104.121 304.88 102.728 303.91 101.736L290.308 87.812L308.822 84.9869C310.262 84.7649 311.498 83.8412 312.116 82.5236L319.253 67.318L326.392 82.5236C327.01 83.8412 328.246 84.7649 329.686 84.9869L348.2 87.812L334.596 101.736Z" fill="black" fill-opacity="0.03"/>
<path d="M-76.1189 -2.01804C-76.1189 1.07914 -78.631 3.58989 -81.7298 3.58989C-84.8287 3.58989 -87.3408 1.07914 -87.3408 -2.01804C-87.3408 -5.11522 -84.8287 -7.62598 -81.7298 -7.62598C-78.631 -7.62598 -76.1189 -5.11522 -76.1189 -2.01804Z" fill="black" fill-opacity="0.02"/>
<path d="M-46.5378 -2.01804C-46.5378 1.07914 -49.05 3.58989 -52.1488 3.58989C-55.2477 3.58989 -57.7598 1.07914 -57.7598 -2.01804C-57.7598 -5.11522 -55.2477 -7.62598 -52.1488 -7.62598C-49.05 -7.62598 -46.5378 -5.11522 -46.5378 -2.01804Z" fill="black" fill-opacity="0.02"/>
<path d="M-16.9568 -2.01804C-16.9568 1.07914 -19.4689 3.58989 -22.5678 3.58989C-25.6667 3.58989 -28.1788 1.07914 -28.1788 -2.01804C-28.1788 -5.11522 -25.6667 -7.62598 -22.5678 -7.62598C-19.4689 -7.62598 -16.9568 -5.11522 -16.9568 -2.01804Z" fill="black" fill-opacity="0.02"/>
<path d="M12.6242 -2.01804C12.6242 1.07914 10.1121 3.58989 7.01321 3.58989C3.91435 3.58989 1.40224 1.07914 1.40224 -2.01804C1.40224 -5.11522 3.91435 -7.62598 7.01321 -7.62598C10.1121 -7.62598 12.6242 -5.11522 12.6242 -2.01804Z" fill="black" fill-opacity="0.02"/>
<path d="M42.2052 -2.01804C42.2052 1.07914 39.6931 3.58989 36.5942 3.58989C33.4954 3.58989 30.9833 1.07914 30.9833 -2.01804C30.9833 -5.11522 33.4954 -7.62598 36.5942 -7.62598C39.6931 -7.62598 42.2052 -5.11522 42.2052 -2.01804Z" fill="black" fill-opacity="0.02"/>
<path d="M71.7862 -2.01804C71.7862 1.07914 69.2741 3.58989 66.1752 3.58989C63.0764 3.58989 60.5643 1.07914 60.5643 -2.01804C60.5643 -5.11522 63.0764 -7.62598 66.1752 -7.62598C69.2741 -7.62598 71.7862 -5.11522 71.7862 -2.01804Z" fill="black" fill-opacity="0.02"/>
<path d="M101.367 -2.01804C101.367 1.07914 98.8551 3.58989 95.7563 3.58989C92.6574 3.58989 90.1453 1.07914 90.1453 -2.01804C90.1453 -5.11522 92.6574 -7.62598 95.7563 -7.62598C98.8551 -7.62598 101.367 -5.11522 101.367 -2.01804Z" fill="black" fill-opacity="0.02"/>
<path d="M130.948 -2.01804C130.948 1.07914 128.436 3.58989 125.337 3.58989C122.238 3.58989 119.726 1.07914 119.726 -2.01804C119.726 -5.11522 122.238 -7.62598 125.337 -7.62598C128.436 -7.62598 130.948 -5.11522 130.948 -2.01804Z" fill="black" fill-opacity="0.02"/>
<path d="M160.529 -2.01804C160.529 1.07914 158.017 3.58989 154.918 3.58989C151.819 3.58989 149.307 1.07914 149.307 -2.01804C149.307 -5.11522 151.819 -7.62598 154.918 -7.62598C158.017 -7.62598 160.529 -5.11522 160.529 -2.01804Z" fill="black" fill-opacity="0.02"/>
<path d="M190.11 -2.01804C190.11 1.07914 187.598 3.58989 184.499 3.58989C181.4 3.58989 178.888 1.07914 178.888 -2.01804C178.888 -5.11522 181.4 -7.62598 184.499 -7.62598C187.598 -7.62598 190.11 -5.11522 190.11 -2.01804Z" fill="black" fill-opacity="0.02"/>
<path d="M-76.1189 86.6766C-76.1189 89.7738 -78.631 92.2846 -81.7298 92.2846C-84.8287 92.2846 -87.3408 89.7738 -87.3408 86.6766C-87.3408 83.5794 -84.8287 81.0687 -81.7298 81.0687C-78.631 81.0687 -76.1189 83.5794 -76.1189 86.6766Z" fill="black" fill-opacity="0.02"/>
<path d="M-46.5378 86.6766C-46.5378 89.7738 -49.05 92.2846 -52.1488 92.2846C-55.2477 92.2846 -57.7598 89.7738 -57.7598 86.6766C-57.7598 83.5794 -55.2477 81.0687 -52.1488 81.0687C-49.05 81.0687 -46.5378 83.5794 -46.5378 86.6766Z" fill="black" fill-opacity="0.02"/>
<path d="M-16.9568 86.6766C-16.9568 89.7738 -19.4689 92.2846 -22.5678 92.2846C-25.6667 92.2846 -28.1788 89.7738 -28.1788 86.6766C-28.1788 83.5794 -25.6667 81.0687 -22.5678 81.0687C-19.4689 81.0687 -16.9568 83.5794 -16.9568 86.6766Z" fill="black" fill-opacity="0.02"/>
<path d="M12.6242 86.6766C12.6242 89.7738 10.1121 92.2846 7.01321 92.2846C3.91435 92.2846 1.40224 89.7738 1.40224 86.6766C1.40224 83.5794 3.91435 81.0687 7.01321 81.0687C10.1121 81.0687 12.6242 83.5794 12.6242 86.6766Z" fill="black" fill-opacity="0.02"/>
<path d="M42.2052 86.6766C42.2052 89.7738 39.6931 92.2846 36.5942 92.2846C33.4954 92.2846 30.9833 89.7738 30.9833 86.6766C30.9833 83.5794 33.4954 81.0687 36.5942 81.0687C39.6931 81.0687 42.2052 83.5794 42.2052 86.6766Z" fill="black" fill-opacity="0.02"/>
<path d="M71.7862 86.6766C71.7862 89.7738 69.2741 92.2846 66.1752 92.2846C63.0764 92.2846 60.5643 89.7738 60.5643 86.6766C60.5643 83.5794 63.0764 81.0687 66.1752 81.0687C69.2741 81.0687 71.7862 83.5794 71.7862 86.6766Z" fill="black" fill-opacity="0.02"/>
<path d="M101.367 86.6766C101.367 89.7738 98.8551 92.2846 95.7563 92.2846C92.6574 92.2846 90.1453 89.7738 90.1453 86.6766C90.1453 83.5794 92.6574 81.0687 95.7563 81.0687C98.8551 81.0687 101.367 83.5794 101.367 86.6766Z" fill="black" fill-opacity="0.02"/>
<path d="M130.948 86.6766C130.948 89.7738 128.436 92.2846 125.337 92.2846C122.238 92.2846 119.726 89.7738 119.726 86.6766C119.726 83.5794 122.238 81.0687 125.337 81.0687C128.436 81.0687 130.948 83.5794 130.948 86.6766Z" fill="black" fill-opacity="0.02"/>
<path d="M160.529 86.6766C160.529 89.7738 158.017 92.2846 154.918 92.2846C151.819 92.2846 149.307 89.7738 149.307 86.6766C149.307 83.5794 151.819 81.0687 154.918 81.0687C158.017 81.0687 160.529 83.5794 160.529 86.6766Z" fill="black" fill-opacity="0.02"/>
<path d="M190.11 86.6766C190.11 89.7738 187.598 92.2846 184.499 92.2846C181.4 92.2846 178.888 89.7738 178.888 86.6766C178.888 83.5794 181.4 81.0687 184.499 81.0687C187.598 81.0687 190.11 83.5794 190.11 86.6766Z" fill="black" fill-opacity="0.02"/>
<path d="M-76.1189 27.5468C-76.1189 30.644 -78.631 33.1548 -81.7298 33.1548C-84.8287 33.1548 -87.3408 30.644 -87.3408 27.5468C-87.3408 24.4497 -84.8287 21.9389 -81.7298 21.9389C-78.631 21.9389 -76.1189 24.4497 -76.1189 27.5468Z" fill="black" fill-opacity="0.02"/>
<path d="M-46.5378 27.5468C-46.5378 30.644 -49.05 33.1548 -52.1488 33.1548C-55.2477 33.1548 -57.7598 30.644 -57.7598 27.5468C-57.7598 24.4497 -55.2477 21.9389 -52.1488 21.9389C-49.05 21.9389 -46.5378 24.4497 -46.5378 27.5468Z" fill="black" fill-opacity="0.02"/>
<path d="M-16.9568 27.5468C-16.9568 30.644 -19.4689 33.1548 -22.5678 33.1548C-25.6667 33.1548 -28.1788 30.644 -28.1788 27.5468C-28.1788 24.4497 -25.6667 21.9389 -22.5678 21.9389C-19.4689 21.9389 -16.9568 24.4497 -16.9568 27.5468Z" fill="black" fill-opacity="0.02"/>
<path d="M12.6242 27.5468C12.6242 30.644 10.1121 33.1548 7.01321 33.1548C3.91435 33.1548 1.40224 30.644 1.40224 27.5468C1.40224 24.4497 3.91435 21.9389 7.01321 21.9389C10.1121 21.9389 12.6242 24.4497 12.6242 27.5468Z" fill="black" fill-opacity="0.02"/>
<path d="M42.2052 27.5468C42.2052 30.644 39.6931 33.1548 36.5942 33.1548C33.4954 33.1548 30.9833 30.644 30.9833 27.5468C30.9833 24.4497 33.4954 21.9389 36.5942 21.9389C39.6931 21.9389 42.2052 24.4497 42.2052 27.5468Z" fill="black" fill-opacity="0.02"/>
<path d="M71.7862 27.5468C71.7862 30.644 69.2741 33.1548 66.1752 33.1548C63.0764 33.1548 60.5643 30.644 60.5643 27.5468C60.5643 24.4497 63.0764 21.9389 66.1752 21.9389C69.2741 21.9389 71.7862 24.4497 71.7862 27.5468Z" fill="black" fill-opacity="0.02"/>
<path d="M101.367 27.5468C101.367 30.644 98.8551 33.1548 95.7563 33.1548C92.6574 33.1548 90.1453 30.644 90.1453 27.5468C90.1453 24.4497 92.6574 21.9389 95.7563 21.9389C98.8551 21.9389 101.367 24.4497 101.367 27.5468Z" fill="black" fill-opacity="0.02"/>
<path d="M130.948 27.5468C130.948 30.644 128.436 33.1548 125.337 33.1548C122.238 33.1548 119.726 30.644 119.726 27.5468C119.726 24.4497 122.238 21.9389 125.337 21.9389C128.436 21.9389 130.948 24.4497 130.948 27.5468Z" fill="black" fill-opacity="0.02"/>
<path d="M160.529 27.5468C160.529 30.644 158.017 33.1548 154.918 33.1548C151.819 33.1548 149.307 30.644 149.307 27.5468C149.307 24.4497 151.819 21.9389 154.918 21.9389C158.017 21.9389 160.529 24.4497 160.529 27.5468Z" fill="black" fill-opacity="0.02"/>
<path d="M190.11 27.5468C190.11 30.644 187.598 33.1548 184.499 33.1548C181.4 33.1548 178.888 30.644 178.888 27.5468C178.888 24.4497 181.4 21.9389 184.499 21.9389C187.598 21.9389 190.11 24.4497 190.11 27.5468Z" fill="black" fill-opacity="0.02"/>
<path d="M-76.1189 116.242C-76.1189 119.339 -78.631 121.849 -81.7298 121.849C-84.8287 121.849 -87.3408 119.339 -87.3408 116.242C-87.3408 113.144 -84.8287 110.634 -81.7298 110.634C-78.631 110.634 -76.1189 113.144 -76.1189 116.242Z" fill="black" fill-opacity="0.02"/>
<path d="M-46.5378 116.242C-46.5378 119.339 -49.05 121.849 -52.1488 121.849C-55.2477 121.849 -57.7598 119.339 -57.7598 116.242C-57.7598 113.144 -55.2477 110.634 -52.1488 110.634C-49.05 110.634 -46.5378 113.144 -46.5378 116.242Z" fill="black" fill-opacity="0.02"/>
<path d="M-16.9568 116.242C-16.9568 119.339 -19.4689 121.849 -22.5678 121.849C-25.6667 121.849 -28.1788 119.339 -28.1788 116.242C-28.1788 113.144 -25.6667 110.634 -22.5678 110.634C-19.4689 110.634 -16.9568 113.144 -16.9568 116.242Z" fill="black" fill-opacity="0.02"/>
<path d="M12.6242 116.242C12.6242 119.339 10.1121 121.849 7.01321 121.849C3.91435 121.849 1.40224 119.339 1.40224 116.242C1.40224 113.144 3.91435 110.634 7.01321 110.634C10.1121 110.634 12.6242 113.144 12.6242 116.242Z" fill="black" fill-opacity="0.02"/>
<path d="M42.2052 116.242C42.2052 119.339 39.6931 121.849 36.5942 121.849C33.4954 121.849 30.9833 119.339 30.9833 116.242C30.9833 113.144 33.4954 110.634 36.5942 110.634C39.6931 110.634 42.2052 113.144 42.2052 116.242Z" fill="black" fill-opacity="0.02"/>
<path d="M71.7862 116.242C71.7862 119.339 69.2741 121.849 66.1752 121.849C63.0764 121.849 60.5643 119.339 60.5643 116.242C60.5643 113.144 63.0764 110.634 66.1752 110.634C69.2741 110.634 71.7862 113.144 71.7862 116.242Z" fill="black" fill-opacity="0.02"/>
<path d="M101.367 116.242C101.367 119.339 98.8551 121.849 95.7563 121.849C92.6574 121.849 90.1453 119.339 90.1453 116.242C90.1453 113.144 92.6574 110.634 95.7563 110.634C98.8551 110.634 101.367 113.144 101.367 116.242Z" fill="black" fill-opacity="0.02"/>
<path d="M130.948 116.242C130.948 119.339 128.436 121.849 125.337 121.849C122.238 121.849 119.726 119.339 119.726 116.242C119.726 113.144 122.238 110.634 125.337 110.634C128.436 110.634 130.948 113.144 130.948 116.242Z" fill="black" fill-opacity="0.02"/>
<path d="M160.529 116.242C160.529 119.339 158.017 121.849 154.918 121.849C151.819 121.849 149.307 119.339 149.307 116.242C149.307 113.144 151.819 110.634 154.918 110.634C158.017 110.634 160.529 113.144 160.529 116.242Z" fill="black" fill-opacity="0.02"/>
<path d="M190.11 116.242C190.11 119.339 187.598 121.849 184.499 121.849C181.4 121.849 178.888 119.339 178.888 116.242C178.888 113.144 181.4 110.634 184.499 110.634C187.598 110.634 190.11 113.144 190.11 116.242Z" fill="black" fill-opacity="0.02"/>
<path d="M-76.1189 57.1117C-76.1189 60.2089 -78.631 62.7197 -81.7298 62.7197C-84.8287 62.7197 -87.3408 60.2089 -87.3408 57.1117C-87.3408 54.0146 -84.8287 51.5038 -81.7298 51.5038C-78.631 51.5038 -76.1189 54.0146 -76.1189 57.1117Z" fill="black" fill-opacity="0.02"/>
<path d="M-46.5378 57.1117C-46.5378 60.2089 -49.05 62.7197 -52.1488 62.7197C-55.2477 62.7197 -57.7598 60.2089 -57.7598 57.1117C-57.7598 54.0146 -55.2477 51.5038 -52.1488 51.5038C-49.05 51.5038 -46.5378 54.0146 -46.5378 57.1117Z" fill="black" fill-opacity="0.02"/>
<path d="M-16.9568 57.1117C-16.9568 60.2089 -19.4689 62.7197 -22.5678 62.7197C-25.6667 62.7197 -28.1788 60.2089 -28.1788 57.1117C-28.1788 54.0146 -25.6667 51.5038 -22.5678 51.5038C-19.4689 51.5038 -16.9568 54.0146 -16.9568 57.1117Z" fill="black" fill-opacity="0.02"/>
<path d="M12.6242 57.1117C12.6242 60.2089 10.1121 62.7197 7.01321 62.7197C3.91435 62.7197 1.40224 60.2089 1.40224 57.1117C1.40224 54.0146 3.91435 51.5038 7.01321 51.5038C10.1121 51.5038 12.6242 54.0146 12.6242 57.1117Z" fill="black" fill-opacity="0.02"/>
<path d="M42.2052 57.1117C42.2052 60.2089 39.6931 62.7197 36.5942 62.7197C33.4954 62.7197 30.9833 60.2089 30.9833 57.1117C30.9833 54.0146 33.4954 51.5038 36.5942 51.5038C39.6931 51.5038 42.2052 54.0146 42.2052 57.1117Z" fill="black" fill-opacity="0.02"/>
<path d="M71.7862 57.1117C71.7862 60.2089 69.2741 62.7197 66.1752 62.7197C63.0764 62.7197 60.5643 60.2089 60.5643 57.1117C60.5643 54.0146 63.0764 51.5038 66.1752 51.5038C69.2741 51.5038 71.7862 54.0146 71.7862 57.1117Z" fill="black" fill-opacity="0.02"/>
<path d="M101.367 57.1117C101.367 60.2089 98.8551 62.7197 95.7563 62.7197C92.6574 62.7197 90.1453 60.2089 90.1453 57.1117C90.1453 54.0146 92.6574 51.5038 95.7563 51.5038C98.8551 51.5038 101.367 54.0146 101.367 57.1117Z" fill="black" fill-opacity="0.02"/>
<path d="M130.948 57.1117C130.948 60.2089 128.436 62.7197 125.337 62.7197C122.238 62.7197 119.726 60.2089 119.726 57.1117C119.726 54.0146 122.238 51.5038 125.337 51.5038C128.436 51.5038 130.948 54.0146 130.948 57.1117Z" fill="black" fill-opacity="0.02"/>
<path d="M160.529 57.1117C160.529 60.2089 158.017 62.7197 154.918 62.7197C151.819 62.7197 149.307 60.2089 149.307 57.1117C149.307 54.0146 151.819 51.5038 154.918 51.5038C158.017 51.5038 160.529 54.0146 160.529 57.1117Z" fill="black" fill-opacity="0.02"/>
<path d="M190.11 57.1117C190.11 60.2089 187.598 62.7197 184.499 62.7197C181.4 62.7197 178.888 60.2089 178.888 57.1117C178.888 54.0146 181.4 51.5038 184.499 51.5038C187.598 51.5038 190.11 54.0146 190.11 57.1117Z" fill="black" fill-opacity="0.02"/>
<path d="M-76.1189 145.806C-76.1189 148.904 -78.631 151.414 -81.7298 151.414C-84.8287 151.414 -87.3408 148.904 -87.3408 145.806C-87.3408 142.709 -84.8287 140.198 -81.7298 140.198C-78.631 140.198 -76.1189 142.709 -76.1189 145.806Z" fill="black" fill-opacity="0.02"/>
<path d="M-46.5378 145.806C-46.5378 148.904 -49.05 151.414 -52.1488 151.414C-55.2477 151.414 -57.7598 148.904 -57.7598 145.806C-57.7598 142.709 -55.2477 140.198 -52.1488 140.198C-49.05 140.198 -46.5378 142.709 -46.5378 145.806Z" fill="black" fill-opacity="0.02"/>
<path d="M-16.9568 145.806C-16.9568 148.904 -19.4689 151.414 -22.5678 151.414C-25.6667 151.414 -28.1788 148.904 -28.1788 145.806C-28.1788 142.709 -25.6667 140.198 -22.5678 140.198C-19.4689 140.198 -16.9568 142.709 -16.9568 145.806Z" fill="black" fill-opacity="0.02"/>
<path d="M12.6242 145.806C12.6242 148.904 10.1121 151.414 7.01321 151.414C3.91435 151.414 1.40224 148.904 1.40224 145.806C1.40224 142.709 3.91435 140.198 7.01321 140.198C10.1121 140.198 12.6242 142.709 12.6242 145.806Z" fill="black" fill-opacity="0.02"/>
<path d="M42.2052 145.806C42.2052 148.904 39.6931 151.414 36.5942 151.414C33.4954 151.414 30.9833 148.904 30.9833 145.806C30.9833 142.709 33.4954 140.198 36.5942 140.198C39.6931 140.198 42.2052 142.709 42.2052 145.806Z" fill="black" fill-opacity="0.02"/>
<path d="M71.7862 145.806C71.7862 148.904 69.2741 151.414 66.1752 151.414C63.0764 151.414 60.5643 148.904 60.5643 145.806C60.5643 142.709 63.0764 140.198 66.1752 140.198C69.2741 140.198 71.7862 142.709 71.7862 145.806Z" fill="black" fill-opacity="0.02"/>
<path d="M101.367 145.806C101.367 148.904 98.8551 151.414 95.7563 151.414C92.6574 151.414 90.1453 148.904 90.1453 145.806C90.1453 142.709 92.6574 140.198 95.7563 140.198C98.8551 140.198 101.367 142.709 101.367 145.806Z" fill="black" fill-opacity="0.02"/>
<path d="M130.948 145.806C130.948 148.904 128.436 151.414 125.337 151.414C122.238 151.414 119.726 148.904 119.726 145.806C119.726 142.709 122.238 140.198 125.337 140.198C128.436 140.198 130.948 142.709 130.948 145.806Z" fill="black" fill-opacity="0.02"/>
<path d="M160.529 145.806C160.529 148.904 158.017 151.414 154.918 151.414C151.819 151.414 149.307 148.904 149.307 145.806C149.307 142.709 151.819 140.198 154.918 140.198C158.017 140.198 160.529 142.709 160.529 145.806Z" fill="black" fill-opacity="0.02"/>
<path d="M190.11 145.806C190.11 148.904 187.598 151.414 184.499 151.414C181.4 151.414 178.888 148.904 178.888 145.806C178.888 142.709 181.4 140.198 184.499 140.198C187.598 140.198 190.11 142.709 190.11 145.806Z" fill="black" fill-opacity="0.02"/>
<path d="M-76.1189 175.356C-76.1189 178.454 -78.631 180.964 -81.7298 180.964C-84.8287 180.964 -87.3408 178.454 -87.3408 175.356C-87.3408 172.259 -84.8287 169.748 -81.7298 169.748C-78.631 169.748 -76.1189 172.259 -76.1189 175.356Z" fill="black" fill-opacity="0.02"/>
<path d="M-46.5378 175.356C-46.5378 178.454 -49.05 180.964 -52.1488 180.964C-55.2477 180.964 -57.7598 178.454 -57.7598 175.356C-57.7598 172.259 -55.2477 169.748 -52.1488 169.748C-49.05 169.748 -46.5378 172.259 -46.5378 175.356Z" fill="black" fill-opacity="0.02"/>
<path d="M-16.9568 175.356C-16.9568 178.454 -19.4689 180.964 -22.5678 180.964C-25.6667 180.964 -28.1788 178.454 -28.1788 175.356C-28.1788 172.259 -25.6667 169.748 -22.5678 169.748C-19.4689 169.748 -16.9568 172.259 -16.9568 175.356Z" fill="black" fill-opacity="0.02"/>
<path d="M12.6242 175.356C12.6242 178.454 10.1121 180.964 7.01321 180.964C3.91435 180.964 1.40224 178.454 1.40224 175.356C1.40224 172.259 3.91435 169.748 7.01321 169.748C10.1121 169.748 12.6242 172.259 12.6242 175.356Z" fill="black" fill-opacity="0.02"/>
<path d="M42.2052 175.356C42.2052 178.454 39.6931 180.964 36.5942 180.964C33.4954 180.964 30.9833 178.454 30.9833 175.356C30.9833 172.259 33.4954 169.748 36.5942 169.748C39.6931 169.748 42.2052 172.259 42.2052 175.356Z" fill="black" fill-opacity="0.02"/>
<path d="M71.7862 175.356C71.7862 178.454 69.2741 180.964 66.1752 180.964C63.0764 180.964 60.5643 178.454 60.5643 175.356C60.5643 172.259 63.0764 169.748 66.1752 169.748C69.2741 169.748 71.7862 172.259 71.7862 175.356Z" fill="black" fill-opacity="0.02"/>
<path d="M101.367 175.356C101.367 178.454 98.8551 180.964 95.7563 180.964C92.6574 180.964 90.1453 178.454 90.1453 175.356C90.1453 172.259 92.6574 169.748 95.7563 169.748C98.8551 169.748 101.367 172.259 101.367 175.356Z" fill="black" fill-opacity="0.02"/>
<path d="M130.948 175.356C130.948 178.454 128.436 180.964 125.337 180.964C122.238 180.964 119.726 178.454 119.726 175.356C119.726 172.259 122.238 169.748 125.337 169.748C128.436 169.748 130.948 172.259 130.948 175.356Z" fill="black" fill-opacity="0.02"/>
<path d="M160.529 175.356C160.529 178.454 158.017 180.964 154.918 180.964C151.819 180.964 149.307 178.454 149.307 175.356C149.307 172.259 151.819 169.748 154.918 169.748C158.017 169.748 160.529 172.259 160.529 175.356Z" fill="black" fill-opacity="0.02"/>
<path d="M190.11 175.356C190.11 178.454 187.598 180.964 184.499 180.964C181.4 180.964 178.888 178.454 178.888 175.356C178.888 172.259 181.4 169.748 184.499 169.748C187.598 169.748 190.11 172.259 190.11 175.356Z" fill="black" fill-opacity="0.02"/>
<path d="M-76.1189 264.051C-76.1189 267.148 -78.631 269.659 -81.7298 269.659C-84.8287 269.659 -87.3408 267.148 -87.3408 264.051C-87.3408 260.954 -84.8287 258.443 -81.7298 258.443C-78.631 258.443 -76.1189 260.954 -76.1189 264.051Z" fill="black" fill-opacity="0.02"/>
<path d="M-46.5378 264.051C-46.5378 267.148 -49.05 269.659 -52.1488 269.659C-55.2477 269.659 -57.7598 267.148 -57.7598 264.051C-57.7598 260.954 -55.2477 258.443 -52.1488 258.443C-49.05 258.443 -46.5378 260.954 -46.5378 264.051Z" fill="black" fill-opacity="0.02"/>
<path d="M-16.9568 264.051C-16.9568 267.148 -19.4689 269.659 -22.5678 269.659C-25.6667 269.659 -28.1788 267.148 -28.1788 264.051C-28.1788 260.954 -25.6667 258.443 -22.5678 258.443C-19.4689 258.443 -16.9568 260.954 -16.9568 264.051Z" fill="black" fill-opacity="0.02"/>
<path d="M12.6242 264.051C12.6242 267.148 10.1121 269.659 7.01321 269.659C3.91435 269.659 1.40224 267.148 1.40224 264.051C1.40224 260.954 3.91435 258.443 7.01321 258.443C10.1121 258.443 12.6242 260.954 12.6242 264.051Z" fill="black" fill-opacity="0.02"/>
<path d="M42.2052 264.051C42.2052 267.148 39.6931 269.659 36.5942 269.659C33.4954 269.659 30.9833 267.148 30.9833 264.051C30.9833 260.954 33.4954 258.443 36.5942 258.443C39.6931 258.443 42.2052 260.954 42.2052 264.051Z" fill="black" fill-opacity="0.02"/>
<path d="M71.7862 264.051C71.7862 267.148 69.2741 269.659 66.1752 269.659C63.0764 269.659 60.5643 267.148 60.5643 264.051C60.5643 260.954 63.0764 258.443 66.1752 258.443C69.2741 258.443 71.7862 260.954 71.7862 264.051Z" fill="black" fill-opacity="0.02"/>
<path d="M101.367 264.051C101.367 267.148 98.8551 269.659 95.7563 269.659C92.6574 269.659 90.1453 267.148 90.1453 264.051C90.1453 260.954 92.6574 258.443 95.7563 258.443C98.8551 258.443 101.367 260.954 101.367 264.051Z" fill="black" fill-opacity="0.02"/>
<path d="M130.948 264.051C130.948 267.148 128.436 269.659 125.337 269.659C122.238 269.659 119.726 267.148 119.726 264.051C119.726 260.954 122.238 258.443 125.337 258.443C128.436 258.443 130.948 260.954 130.948 264.051Z" fill="black" fill-opacity="0.02"/>
<path d="M160.529 264.051C160.529 267.148 158.017 269.659 154.918 269.659C151.819 269.659 149.307 267.148 149.307 264.051C149.307 260.954 151.819 258.443 154.918 258.443C158.017 258.443 160.529 260.954 160.529 264.051Z" fill="black" fill-opacity="0.02"/>
<path d="M190.11 264.051C190.11 267.148 187.598 269.659 184.499 269.659C181.4 269.659 178.888 267.148 178.888 264.051C178.888 260.954 181.4 258.443 184.499 258.443C187.598 258.443 190.11 260.954 190.11 264.051Z" fill="black" fill-opacity="0.02"/>
<path d="M-76.1189 204.921C-76.1189 208.018 -78.631 210.529 -81.7298 210.529C-84.8287 210.529 -87.3408 208.018 -87.3408 204.921C-87.3408 201.824 -84.8287 199.313 -81.7298 199.313C-78.631 199.313 -76.1189 201.824 -76.1189 204.921Z" fill="black" fill-opacity="0.02"/>
<path d="M-46.5378 204.921C-46.5378 208.018 -49.05 210.529 -52.1488 210.529C-55.2477 210.529 -57.7598 208.018 -57.7598 204.921C-57.7598 201.824 -55.2477 199.313 -52.1488 199.313C-49.05 199.313 -46.5378 201.824 -46.5378 204.921Z" fill="black" fill-opacity="0.02"/>
<path d="M-16.9568 204.921C-16.9568 208.018 -19.4689 210.529 -22.5678 210.529C-25.6667 210.529 -28.1788 208.018 -28.1788 204.921C-28.1788 201.824 -25.6667 199.313 -22.5678 199.313C-19.4689 199.313 -16.9568 201.824 -16.9568 204.921Z" fill="black" fill-opacity="0.02"/>
<path d="M12.6242 204.921C12.6242 208.018 10.1121 210.529 7.01321 210.529C3.91435 210.529 1.40224 208.018 1.40224 204.921C1.40224 201.824 3.91435 199.313 7.01321 199.313C10.1121 199.313 12.6242 201.824 12.6242 204.921Z" fill="black" fill-opacity="0.02"/>
<path d="M42.2052 204.921C42.2052 208.018 39.6931 210.529 36.5942 210.529C33.4954 210.529 30.9833 208.018 30.9833 204.921C30.9833 201.824 33.4954 199.313 36.5942 199.313C39.6931 199.313 42.2052 201.824 42.2052 204.921Z" fill="black" fill-opacity="0.02"/>
<path d="M71.7862 204.921C71.7862 208.018 69.2741 210.529 66.1752 210.529C63.0764 210.529 60.5643 208.018 60.5643 204.921C60.5643 201.824 63.0764 199.313 66.1752 199.313C69.2741 199.313 71.7862 201.824 71.7862 204.921Z" fill="black" fill-opacity="0.02"/>
<path d="M101.367 204.921C101.367 208.018 98.8551 210.529 95.7563 210.529C92.6574 210.529 90.1453 208.018 90.1453 204.921C90.1453 201.824 92.6574 199.313 95.7563 199.313C98.8551 199.313 101.367 201.824 101.367 204.921Z" fill="black" fill-opacity="0.02"/>
<path d="M130.948 204.921C130.948 208.018 128.436 210.529 125.337 210.529C122.238 210.529 119.726 208.018 119.726 204.921C119.726 201.824 122.238 199.313 125.337 199.313C128.436 199.313 130.948 201.824 130.948 204.921Z" fill="black" fill-opacity="0.02"/>
<path d="M160.529 204.921C160.529 208.018 158.017 210.529 154.918 210.529C151.819 210.529 149.307 208.018 149.307 204.921C149.307 201.824 151.819 199.313 154.918 199.313C158.017 199.313 160.529 201.824 160.529 204.921Z" fill="black" fill-opacity="0.02"/>
<path d="M190.11 204.921C190.11 208.018 187.598 210.529 184.499 210.529C181.4 210.529 178.888 208.018 178.888 204.921C178.888 201.824 181.4 199.313 184.499 199.313C187.598 199.313 190.11 201.824 190.11 204.921Z" fill="black" fill-opacity="0.02"/>
<path d="M-76.1189 293.616C-76.1189 296.713 -78.631 299.224 -81.7298 299.224C-84.8287 299.224 -87.3408 296.713 -87.3408 293.616C-87.3408 290.519 -84.8287 288.008 -81.7298 288.008C-78.631 288.008 -76.1189 290.519 -76.1189 293.616Z" fill="black" fill-opacity="0.02"/>
<path d="M-46.5378 293.616C-46.5378 296.713 -49.05 299.224 -52.1488 299.224C-55.2477 299.224 -57.7598 296.713 -57.7598 293.616C-57.7598 290.519 -55.2477 288.008 -52.1488 288.008C-49.05 288.008 -46.5378 290.519 -46.5378 293.616Z" fill="black" fill-opacity="0.02"/>
<path d="M-16.9568 293.616C-16.9568 296.713 -19.4689 299.224 -22.5678 299.224C-25.6667 299.224 -28.1788 296.713 -28.1788 293.616C-28.1788 290.519 -25.6667 288.008 -22.5678 288.008C-19.4689 288.008 -16.9568 290.519 -16.9568 293.616Z" fill="black" fill-opacity="0.02"/>
<path d="M12.6242 293.616C12.6242 296.713 10.1121 299.224 7.01321 299.224C3.91435 299.224 1.40224 296.713 1.40224 293.616C1.40224 290.519 3.91435 288.008 7.01321 288.008C10.1121 288.008 12.6242 290.519 12.6242 293.616Z" fill="black" fill-opacity="0.02"/>
<path d="M42.2052 293.616C42.2052 296.713 39.6931 299.224 36.5942 299.224C33.4954 299.224 30.9833 296.713 30.9833 293.616C30.9833 290.519 33.4954 288.008 36.5942 288.008C39.6931 288.008 42.2052 290.519 42.2052 293.616Z" fill="black" fill-opacity="0.02"/>
<path d="M71.7862 293.616C71.7862 296.713 69.2741 299.224 66.1752 299.224C63.0764 299.224 60.5643 296.713 60.5643 293.616C60.5643 290.519 63.0764 288.008 66.1752 288.008C69.2741 288.008 71.7862 290.519 71.7862 293.616Z" fill="black" fill-opacity="0.02"/>
<path d="M101.367 293.616C101.367 296.713 98.8551 299.224 95.7563 299.224C92.6574 299.224 90.1453 296.713 90.1453 293.616C90.1453 290.519 92.6574 288.008 95.7563 288.008C98.8551 288.008 101.367 290.519 101.367 293.616Z" fill="black" fill-opacity="0.02"/>
<path d="M130.948 293.616C130.948 296.713 128.436 299.224 125.337 299.224C122.238 299.224 119.726 296.713 119.726 293.616C119.726 290.519 122.238 288.008 125.337 288.008C128.436 288.008 130.948 290.519 130.948 293.616Z" fill="black" fill-opacity="0.02"/>
<path d="M160.529 293.616C160.529 296.713 158.017 299.224 154.918 299.224C151.819 299.224 149.307 296.713 149.307 293.616C149.307 290.519 151.819 288.008 154.918 288.008C158.017 288.008 160.529 290.519 160.529 293.616Z" fill="black" fill-opacity="0.02"/>
<path d="M190.11 293.616C190.11 296.713 187.598 299.224 184.499 299.224C181.4 299.224 178.888 296.713 178.888 293.616C178.888 290.519 181.4 288.008 184.499 288.008C187.598 288.008 190.11 290.519 190.11 293.616Z" fill="black" fill-opacity="0.02"/>
<path d="M-76.1189 234.486C-76.1189 237.583 -78.631 240.094 -81.7298 240.094C-84.8287 240.094 -87.3408 237.583 -87.3408 234.486C-87.3408 231.389 -84.8287 228.878 -81.7298 228.878C-78.631 228.878 -76.1189 231.389 -76.1189 234.486Z" fill="black" fill-opacity="0.02"/>
<path d="M-46.5378 234.486C-46.5378 237.583 -49.05 240.094 -52.1488 240.094C-55.2477 240.094 -57.7598 237.583 -57.7598 234.486C-57.7598 231.389 -55.2477 228.878 -52.1488 228.878C-49.05 228.878 -46.5378 231.389 -46.5378 234.486Z" fill="black" fill-opacity="0.02"/>
<path d="M-16.9568 234.486C-16.9568 237.583 -19.4689 240.094 -22.5678 240.094C-25.6667 240.094 -28.1788 237.583 -28.1788 234.486C-28.1788 231.389 -25.6667 228.878 -22.5678 228.878C-19.4689 228.878 -16.9568 231.389 -16.9568 234.486Z" fill="black" fill-opacity="0.02"/>
<path d="M12.6242 234.486C12.6242 237.583 10.1121 240.094 7.01321 240.094C3.91435 240.094 1.40224 237.583 1.40224 234.486C1.40224 231.389 3.91435 228.878 7.01321 228.878C10.1121 228.878 12.6242 231.389 12.6242 234.486Z" fill="black" fill-opacity="0.02"/>
<path d="M42.2052 234.486C42.2052 237.583 39.6931 240.094 36.5942 240.094C33.4954 240.094 30.9833 237.583 30.9833 234.486C30.9833 231.389 33.4954 228.878 36.5942 228.878C39.6931 228.878 42.2052 231.389 42.2052 234.486Z" fill="black" fill-opacity="0.02"/>
<path d="M71.7862 234.486C71.7862 237.583 69.2741 240.094 66.1752 240.094C63.0764 240.094 60.5643 237.583 60.5643 234.486C60.5643 231.389 63.0764 228.878 66.1752 228.878C69.2741 228.878 71.7862 231.389 71.7862 234.486Z" fill="black" fill-opacity="0.02"/>
<path d="M101.367 234.486C101.367 237.583 98.8551 240.094 95.7563 240.094C92.6574 240.094 90.1453 237.583 90.1453 234.486C90.1453 231.389 92.6574 228.878 95.7563 228.878C98.8551 228.878 101.367 231.389 101.367 234.486Z" fill="black" fill-opacity="0.02"/>
<path d="M130.948 234.486C130.948 237.583 128.436 240.094 125.337 240.094C122.238 240.094 119.726 237.583 119.726 234.486C119.726 231.389 122.238 228.878 125.337 228.878C128.436 228.878 130.948 231.389 130.948 234.486Z" fill="black" fill-opacity="0.02"/>
<path d="M160.529 234.486C160.529 237.583 158.017 240.094 154.918 240.094C151.819 240.094 149.307 237.583 149.307 234.486C149.307 231.389 151.819 228.878 154.918 228.878C158.017 228.878 160.529 231.389 160.529 234.486Z" fill="black" fill-opacity="0.02"/>
<path d="M190.11 234.486C190.11 237.583 187.598 240.094 184.499 240.094C181.4 240.094 178.888 237.583 178.888 234.486C178.888 231.389 181.4 228.878 184.499 228.878C187.598 228.878 190.11 231.389 190.11 234.486Z" fill="black" fill-opacity="0.02"/>
<path d="M-76.1189 323.181C-76.1189 326.278 -78.631 328.789 -81.7298 328.789C-84.8287 328.789 -87.3408 326.278 -87.3408 323.181C-87.3408 320.084 -84.8287 317.573 -81.7298 317.573C-78.631 317.573 -76.1189 320.084 -76.1189 323.181Z" fill="black" fill-opacity="0.02"/>
<path d="M-46.5378 323.181C-46.5378 326.278 -49.05 328.789 -52.1488 328.789C-55.2477 328.789 -57.7598 326.278 -57.7598 323.181C-57.7598 320.084 -55.2477 317.573 -52.1488 317.573C-49.05 317.573 -46.5378 320.084 -46.5378 323.181Z" fill="black" fill-opacity="0.02"/>
<path d="M-16.9568 323.181C-16.9568 326.278 -19.4689 328.789 -22.5678 328.789C-25.6667 328.789 -28.1788 326.278 -28.1788 323.181C-28.1788 320.084 -25.6667 317.573 -22.5678 317.573C-19.4689 317.573 -16.9568 320.084 -16.9568 323.181Z" fill="black" fill-opacity="0.02"/>
<path d="M12.6242 323.181C12.6242 326.278 10.1121 328.789 7.01321 328.789C3.91435 328.789 1.40224 326.278 1.40224 323.181C1.40224 320.084 3.91435 317.573 7.01321 317.573C10.1121 317.573 12.6242 320.084 12.6242 323.181Z" fill="black" fill-opacity="0.02"/>
<path d="M42.2052 323.181C42.2052 326.278 39.6931 328.789 36.5942 328.789C33.4954 328.789 30.9833 326.278 30.9833 323.181C30.9833 320.084 33.4954 317.573 36.5942 317.573C39.6931 317.573 42.2052 320.084 42.2052 323.181Z" fill="black" fill-opacity="0.02"/>
<path d="M71.7862 323.181C71.7862 326.278 69.2741 328.789 66.1752 328.789C63.0764 328.789 60.5643 326.278 60.5643 323.181C60.5643 320.084 63.0764 317.573 66.1752 317.573C69.2741 317.573 71.7862 320.084 71.7862 323.181Z" fill="black" fill-opacity="0.02"/>
<path d="M101.367 323.181C101.367 326.278 98.8551 328.789 95.7563 328.789C92.6574 328.789 90.1453 326.278 90.1453 323.181C90.1453 320.084 92.6574 317.573 95.7563 317.573C98.8551 317.573 101.367 320.084 101.367 323.181Z" fill="black" fill-opacity="0.02"/>
<path d="M130.948 323.181C130.948 326.278 128.436 328.789 125.337 328.789C122.238 328.789 119.726 326.278 119.726 323.181C119.726 320.084 122.238 317.573 125.337 317.573C128.436 317.573 130.948 320.084 130.948 323.181Z" fill="black" fill-opacity="0.02"/>
<path d="M160.529 323.181C160.529 326.278 158.017 328.789 154.918 328.789C151.819 328.789 149.307 326.278 149.307 323.181C149.307 320.084 151.819 317.573 154.918 317.573C158.017 317.573 160.529 320.084 160.529 323.181Z" fill="black" fill-opacity="0.02"/>
<path d="M190.11 323.181C190.11 326.278 187.598 328.789 184.499 328.789C181.4 328.789 178.888 326.278 178.888 323.181C178.888 320.084 181.4 317.573 184.499 317.573C187.598 317.573 190.11 320.084 190.11 323.181Z" fill="black" fill-opacity="0.02"/>
<path d="M219.155 -2.01804C219.155 1.07914 216.643 3.58989 213.545 3.58989C210.446 3.58989 207.934 1.07914 207.934 -2.01804C207.934 -5.11522 210.446 -7.62598 213.545 -7.62598C216.643 -7.62598 219.155 -5.11522 219.155 -2.01804Z" fill="black" fill-opacity="0.02"/>
<path d="M248.737 -2.01804C248.737 1.07914 246.224 3.58989 243.126 3.58989C240.027 3.58989 237.515 1.07914 237.515 -2.01804C237.515 -5.11522 240.027 -7.62598 243.126 -7.62598C246.224 -7.62598 248.737 -5.11522 248.737 -2.01804Z" fill="black" fill-opacity="0.02"/>
<path d="M278.318 -2.01804C278.318 1.07914 275.805 3.58989 272.707 3.58989C269.608 3.58989 267.096 1.07914 267.096 -2.01804C267.096 -5.11522 269.608 -7.62598 272.707 -7.62598C275.805 -7.62598 278.318 -5.11522 278.318 -2.01804Z" fill="black" fill-opacity="0.02"/>
<path d="M307.899 -2.01804C307.899 1.07914 305.386 3.58989 302.288 3.58989C299.189 3.58989 296.677 1.07914 296.677 -2.01804C296.677 -5.11522 299.189 -7.62598 302.288 -7.62598C305.386 -7.62598 307.899 -5.11522 307.899 -2.01804Z" fill="black" fill-opacity="0.02"/>
<path d="M337.48 -2.01804C337.48 1.07914 334.967 3.58989 331.869 3.58989C328.77 3.58989 326.258 1.07914 326.258 -2.01804C326.258 -5.11522 328.77 -7.62598 331.869 -7.62598C334.967 -7.62598 337.48 -5.11522 337.48 -2.01804Z" fill="black" fill-opacity="0.02"/>
<path d="M367.061 -2.01804C367.061 1.07914 364.548 3.58989 361.45 3.58989C358.351 3.58989 355.839 1.07914 355.839 -2.01804C355.839 -5.11522 358.351 -7.62598 361.45 -7.62598C364.548 -7.62598 367.061 -5.11522 367.061 -2.01804Z" fill="black" fill-opacity="0.02"/>
<path d="M396.642 -2.01804C396.642 1.07914 394.13 3.58989 391.031 3.58989C387.932 3.58989 385.42 1.07914 385.42 -2.01804C385.42 -5.11522 387.932 -7.62598 391.031 -7.62598C394.13 -7.62598 396.642 -5.11522 396.642 -2.01804Z" fill="black" fill-opacity="0.02"/>
<path d="M426.223 -2.01804C426.223 1.07914 423.711 3.58989 420.612 3.58989C417.513 3.58989 415.001 1.07914 415.001 -2.01804C415.001 -5.11522 417.513 -7.62598 420.612 -7.62598C423.711 -7.62598 426.223 -5.11522 426.223 -2.01804Z" fill="black" fill-opacity="0.02"/>
<path d="M455.804 -2.01804C455.804 1.07914 453.292 3.58989 450.193 3.58989C447.094 3.58989 444.582 1.07914 444.582 -2.01804C444.582 -5.11522 447.094 -7.62598 450.193 -7.62598C453.292 -7.62598 455.804 -5.11522 455.804 -2.01804Z" fill="black" fill-opacity="0.02"/>
<path d="M485.385 -2.01804C485.385 1.07914 482.873 3.58989 479.774 3.58989C476.675 3.58989 474.163 1.07914 474.163 -2.01804C474.163 -5.11522 476.675 -7.62598 479.774 -7.62598C482.873 -7.62598 485.385 -5.11522 485.385 -2.01804Z" fill="black" fill-opacity="0.02"/>
<path d="M219.155 86.6766C219.155 89.7738 216.643 92.2846 213.545 92.2846C210.446 92.2846 207.934 89.7738 207.934 86.6766C207.934 83.5794 210.446 81.0687 213.545 81.0687C216.643 81.0687 219.155 83.5794 219.155 86.6766Z" fill="black" fill-opacity="0.02"/>
<path d="M248.737 86.6766C248.737 89.7738 246.224 92.2846 243.126 92.2846C240.027 92.2846 237.515 89.7738 237.515 86.6766C237.515 83.5794 240.027 81.0687 243.126 81.0687C246.224 81.0687 248.737 83.5794 248.737 86.6766Z" fill="black" fill-opacity="0.02"/>
<path d="M278.318 86.6766C278.318 89.7738 275.805 92.2846 272.707 92.2846C269.608 92.2846 267.096 89.7738 267.096 86.6766C267.096 83.5794 269.608 81.0687 272.707 81.0687C275.805 81.0687 278.318 83.5794 278.318 86.6766Z" fill="black" fill-opacity="0.02"/>
<path d="M307.899 86.6766C307.899 89.7738 305.386 92.2846 302.288 92.2846C299.189 92.2846 296.677 89.7738 296.677 86.6766C296.677 83.5794 299.189 81.0687 302.288 81.0687C305.386 81.0687 307.899 83.5794 307.899 86.6766Z" fill="black" fill-opacity="0.02"/>
<path d="M337.48 86.6766C337.48 89.7738 334.967 92.2846 331.869 92.2846C328.77 92.2846 326.258 89.7738 326.258 86.6766C326.258 83.5794 328.77 81.0687 331.869 81.0687C334.967 81.0687 337.48 83.5794 337.48 86.6766Z" fill="black" fill-opacity="0.02"/>
<path d="M367.061 86.6766C367.061 89.7738 364.548 92.2846 361.45 92.2846C358.351 92.2846 355.839 89.7738 355.839 86.6766C355.839 83.5794 358.351 81.0687 361.45 81.0687C364.548 81.0687 367.061 83.5794 367.061 86.6766Z" fill="black" fill-opacity="0.02"/>
<path d="M396.642 86.6766C396.642 89.7738 394.13 92.2846 391.031 92.2846C387.932 92.2846 385.42 89.7738 385.42 86.6766C385.42 83.5794 387.932 81.0687 391.031 81.0687C394.13 81.0687 396.642 83.5794 396.642 86.6766Z" fill="black" fill-opacity="0.02"/>
<path d="M426.223 86.6766C426.223 89.7738 423.711 92.2846 420.612 92.2846C417.513 92.2846 415.001 89.7738 415.001 86.6766C415.001 83.5794 417.513 81.0687 420.612 81.0687C423.711 81.0687 426.223 83.5794 426.223 86.6766Z" fill="black" fill-opacity="0.02"/>
<path d="M455.804 86.6766C455.804 89.7738 453.292 92.2846 450.193 92.2846C447.094 92.2846 444.582 89.7738 444.582 86.6766C444.582 83.5794 447.094 81.0687 450.193 81.0687C453.292 81.0687 455.804 83.5794 455.804 86.6766Z" fill="black" fill-opacity="0.02"/>
<path d="M485.385 86.6766C485.385 89.7738 482.873 92.2846 479.774 92.2846C476.675 92.2846 474.163 89.7738 474.163 86.6766C474.163 83.5794 476.675 81.0687 479.774 81.0687C482.873 81.0687 485.385 83.5794 485.385 86.6766Z" fill="black" fill-opacity="0.02"/>
<path d="M219.155 27.5468C219.155 30.644 216.643 33.1548 213.545 33.1548C210.446 33.1548 207.934 30.644 207.934 27.5468C207.934 24.4497 210.446 21.9389 213.545 21.9389C216.643 21.9389 219.155 24.4497 219.155 27.5468Z" fill="black" fill-opacity="0.02"/>
<path d="M248.737 27.5468C248.737 30.644 246.224 33.1548 243.126 33.1548C240.027 33.1548 237.515 30.644 237.515 27.5468C237.515 24.4497 240.027 21.9389 243.126 21.9389C246.224 21.9389 248.737 24.4497 248.737 27.5468Z" fill="black" fill-opacity="0.02"/>
<path d="M278.318 27.5468C278.318 30.644 275.805 33.1548 272.707 33.1548C269.608 33.1548 267.096 30.644 267.096 27.5468C267.096 24.4497 269.608 21.9389 272.707 21.9389C275.805 21.9389 278.318 24.4497 278.318 27.5468Z" fill="black" fill-opacity="0.02"/>
<path d="M307.899 27.5468C307.899 30.644 305.386 33.1548 302.288 33.1548C299.189 33.1548 296.677 30.644 296.677 27.5468C296.677 24.4497 299.189 21.9389 302.288 21.9389C305.386 21.9389 307.899 24.4497 307.899 27.5468Z" fill="black" fill-opacity="0.02"/>
<path d="M337.48 27.5468C337.48 30.644 334.967 33.1548 331.869 33.1548C328.77 33.1548 326.258 30.644 326.258 27.5468C326.258 24.4497 328.77 21.9389 331.869 21.9389C334.967 21.9389 337.48 24.4497 337.48 27.5468Z" fill="black" fill-opacity="0.02"/>
<path d="M367.061 27.5468C367.061 30.644 364.548 33.1548 361.45 33.1548C358.351 33.1548 355.839 30.644 355.839 27.5468C355.839 24.4497 358.351 21.9389 361.45 21.9389C364.548 21.9389 367.061 24.4497 367.061 27.5468Z" fill="black" fill-opacity="0.02"/>
<path d="M396.642 27.5468C396.642 30.644 394.13 33.1548 391.031 33.1548C387.932 33.1548 385.42 30.644 385.42 27.5468C385.42 24.4497 387.932 21.9389 391.031 21.9389C394.13 21.9389 396.642 24.4497 396.642 27.5468Z" fill="black" fill-opacity="0.02"/>
<path d="M426.223 27.5468C426.223 30.644 423.711 33.1548 420.612 33.1548C417.513 33.1548 415.001 30.644 415.001 27.5468C415.001 24.4497 417.513 21.9389 420.612 21.9389C423.711 21.9389 426.223 24.4497 426.223 27.5468Z" fill="black" fill-opacity="0.02"/>
<path d="M455.804 27.5468C455.804 30.644 453.292 33.1548 450.193 33.1548C447.094 33.1548 444.582 30.644 444.582 27.5468C444.582 24.4497 447.094 21.9389 450.193 21.9389C453.292 21.9389 455.804 24.4497 455.804 27.5468Z" fill="black" fill-opacity="0.02"/>
<path d="M485.385 27.5468C485.385 30.644 482.873 33.1548 479.774 33.1548C476.675 33.1548 474.163 30.644 474.163 27.5468C474.163 24.4497 476.675 21.9389 479.774 21.9389C482.873 21.9389 485.385 24.4497 485.385 27.5468Z" fill="black" fill-opacity="0.02"/>
<path d="M219.155 116.242C219.155 119.339 216.643 121.849 213.545 121.849C210.446 121.849 207.934 119.339 207.934 116.242C207.934 113.144 210.446 110.634 213.545 110.634C216.643 110.634 219.155 113.144 219.155 116.242Z" fill="black" fill-opacity="0.02"/>
<path d="M248.737 116.242C248.737 119.339 246.224 121.849 243.126 121.849C240.027 121.849 237.515 119.339 237.515 116.242C237.515 113.144 240.027 110.634 243.126 110.634C246.224 110.634 248.737 113.144 248.737 116.242Z" fill="black" fill-opacity="0.02"/>
<path d="M278.318 116.242C278.318 119.339 275.805 121.849 272.707 121.849C269.608 121.849 267.096 119.339 267.096 116.242C267.096 113.144 269.608 110.634 272.707 110.634C275.805 110.634 278.318 113.144 278.318 116.242Z" fill="black" fill-opacity="0.02"/>
<path d="M307.899 116.242C307.899 119.339 305.386 121.849 302.288 121.849C299.189 121.849 296.677 119.339 296.677 116.242C296.677 113.144 299.189 110.634 302.288 110.634C305.386 110.634 307.899 113.144 307.899 116.242Z" fill="black" fill-opacity="0.02"/>
<path d="M337.48 116.242C337.48 119.339 334.967 121.849 331.869 121.849C328.77 121.849 326.258 119.339 326.258 116.242C326.258 113.144 328.77 110.634 331.869 110.634C334.967 110.634 337.48 113.144 337.48 116.242Z" fill="black" fill-opacity="0.02"/>
<path d="M367.061 116.242C367.061 119.339 364.548 121.849 361.45 121.849C358.351 121.849 355.839 119.339 355.839 116.242C355.839 113.144 358.351 110.634 361.45 110.634C364.548 110.634 367.061 113.144 367.061 116.242Z" fill="black" fill-opacity="0.02"/>
<path d="M396.642 116.242C396.642 119.339 394.13 121.849 391.031 121.849C387.932 121.849 385.42 119.339 385.42 116.242C385.42 113.144 387.932 110.634 391.031 110.634C394.13 110.634 396.642 113.144 396.642 116.242Z" fill="black" fill-opacity="0.02"/>
<path d="M426.223 116.242C426.223 119.339 423.711 121.849 420.612 121.849C417.513 121.849 415.001 119.339 415.001 116.242C415.001 113.144 417.513 110.634 420.612 110.634C423.711 110.634 426.223 113.144 426.223 116.242Z" fill="black" fill-opacity="0.02"/>
<path d="M455.804 116.242C455.804 119.339 453.292 121.849 450.193 121.849C447.094 121.849 444.582 119.339 444.582 116.242C444.582 113.144 447.094 110.634 450.193 110.634C453.292 110.634 455.804 113.144 455.804 116.242Z" fill="black" fill-opacity="0.02"/>
<path d="M485.385 116.242C485.385 119.339 482.873 121.849 479.774 121.849C476.675 121.849 474.163 119.339 474.163 116.242C474.163 113.144 476.675 110.634 479.774 110.634C482.873 110.634 485.385 113.144 485.385 116.242Z" fill="black" fill-opacity="0.02"/>
<path d="M219.155 57.1117C219.155 60.2089 216.643 62.7197 213.545 62.7197C210.446 62.7197 207.934 60.2089 207.934 57.1117C207.934 54.0146 210.446 51.5038 213.545 51.5038C216.643 51.5038 219.155 54.0146 219.155 57.1117Z" fill="black" fill-opacity="0.02"/>
<path d="M248.737 57.1117C248.737 60.2089 246.224 62.7197 243.126 62.7197C240.027 62.7197 237.515 60.2089 237.515 57.1117C237.515 54.0146 240.027 51.5038 243.126 51.5038C246.224 51.5038 248.737 54.0146 248.737 57.1117Z" fill="black" fill-opacity="0.02"/>
<path d="M278.318 57.1117C278.318 60.2089 275.805 62.7197 272.707 62.7197C269.608 62.7197 267.096 60.2089 267.096 57.1117C267.096 54.0146 269.608 51.5038 272.707 51.5038C275.805 51.5038 278.318 54.0146 278.318 57.1117Z" fill="black" fill-opacity="0.02"/>
<path d="M307.899 57.1117C307.899 60.2089 305.386 62.7197 302.288 62.7197C299.189 62.7197 296.677 60.2089 296.677 57.1117C296.677 54.0146 299.189 51.5038 302.288 51.5038C305.386 51.5038 307.899 54.0146 307.899 57.1117Z" fill="black" fill-opacity="0.02"/>
<path d="M337.48 57.1117C337.48 60.2089 334.967 62.7197 331.869 62.7197C328.77 62.7197 326.258 60.2089 326.258 57.1117C326.258 54.0146 328.77 51.5038 331.869 51.5038C334.967 51.5038 337.48 54.0146 337.48 57.1117Z" fill="black" fill-opacity="0.02"/>
<path d="M367.061 57.1117C367.061 60.2089 364.548 62.7197 361.45 62.7197C358.351 62.7197 355.839 60.2089 355.839 57.1117C355.839 54.0146 358.351 51.5038 361.45 51.5038C364.548 51.5038 367.061 54.0146 367.061 57.1117Z" fill="black" fill-opacity="0.02"/>
<path d="M396.642 57.1117C396.642 60.2089 394.13 62.7197 391.031 62.7197C387.932 62.7197 385.42 60.2089 385.42 57.1117C385.42 54.0146 387.932 51.5038 391.031 51.5038C394.13 51.5038 396.642 54.0146 396.642 57.1117Z" fill="black" fill-opacity="0.02"/>
<path d="M426.223 57.1117C426.223 60.2089 423.711 62.7197 420.612 62.7197C417.513 62.7197 415.001 60.2089 415.001 57.1117C415.001 54.0146 417.513 51.5038 420.612 51.5038C423.711 51.5038 426.223 54.0146 426.223 57.1117Z" fill="black" fill-opacity="0.02"/>
<path d="M455.804 57.1117C455.804 60.2089 453.292 62.7197 450.193 62.7197C447.094 62.7197 444.582 60.2089 444.582 57.1117C444.582 54.0146 447.094 51.5038 450.193 51.5038C453.292 51.5038 455.804 54.0146 455.804 57.1117Z" fill="black" fill-opacity="0.02"/>
<path d="M485.385 57.1117C485.385 60.2089 482.873 62.7197 479.774 62.7197C476.675 62.7197 474.163 60.2089 474.163 57.1117C474.163 54.0146 476.675 51.5038 479.774 51.5038C482.873 51.5038 485.385 54.0146 485.385 57.1117Z" fill="black" fill-opacity="0.02"/>
<path d="M219.155 145.806C219.155 148.904 216.643 151.414 213.545 151.414C210.446 151.414 207.934 148.904 207.934 145.806C207.934 142.709 210.446 140.198 213.545 140.198C216.643 140.198 219.155 142.709 219.155 145.806Z" fill="black" fill-opacity="0.02"/>
<path d="M248.737 145.806C248.737 148.904 246.224 151.414 243.126 151.414C240.027 151.414 237.515 148.904 237.515 145.806C237.515 142.709 240.027 140.198 243.126 140.198C246.224 140.198 248.737 142.709 248.737 145.806Z" fill="black" fill-opacity="0.02"/>
<path d="M278.318 145.806C278.318 148.904 275.805 151.414 272.707 151.414C269.608 151.414 267.096 148.904 267.096 145.806C267.096 142.709 269.608 140.198 272.707 140.198C275.805 140.198 278.318 142.709 278.318 145.806Z" fill="black" fill-opacity="0.02"/>
<path d="M307.899 145.806C307.899 148.904 305.386 151.414 302.288 151.414C299.189 151.414 296.677 148.904 296.677 145.806C296.677 142.709 299.189 140.198 302.288 140.198C305.386 140.198 307.899 142.709 307.899 145.806Z" fill="black" fill-opacity="0.02"/>
<path d="M337.48 145.806C337.48 148.904 334.967 151.414 331.869 151.414C328.77 151.414 326.258 148.904 326.258 145.806C326.258 142.709 328.77 140.198 331.869 140.198C334.967 140.198 337.48 142.709 337.48 145.806Z" fill="black" fill-opacity="0.02"/>
<path d="M367.061 145.806C367.061 148.904 364.548 151.414 361.45 151.414C358.351 151.414 355.839 148.904 355.839 145.806C355.839 142.709 358.351 140.198 361.45 140.198C364.548 140.198 367.061 142.709 367.061 145.806Z" fill="black" fill-opacity="0.02"/>
<path d="M396.642 145.806C396.642 148.904 394.13 151.414 391.031 151.414C387.932 151.414 385.42 148.904 385.42 145.806C385.42 142.709 387.932 140.198 391.031 140.198C394.13 140.198 396.642 142.709 396.642 145.806Z" fill="black" fill-opacity="0.02"/>
<path d="M426.223 145.806C426.223 148.904 423.711 151.414 420.612 151.414C417.513 151.414 415.001 148.904 415.001 145.806C415.001 142.709 417.513 140.198 420.612 140.198C423.711 140.198 426.223 142.709 426.223 145.806Z" fill="black" fill-opacity="0.02"/>
<path d="M455.804 145.806C455.804 148.904 453.292 151.414 450.193 151.414C447.094 151.414 444.582 148.904 444.582 145.806C444.582 142.709 447.094 140.198 450.193 140.198C453.292 140.198 455.804 142.709 455.804 145.806Z" fill="black" fill-opacity="0.02"/>
<path d="M485.385 145.806C485.385 148.904 482.873 151.414 479.774 151.414C476.675 151.414 474.163 148.904 474.163 145.806C474.163 142.709 476.675 140.198 479.774 140.198C482.873 140.198 485.385 142.709 485.385 145.806Z" fill="black" fill-opacity="0.02"/>
<path d="M219.155 175.356C219.155 178.454 216.643 180.964 213.545 180.964C210.446 180.964 207.934 178.454 207.934 175.356C207.934 172.259 210.446 169.748 213.545 169.748C216.643 169.748 219.155 172.259 219.155 175.356Z" fill="black" fill-opacity="0.02"/>
<path d="M248.737 175.356C248.737 178.454 246.224 180.964 243.126 180.964C240.027 180.964 237.515 178.454 237.515 175.356C237.515 172.259 240.027 169.748 243.126 169.748C246.224 169.748 248.737 172.259 248.737 175.356Z" fill="black" fill-opacity="0.02"/>
<path d="M278.318 175.356C278.318 178.454 275.805 180.964 272.707 180.964C269.608 180.964 267.096 178.454 267.096 175.356C267.096 172.259 269.608 169.748 272.707 169.748C275.805 169.748 278.318 172.259 278.318 175.356Z" fill="black" fill-opacity="0.02"/>
<path d="M307.899 175.356C307.899 178.454 305.386 180.964 302.288 180.964C299.189 180.964 296.677 178.454 296.677 175.356C296.677 172.259 299.189 169.748 302.288 169.748C305.386 169.748 307.899 172.259 307.899 175.356Z" fill="black" fill-opacity="0.02"/>
<path d="M337.48 175.356C337.48 178.454 334.967 180.964 331.869 180.964C328.77 180.964 326.258 178.454 326.258 175.356C326.258 172.259 328.77 169.748 331.869 169.748C334.967 169.748 337.48 172.259 337.48 175.356Z" fill="black" fill-opacity="0.02"/>
<path d="M367.061 175.356C367.061 178.454 364.548 180.964 361.45 180.964C358.351 180.964 355.839 178.454 355.839 175.356C355.839 172.259 358.351 169.748 361.45 169.748C364.548 169.748 367.061 172.259 367.061 175.356Z" fill="black" fill-opacity="0.02"/>
<path d="M396.642 175.356C396.642 178.454 394.13 180.964 391.031 180.964C387.932 180.964 385.42 178.454 385.42 175.356C385.42 172.259 387.932 169.748 391.031 169.748C394.13 169.748 396.642 172.259 396.642 175.356Z" fill="black" fill-opacity="0.02"/>
<path d="M426.223 175.356C426.223 178.454 423.711 180.964 420.612 180.964C417.513 180.964 415.001 178.454 415.001 175.356C415.001 172.259 417.513 169.748 420.612 169.748C423.711 169.748 426.223 172.259 426.223 175.356Z" fill="black" fill-opacity="0.02"/>
<path d="M455.804 175.356C455.804 178.454 453.292 180.964 450.193 180.964C447.094 180.964 444.582 178.454 444.582 175.356C444.582 172.259 447.094 169.748 450.193 169.748C453.292 169.748 455.804 172.259 455.804 175.356Z" fill="black" fill-opacity="0.02"/>
<path d="M485.385 175.356C485.385 178.454 482.873 180.964 479.774 180.964C476.675 180.964 474.163 178.454 474.163 175.356C474.163 172.259 476.675 169.748 479.774 169.748C482.873 169.748 485.385 172.259 485.385 175.356Z" fill="black" fill-opacity="0.02"/>
<path d="M219.155 264.051C219.155 267.148 216.643 269.659 213.545 269.659C210.446 269.659 207.934 267.148 207.934 264.051C207.934 260.954 210.446 258.443 213.545 258.443C216.643 258.443 219.155 260.954 219.155 264.051Z" fill="black" fill-opacity="0.02"/>
<path d="M248.737 264.051C248.737 267.148 246.224 269.659 243.126 269.659C240.027 269.659 237.515 267.148 237.515 264.051C237.515 260.954 240.027 258.443 243.126 258.443C246.224 258.443 248.737 260.954 248.737 264.051Z" fill="black" fill-opacity="0.02"/>
<path d="M278.318 264.051C278.318 267.148 275.805 269.659 272.707 269.659C269.608 269.659 267.096 267.148 267.096 264.051C267.096 260.954 269.608 258.443 272.707 258.443C275.805 258.443 278.318 260.954 278.318 264.051Z" fill="black" fill-opacity="0.02"/>
<path d="M307.899 264.051C307.899 267.148 305.386 269.659 302.288 269.659C299.189 269.659 296.677 267.148 296.677 264.051C296.677 260.954 299.189 258.443 302.288 258.443C305.386 258.443 307.899 260.954 307.899 264.051Z" fill="black" fill-opacity="0.02"/>
<path d="M337.48 264.051C337.48 267.148 334.967 269.659 331.869 269.659C328.77 269.659 326.258 267.148 326.258 264.051C326.258 260.954 328.77 258.443 331.869 258.443C334.967 258.443 337.48 260.954 337.48 264.051Z" fill="black" fill-opacity="0.02"/>
<path d="M367.061 264.051C367.061 267.148 364.548 269.659 361.45 269.659C358.351 269.659 355.839 267.148 355.839 264.051C355.839 260.954 358.351 258.443 361.45 258.443C364.548 258.443 367.061 260.954 367.061 264.051Z" fill="black" fill-opacity="0.02"/>
<path d="M396.642 264.051C396.642 267.148 394.13 269.659 391.031 269.659C387.932 269.659 385.42 267.148 385.42 264.051C385.42 260.954 387.932 258.443 391.031 258.443C394.13 258.443 396.642 260.954 396.642 264.051Z" fill="black" fill-opacity="0.02"/>
<path d="M426.223 264.051C426.223 267.148 423.711 269.659 420.612 269.659C417.513 269.659 415.001 267.148 415.001 264.051C415.001 260.954 417.513 258.443 420.612 258.443C423.711 258.443 426.223 260.954 426.223 264.051Z" fill="black" fill-opacity="0.02"/>
<path d="M455.804 264.051C455.804 267.148 453.292 269.659 450.193 269.659C447.094 269.659 444.582 267.148 444.582 264.051C444.582 260.954 447.094 258.443 450.193 258.443C453.292 258.443 455.804 260.954 455.804 264.051Z" fill="black" fill-opacity="0.02"/>
<path d="M485.385 264.051C485.385 267.148 482.873 269.659 479.774 269.659C476.675 269.659 474.163 267.148 474.163 264.051C474.163 260.954 476.675 258.443 479.774 258.443C482.873 258.443 485.385 260.954 485.385 264.051Z" fill="black" fill-opacity="0.02"/>
<path d="M219.155 204.921C219.155 208.018 216.643 210.529 213.545 210.529C210.446 210.529 207.934 208.018 207.934 204.921C207.934 201.824 210.446 199.313 213.545 199.313C216.643 199.313 219.155 201.824 219.155 204.921Z" fill="black" fill-opacity="0.02"/>
<path d="M248.737 204.921C248.737 208.018 246.224 210.529 243.126 210.529C240.027 210.529 237.515 208.018 237.515 204.921C237.515 201.824 240.027 199.313 243.126 199.313C246.224 199.313 248.737 201.824 248.737 204.921Z" fill="black" fill-opacity="0.02"/>
<path d="M278.318 204.921C278.318 208.018 275.805 210.529 272.707 210.529C269.608 210.529 267.096 208.018 267.096 204.921C267.096 201.824 269.608 199.313 272.707 199.313C275.805 199.313 278.318 201.824 278.318 204.921Z" fill="black" fill-opacity="0.02"/>
<path d="M307.899 204.921C307.899 208.018 305.386 210.529 302.288 210.529C299.189 210.529 296.677 208.018 296.677 204.921C296.677 201.824 299.189 199.313 302.288 199.313C305.386 199.313 307.899 201.824 307.899 204.921Z" fill="black" fill-opacity="0.02"/>
<path d="M337.48 204.921C337.48 208.018 334.967 210.529 331.869 210.529C328.77 210.529 326.258 208.018 326.258 204.921C326.258 201.824 328.77 199.313 331.869 199.313C334.967 199.313 337.48 201.824 337.48 204.921Z" fill="black" fill-opacity="0.02"/>
<path d="M367.061 204.921C367.061 208.018 364.548 210.529 361.45 210.529C358.351 210.529 355.839 208.018 355.839 204.921C355.839 201.824 358.351 199.313 361.45 199.313C364.548 199.313 367.061 201.824 367.061 204.921Z" fill="black" fill-opacity="0.02"/>
<path d="M396.642 204.921C396.642 208.018 394.13 210.529 391.031 210.529C387.932 210.529 385.42 208.018 385.42 204.921C385.42 201.824 387.932 199.313 391.031 199.313C394.13 199.313 396.642 201.824 396.642 204.921Z" fill="black" fill-opacity="0.02"/>
<path d="M426.223 204.921C426.223 208.018 423.711 210.529 420.612 210.529C417.513 210.529 415.001 208.018 415.001 204.921C415.001 201.824 417.513 199.313 420.612 199.313C423.711 199.313 426.223 201.824 426.223 204.921Z" fill="black" fill-opacity="0.02"/>
<path d="M455.804 204.921C455.804 208.018 453.292 210.529 450.193 210.529C447.094 210.529 444.582 208.018 444.582 204.921C444.582 201.824 447.094 199.313 450.193 199.313C453.292 199.313 455.804 201.824 455.804 204.921Z" fill="black" fill-opacity="0.02"/>
<path d="M485.385 204.921C485.385 208.018 482.873 210.529 479.774 210.529C476.675 210.529 474.163 208.018 474.163 204.921C474.163 201.824 476.675 199.313 479.774 199.313C482.873 199.313 485.385 201.824 485.385 204.921Z" fill="black" fill-opacity="0.02"/>
<path d="M219.155 293.616C219.155 296.713 216.643 299.224 213.545 299.224C210.446 299.224 207.934 296.713 207.934 293.616C207.934 290.519 210.446 288.008 213.545 288.008C216.643 288.008 219.155 290.519 219.155 293.616Z" fill="black" fill-opacity="0.02"/>
<path d="M248.737 293.616C248.737 296.713 246.224 299.224 243.126 299.224C240.027 299.224 237.515 296.713 237.515 293.616C237.515 290.519 240.027 288.008 243.126 288.008C246.224 288.008 248.737 290.519 248.737 293.616Z" fill="black" fill-opacity="0.02"/>
<path d="M278.318 293.616C278.318 296.713 275.805 299.224 272.707 299.224C269.608 299.224 267.096 296.713 267.096 293.616C267.096 290.519 269.608 288.008 272.707 288.008C275.805 288.008 278.318 290.519 278.318 293.616Z" fill="black" fill-opacity="0.02"/>
<path d="M307.899 293.616C307.899 296.713 305.386 299.224 302.288 299.224C299.189 299.224 296.677 296.713 296.677 293.616C296.677 290.519 299.189 288.008 302.288 288.008C305.386 288.008 307.899 290.519 307.899 293.616Z" fill="black" fill-opacity="0.02"/>
<path d="M337.48 293.616C337.48 296.713 334.967 299.224 331.869 299.224C328.77 299.224 326.258 296.713 326.258 293.616C326.258 290.519 328.77 288.008 331.869 288.008C334.967 288.008 337.48 290.519 337.48 293.616Z" fill="black" fill-opacity="0.02"/>
<path d="M367.061 293.616C367.061 296.713 364.548 299.224 361.45 299.224C358.351 299.224 355.839 296.713 355.839 293.616C355.839 290.519 358.351 288.008 361.45 288.008C364.548 288.008 367.061 290.519 367.061 293.616Z" fill="black" fill-opacity="0.02"/>
<path d="M396.642 293.616C396.642 296.713 394.13 299.224 391.031 299.224C387.932 299.224 385.42 296.713 385.42 293.616C385.42 290.519 387.932 288.008 391.031 288.008C394.13 288.008 396.642 290.519 396.642 293.616Z" fill="black" fill-opacity="0.02"/>
<path d="M426.223 293.616C426.223 296.713 423.711 299.224 420.612 299.224C417.513 299.224 415.001 296.713 415.001 293.616C415.001 290.519 417.513 288.008 420.612 288.008C423.711 288.008 426.223 290.519 426.223 293.616Z" fill="black" fill-opacity="0.02"/>
<path d="M455.804 293.616C455.804 296.713 453.292 299.224 450.193 299.224C447.094 299.224 444.582 296.713 444.582 293.616C444.582 290.519 447.094 288.008 450.193 288.008C453.292 288.008 455.804 290.519 455.804 293.616Z" fill="black" fill-opacity="0.02"/>
<path d="M485.385 293.616C485.385 296.713 482.873 299.224 479.774 299.224C476.675 299.224 474.163 296.713 474.163 293.616C474.163 290.519 476.675 288.008 479.774 288.008C482.873 288.008 485.385 290.519 485.385 293.616Z" fill="black" fill-opacity="0.02"/>
<path d="M219.155 234.486C219.155 237.583 216.643 240.094 213.545 240.094C210.446 240.094 207.934 237.583 207.934 234.486C207.934 231.389 210.446 228.878 213.545 228.878C216.643 228.878 219.155 231.389 219.155 234.486Z" fill="black" fill-opacity="0.02"/>
<path d="M248.737 234.486C248.737 237.583 246.224 240.094 243.126 240.094C240.027 240.094 237.515 237.583 237.515 234.486C237.515 231.389 240.027 228.878 243.126 228.878C246.224 228.878 248.737 231.389 248.737 234.486Z" fill="black" fill-opacity="0.02"/>
<path d="M278.318 234.486C278.318 237.583 275.805 240.094 272.707 240.094C269.608 240.094 267.096 237.583 267.096 234.486C267.096 231.389 269.608 228.878 272.707 228.878C275.805 228.878 278.318 231.389 278.318 234.486Z" fill="black" fill-opacity="0.02"/>
<path d="M307.899 234.486C307.899 237.583 305.386 240.094 302.288 240.094C299.189 240.094 296.677 237.583 296.677 234.486C296.677 231.389 299.189 228.878 302.288 228.878C305.386 228.878 307.899 231.389 307.899 234.486Z" fill="black" fill-opacity="0.02"/>
<path d="M337.48 234.486C337.48 237.583 334.967 240.094 331.869 240.094C328.77 240.094 326.258 237.583 326.258 234.486C326.258 231.389 328.77 228.878 331.869 228.878C334.967 228.878 337.48 231.389 337.48 234.486Z" fill="black" fill-opacity="0.02"/>
<path d="M367.061 234.486C367.061 237.583 364.548 240.094 361.45 240.094C358.351 240.094 355.839 237.583 355.839 234.486C355.839 231.389 358.351 228.878 361.45 228.878C364.548 228.878 367.061 231.389 367.061 234.486Z" fill="black" fill-opacity="0.02"/>
<path d="M396.642 234.486C396.642 237.583 394.13 240.094 391.031 240.094C387.932 240.094 385.42 237.583 385.42 234.486C385.42 231.389 387.932 228.878 391.031 228.878C394.13 228.878 396.642 231.389 396.642 234.486Z" fill="black" fill-opacity="0.02"/>
<path d="M426.223 234.486C426.223 237.583 423.711 240.094 420.612 240.094C417.513 240.094 415.001 237.583 415.001 234.486C415.001 231.389 417.513 228.878 420.612 228.878C423.711 228.878 426.223 231.389 426.223 234.486Z" fill="black" fill-opacity="0.02"/>
<path d="M455.804 234.486C455.804 237.583 453.292 240.094 450.193 240.094C447.094 240.094 444.582 237.583 444.582 234.486C444.582 231.389 447.094 228.878 450.193 228.878C453.292 228.878 455.804 231.389 455.804 234.486Z" fill="black" fill-opacity="0.02"/>
<path d="M485.385 234.486C485.385 237.583 482.873 240.094 479.774 240.094C476.675 240.094 474.163 237.583 474.163 234.486C474.163 231.389 476.675 228.878 479.774 228.878C482.873 228.878 485.385 231.389 485.385 234.486Z" fill="black" fill-opacity="0.02"/>
<path d="M219.155 323.181C219.155 326.278 216.643 328.789 213.545 328.789C210.446 328.789 207.934 326.278 207.934 323.181C207.934 320.084 210.446 317.573 213.545 317.573C216.643 317.573 219.155 320.084 219.155 323.181Z" fill="black" fill-opacity="0.02"/>
<path d="M248.737 323.181C248.737 326.278 246.224 328.789 243.126 328.789C240.027 328.789 237.515 326.278 237.515 323.181C237.515 320.084 240.027 317.573 243.126 317.573C246.224 317.573 248.737 320.084 248.737 323.181Z" fill="black" fill-opacity="0.02"/>
<path d="M278.318 323.181C278.318 326.278 275.805 328.789 272.707 328.789C269.608 328.789 267.096 326.278 267.096 323.181C267.096 320.084 269.608 317.573 272.707 317.573C275.805 317.573 278.318 320.084 278.318 323.181Z" fill="black" fill-opacity="0.02"/>
<path d="M307.899 323.181C307.899 326.278 305.386 328.789 302.288 328.789C299.189 328.789 296.677 326.278 296.677 323.181C296.677 320.084 299.189 317.573 302.288 317.573C305.386 317.573 307.899 320.084 307.899 323.181Z" fill="black" fill-opacity="0.02"/>
<path d="M337.48 323.181C337.48 326.278 334.967 328.789 331.869 328.789C328.77 328.789 326.258 326.278 326.258 323.181C326.258 320.084 328.77 317.573 331.869 317.573C334.967 317.573 337.48 320.084 337.48 323.181Z" fill="black" fill-opacity="0.02"/>
<path d="M367.061 323.181C367.061 326.278 364.548 328.789 361.45 328.789C358.351 328.789 355.839 326.278 355.839 323.181C355.839 320.084 358.351 317.573 361.45 317.573C364.548 317.573 367.061 320.084 367.061 323.181Z" fill="black" fill-opacity="0.02"/>
<path d="M396.642 323.181C396.642 326.278 394.13 328.789 391.031 328.789C387.932 328.789 385.42 326.278 385.42 323.181C385.42 320.084 387.932 317.573 391.031 317.573C394.13 317.573 396.642 320.084 396.642 323.181Z" fill="black" fill-opacity="0.02"/>
<path d="M426.223 323.181C426.223 326.278 423.711 328.789 420.612 328.789C417.513 328.789 415.001 326.278 415.001 323.181C415.001 320.084 417.513 317.573 420.612 317.573C423.711 317.573 426.223 320.084 426.223 323.181Z" fill="black" fill-opacity="0.02"/>
<path d="M455.804 323.181C455.804 326.278 453.292 328.789 450.193 328.789C447.094 328.789 444.582 326.278 444.582 323.181C444.582 320.084 447.094 317.573 450.193 317.573C453.292 317.573 455.804 320.084 455.804 323.181Z" fill="black" fill-opacity="0.02"/>
<path d="M485.385 323.181C485.385 326.278 482.873 328.789 479.774 328.789C476.675 328.789 474.163 326.278 474.163 323.181C474.163 320.084 476.675 317.573 479.774 317.573C482.873 317.573 485.385 320.084 485.385 323.181Z" fill="black" fill-opacity="0.02"/>
</g>
<defs>
<linearGradient id="paint0_linear_339_6298" x1="411.955" y1="-2.70268" x2="-24.1039" y2="73.6322" gradientUnits="userSpaceOnUse">
<stop stop-color="#BFCAE1"/>
<stop offset="1" stop-color="#A4B2D0"/>
</linearGradient>
<linearGradient id="paint1_linear_339_6298" x1="415.11" y1="1.64666" x2="-34.4667" y2="174.164" gradientUnits="userSpaceOnUse">
<stop stop-color="#9A9A9A"/>
<stop offset="1" stop-color="#D3D3D3"/>
</linearGradient>
</defs>
</svg>
