<svg width="84" height="84" viewBox="0 0 84 84" fill="none" xmlns="http://www.w3.org/2000/svg">
<path d="M82.7051 37.4543C84.4316 40.4448 84.4316 44.1293 82.7051 47.1199L66.5379 75.1223C64.8113 78.1128 61.6204 79.9551 58.1672 79.9551H25.8328C22.3796 79.9551 19.1887 78.1128 17.4621 75.1223L1.29495 47.1199C-0.431649 44.1293 -0.43165 40.4448 1.29495 37.4543L17.4621 9.45186C19.1887 6.46131 22.3796 4.61906 25.8328 4.61906L58.1672 4.61906C61.6204 4.61906 64.8113 6.46131 66.5379 9.45187L82.7051 37.4543Z" fill="url(#paint0_linear_27_67)"/>
<path d="M79.8818 58.1672C79.8818 61.6204 78.0395 64.8113 75.049 66.5379L47.0466 82.705C44.056 84.4316 40.3715 84.4316 37.3809 82.705L9.37854 66.5378C6.38799 64.8113 4.54574 61.6204 4.54574 58.1672V25.8328C4.54574 22.3796 6.38799 19.1887 9.37854 17.4621L37.3809 1.29495C40.3715 -0.43165 44.056 -0.431648 47.0466 1.29495L75.049 17.4621C78.0395 19.1887 79.8818 22.3796 79.8818 25.8328V58.1672Z" fill="url(#paint1_linear_27_67)"/>
<path d="M19.5743 37V35.326C20.3423 34.69 21.0863 34.06 21.8063 33.436C22.5383 32.812 23.1863 32.194 23.7503 31.582C24.3263 30.97 24.7823 30.376 25.1183 29.8C25.4663 29.212 25.6403 28.642 25.6403 28.09C25.6403 27.574 25.4963 27.118 25.2083 26.722C24.9323 26.326 24.4703 26.128 23.8223 26.128C23.1623 26.128 22.6643 26.344 22.3283 26.776C21.9923 27.208 21.8243 27.73 21.8243 28.342H19.5923C19.6163 27.418 19.8203 26.65 20.2043 26.038C20.5883 25.414 21.0983 24.952 21.7343 24.652C22.3703 24.34 23.0843 24.184 23.8763 24.184C25.1603 24.184 26.1563 24.538 26.8643 25.246C27.5843 25.942 27.9443 26.848 27.9443 27.964C27.9443 28.66 27.7823 29.338 27.4583 29.998C27.1463 30.658 26.7323 31.294 26.2163 31.906C25.7003 32.518 25.1423 33.094 24.5423 33.634C23.9423 34.162 23.3603 34.654 22.7963 35.11H28.2503V37H19.5743ZM35.2416 37.216C34.0776 37.216 33.0816 36.946 32.2536 36.406C31.4256 35.854 30.7836 35.092 30.3276 34.12C29.8836 33.136 29.6616 31.996 29.6616 30.7C29.6616 29.416 29.8836 28.282 30.3276 27.298C30.7836 26.314 31.4256 25.552 32.2536 25.012C33.0816 24.46 34.0776 24.184 35.2416 24.184C36.4056 24.184 37.4016 24.46 38.2296 25.012C39.0576 25.552 39.6936 26.314 40.1376 27.298C40.5936 28.282 40.8216 29.416 40.8216 30.7C40.8216 31.996 40.5936 33.136 40.1376 34.12C39.6936 35.092 39.0576 35.854 38.2296 36.406C37.4016 36.946 36.4056 37.216 35.2416 37.216ZM35.2416 35.146C36.1896 35.146 36.9636 34.75 37.5636 33.958C38.1636 33.166 38.4636 32.08 38.4636 30.7C38.4636 29.32 38.1636 28.234 37.5636 27.442C36.9636 26.65 36.1896 26.254 35.2416 26.254C34.2816 26.254 33.5016 26.65 32.9016 27.442C32.3136 28.234 32.0196 29.32 32.0196 30.7C32.0196 32.08 32.3136 33.166 32.9016 33.958C33.5016 34.75 34.2816 35.146 35.2416 35.146ZM48.0209 37.216C46.8569 37.216 45.8609 36.946 45.0329 36.406C44.2049 35.854 43.5629 35.092 43.1069 34.12C42.6629 33.136 42.4409 31.996 42.4409 30.7C42.4409 29.416 42.6629 28.282 43.1069 27.298C43.5629 26.314 44.2049 25.552 45.0329 25.012C45.8609 24.46 46.8569 24.184 48.0209 24.184C49.1849 24.184 50.1809 24.46 51.0089 25.012C51.8369 25.552 52.4729 26.314 52.9169 27.298C53.3729 28.282 53.6009 29.416 53.6009 30.7C53.6009 31.996 53.3729 33.136 52.9169 34.12C52.4729 35.092 51.8369 35.854 51.0089 36.406C50.1809 36.946 49.1849 37.216 48.0209 37.216ZM48.0209 35.146C48.9689 35.146 49.7429 34.75 50.3429 33.958C50.9429 33.166 51.2429 32.08 51.2429 30.7C51.2429 29.32 50.9429 28.234 50.3429 27.442C49.7429 26.65 48.9689 26.254 48.0209 26.254C47.0609 26.254 46.2809 26.65 45.6809 27.442C45.0929 28.234 44.7989 29.32 44.7989 30.7C44.7989 32.08 45.0929 33.166 45.6809 33.958C46.2809 34.75 47.0609 35.146 48.0209 35.146ZM55.6342 37V24.4H60.2962C61.3042 24.4 62.1382 24.568 62.7982 24.904C63.4582 25.24 63.9502 25.702 64.2742 26.29C64.5982 26.878 64.7602 27.538 64.7602 28.27C64.7602 28.966 64.6042 29.608 64.2922 30.196C63.9802 30.772 63.4942 31.24 62.8342 31.6C62.1742 31.948 61.3282 32.122 60.2962 32.122H57.9382V37H55.6342ZM57.9382 30.25H60.1522C60.9562 30.25 61.5322 30.076 61.8802 29.728C62.2402 29.368 62.4202 28.882 62.4202 28.27C62.4202 27.646 62.2402 27.16 61.8802 26.812C61.5322 26.452 60.9562 26.272 60.1522 26.272H57.9382V30.25Z" fill="white"/>
<path opacity="0.9" d="M13.2225 56V46.2H16.8205C17.6045 46.2 18.2485 46.3353 18.7525 46.606C19.2658 46.8673 19.6485 47.2267 19.9005 47.684C20.1525 48.132 20.2785 48.6313 20.2785 49.182C20.2785 49.7793 20.1198 50.3253 19.8025 50.82C19.4945 51.3147 19.0092 51.674 18.3465 51.898L20.3765 56H18.3185L16.4985 52.136H15.0145V56H13.2225ZM15.0145 50.82H16.7085C17.3058 50.82 17.7445 50.6753 18.0245 50.386C18.3045 50.0967 18.4445 49.714 18.4445 49.238C18.4445 48.7713 18.3045 48.398 18.0245 48.118C17.7538 47.838 17.3105 47.698 16.6945 47.698H15.0145V50.82ZM24.8113 56.168C24.1393 56.168 23.5327 56.014 22.9913 55.706C22.4593 55.398 22.0347 54.9733 21.7173 54.432C21.4093 53.8813 21.2553 53.2467 21.2553 52.528C21.2553 51.8093 21.414 51.1793 21.7313 50.638C22.0487 50.0873 22.4733 49.658 23.0053 49.35C23.5467 49.042 24.1533 48.888 24.8253 48.888C25.488 48.888 26.0853 49.042 26.6173 49.35C27.1587 49.658 27.5833 50.0873 27.8913 50.638C28.2087 51.1793 28.3673 51.8093 28.3673 52.528C28.3673 53.2467 28.2087 53.8813 27.8913 54.432C27.5833 54.9733 27.1587 55.398 26.6173 55.706C26.076 56.014 25.474 56.168 24.8113 56.168ZM24.8113 54.614C25.278 54.614 25.684 54.4413 26.0293 54.096C26.3747 53.7413 26.5473 53.2187 26.5473 52.528C26.5473 51.8373 26.3747 51.3193 26.0293 50.974C25.684 50.6193 25.2827 50.442 24.8253 50.442C24.3493 50.442 23.9387 50.6193 23.5933 50.974C23.2573 51.3193 23.0893 51.8373 23.0893 52.528C23.0893 53.2187 23.2573 53.7413 23.5933 54.096C23.9387 54.4413 24.3447 54.614 24.8113 54.614ZM33.3716 56.168C32.6622 56.168 32.0369 56.014 31.4956 55.706C30.9542 55.398 30.5249 54.9687 30.2076 54.418C29.8996 53.8673 29.7456 53.2373 29.7456 52.528C29.7456 51.8187 29.8996 51.1887 30.2076 50.638C30.5249 50.0873 30.9542 49.658 31.4956 49.35C32.0369 49.042 32.6622 48.888 33.3716 48.888C34.2582 48.888 35.0049 49.1213 35.6116 49.588C36.2182 50.0453 36.6056 50.68 36.7736 51.492H34.8836C34.7902 51.156 34.6036 50.8947 34.3236 50.708C34.0529 50.512 33.7309 50.414 33.3576 50.414C32.8629 50.414 32.4429 50.6007 32.0976 50.974C31.7522 51.3473 31.5796 51.8653 31.5796 52.528C31.5796 53.1907 31.7522 53.7087 32.0976 54.082C32.4429 54.4553 32.8629 54.642 33.3576 54.642C33.7309 54.642 34.0529 54.5487 34.3236 54.362C34.6036 54.1753 34.7902 53.9093 34.8836 53.564H36.7736C36.6056 54.348 36.2182 54.978 35.6116 55.454C35.0049 55.93 34.2582 56.168 33.3716 56.168ZM38.3641 56V45.92H40.1561V51.87L42.6201 49.056H44.7481L41.9061 52.22L45.2101 56H42.9701L40.1561 52.514V56H38.3641ZM48.8493 56.168C48.2333 56.168 47.692 56.07 47.2253 55.874C46.7587 55.6687 46.3853 55.3887 46.1053 55.034C45.8253 54.6793 45.6573 54.2687 45.6013 53.802H47.4073C47.4633 54.0727 47.6127 54.306 47.8553 54.502C48.1073 54.6887 48.4293 54.782 48.8213 54.782C49.2133 54.782 49.498 54.7027 49.6753 54.544C49.862 54.3853 49.9553 54.2033 49.9553 53.998C49.9553 53.6993 49.8247 53.4987 49.5633 53.396C49.302 53.284 48.938 53.1767 48.4713 53.074C48.1727 53.0087 47.8693 52.9293 47.5613 52.836C47.2533 52.7427 46.9687 52.626 46.7073 52.486C46.4553 52.3367 46.25 52.15 46.0913 51.926C45.9327 51.6927 45.8533 51.408 45.8533 51.072C45.8533 50.456 46.096 49.938 46.5813 49.518C47.076 49.098 47.7667 48.888 48.6533 48.888C49.4747 48.888 50.128 49.0793 50.6133 49.462C51.108 49.8447 51.402 50.372 51.4953 51.044H49.8013C49.6987 50.5307 49.3113 50.274 48.6393 50.274C48.3033 50.274 48.042 50.3393 47.8553 50.47C47.678 50.6007 47.5893 50.764 47.5893 50.96C47.5893 51.1653 47.7247 51.3287 47.9953 51.45C48.266 51.5713 48.6253 51.6833 49.0733 51.786C49.5587 51.898 50.002 52.024 50.4033 52.164C50.814 52.2947 51.1407 52.4953 51.3833 52.766C51.626 53.0273 51.7473 53.4053 51.7473 53.9C51.7567 54.3293 51.6447 54.7167 51.4113 55.062C51.178 55.4073 50.842 55.678 50.4033 55.874C49.9647 56.07 49.4467 56.168 48.8493 56.168ZM56.2101 56C55.4821 56 54.8987 55.8227 54.4601 55.468C54.0214 55.1133 53.8021 54.4833 53.8021 53.578V50.554H52.6121V49.056H53.8021L54.0121 47.194H55.5941V49.056H57.4701V50.554H55.5941V53.592C55.5941 53.928 55.6641 54.1613 55.8041 54.292C55.9534 54.4133 56.2054 54.474 56.5601 54.474H57.4281V56H56.2101ZM61.4026 56.168C60.8053 56.168 60.3153 56.0747 59.9326 55.888C59.55 55.692 59.2653 55.4353 59.0786 55.118C58.892 54.8007 58.7986 54.4507 58.7986 54.068C58.7986 53.424 59.0506 52.9013 59.5546 52.5C60.0586 52.0987 60.8146 51.898 61.8226 51.898H63.5866V51.73C63.5866 51.254 63.4513 50.904 63.1806 50.68C62.91 50.456 62.574 50.344 62.1726 50.344C61.8086 50.344 61.4913 50.4327 61.2206 50.61C60.95 50.778 60.782 51.03 60.7166 51.366H58.9666C59.0133 50.862 59.1813 50.4233 59.4706 50.05C59.7693 49.6767 60.152 49.392 60.6186 49.196C61.0853 48.9907 61.608 48.888 62.1866 48.888C63.176 48.888 63.9553 49.1353 64.5246 49.63C65.094 50.1247 65.3786 50.8247 65.3786 51.73V56H63.8526L63.6846 54.88C63.4793 55.2533 63.19 55.5613 62.8166 55.804C62.4526 56.0467 61.9813 56.168 61.4026 56.168ZM61.8086 54.768C62.322 54.768 62.7186 54.6 62.9986 54.264C63.288 53.928 63.47 53.5127 63.5446 53.018H62.0186C61.5426 53.018 61.202 53.1067 60.9966 53.284C60.7913 53.452 60.6886 53.662 60.6886 53.914C60.6886 54.1847 60.7913 54.3947 60.9966 54.544C61.202 54.6933 61.4726 54.768 61.8086 54.768ZM67.0887 56V49.056H68.6847L68.8527 50.358C69.1047 49.91 69.4454 49.5553 69.8747 49.294C70.3134 49.0233 70.8267 48.888 71.4147 48.888V50.778H70.9107C70.5187 50.778 70.1687 50.8387 69.8607 50.96C69.5527 51.0813 69.31 51.2913 69.1327 51.59C68.9647 51.8887 68.8807 52.304 68.8807 52.836V56H67.0887Z" fill="white"/>
<defs>
<linearGradient id="paint0_linear_27_67" x1="42" y1="0" x2="42" y2="84" gradientUnits="userSpaceOnUse">
<stop stop-color="#F9472F"/>
<stop offset="1" stop-color="#AE3221"/>
</linearGradient>
<linearGradient id="paint1_linear_27_67" x1="42" y1="0" x2="42" y2="84" gradientUnits="userSpaceOnUse">
<stop stop-color="#F9472F"/>
<stop offset="1" stop-color="#AE3221"/>
</linearGradient>
</defs>
</svg>
