<svg width="33" height="32" viewBox="0 0 33 32" fill="none" xmlns="http://www.w3.org/2000/svg">
<path d="M16.5002 19.9999L12.5002 15.9999M16.5002 19.9999C18.3626 19.2916 20.1493 18.3982 21.8335 17.3333M16.5002 19.9999V26.6666C16.5002 26.6666 20.5402 25.9333 21.8335 23.9999C23.2735 21.8399 21.8335 17.3333 21.8335 17.3333M12.5002 15.9999C13.2097 14.1592 14.1031 12.3947 15.1668 10.7333C16.7204 8.24924 18.8837 6.20399 21.4508 4.79205C24.018 3.3801 26.9037 2.64842 29.8335 2.66659C29.8335 6.29326 28.7935 12.6666 21.8335 17.3333M12.5002 15.9999L5.8335 15.9999C5.8335 15.9999 6.56683 11.9599 8.50016 10.6666C10.6602 9.22661 15.1668 10.6666 15.1668 10.6666M6.50016 22C4.50016 23.68 3.8335 28.6667 3.8335 28.6667C3.8335 28.6667 8.82016 28 10.5002 26C11.4468 24.88 11.4335 23.16 10.3802 22.12C9.8619 21.6254 9.17922 21.3395 8.46313 21.3174C7.74704 21.2952 7.048 21.5383 6.50016 22Z" stroke="#7A8699" stroke-width="2" stroke-linecap="round" stroke-linejoin="round"/>
</svg>
