<svg width="74" height="74" viewBox="0 0 74 74" fill="none" xmlns="http://www.w3.org/2000/svg">
<path d="M20.3326 50.6364C20.3326 51.9759 20.8647 53.2605 21.8118 54.2076C22.759 55.1548 24.0436 55.6869 25.3831 55.6869H55.6861L65.7871 65.7879V25.3839C65.7871 24.0444 65.255 22.7598 64.3079 21.8126C63.3607 20.8655 62.0761 20.3334 60.7366 20.3334H25.3831C24.0436 20.3334 22.759 20.8655 21.8118 21.8126C20.8647 22.7598 20.3326 24.0444 20.3326 25.3839V50.6364Z" fill="#CBA3FF"/>
<path d="M53.6674 38.5153C53.6674 39.8548 53.1353 41.1394 52.1882 42.0866C51.241 43.0337 49.9564 43.5658 48.6169 43.5658H18.3139L8.21289 53.6668V13.2628C8.21289 11.9233 8.745 10.6387 9.69215 9.69154C10.6393 8.74439 11.9239 8.21228 13.2634 8.21228H48.6169C49.9564 8.21228 51.241 8.74439 52.1882 9.69154C53.1353 10.6387 53.6674 11.9233 53.6674 13.2628V38.5153Z" fill="#F1E6FF"/>
</svg>
