<svg width="20" height="20" viewBox="0 0 20 20" fill="none" xmlns="http://www.w3.org/2000/svg">
<path d="M13.3335 3.33325C13.7935 3.33325 14.1668 3.70659 14.1668 4.16659V7.66658L18.511 4.62492C18.6993 4.49325 18.9593 4.53909 19.0918 4.72825C19.1402 4.79825 19.1668 4.88159 19.1668 4.96659V15.0333C19.1668 15.2633 18.9802 15.4499 18.7502 15.4499C18.6643 15.4499 18.581 15.4233 18.511 15.3749L14.1668 12.3333V15.8333C14.1668 16.2933 13.7935 16.6666 13.3335 16.6666H1.66683C1.20683 16.6666 0.833496 16.2933 0.833496 15.8333V4.16659C0.833496 3.70659 1.20683 3.33325 1.66683 3.33325H13.3335ZM12.5002 4.99992H2.50016V14.9999H12.5002V4.99992ZM6.66683 6.66659H8.3335V9.16658H10.8335V10.8333H8.33266L8.3335 13.3333H6.66683L6.666 10.8333H4.16683V9.16658H6.66683V6.66659ZM17.5002 7.36742L14.1668 9.70075V10.2991L17.5002 12.6324V7.36742Z" fill="#505F79"/>
</svg>
